<svg xmlns="http://www.w3.org/2000/svg" viewBox="0 0 424 525"><defs><style>.cls-1{fill:#cf74b9;}.cls-2{fill:#f2f742;}.cls-3{fill:#bcddd2;}</style></defs><title>case</title><g id="Camada_2" data-name="Camada 2"><g id="Camada_1-2" data-name="Camada 1"><path class="cls-1" d="M265.6,45.84C256.74,18.9,236.08,0,212,0s-44.74,18.9-53.6,45.84C67.27,76.53,0,183.61,0,311c0,69.87,20.25,133.62,53.56,182,49,20.45,104.59,32,163.44,32a427.88,427.88,0,0,0,149.58-26.5c35.6-49,57.42-115,57.42-187.5C424,183.61,356.73,76.53,265.6,45.84ZM212,22c12.95,0,24.53,7.06,32.24,18.15a166.56,166.56,0,0,0-64.48,0C187.47,29.06,199.05,22,212,22Z"/><path class="cls-2" d="M423.61,294.43c-17.56-4.73-25.72-24.6-35.76-37.57a150.16,150.16,0,0,0-21.84-23c-3.12-2.64-8.93-5.64-10.36-9.57-1.7-4.66,2.34-10.39,4.55-14.3,5.64-10,10-20.5,12-31.73,1.71-9.77.68-19.21-8.28-25.34-3.72-2.54-8-4.1-12-6.23a66,66,0,0,1-13-9.14c-7.15-6.46-11.74-16.72-21.16-20.4-10.1-4-20.79.36-30.8,2.34a119.46,119.46,0,0,1-34.39,1.57,116.35,116.35,0,0,1-33.51-8.37c-10-4.19-19.72-10-31.08-9.7-10.4.31-19.69,5.07-28.6,9.79-10.06,5.33-20.26,9.6-31.78,11a82,82,0,0,1-16.28.25c-5.5-.45-10.9-2.35-16.41-2.47-11.79-.27-14.64,9-15.9,18.45-1.77,13.15-.92,26.38-1.07,39.58A132.42,132.42,0,0,1,72.22,217c-1.37,4.51-3,8.93-4.71,13.3C65.39,233.67,23.74,269.6.94,285.17q-.63,8.71-.83,17.6a7,7,0,0,0,1.49.17,168.55,168.55,0,0,0,40.74-4.38,6.59,6.59,0,0,0,.82.29,27,27,0,0,1,17.19,14.3c4.17,8.75,1.37,18.16-.15,27.17-3.06,18.16-2.58,38.15,11.42,52.23,13.12,13.19,31,11.94,47.22,5.43,15.85-6.34,31.12-14.28,48.21-6.71a40.46,40.46,0,0,1,17.89,15.59c4.24,6.65,8.9,13.34,17.46,14.84s16.27-2.94,22.89-7.69c7-5,13.34-9.93,22.06-11.81,17.78-3.86,36.79,3,52.85,9.76,8.51,3.59,17.94,5.83,25.19-1.42,5.89-5.88,7.3-14.71,9.82-22.19,6.59-19.54,16.47-37.82,27-55.67,4.5-3.12,9.06-6.18,13.86-8.86,14.13-7.88,30.19-10.37,46.25-11.59a5,5,0,0,0,1.71-.44c0-.26,0-.53,0-.79C424,305.44,423.86,299.91,423.61,294.43Z"/><rect class="cls-3" x="92.5" y="141" width="239" height="239" rx="12"/></g></g></svg>