<svg xmlns="http://www.w3.org/2000/svg" viewBox="0 0 1000 1000"><defs><style>.cls-1{fill:#f9b2dd;}.cls-2{fill:#ed1e79;}.cls-3{fill:#fcdeec;}.cls-4{fill:#fcd4e8;}.cls-5{fill:#f4bde0;}.cls-6{fill:aqua;}.cls-7{fill:#fff;}.cls-8{fill:lime;}.cls-9{fill:blue;}.cls-10{fill:#00eae4;}.cls-11{fill:#ff0;}.cls-12{fill:#93278f;}</style></defs><title>uni-3</title><g id="Bolado"><rect x="763.5" y="823.5" width="20" height="20"/><rect x="763.5" y="804.5" width="20" height="19"/><rect x="763.5" y="784.5" width="20" height="20"/><rect x="744.5" y="843.5" width="19" height="19"/><rect class="cls-1" x="744.5" y="823.5" width="19" height="20"/><rect class="cls-1" x="744.5" y="804.5" width="19" height="19"/><rect class="cls-1" x="744.5" y="784.5" width="19" height="20"/><rect x="744.5" y="764.5" width="19" height="20"/><rect x="724.5" y="862.5" width="20" height="20"/><rect class="cls-1" x="724.5" y="843.5" width="20" height="19"/><rect class="cls-2" x="724.5" y="823.5" width="20" height="20"/><rect class="cls-2" x="724.5" y="804.5" width="20" height="19"/><rect class="cls-2" x="724.5" y="784.5" width="20" height="20"/><rect class="cls-1" x="724.5" y="764.5" width="20" height="20"/><rect x="724.5" y="745.5" width="20" height="19"/><rect x="704.5" y="862.5" width="20" height="20"/><rect class="cls-1" x="704.5" y="843.5" width="20" height="19"/><rect class="cls-2" x="704.5" y="823.5" width="20" height="20"/><rect class="cls-2" x="704.5" y="804.5" width="20" height="19"/><rect class="cls-2" x="704.5" y="784.5" width="20" height="20"/><rect class="cls-1" x="704.5" y="764.5" width="20" height="20"/><rect x="704.5" y="745.5" width="20" height="19"/><rect x="704.5" y="725.5" width="20" height="20"/><rect x="704.5" y="705.5" width="20" height="20"/><rect x="704.5" y="686.5" width="20" height="19"/><rect x="685.5" y="862.5" width="19" height="20"/><rect class="cls-1" x="685.5" y="843.5" width="19" height="19"/><rect class="cls-2" x="685.5" y="823.5" width="19" height="20"/><rect class="cls-2" x="685.5" y="804.5" width="19" height="19"/><rect class="cls-2" x="685.5" y="784.5" width="19" height="20"/><rect class="cls-1" x="685.5" y="764.5" width="19" height="20"/><rect x="685.5" y="745.5" width="19" height="19"/><rect class="cls-1" x="685.5" y="725.5" width="19" height="20"/><rect class="cls-1" x="685.5" y="705.5" width="19" height="20"/><rect class="cls-1" x="685.5" y="686.5" width="19" height="19"/><rect x="685.5" y="666.5" width="19" height="20"/><rect x="685.5" y="647.5" width="19" height="19"/><rect x="685.5" y="509.5" width="19" height="20"/><rect x="685.5" y="490.5" width="19" height="19"/><rect x="685.5" y="470.5" width="19" height="20"/><rect x="685.5" y="451.5" width="19" height="19"/><rect x="665.5" y="843.5" width="20" height="19"/><rect class="cls-3" x="665.5" y="823.5" width="20" height="20"/><rect class="cls-3" x="665.5" y="804.5" width="20" height="19"/><rect class="cls-3" x="665.5" y="784.5" width="20" height="20"/><rect x="665.5" y="764.5" width="20" height="20"/><rect class="cls-4" x="665.5" y="745.5" width="20" height="19"/><rect class="cls-3" x="665.5" y="725.5" width="20" height="20"/><rect class="cls-3" x="665.5" y="705.5" width="20" height="20"/><rect class="cls-3" x="665.5" y="686.5" width="20" height="19"/><rect class="cls-1" x="665.5" y="666.5" width="20" height="20"/><rect class="cls-1" x="665.5" y="647.5" width="20" height="19"/><rect x="665.5" y="627.5" width="20" height="20"/><rect x="665.5" y="607.5" width="20" height="20"/><rect x="665.5" y="588.5" width="20" height="19"/><rect x="665.5" y="549.5" width="20" height="19"/><rect x="665.5" y="529.5" width="20" height="20"/><rect class="cls-1" x="665.5" y="509.5" width="20" height="20"/><rect class="cls-1" x="665.5" y="490.5" width="20" height="19"/><rect class="cls-1" x="665.5" y="470.5" width="20" height="20"/><rect class="cls-1" x="665.5" y="451.5" width="20" height="19"/><rect x="665.5" y="431.5" width="20" height="20"/><rect x="665.5" y="411.5" width="20" height="20"/><rect x="665.5" y="392.5" width="20" height="19"/><rect x="665.5" y="294.5" width="20" height="19"/><rect x="665.5" y="274.5" width="20" height="20"/><rect x="665.5" y="254.5" width="20" height="20"/><rect x="665.5" y="235.5" width="20" height="19"/><rect x="665.5" y="215.5" width="20" height="20"/><rect x="665.5" y="196.5" width="20" height="19"/><rect x="646.5" y="823.5" width="19" height="20"/><rect x="646.5" y="804.5" width="19" height="19"/><rect x="646.5" y="784.5" width="19" height="20"/><rect class="cls-3" x="646.5" y="764.5" width="19" height="20"/><rect class="cls-3" x="646.5" y="745.5" width="19" height="19"/><rect x="646.5" y="725.5" width="19" height="20"/><rect x="646.5" y="705.5" width="19" height="20"/><rect x="646.5" y="686.5" width="19" height="19"/><rect class="cls-3" x="646.5" y="666.5" width="19" height="20"/><rect class="cls-1" x="646.5" y="647.5" width="19" height="19"/><rect class="cls-1" x="646.5" y="627.5" width="19" height="20"/><rect class="cls-1" x="646.5" y="607.5" width="19" height="20"/><rect class="cls-1" x="646.5" y="588.5" width="19" height="19"/><rect x="646.5" y="568.5" width="19" height="20"/><rect class="cls-1" x="646.5" y="549.5" width="19" height="19"/><rect class="cls-1" x="646.5" y="529.5" width="19" height="20"/><rect class="cls-3" x="646.5" y="509.5" width="19" height="20"/><rect class="cls-3" x="646.5" y="490.5" width="19" height="19"/><rect class="cls-3" x="646.5" y="470.5" width="19" height="20"/><rect class="cls-3" x="646.5" y="451.5" width="19" height="19"/><rect class="cls-1" x="646.5" y="431.5" width="19" height="20"/><rect class="cls-1" x="646.5" y="411.5" width="19" height="20"/><rect class="cls-1" x="646.5" y="392.5" width="19" height="19"/><rect x="646.5" y="372.5" width="19" height="20"/><rect x="646.5" y="313.5" width="19" height="20"/><rect class="cls-1" x="646.5" y="294.5" width="19" height="19"/><rect class="cls-1" x="646.5" y="274.5" width="19" height="20"/><rect class="cls-1" x="646.5" y="254.5" width="19" height="20"/><rect x="646.5" y="235.5" width="19" height="19"/><rect class="cls-1" x="646.5" y="215.5" width="19" height="20"/><rect class="cls-1" x="646.5" y="196.5" width="19" height="19"/><rect x="646.5" y="176.5" width="19" height="20"/><rect x="626.5" y="823.5" width="20" height="20"/><rect class="cls-3" x="626.5" y="804.5" width="20" height="19"/><rect x="626.5" y="784.5" width="20" height="20"/><rect x="626.5" y="764.5" width="20" height="20"/><rect x="626.5" y="745.5" width="20" height="19"/><rect class="cls-3" x="626.5" y="725.5" width="20" height="20"/><rect class="cls-3" x="626.5" y="705.5" width="20" height="20"/><rect class="cls-3" x="626.5" y="686.5" width="20" height="19"/><rect class="cls-3" x="626.5" y="666.5" width="20" height="20"/><rect class="cls-4" x="626.5" y="647.5" width="20" height="19"/><rect class="cls-4" x="626.5" y="627.5" width="20" height="20"/><rect class="cls-4" x="626.5" y="607.5" width="20" height="20"/><rect class="cls-5" x="626.5" y="588.5" width="20" height="19"/><rect x="626.5" y="568.5" width="20" height="20"/><rect class="cls-5" x="626.5" y="549.5" width="20" height="19"/><rect class="cls-4" x="626.5" y="529.5" width="20" height="20"/><rect class="cls-3" x="626.5" y="509.5" width="20" height="20"/><rect class="cls-3" x="626.5" y="490.5" width="20" height="19"/><rect class="cls-3" x="626.5" y="470.5" width="20" height="20"/><rect class="cls-3" x="626.5" y="451.5" width="20" height="19"/><rect class="cls-4" x="626.5" y="431.5" width="20" height="20"/><rect class="cls-4" x="626.5" y="411.5" width="20" height="20"/><rect class="cls-4" x="626.5" y="392.5" width="20" height="19"/><rect class="cls-5" x="626.5" y="372.5" width="20" height="20"/><rect x="626.5" y="353.5" width="20" height="19"/><rect x="626.5" y="333.5" width="20" height="20"/><rect x="626.5" y="313.5" width="20" height="20"/><rect class="cls-5" x="626.5" y="294.5" width="20" height="19"/><rect x="626.5" y="274.5" width="20" height="20"/><rect x="626.5" y="254.5" width="20" height="20"/><rect class="cls-5" x="626.5" y="235.5" width="20" height="19"/><rect class="cls-5" x="626.5" y="215.5" width="20" height="20"/><rect class="cls-1" x="626.5" y="196.5" width="20" height="19"/><rect class="cls-1" x="626.5" y="176.5" width="20" height="20"/><rect x="626.5" y="156.5" width="20" height="20"/><rect x="606.5" y="843.5" width="20" height="19"/><rect x="606.5" y="823.5" width="20" height="20"/><rect x="606.5" y="804.5" width="20" height="19"/><rect x="606.5" y="784.5" width="20" height="20"/><rect class="cls-3" x="606.5" y="764.5" width="20" height="20"/><rect class="cls-3" x="606.5" y="745.5" width="20" height="19"/><rect class="cls-3" x="606.5" y="725.5" width="20" height="20"/><rect class="cls-3" x="606.5" y="705.5" width="20" height="20"/><rect class="cls-3" x="606.5" y="686.5" width="20" height="19"/><rect class="cls-3" x="606.5" y="666.5" width="20" height="20"/><rect class="cls-3" x="606.5" y="647.5" width="20" height="19"/><rect class="cls-3" x="606.5" y="627.5" width="20" height="20"/><rect class="cls-3" x="606.5" y="607.5" width="20" height="20"/><rect x="606.5" y="588.5" width="20" height="19"/><rect class="cls-4" x="606.5" y="568.5" width="20" height="20"/><rect class="cls-4" x="606.5" y="549.5" width="20" height="19"/><rect class="cls-3" x="606.5" y="529.5" width="20" height="20"/><rect class="cls-3" x="606.5" y="509.5" width="20" height="20"/><rect class="cls-3" x="606.5" y="490.5" width="20" height="19"/><rect class="cls-3" x="606.5" y="470.5" width="20" height="20"/><rect class="cls-3" x="606.5" y="451.5" width="20" height="19"/><rect class="cls-3" x="606.5" y="431.5" width="20" height="20"/><rect class="cls-3" x="606.5" y="411.5" width="20" height="20"/><rect class="cls-3" x="606.5" y="392.5" width="20" height="19"/><rect class="cls-4" x="606.5" y="372.5" width="20" height="20"/><rect class="cls-5" x="606.5" y="353.5" width="20" height="19"/><rect class="cls-5" x="606.5" y="333.5" width="20" height="20"/><rect x="606.5" y="313.5" width="20" height="20"/><rect class="cls-3" x="606.5" y="294.5" width="20" height="19"/><rect class="cls-3" x="606.5" y="274.5" width="20" height="20"/><rect class="cls-3" x="606.5" y="254.5" width="20" height="20"/><rect class="cls-3" x="606.5" y="235.5" width="20" height="19"/><rect x="606.5" y="215.5" width="20" height="20"/><rect x="606.5" y="196.5" width="20" height="19"/><rect x="606.5" y="176.5" width="20" height="20"/><rect x="587.5" y="862.5" width="19" height="20"/><rect class="cls-6" x="587.5" y="843.5" width="19" height="19"/><rect x="587.5" y="823.5" width="19" height="20"/><rect class="cls-3" x="587.5" y="804.5" width="19" height="19"/><rect class="cls-3" x="587.5" y="784.5" width="19" height="20"/><rect class="cls-3" x="587.5" y="764.5" width="19" height="20"/><rect class="cls-3" x="587.5" y="745.5" width="19" height="19"/><rect class="cls-3" x="587.5" y="725.5" width="19" height="20"/><rect class="cls-3" x="587.5" y="705.5" width="19" height="20"/><rect class="cls-3" x="587.5" y="686.5" width="19" height="19"/><rect class="cls-3" x="587.5" y="666.5" width="19" height="20"/><rect class="cls-3" x="587.5" y="647.5" width="19" height="19"/><rect class="cls-3" x="587.5" y="627.5" width="19" height="20"/><rect class="cls-3" x="587.5" y="607.5" width="19" height="20"/><rect x="587.5" y="588.5" width="19" height="19"/><rect class="cls-3" x="587.5" y="568.5" width="19" height="20"/><rect class="cls-3" x="587.5" y="549.5" width="19" height="19"/><rect class="cls-3" x="587.5" y="529.5" width="19" height="20"/><rect class="cls-3" x="587.5" y="509.5" width="19" height="20"/><rect class="cls-3" x="587.5" y="490.5" width="19" height="19"/><rect class="cls-3" x="587.5" y="470.5" width="19" height="20"/><rect class="cls-3" x="587.5" y="451.5" width="19" height="19"/><rect x="587.5" y="431.5" width="19" height="20"/><rect x="587.5" y="411.5" width="19" height="20"/><rect x="587.5" y="392.5" width="19" height="19"/><rect x="587.5" y="372.5" width="19" height="20"/><rect class="cls-3" x="587.5" y="353.5" width="19" height="19"/><rect class="cls-3" x="587.5" y="333.5" width="19" height="20"/><rect class="cls-3" x="587.5" y="313.5" width="19" height="20"/><rect class="cls-3" x="587.5" y="294.5" width="19" height="19"/><rect class="cls-3" x="587.5" y="274.5" width="19" height="20"/><rect class="cls-3" x="587.5" y="254.5" width="19" height="20"/><rect x="587.5" y="235.5" width="19" height="19"/><rect x="567.5" y="862.5" width="20" height="20"/><rect class="cls-6" x="567.5" y="843.5" width="20" height="19"/><rect x="567.5" y="823.5" width="20" height="20"/><rect class="cls-3" x="567.5" y="804.5" width="20" height="19"/><rect class="cls-3" x="567.5" y="784.5" width="20" height="20"/><rect class="cls-3" x="567.5" y="764.5" width="20" height="20"/><rect class="cls-3" x="567.5" y="745.5" width="20" height="19"/><rect class="cls-3" x="567.5" y="725.5" width="20" height="20"/><rect class="cls-3" x="567.5" y="705.5" width="20" height="20"/><rect class="cls-3" x="567.5" y="686.5" width="20" height="19"/><rect class="cls-3" x="567.5" y="666.5" width="20" height="20"/><rect class="cls-3" x="567.5" y="647.5" width="20" height="19"/><rect class="cls-3" x="567.5" y="627.5" width="20" height="20"/><rect x="567.5" y="607.5" width="20" height="20"/><rect class="cls-3" x="567.5" y="588.5" width="20" height="19"/><rect class="cls-3" x="567.5" y="568.5" width="20" height="20"/><rect x="567.5" y="549.5" width="20" height="19"/><rect class="cls-3" x="567.5" y="529.5" width="20" height="20"/><rect class="cls-3" x="567.5" y="509.5" width="20" height="20"/><rect class="cls-3" x="567.5" y="490.5" width="20" height="19"/><rect class="cls-3" x="567.5" y="470.5" width="20" height="20"/><rect class="cls-3" x="567.5" y="451.5" width="20" height="19"/><rect x="567.5" y="431.5" width="20" height="20"/><rect class="cls-7" x="567.5" y="411.5" width="20" height="20"/><rect x="567.5" y="392.5" width="20" height="19"/><rect x="567.5" y="372.5" width="20" height="20"/><rect class="cls-3" x="567.5" y="353.5" width="20" height="19"/><rect class="cls-3" x="567.5" y="333.5" width="20" height="20"/><rect x="567.5" y="313.5" width="20" height="20"/><rect x="567.5" y="294.5" width="20" height="19"/><rect x="567.5" y="274.5" width="20" height="20"/><rect x="567.5" y="254.5" width="20" height="20"/><rect x="548.5" y="862.5" width="19" height="20"/><rect class="cls-6" x="548.5" y="843.5" width="19" height="19"/><rect x="548.5" y="823.5" width="19" height="20"/><rect class="cls-3" x="548.5" y="804.5" width="19" height="19"/><rect class="cls-3" x="548.5" y="784.5" width="19" height="20"/><rect class="cls-3" x="548.5" y="764.5" width="19" height="20"/><rect class="cls-3" x="548.5" y="745.5" width="19" height="19"/><rect class="cls-3" x="548.5" y="725.5" width="19" height="20"/><rect class="cls-3" x="548.5" y="705.5" width="19" height="20"/><rect class="cls-3" x="548.5" y="686.5" width="19" height="19"/><rect class="cls-3" x="548.5" y="666.5" width="19" height="20"/><rect class="cls-3" x="548.5" y="647.5" width="19" height="19"/><rect class="cls-3" x="548.5" y="627.5" width="19" height="20"/><rect x="548.5" y="607.5" width="19" height="20"/><rect class="cls-3" x="548.5" y="588.5" width="19" height="19"/><rect class="cls-3" x="548.5" y="568.5" width="19" height="20"/><rect x="548.5" y="549.5" width="19" height="19"/><rect class="cls-3" x="548.5" y="529.5" width="19" height="20"/><rect x="548.5" y="509.5" width="19" height="20"/><rect class="cls-3" x="548.5" y="490.5" width="19" height="19"/><rect class="cls-3" x="548.5" y="470.5" width="19" height="20"/><rect class="cls-3" x="548.5" y="451.5" width="19" height="19"/><rect class="cls-3" x="548.5" y="431.5" width="19" height="20"/><rect class="cls-3" x="548.5" y="411.5" width="19" height="20"/><rect class="cls-3" x="548.5" y="392.5" width="19" height="19"/><rect class="cls-3" x="548.5" y="372.5" width="19" height="20"/><rect class="cls-3" x="548.5" y="353.5" width="19" height="19"/><rect x="548.5" y="333.5" width="19" height="20"/><rect class="cls-8" x="548.5" y="313.5" width="19" height="20"/><rect class="cls-9" x="548.5" y="294.5" width="19" height="19"/><rect class="cls-9" x="548.5" y="274.5" width="19" height="20"/><rect x="548.5" y="254.5" width="19" height="20"/><rect x="548.5" y="235.5" width="19" height="19"/><rect x="548.5" y="215.5" width="19" height="20"/><rect x="528.5" y="862.5" width="20" height="20"/><rect x="528.5" y="843.5" width="20" height="19"/><rect x="528.5" y="823.5" width="20" height="20"/><rect x="528.5" y="804.5" width="20" height="19"/><rect x="528.5" y="784.5" width="20" height="20"/><rect x="528.5" y="764.5" width="20" height="20"/><rect x="528.5" y="745.5" width="20" height="19"/><rect x="528.5" y="725.5" width="20" height="20"/><rect x="528.5" y="705.5" width="20" height="20"/><rect class="cls-3" x="528.5" y="686.5" width="20" height="19"/><rect class="cls-3" x="528.5" y="666.5" width="20" height="20"/><rect class="cls-3" x="528.5" y="647.5" width="20" height="19"/><rect class="cls-3" x="528.5" y="627.5" width="20" height="20"/><rect x="528.5" y="607.5" width="20" height="20"/><rect class="cls-3" x="528.5" y="588.5" width="20" height="19"/><rect class="cls-3" x="528.5" y="568.5" width="20" height="20"/><rect x="528.5" y="549.5" width="20" height="19"/><rect class="cls-3" x="528.5" y="529.5" width="20" height="20"/><rect class="cls-3" x="528.5" y="509.5" width="20" height="20"/><rect class="cls-3" x="528.5" y="490.5" width="20" height="19"/><rect class="cls-3" x="528.5" y="470.5" width="20" height="20"/><rect class="cls-3" x="528.5" y="451.5" width="20" height="19"/><rect class="cls-3" x="528.5" y="431.5" width="20" height="20"/><rect class="cls-3" x="528.5" y="411.5" width="20" height="20"/><rect class="cls-3" x="528.5" y="392.5" width="20" height="19"/><rect class="cls-3" x="528.5" y="372.5" width="20" height="20"/><rect x="528.5" y="353.5" width="20" height="19"/><rect class="cls-8" x="528.5" y="333.5" width="20" height="20"/><rect class="cls-9" x="528.5" y="313.5" width="20" height="20"/><rect class="cls-2" x="528.5" y="294.5" width="20" height="19"/><rect x="528.5" y="274.5" width="20" height="20"/><rect class="cls-10" x="528.5" y="254.5" width="20" height="20"/><rect class="cls-10" x="528.5" y="235.5" width="20" height="19"/><rect x="528.5" y="215.5" width="20" height="20"/><rect x="528.5" y="196.5" width="20" height="19"/><rect x="508.5" y="862.5" width="20" height="20"/><rect x="508.5" y="843.5" width="20" height="19"/><rect x="508.5" y="823.5" width="20" height="20"/><rect x="508.5" y="804.5" width="20" height="19"/><rect x="508.5" y="784.5" width="20" height="20"/><rect x="508.5" y="764.5" width="20" height="20"/><rect x="508.5" y="745.5" width="20" height="19"/><rect x="508.5" y="725.5" width="20" height="20"/><rect x="508.5" y="705.5" width="20" height="20"/><rect class="cls-3" x="508.5" y="686.5" width="20" height="19"/><rect class="cls-3" x="508.5" y="666.5" width="20" height="20"/><rect class="cls-3" x="508.5" y="647.5" width="20" height="19"/><rect class="cls-3" x="508.5" y="627.5" width="20" height="20"/><rect x="508.5" y="607.5" width="20" height="20"/><rect class="cls-3" x="508.5" y="588.5" width="20" height="19"/><rect class="cls-3" x="508.5" y="568.5" width="20" height="20"/><rect x="508.5" y="549.5" width="20" height="19"/><rect class="cls-3" x="508.5" y="529.5" width="20" height="20"/><rect class="cls-3" x="508.5" y="509.5" width="20" height="20"/><rect class="cls-3" x="508.5" y="490.5" width="20" height="19"/><rect class="cls-3" x="508.5" y="470.5" width="20" height="20"/><rect class="cls-3" x="508.5" y="451.5" width="20" height="19"/><rect class="cls-3" x="508.5" y="431.5" width="20" height="20"/><rect class="cls-3" x="508.5" y="411.5" width="20" height="20"/><rect class="cls-3" x="508.5" y="392.5" width="20" height="19"/><rect x="508.5" y="372.5" width="20" height="20"/><rect class="cls-8" x="508.5" y="353.5" width="20" height="19"/><rect class="cls-9" x="508.5" y="333.5" width="20" height="20"/><rect class="cls-2" x="508.5" y="313.5" width="20" height="20"/><rect class="cls-2" x="508.5" y="294.5" width="20" height="19"/><rect x="508.5" y="274.5" width="20" height="20"/><rect class="cls-6" x="508.5" y="254.5" width="20" height="20"/><rect class="cls-6" x="508.5" y="235.5" width="20" height="19"/><rect class="cls-10" x="508.5" y="215.5" width="20" height="20"/><rect class="cls-10" x="508.5" y="196.5" width="20" height="19"/><rect x="508.5" y="176.5" width="20" height="20"/><rect x="508.5" y="156.5" width="20" height="20"/><rect x="508.5" y="137.5" width="20" height="19"/><rect x="489.5" y="862.5" width="19" height="20"/><rect class="cls-6" x="489.5" y="843.5" width="19" height="19"/><rect x="489.5" y="823.5" width="19" height="20"/><rect class="cls-3" x="489.5" y="804.5" width="19" height="19"/><rect class="cls-3" x="489.5" y="784.5" width="19" height="20"/><rect class="cls-3" x="489.5" y="764.5" width="19" height="20"/><rect class="cls-3" x="489.5" y="745.5" width="19" height="19"/><rect class="cls-3" x="489.5" y="725.5" width="19" height="20"/><rect class="cls-3" x="489.5" y="705.5" width="19" height="20"/><rect class="cls-3" x="489.5" y="686.5" width="19" height="19"/><rect class="cls-3" x="489.5" y="666.5" width="19" height="20"/><rect class="cls-3" x="489.5" y="647.5" width="19" height="19"/><rect class="cls-3" x="489.5" y="627.5" width="19" height="20"/><rect x="489.5" y="607.5" width="19" height="20"/><rect class="cls-3" x="489.5" y="588.5" width="19" height="19"/><rect class="cls-3" x="489.5" y="568.5" width="19" height="20"/><rect x="489.5" y="549.5" width="19" height="19"/><rect class="cls-3" x="489.5" y="529.5" width="19" height="20"/><rect x="489.5" y="509.5" width="19" height="20"/><rect class="cls-3" x="489.5" y="490.5" width="19" height="19"/><rect class="cls-3" x="489.5" y="470.5" width="19" height="20"/><rect class="cls-3" x="489.5" y="451.5" width="19" height="19"/><rect class="cls-3" x="489.5" y="431.5" width="19" height="20"/><rect class="cls-3" x="489.5" y="411.5" width="19" height="20"/><rect x="489.5" y="392.5" width="19" height="19"/><rect class="cls-8" x="489.5" y="372.5" width="19" height="20"/><rect class="cls-9" x="489.5" y="353.5" width="19" height="19"/><rect class="cls-2" x="489.5" y="333.5" width="19" height="20"/><rect class="cls-2" x="489.5" y="313.5" width="19" height="20"/><rect class="cls-11" x="489.5" y="294.5" width="19" height="19"/><rect x="489.5" y="274.5" width="19" height="20"/><rect class="cls-6" x="489.5" y="254.5" width="19" height="20"/><rect class="cls-6" x="489.5" y="235.5" width="19" height="19"/><rect class="cls-6" x="489.5" y="215.5" width="19" height="20"/><rect class="cls-6" x="489.5" y="196.5" width="19" height="19"/><rect class="cls-10" x="489.5" y="176.5" width="19" height="20"/><rect class="cls-10" x="489.5" y="156.5" width="19" height="20"/><rect class="cls-10" x="489.5" y="137.5" width="19" height="19"/><rect x="489.5" y="117.5" width="19" height="20"/><rect x="469.5" y="862.5" width="20" height="20"/><rect class="cls-6" x="469.5" y="843.5" width="20" height="19"/><rect x="469.5" y="823.5" width="20" height="20"/><rect class="cls-3" x="469.5" y="804.5" width="20" height="19"/><rect class="cls-3" x="469.5" y="784.5" width="20" height="20"/><rect class="cls-3" x="469.5" y="764.5" width="20" height="20"/><rect class="cls-3" x="469.5" y="745.5" width="20" height="19"/><rect class="cls-3" x="469.5" y="725.5" width="20" height="20"/><rect class="cls-3" x="469.5" y="705.5" width="20" height="20"/><rect class="cls-3" x="469.5" y="686.5" width="20" height="19"/><rect class="cls-3" x="469.5" y="666.5" width="20" height="20"/><rect class="cls-3" x="469.5" y="647.5" width="20" height="19"/><rect class="cls-3" x="469.5" y="627.5" width="20" height="20"/><rect x="469.5" y="607.5" width="20" height="20"/><rect class="cls-3" x="469.5" y="588.5" width="20" height="19"/><rect class="cls-3" x="469.5" y="568.5" width="20" height="20"/><rect x="469.5" y="549.5" width="20" height="19"/><rect class="cls-3" x="469.5" y="529.5" width="20" height="20"/><rect class="cls-3" x="469.5" y="509.5" width="20" height="20"/><rect class="cls-3" x="469.5" y="490.5" width="20" height="19"/><rect class="cls-3" x="469.5" y="470.5" width="20" height="20"/><rect class="cls-3" x="469.5" y="451.5" width="20" height="19"/><rect class="cls-3" x="469.5" y="431.5" width="20" height="20"/><rect class="cls-3" x="469.5" y="411.5" width="20" height="20"/><rect x="469.5" y="392.5" width="20" height="19"/><rect class="cls-9" x="469.5" y="372.5" width="20" height="20"/><rect class="cls-2" x="469.5" y="353.5" width="20" height="19"/><rect class="cls-2" x="469.5" y="333.5" width="20" height="20"/><rect class="cls-11" x="469.5" y="313.5" width="20" height="20"/><rect class="cls-11" x="469.5" y="294.5" width="20" height="19"/><rect x="469.5" y="274.5" width="20" height="20"/><rect class="cls-6" x="469.5" y="254.5" width="20" height="20"/><rect class="cls-6" x="469.5" y="235.5" width="20" height="19"/><rect class="cls-6" x="469.5" y="215.5" width="20" height="20"/><rect class="cls-6" x="469.5" y="196.5" width="20" height="19"/><rect class="cls-6" x="469.5" y="176.5" width="20" height="20"/><rect class="cls-6" x="469.5" y="156.5" width="20" height="20"/><rect class="cls-6" x="469.5" y="137.5" width="20" height="19"/><rect class="cls-10" x="469.5" y="117.5" width="20" height="20"/><rect x="469.5" y="98.5" width="20" height="19"/><rect x="450.5" y="862.5" width="19" height="20"/><rect class="cls-6" x="450.5" y="843.5" width="19" height="19"/><rect x="450.5" y="823.5" width="19" height="20"/><rect class="cls-3" x="450.5" y="804.5" width="19" height="19"/><rect class="cls-3" x="450.5" y="784.5" width="19" height="20"/><rect class="cls-3" x="450.5" y="764.5" width="19" height="20"/><rect class="cls-3" x="450.5" y="745.5" width="19" height="19"/><rect class="cls-3" x="450.5" y="725.5" width="19" height="20"/><rect class="cls-3" x="450.5" y="705.5" width="19" height="20"/><rect class="cls-3" x="450.5" y="686.5" width="19" height="19"/><rect class="cls-3" x="450.5" y="666.5" width="19" height="20"/><rect class="cls-3" x="450.5" y="647.5" width="19" height="19"/><rect class="cls-3" x="450.5" y="627.5" width="19" height="20"/><rect class="cls-3" x="450.5" y="607.5" width="19" height="20"/><rect x="450.5" y="588.5" width="19" height="19"/><rect class="cls-3" x="450.5" y="568.5" width="19" height="20"/><rect class="cls-3" x="450.5" y="549.5" width="19" height="19"/><rect class="cls-3" x="450.5" y="529.5" width="19" height="20"/><rect class="cls-3" x="450.5" y="509.5" width="19" height="20"/><rect class="cls-3" x="450.5" y="490.5" width="19" height="19"/><rect class="cls-3" x="450.5" y="470.5" width="19" height="20"/><rect x="450.5" y="451.5" width="19" height="19"/><rect x="450.5" y="431.5" width="19" height="20"/><rect x="450.5" y="411.5" width="19" height="20"/><rect x="450.5" y="392.5" width="19" height="19"/><rect x="450.5" y="372.5" width="19" height="20"/><rect class="cls-2" x="450.5" y="353.5" width="19" height="19"/><rect class="cls-11" x="450.5" y="333.5" width="19" height="20"/><rect class="cls-11" x="450.5" y="313.5" width="19" height="20"/><rect class="cls-11" x="450.5" y="294.5" width="19" height="19"/><rect x="450.5" y="274.5" width="19" height="20"/><rect class="cls-6" x="450.5" y="254.5" width="19" height="20"/><rect class="cls-6" x="450.5" y="235.5" width="19" height="19"/><rect class="cls-6" x="450.5" y="215.5" width="19" height="20"/><rect class="cls-6" x="450.5" y="196.5" width="19" height="19"/><rect class="cls-6" x="450.5" y="176.5" width="19" height="20"/><rect class="cls-6" x="450.5" y="156.5" width="19" height="20"/><rect class="cls-6" x="450.5" y="137.5" width="19" height="19"/><rect x="450.5" y="117.5" width="19" height="20"/><rect x="430.5" y="843.5" width="20" height="19"/><rect x="430.5" y="823.5" width="20" height="20"/><rect x="430.5" y="804.5" width="20" height="19"/><rect x="430.5" y="784.5" width="20" height="20"/><rect class="cls-3" x="430.5" y="764.5" width="20" height="20"/><rect class="cls-3" x="430.5" y="745.5" width="20" height="19"/><rect class="cls-3" x="430.5" y="725.5" width="20" height="20"/><rect class="cls-3" x="430.5" y="705.5" width="20" height="20"/><rect class="cls-3" x="430.5" y="686.5" width="20" height="19"/><rect class="cls-3" x="430.5" y="666.5" width="20" height="20"/><rect class="cls-3" x="430.5" y="647.5" width="20" height="19"/><rect class="cls-3" x="430.5" y="627.5" width="20" height="20"/><rect class="cls-3" x="430.5" y="607.5" width="20" height="20"/><rect x="430.5" y="588.5" width="20" height="19"/><rect class="cls-3" x="430.5" y="568.5" width="20" height="20"/><rect class="cls-3" x="430.5" y="549.5" width="20" height="19"/><rect class="cls-3" x="430.5" y="529.5" width="20" height="20"/><rect class="cls-3" x="430.5" y="509.5" width="20" height="20"/><rect class="cls-3" x="430.5" y="490.5" width="20" height="19"/><rect class="cls-3" x="430.5" y="470.5" width="20" height="20"/><rect x="430.5" y="451.5" width="20" height="19"/><rect class="cls-7" x="430.5" y="431.5" width="20" height="20"/><rect x="430.5" y="411.5" width="20" height="20"/><rect x="430.5" y="392.5" width="20" height="19"/><rect x="430.5" y="372.5" width="20" height="20"/><rect class="cls-11" x="430.5" y="353.5" width="20" height="19"/><rect class="cls-11" x="430.5" y="333.5" width="20" height="20"/><rect class="cls-11" x="430.5" y="313.5" width="20" height="20"/><rect class="cls-12" x="430.5" y="294.5" width="20" height="19"/><rect x="430.5" y="274.5" width="20" height="20"/><rect class="cls-6" x="430.5" y="254.5" width="20" height="20"/><rect class="cls-6" x="430.5" y="235.5" width="20" height="19"/><rect class="cls-6" x="430.5" y="215.5" width="20" height="20"/><rect class="cls-6" x="430.5" y="196.5" width="20" height="19"/><rect x="430.5" y="176.5" width="20" height="20"/><rect x="430.5" y="156.5" width="20" height="20"/><rect x="430.5" y="137.5" width="20" height="19"/><rect x="410.5" y="823.5" width="20" height="20"/><rect class="cls-3" x="410.5" y="804.5" width="20" height="19"/><rect x="410.5" y="784.5" width="20" height="20"/><rect x="410.5" y="764.5" width="20" height="20"/><rect x="410.5" y="745.5" width="20" height="19"/><rect class="cls-3" x="410.5" y="725.5" width="20" height="20"/><rect class="cls-3" x="410.5" y="705.5" width="20" height="20"/><rect class="cls-3" x="410.5" y="686.5" width="20" height="19"/><rect class="cls-3" x="410.5" y="666.5" width="20" height="20"/><rect class="cls-3" x="410.5" y="647.5" width="20" height="19"/><rect class="cls-3" x="410.5" y="627.5" width="20" height="20"/><rect class="cls-3" x="410.5" y="607.5" width="20" height="20"/><rect class="cls-3" x="410.5" y="588.5" width="20" height="19"/><rect x="410.5" y="568.5" width="20" height="20"/><rect class="cls-3" x="410.5" y="549.5" width="20" height="19"/><rect class="cls-3" x="410.5" y="529.5" width="20" height="20"/><rect class="cls-3" x="410.5" y="509.5" width="20" height="20"/><rect class="cls-3" x="410.5" y="490.5" width="20" height="19"/><rect class="cls-3" x="410.5" y="470.5" width="20" height="20"/><rect class="cls-3" x="410.5" y="451.5" width="20" height="19"/><rect class="cls-3" x="410.5" y="431.5" width="20" height="20"/><rect class="cls-3" x="410.5" y="411.5" width="20" height="20"/><rect class="cls-3" x="410.5" y="392.5" width="20" height="19"/><rect x="410.5" y="372.5" width="20" height="20"/><rect class="cls-11" x="410.5" y="353.5" width="20" height="19"/><rect class="cls-11" x="410.5" y="333.5" width="20" height="20"/><rect class="cls-12" x="410.5" y="313.5" width="20" height="20"/><rect class="cls-12" x="410.5" y="294.5" width="20" height="19"/><rect x="410.5" y="274.5" width="20" height="20"/><rect x="410.5" y="254.5" width="20" height="20"/><rect x="410.5" y="235.5" width="20" height="19"/><rect x="410.5" y="215.5" width="20" height="20"/><rect x="410.5" y="196.5" width="20" height="19"/><rect x="391.5" y="823.5" width="19" height="20"/><rect x="391.5" y="804.5" width="19" height="19"/><rect x="391.5" y="784.5" width="19" height="20"/><rect class="cls-3" x="391.5" y="764.5" width="19" height="20"/><rect class="cls-3" x="391.5" y="745.5" width="19" height="19"/><rect x="391.5" y="725.5" width="19" height="20"/><rect x="391.5" y="705.5" width="19" height="20"/><rect x="391.5" y="686.5" width="19" height="19"/><rect class="cls-3" x="391.5" y="666.5" width="19" height="20"/><rect class="cls-3" x="391.5" y="647.5" width="19" height="19"/><rect class="cls-3" x="391.5" y="627.5" width="19" height="20"/><rect class="cls-3" x="391.5" y="607.5" width="19" height="20"/><rect class="cls-3" x="391.5" y="588.5" width="19" height="19"/><rect x="391.5" y="568.5" width="19" height="20"/><rect class="cls-3" x="391.5" y="549.5" width="19" height="19"/><rect class="cls-3" x="391.5" y="529.5" width="19" height="20"/><rect class="cls-3" x="391.5" y="509.5" width="19" height="20"/><rect class="cls-3" x="391.5" y="490.5" width="19" height="19"/><rect class="cls-3" x="391.5" y="470.5" width="19" height="20"/><rect class="cls-3" x="391.5" y="451.5" width="19" height="19"/><rect class="cls-3" x="391.5" y="431.5" width="19" height="20"/><rect class="cls-3" x="391.5" y="411.5" width="19" height="20"/><rect x="391.5" y="392.5" width="19" height="19"/><rect class="cls-11" x="391.5" y="372.5" width="19" height="20"/><rect class="cls-11" x="391.5" y="353.5" width="19" height="19"/><rect class="cls-12" x="391.5" y="333.5" width="19" height="20"/><rect class="cls-12" x="391.5" y="313.5" width="19" height="20"/><rect x="391.5" y="294.5" width="19" height="19"/><rect x="391.5" y="274.5" width="19" height="20"/><rect x="371.5" y="843.5" width="20" height="19"/><rect class="cls-3" x="371.5" y="823.5" width="20" height="20"/><rect class="cls-3" x="371.5" y="804.5" width="20" height="19"/><rect class="cls-3" x="371.5" y="784.5" width="20" height="20"/><rect x="371.5" y="764.5" width="20" height="20"/><rect class="cls-3" x="371.5" y="745.5" width="20" height="19"/><rect class="cls-3" x="371.5" y="725.5" width="20" height="20"/><rect class="cls-3" x="371.5" y="705.5" width="20" height="20"/><rect class="cls-3" x="371.5" y="686.5" width="20" height="19"/><rect class="cls-3" x="371.5" y="666.5" width="20" height="20"/><rect class="cls-3" x="371.5" y="647.5" width="20" height="19"/><rect class="cls-3" x="371.5" y="627.5" width="20" height="20"/><rect x="371.5" y="607.5" width="20" height="20"/><rect x="371.5" y="588.5" width="20" height="19"/><rect x="371.5" y="549.5" width="20" height="19"/><rect x="371.5" y="529.5" width="20" height="20"/><rect class="cls-3" x="371.5" y="509.5" width="20" height="20"/><rect class="cls-3" x="371.5" y="490.5" width="20" height="19"/><rect class="cls-3" x="371.5" y="470.5" width="20" height="20"/><rect class="cls-3" x="371.5" y="451.5" width="20" height="19"/><rect class="cls-3" x="371.5" y="431.5" width="20" height="20"/><rect class="cls-3" x="371.5" y="411.5" width="20" height="20"/><rect x="371.5" y="392.5" width="20" height="19"/><rect class="cls-12" x="371.5" y="372.5" width="20" height="20"/><rect class="cls-12" x="371.5" y="353.5" width="20" height="19"/><rect class="cls-12" x="371.5" y="333.5" width="20" height="20"/><rect x="371.5" y="313.5" width="20" height="20"/><rect class="cls-3" x="371.5" y="294.5" width="20" height="19"/><rect class="cls-3" x="371.5" y="274.5" width="20" height="20"/><rect x="371.5" y="254.5" width="20" height="20"/><rect x="352.5" y="862.5" width="19" height="20"/><rect class="cls-3" x="352.5" y="843.5" width="19" height="19"/><rect class="cls-2" x="352.5" y="823.5" width="19" height="20"/><rect class="cls-2" x="352.5" y="804.5" width="19" height="19"/><rect class="cls-2" x="352.5" y="784.5" width="19" height="20"/><rect class="cls-3" x="352.5" y="764.5" width="19" height="20"/><rect x="352.5" y="745.5" width="19" height="19"/><rect class="cls-3" x="352.5" y="725.5" width="19" height="20"/><rect class="cls-3" x="352.5" y="705.5" width="19" height="20"/><rect class="cls-3" x="352.5" y="686.5" width="19" height="19"/><rect x="352.5" y="666.5" width="19" height="20"/><rect x="352.5" y="647.5" width="19" height="19"/><rect x="352.5" y="627.5" width="19" height="20"/><rect x="352.5" y="509.5" width="19" height="20"/><rect x="352.5" y="490.5" width="19" height="19"/><rect x="352.5" y="470.5" width="19" height="20"/><rect x="352.5" y="451.5" width="19" height="19"/><rect x="352.5" y="431.5" width="19" height="20"/><rect x="352.5" y="411.5" width="19" height="20"/><rect x="352.5" y="392.5" width="19" height="19"/><rect class="cls-12" x="352.5" y="372.5" width="19" height="20"/><rect x="352.5" y="353.5" width="19" height="19"/><rect x="352.5" y="333.5" width="19" height="20"/><rect class="cls-3" x="352.5" y="313.5" width="19" height="20"/><rect x="352.5" y="294.5" width="19" height="19"/><rect x="352.5" y="274.5" width="19" height="20"/><rect class="cls-3" x="352.5" y="254.5" width="19" height="20"/><rect x="352.5" y="235.5" width="19" height="19"/><rect x="332.5" y="862.5" width="20" height="20"/><rect class="cls-3" x="332.5" y="843.5" width="20" height="19"/><rect class="cls-2" x="332.5" y="823.5" width="20" height="20"/><rect class="cls-2" x="332.5" y="804.5" width="20" height="19"/><rect class="cls-2" x="332.5" y="784.5" width="20" height="20"/><rect class="cls-3" x="332.5" y="764.5" width="20" height="20"/><rect x="332.5" y="745.5" width="20" height="19"/><rect x="332.5" y="725.5" width="20" height="20"/><rect x="332.5" y="705.5" width="20" height="20"/><rect x="332.5" y="686.5" width="20" height="19"/><rect x="332.5" y="392.5" width="20" height="19"/><rect x="332.5" y="372.5" width="20" height="20"/><rect x="332.5" y="353.5" width="20" height="19"/><rect class="cls-3" x="332.5" y="333.5" width="20" height="20"/><rect class="cls-3" x="332.5" y="313.5" width="20" height="20"/><rect class="cls-3" x="332.5" y="294.5" width="20" height="19"/><rect class="cls-3" x="332.5" y="274.5" width="20" height="20"/><rect class="cls-3" x="332.5" y="254.5" width="20" height="20"/><rect class="cls-3" x="332.5" y="235.5" width="20" height="19"/><rect x="332.5" y="215.5" width="20" height="20"/><rect x="312.5" y="862.5" width="20" height="20"/><rect class="cls-3" x="312.5" y="843.5" width="20" height="19"/><rect class="cls-2" x="312.5" y="823.5" width="20" height="20"/><rect class="cls-2" x="312.5" y="804.5" width="20" height="19"/><rect class="cls-2" x="312.5" y="784.5" width="20" height="20"/><rect class="cls-3" x="312.5" y="764.5" width="20" height="20"/><rect x="312.5" y="745.5" width="20" height="19"/><rect x="312.5" y="333.5" width="20" height="20"/><rect x="312.5" y="313.5" width="20" height="20"/><rect x="312.5" y="294.5" width="20" height="19"/><rect x="312.5" y="274.5" width="20" height="20"/><rect x="312.5" y="254.5" width="20" height="20"/><rect x="312.5" y="235.5" width="20" height="19"/><rect x="293.5" y="843.5" width="19" height="19"/><rect class="cls-3" x="293.5" y="823.5" width="19" height="20"/><rect class="cls-3" x="293.5" y="804.5" width="19" height="19"/><rect class="cls-3" x="293.5" y="784.5" width="19" height="20"/><rect x="293.5" y="764.5" width="19" height="20"/><rect x="273.5" y="823.5" width="20" height="20"/><rect x="273.5" y="804.5" width="20" height="19"/><rect x="273.5" y="784.5" width="20" height="20"/></g></svg>