<svg xmlns="http://www.w3.org/2000/svg" viewBox="0 0 987.1 978.1"><defs><style>.cls-1{fill:#fff;}.cls-2{fill:#f9b2dd;}.cls-3{fill:#ed1e79;}.cls-4{fill:#fcdeec;}.cls-5{fill:#fcd4e8;}.cls-6{fill:#f4bde0;}.cls-7{fill:aqua;}.cls-8{fill:lime;}.cls-9{fill:blue;}.cls-10{fill:#00eae4;}.cls-11{fill:#ff0;}.cls-12{fill:#93278f;}</style></defs><title>uni-7</title><g id="Layer_10" data-name="Layer 10"><rect x="888.85" y="84.73" width="19" height="19"/><rect x="888.85" y="44.73" width="19" height="20"/><rect x="888.85" y="25.73" width="19" height="19"/><rect x="868.85" y="84.73" width="20" height="19"/><rect x="868.85" y="64.73" width="20" height="20"/><rect x="868.85" y="25.73" width="20" height="19"/><rect x="848.85" y="84.73" width="20" height="19"/><rect x="848.85" y="25.73" width="20" height="19"/><rect x="829.85" y="201.73" width="19" height="20"/><rect x="829.85" y="162.73" width="19" height="20"/><rect x="829.85" y="142.73" width="19" height="20"/><rect x="809.85" y="201.73" width="20" height="20"/><rect x="809.85" y="182.73" width="20" height="19"/><rect x="809.85" y="142.73" width="20" height="20"/><rect x="790.85" y="201.73" width="19" height="20"/><rect class="cls-1" x="790.85" y="182.73" width="19" height="19"/><rect class="cls-1" x="790.85" y="162.73" width="19" height="20"/><rect x="790.85" y="142.73" width="19" height="20"/><rect class="cls-1" x="790.85" y="103.73" width="19" height="20"/><rect x="770.85" y="319.73" width="20" height="20"/><rect x="770.85" y="280.73" width="20" height="19"/><rect x="770.85" y="260.73" width="20" height="20"/><rect class="cls-1" x="770.85" y="182.73" width="20" height="19"/><rect class="cls-1" x="770.85" y="162.73" width="20" height="20"/><rect class="cls-1" x="770.85" y="142.73" width="20" height="20"/><rect class="cls-1" x="770.85" y="103.73" width="20" height="20"/><rect x="750.85" y="809.73" width="20" height="20"/><rect x="750.85" y="790.73" width="20" height="19"/><rect x="750.85" y="770.73" width="20" height="20"/><rect x="750.85" y="319.73" width="20" height="20"/><rect x="750.85" y="299.73" width="20" height="20"/><rect x="750.85" y="260.73" width="20" height="20"/><rect class="cls-1" x="750.85" y="182.73" width="20" height="19"/><rect class="cls-1" x="750.85" y="142.73" width="20" height="20"/><rect class="cls-1" x="750.85" y="123.73" width="20" height="19"/><rect class="cls-1" x="750.85" y="103.73" width="20" height="20"/><rect x="731.85" y="829.73" width="19" height="19"/><rect class="cls-2" x="731.85" y="809.73" width="19" height="20"/><rect class="cls-2" x="731.85" y="790.73" width="19" height="19"/><rect class="cls-2" x="731.85" y="770.73" width="19" height="20"/><rect x="731.85" y="750.73" width="19" height="20"/><rect x="731.85" y="319.73" width="19" height="20"/><rect x="731.85" y="260.73" width="19" height="20"/><rect class="cls-1" x="731.85" y="182.73" width="19" height="19"/><rect class="cls-1" x="731.85" y="162.73" width="19" height="20"/><rect class="cls-1" x="731.85" y="142.73" width="19" height="20"/><rect class="cls-1" x="731.85" y="123.73" width="19" height="19"/><rect class="cls-1" x="731.85" y="103.73" width="19" height="20"/><rect x="711.85" y="848.73" width="20" height="20"/><rect class="cls-2" x="711.85" y="829.73" width="20" height="19"/><rect class="cls-3" x="711.85" y="809.73" width="20" height="20"/><rect class="cls-3" x="711.85" y="790.73" width="20" height="19"/><rect class="cls-3" x="711.85" y="770.73" width="20" height="20"/><rect class="cls-2" x="711.85" y="750.73" width="20" height="20"/><rect x="711.85" y="731.73" width="20" height="19"/><rect class="cls-1" x="711.85" y="84.73" width="20" height="19"/><rect x="691.85" y="848.73" width="20" height="20"/><rect class="cls-2" x="691.85" y="829.73" width="20" height="19"/><rect class="cls-3" x="691.85" y="809.73" width="20" height="20"/><rect class="cls-3" x="691.85" y="790.73" width="20" height="19"/><rect class="cls-3" x="691.85" y="770.73" width="20" height="20"/><rect class="cls-2" x="691.85" y="750.73" width="20" height="20"/><rect x="691.85" y="731.73" width="20" height="19"/><rect x="691.85" y="711.73" width="20" height="20"/><rect x="691.85" y="691.73" width="20" height="20"/><rect x="691.85" y="672.73" width="20" height="19"/><rect x="672.85" y="848.73" width="19" height="20"/><rect class="cls-2" x="672.85" y="829.73" width="19" height="19"/><rect class="cls-3" x="672.85" y="809.73" width="19" height="20"/><rect class="cls-3" x="672.85" y="790.73" width="19" height="19"/><rect class="cls-3" x="672.85" y="770.73" width="19" height="20"/><rect class="cls-2" x="672.85" y="750.73" width="19" height="20"/><rect x="672.85" y="731.73" width="19" height="19"/><rect class="cls-2" x="672.85" y="711.73" width="19" height="20"/><rect class="cls-2" x="672.85" y="691.73" width="19" height="20"/><rect class="cls-2" x="672.85" y="672.73" width="19" height="19"/><rect x="672.85" y="652.73" width="19" height="20"/><rect x="672.85" y="633.73" width="19" height="19"/><rect x="672.85" y="495.73" width="19" height="20"/><rect x="672.85" y="476.73" width="19" height="19"/><rect x="672.85" y="456.73" width="19" height="20"/><rect x="672.85" y="437.73" width="19" height="19"/><rect x="652.85" y="829.73" width="20" height="19"/><rect class="cls-4" x="652.85" y="809.73" width="20" height="20"/><rect class="cls-4" x="652.85" y="790.73" width="20" height="19"/><rect class="cls-4" x="652.85" y="770.73" width="20" height="20"/><rect x="652.85" y="750.73" width="20" height="20"/><rect class="cls-5" x="652.85" y="731.73" width="20" height="19"/><rect class="cls-4" x="652.85" y="711.73" width="20" height="20"/><rect class="cls-4" x="652.85" y="691.73" width="20" height="20"/><rect class="cls-4" x="652.85" y="672.73" width="20" height="19"/><rect class="cls-2" x="652.85" y="652.73" width="20" height="20"/><rect class="cls-2" x="652.85" y="633.73" width="20" height="19"/><rect x="652.85" y="613.73" width="20" height="20"/><rect x="652.85" y="593.73" width="20" height="20"/><rect x="652.85" y="574.73" width="20" height="19"/><rect x="652.85" y="535.73" width="20" height="19"/><rect x="652.85" y="515.73" width="20" height="20"/><rect class="cls-2" x="652.85" y="495.73" width="20" height="20"/><rect class="cls-2" x="652.85" y="476.73" width="20" height="19"/><rect class="cls-2" x="652.85" y="456.73" width="20" height="20"/><rect class="cls-2" x="652.85" y="437.73" width="20" height="19"/><rect x="652.85" y="417.73" width="20" height="20"/><rect x="652.85" y="397.73" width="20" height="20"/><rect x="652.85" y="378.73" width="20" height="19"/><rect x="652.85" y="280.73" width="20" height="19"/><rect x="652.85" y="260.73" width="20" height="20"/><rect x="652.85" y="240.73" width="20" height="20"/><rect x="652.85" y="221.73" width="20" height="19"/><rect x="652.85" y="201.73" width="20" height="20"/><rect x="652.85" y="182.73" width="20" height="19"/><rect x="633.85" y="809.73" width="19" height="20"/><rect x="633.85" y="790.73" width="19" height="19"/><rect x="633.85" y="770.73" width="19" height="20"/><rect class="cls-4" x="633.85" y="750.73" width="19" height="20"/><rect class="cls-4" x="633.85" y="731.73" width="19" height="19"/><rect x="633.85" y="711.73" width="19" height="20"/><rect x="633.85" y="691.73" width="19" height="20"/><rect x="633.85" y="672.73" width="19" height="19"/><rect class="cls-4" x="633.85" y="652.73" width="19" height="20"/><rect class="cls-2" x="633.85" y="633.73" width="19" height="19"/><rect class="cls-2" x="633.85" y="613.73" width="19" height="20"/><rect class="cls-2" x="633.85" y="593.73" width="19" height="20"/><rect class="cls-2" x="633.85" y="574.73" width="19" height="19"/><rect x="633.85" y="554.73" width="19" height="20"/><rect class="cls-2" x="633.85" y="535.73" width="19" height="19"/><rect class="cls-2" x="633.85" y="515.73" width="19" height="20"/><rect class="cls-4" x="633.85" y="495.73" width="19" height="20"/><rect class="cls-4" x="633.85" y="476.73" width="19" height="19"/><rect class="cls-4" x="633.85" y="456.73" width="19" height="20"/><rect class="cls-4" x="633.85" y="437.73" width="19" height="19"/><rect class="cls-2" x="633.85" y="417.73" width="19" height="20"/><rect class="cls-2" x="633.85" y="397.73" width="19" height="20"/><rect class="cls-2" x="633.85" y="378.73" width="19" height="19"/><rect x="633.85" y="358.73" width="19" height="20"/><rect x="633.85" y="299.73" width="19" height="20"/><rect class="cls-2" x="633.85" y="280.73" width="19" height="19"/><rect class="cls-2" x="633.85" y="260.73" width="19" height="20"/><rect class="cls-2" x="633.85" y="240.73" width="19" height="20"/><rect x="633.85" y="221.73" width="19" height="19"/><rect class="cls-2" x="633.85" y="201.73" width="19" height="20"/><rect class="cls-2" x="633.85" y="182.73" width="19" height="19"/><rect x="633.85" y="162.73" width="19" height="20"/><rect x="613.85" y="809.73" width="20" height="20"/><rect class="cls-4" x="613.85" y="790.73" width="20" height="19"/><rect x="613.85" y="770.73" width="20" height="20"/><rect x="613.85" y="750.73" width="20" height="20"/><rect x="613.85" y="731.73" width="20" height="19"/><rect class="cls-4" x="613.85" y="711.73" width="20" height="20"/><rect class="cls-4" x="613.85" y="691.73" width="20" height="20"/><rect class="cls-4" x="613.85" y="672.73" width="20" height="19"/><rect class="cls-4" x="613.85" y="652.73" width="20" height="20"/><rect class="cls-5" x="613.85" y="633.73" width="20" height="19"/><rect class="cls-5" x="613.85" y="613.73" width="20" height="20"/><rect class="cls-5" x="613.85" y="593.73" width="20" height="20"/><rect class="cls-6" x="613.85" y="574.73" width="20" height="19"/><rect x="613.85" y="554.73" width="20" height="20"/><rect class="cls-6" x="613.85" y="535.73" width="20" height="19"/><rect class="cls-5" x="613.85" y="515.73" width="20" height="20"/><rect class="cls-4" x="613.85" y="495.73" width="20" height="20"/><rect class="cls-4" x="613.85" y="476.73" width="20" height="19"/><rect class="cls-4" x="613.85" y="456.73" width="20" height="20"/><rect class="cls-4" x="613.85" y="437.73" width="20" height="19"/><rect class="cls-5" x="613.85" y="417.73" width="20" height="20"/><rect class="cls-5" x="613.85" y="397.73" width="20" height="20"/><rect class="cls-5" x="613.85" y="378.73" width="20" height="19"/><rect class="cls-6" x="613.85" y="358.73" width="20" height="20"/><rect x="613.85" y="339.73" width="20" height="19"/><rect x="613.85" y="319.73" width="20" height="20"/><rect x="613.85" y="299.73" width="20" height="20"/><rect class="cls-6" x="613.85" y="280.73" width="20" height="19"/><rect x="613.85" y="260.73" width="20" height="20"/><rect x="613.85" y="240.73" width="20" height="20"/><rect class="cls-6" x="613.85" y="221.73" width="20" height="19"/><rect class="cls-6" x="613.85" y="201.73" width="20" height="20"/><rect class="cls-2" x="613.85" y="182.73" width="20" height="19"/><rect class="cls-2" x="613.85" y="162.73" width="20" height="20"/><rect x="613.85" y="142.73" width="20" height="20"/><rect x="593.85" y="829.73" width="20" height="19"/><rect x="593.85" y="809.73" width="20" height="20"/><rect x="593.85" y="790.73" width="20" height="19"/><rect x="593.85" y="770.73" width="20" height="20"/><rect class="cls-4" x="593.85" y="750.73" width="20" height="20"/><rect class="cls-4" x="593.85" y="731.73" width="20" height="19"/><rect class="cls-4" x="593.85" y="711.73" width="20" height="20"/><rect class="cls-4" x="593.85" y="691.73" width="20" height="20"/><rect class="cls-4" x="593.85" y="672.73" width="20" height="19"/><rect class="cls-4" x="593.85" y="652.73" width="20" height="20"/><rect class="cls-4" x="593.85" y="633.73" width="20" height="19"/><rect class="cls-4" x="593.85" y="613.73" width="20" height="20"/><rect class="cls-4" x="593.85" y="593.73" width="20" height="20"/><rect x="593.85" y="574.73" width="20" height="19"/><rect class="cls-5" x="593.85" y="554.73" width="20" height="20"/><rect class="cls-5" x="593.85" y="535.73" width="20" height="19"/><rect class="cls-4" x="593.85" y="515.73" width="20" height="20"/><rect class="cls-4" x="593.85" y="495.73" width="20" height="20"/><rect class="cls-4" x="593.85" y="476.73" width="20" height="19"/><rect class="cls-4" x="593.85" y="456.73" width="20" height="20"/><rect class="cls-4" x="593.85" y="437.73" width="20" height="19"/><rect x="593.85" y="417.73" width="20" height="20"/><rect class="cls-4" x="593.85" y="397.73" width="20" height="20"/><rect class="cls-4" x="593.85" y="378.73" width="20" height="19"/><rect class="cls-5" x="593.85" y="358.73" width="20" height="20"/><rect class="cls-6" x="593.85" y="339.73" width="20" height="19"/><rect class="cls-6" x="593.85" y="319.73" width="20" height="20"/><rect x="593.85" y="299.73" width="20" height="20"/><rect class="cls-4" x="593.85" y="280.73" width="20" height="19"/><rect class="cls-4" x="593.85" y="260.73" width="20" height="20"/><rect class="cls-4" x="593.85" y="240.73" width="20" height="20"/><rect class="cls-4" x="593.85" y="221.73" width="20" height="19"/><rect x="593.85" y="201.73" width="20" height="20"/><rect x="593.85" y="182.73" width="20" height="19"/><rect x="593.85" y="162.73" width="20" height="20"/><rect x="574.85" y="848.73" width="19" height="20"/><rect class="cls-7" x="574.85" y="829.73" width="19" height="19"/><rect x="574.85" y="809.73" width="19" height="20"/><rect class="cls-4" x="574.85" y="790.73" width="19" height="19"/><rect class="cls-4" x="574.85" y="770.73" width="19" height="20"/><rect class="cls-4" x="574.85" y="750.73" width="19" height="20"/><rect class="cls-4" x="574.85" y="731.73" width="19" height="19"/><rect class="cls-4" x="574.85" y="711.73" width="19" height="20"/><rect class="cls-4" x="574.85" y="691.73" width="19" height="20"/><rect class="cls-4" x="574.85" y="672.73" width="19" height="19"/><rect class="cls-4" x="574.85" y="652.73" width="19" height="20"/><rect class="cls-4" x="574.85" y="633.73" width="19" height="19"/><rect class="cls-4" x="574.85" y="613.73" width="19" height="20"/><rect class="cls-4" x="574.85" y="593.73" width="19" height="20"/><rect x="574.85" y="574.73" width="19" height="19"/><rect class="cls-4" x="574.85" y="554.73" width="19" height="20"/><rect class="cls-4" x="574.85" y="535.73" width="19" height="19"/><rect class="cls-4" x="574.85" y="515.73" width="19" height="20"/><rect class="cls-4" x="574.85" y="495.73" width="19" height="20"/><rect class="cls-4" x="574.85" y="476.73" width="19" height="19"/><rect class="cls-4" x="574.85" y="456.73" width="19" height="20"/><rect class="cls-4" x="574.85" y="437.73" width="19" height="19"/><rect x="574.85" y="417.73" width="19" height="20"/><rect x="574.85" y="397.73" width="19" height="20"/><rect class="cls-4" x="574.85" y="378.73" width="19" height="19"/><rect class="cls-4" x="574.85" y="358.73" width="19" height="20"/><rect class="cls-4" x="574.85" y="339.73" width="19" height="19"/><rect class="cls-4" x="574.85" y="319.73" width="19" height="20"/><rect class="cls-4" x="574.85" y="299.73" width="19" height="20"/><rect class="cls-4" x="574.85" y="280.73" width="19" height="19"/><rect class="cls-4" x="574.85" y="260.73" width="19" height="20"/><rect class="cls-4" x="574.85" y="240.73" width="19" height="20"/><rect x="574.85" y="221.73" width="19" height="19"/><rect x="554.85" y="848.73" width="20" height="20"/><rect class="cls-7" x="554.85" y="829.73" width="20" height="19"/><rect x="554.85" y="809.73" width="20" height="20"/><rect class="cls-4" x="554.85" y="790.73" width="20" height="19"/><rect class="cls-4" x="554.85" y="770.73" width="20" height="20"/><rect class="cls-4" x="554.85" y="750.73" width="20" height="20"/><rect class="cls-4" x="554.85" y="731.73" width="20" height="19"/><rect class="cls-4" x="554.85" y="711.73" width="20" height="20"/><rect class="cls-4" x="554.85" y="691.73" width="20" height="20"/><rect class="cls-4" x="554.85" y="672.73" width="20" height="19"/><rect class="cls-4" x="554.85" y="652.73" width="20" height="20"/><rect class="cls-4" x="554.85" y="633.73" width="20" height="19"/><rect class="cls-4" x="554.85" y="613.73" width="20" height="20"/><rect x="554.85" y="593.73" width="20" height="20"/><rect class="cls-4" x="554.85" y="574.73" width="20" height="19"/><rect class="cls-4" x="554.85" y="554.73" width="20" height="20"/><rect x="554.85" y="535.73" width="20" height="19"/><rect class="cls-4" x="554.85" y="515.73" width="20" height="20"/><rect class="cls-4" x="554.85" y="495.73" width="20" height="20"/><rect class="cls-4" x="554.85" y="476.73" width="20" height="19"/><rect class="cls-4" x="554.85" y="456.73" width="20" height="20"/><rect class="cls-4" x="554.85" y="437.73" width="20" height="19"/><rect x="554.85" y="417.73" width="20" height="20"/><rect x="554.85" y="397.73" width="20" height="20"/><rect class="cls-4" x="554.85" y="378.73" width="20" height="19"/><rect class="cls-4" x="554.85" y="358.73" width="20" height="20"/><rect class="cls-4" x="554.85" y="339.73" width="20" height="19"/><rect class="cls-4" x="554.85" y="319.73" width="20" height="20"/><rect x="554.85" y="299.73" width="20" height="20"/><rect x="554.85" y="280.73" width="20" height="19"/><rect x="554.85" y="260.73" width="20" height="20"/><rect x="554.85" y="240.73" width="20" height="20"/><rect x="535.85" y="848.73" width="19" height="20"/><rect class="cls-7" x="535.85" y="829.73" width="19" height="19"/><rect x="535.85" y="809.73" width="19" height="20"/><rect class="cls-4" x="535.85" y="790.73" width="19" height="19"/><rect class="cls-4" x="535.85" y="770.73" width="19" height="20"/><rect class="cls-4" x="535.85" y="750.73" width="19" height="20"/><rect class="cls-4" x="535.85" y="731.73" width="19" height="19"/><rect class="cls-4" x="535.85" y="711.73" width="19" height="20"/><rect class="cls-4" x="535.85" y="691.73" width="19" height="20"/><rect class="cls-4" x="535.85" y="672.73" width="19" height="19"/><rect class="cls-4" x="535.85" y="652.73" width="19" height="20"/><rect class="cls-4" x="535.85" y="633.73" width="19" height="19"/><rect class="cls-4" x="535.85" y="613.73" width="19" height="20"/><rect x="535.85" y="593.73" width="19" height="20"/><rect class="cls-4" x="535.85" y="574.73" width="19" height="19"/><rect x="535.85" y="554.73" width="19" height="20"/><rect class="cls-4" x="535.85" y="535.73" width="19" height="19"/><rect class="cls-4" x="535.85" y="515.73" width="19" height="20"/><rect x="535.85" y="495.73" width="19" height="20"/><rect class="cls-4" x="535.85" y="476.73" width="19" height="19"/><rect class="cls-4" x="535.85" y="456.73" width="19" height="20"/><rect class="cls-4" x="535.85" y="437.73" width="19" height="19"/><rect x="535.85" y="417.73" width="19" height="20"/><rect class="cls-4" x="535.85" y="397.73" width="19" height="20"/><rect class="cls-4" x="535.85" y="378.73" width="19" height="19"/><rect class="cls-4" x="535.85" y="358.73" width="19" height="20"/><rect class="cls-4" x="535.85" y="339.73" width="19" height="19"/><rect x="535.85" y="319.73" width="19" height="20"/><rect class="cls-8" x="535.85" y="299.73" width="19" height="20"/><rect class="cls-9" x="535.85" y="280.73" width="19" height="19"/><rect class="cls-9" x="535.85" y="260.73" width="19" height="20"/><rect x="535.85" y="240.73" width="19" height="20"/><rect x="535.85" y="221.73" width="19" height="19"/><rect x="535.85" y="201.73" width="19" height="20"/><rect x="515.85" y="848.73" width="20" height="20"/><rect x="515.85" y="829.73" width="20" height="19"/><rect x="515.85" y="809.73" width="20" height="20"/><rect x="515.85" y="790.73" width="20" height="19"/><rect x="515.85" y="770.73" width="20" height="20"/><rect x="515.85" y="750.73" width="20" height="20"/><rect x="515.85" y="731.73" width="20" height="19"/><rect x="515.85" y="711.73" width="20" height="20"/><rect x="515.85" y="691.73" width="20" height="20"/><rect class="cls-4" x="515.85" y="672.73" width="20" height="19"/><rect class="cls-4" x="515.85" y="652.73" width="20" height="20"/><rect class="cls-4" x="515.85" y="633.73" width="20" height="19"/><rect class="cls-4" x="515.85" y="613.73" width="20" height="20"/><rect x="515.85" y="593.73" width="20" height="20"/><rect class="cls-4" x="515.85" y="574.73" width="20" height="19"/><rect x="515.85" y="554.73" width="20" height="20"/><rect class="cls-4" x="515.85" y="535.73" width="20" height="19"/><rect class="cls-4" x="515.85" y="515.73" width="20" height="20"/><rect class="cls-4" x="515.85" y="495.73" width="20" height="20"/><rect class="cls-4" x="515.85" y="476.73" width="20" height="19"/><rect class="cls-4" x="515.85" y="456.73" width="20" height="20"/><rect class="cls-4" x="515.85" y="437.73" width="20" height="19"/><rect class="cls-4" x="515.85" y="417.73" width="20" height="20"/><rect class="cls-4" x="515.85" y="397.73" width="20" height="20"/><rect class="cls-4" x="515.85" y="378.73" width="20" height="19"/><rect class="cls-4" x="515.85" y="358.73" width="20" height="20"/><rect x="515.85" y="339.73" width="20" height="19"/><rect class="cls-8" x="515.85" y="319.73" width="20" height="20"/><rect class="cls-9" x="515.85" y="299.73" width="20" height="20"/><rect class="cls-3" x="515.85" y="280.73" width="20" height="19"/><rect x="515.85" y="260.73" width="20" height="20"/><rect class="cls-10" x="515.85" y="240.73" width="20" height="20"/><rect class="cls-10" x="515.85" y="221.73" width="20" height="19"/><rect x="515.85" y="201.73" width="20" height="20"/><rect x="515.85" y="182.73" width="20" height="19"/><rect x="495.85" y="848.73" width="20" height="20"/><rect x="495.85" y="829.73" width="20" height="19"/><rect x="495.85" y="809.73" width="20" height="20"/><rect x="495.85" y="790.73" width="20" height="19"/><rect x="495.85" y="770.73" width="20" height="20"/><rect x="495.85" y="750.73" width="20" height="20"/><rect x="495.85" y="731.73" width="20" height="19"/><rect x="495.85" y="711.73" width="20" height="20"/><rect x="495.85" y="691.73" width="20" height="20"/><rect class="cls-4" x="495.85" y="672.73" width="20" height="19"/><rect class="cls-4" x="495.85" y="652.73" width="20" height="20"/><rect class="cls-4" x="495.85" y="633.73" width="20" height="19"/><rect class="cls-4" x="495.85" y="613.73" width="20" height="20"/><rect x="495.85" y="593.73" width="20" height="20"/><rect class="cls-4" x="495.85" y="574.73" width="20" height="19"/><rect x="495.85" y="554.73" width="20" height="20"/><rect class="cls-4" x="495.85" y="535.73" width="20" height="19"/><rect class="cls-4" x="495.85" y="515.73" width="20" height="20"/><rect class="cls-4" x="495.85" y="495.73" width="20" height="20"/><rect class="cls-4" x="495.85" y="476.73" width="20" height="19"/><rect class="cls-4" x="495.85" y="456.73" width="20" height="20"/><rect class="cls-4" x="495.85" y="437.73" width="20" height="19"/><rect class="cls-4" x="495.85" y="417.73" width="20" height="20"/><rect class="cls-4" x="495.85" y="397.73" width="20" height="20"/><rect class="cls-4" x="495.85" y="378.73" width="20" height="19"/><rect x="495.85" y="358.73" width="20" height="20"/><rect class="cls-8" x="495.85" y="339.73" width="20" height="19"/><rect class="cls-9" x="495.85" y="319.73" width="20" height="20"/><rect class="cls-3" x="495.85" y="299.73" width="20" height="20"/><rect class="cls-3" x="495.85" y="280.73" width="20" height="19"/><rect x="495.85" y="260.73" width="20" height="20"/><rect class="cls-7" x="495.85" y="240.73" width="20" height="20"/><rect class="cls-7" x="495.85" y="221.73" width="20" height="19"/><rect class="cls-10" x="495.85" y="201.73" width="20" height="20"/><rect class="cls-10" x="495.85" y="182.73" width="20" height="19"/><rect x="495.85" y="162.73" width="20" height="20"/><rect x="495.85" y="142.73" width="20" height="20"/><rect x="495.85" y="123.73" width="20" height="19"/><rect x="476.85" y="848.73" width="19" height="20"/><rect class="cls-7" x="476.85" y="829.73" width="19" height="19"/><rect x="476.85" y="809.73" width="19" height="20"/><rect class="cls-4" x="476.85" y="790.73" width="19" height="19"/><rect class="cls-4" x="476.85" y="770.73" width="19" height="20"/><rect class="cls-4" x="476.85" y="750.73" width="19" height="20"/><rect class="cls-4" x="476.85" y="731.73" width="19" height="19"/><rect class="cls-4" x="476.85" y="711.73" width="19" height="20"/><rect class="cls-4" x="476.85" y="691.73" width="19" height="20"/><rect class="cls-4" x="476.85" y="672.73" width="19" height="19"/><rect class="cls-4" x="476.85" y="652.73" width="19" height="20"/><rect class="cls-4" x="476.85" y="633.73" width="19" height="19"/><rect class="cls-4" x="476.85" y="613.73" width="19" height="20"/><rect x="476.85" y="593.73" width="19" height="20"/><rect class="cls-4" x="476.85" y="574.73" width="19" height="19"/><rect x="476.85" y="554.73" width="19" height="20"/><rect class="cls-4" x="476.85" y="535.73" width="19" height="19"/><rect class="cls-4" x="476.85" y="515.73" width="19" height="20"/><rect x="476.85" y="495.73" width="19" height="20"/><rect class="cls-4" x="476.85" y="476.73" width="19" height="19"/><rect class="cls-4" x="476.85" y="456.73" width="19" height="20"/><rect class="cls-4" x="476.85" y="437.73" width="19" height="19"/><rect class="cls-4" x="476.85" y="417.73" width="19" height="20"/><rect class="cls-4" x="476.85" y="397.73" width="19" height="20"/><rect x="476.85" y="378.73" width="19" height="19"/><rect class="cls-8" x="476.85" y="358.73" width="19" height="20"/><rect class="cls-9" x="476.85" y="339.73" width="19" height="19"/><rect class="cls-3" x="476.85" y="319.73" width="19" height="20"/><rect class="cls-3" x="476.85" y="299.73" width="19" height="20"/><rect class="cls-11" x="476.85" y="280.73" width="19" height="19"/><rect x="476.85" y="260.73" width="19" height="20"/><rect class="cls-7" x="476.85" y="240.73" width="19" height="20"/><rect class="cls-7" x="476.85" y="221.73" width="19" height="19"/><rect class="cls-7" x="476.85" y="201.73" width="19" height="20"/><rect class="cls-7" x="476.85" y="182.73" width="19" height="19"/><rect class="cls-10" x="476.85" y="162.73" width="19" height="20"/><rect class="cls-10" x="476.85" y="142.73" width="19" height="20"/><rect class="cls-10" x="476.85" y="123.73" width="19" height="19"/><rect x="476.85" y="103.73" width="19" height="20"/><rect x="456.85" y="848.73" width="20" height="20"/><rect class="cls-7" x="456.85" y="829.73" width="20" height="19"/><rect x="456.85" y="809.73" width="20" height="20"/><rect class="cls-4" x="456.85" y="790.73" width="20" height="19"/><rect class="cls-4" x="456.85" y="770.73" width="20" height="20"/><rect class="cls-4" x="456.85" y="750.73" width="20" height="20"/><rect class="cls-4" x="456.85" y="731.73" width="20" height="19"/><rect class="cls-4" x="456.85" y="711.73" width="20" height="20"/><rect class="cls-4" x="456.85" y="691.73" width="20" height="20"/><rect class="cls-4" x="456.85" y="672.73" width="20" height="19"/><rect class="cls-4" x="456.85" y="652.73" width="20" height="20"/><rect class="cls-4" x="456.85" y="633.73" width="20" height="19"/><rect class="cls-4" x="456.85" y="613.73" width="20" height="20"/><rect x="456.85" y="593.73" width="20" height="20"/><rect class="cls-4" x="456.85" y="574.73" width="20" height="19"/><rect class="cls-4" x="456.85" y="554.73" width="20" height="20"/><rect x="456.85" y="535.73" width="20" height="19"/><rect class="cls-4" x="456.85" y="515.73" width="20" height="20"/><rect class="cls-4" x="456.85" y="495.73" width="20" height="20"/><rect class="cls-4" x="456.85" y="476.73" width="20" height="19"/><rect class="cls-4" x="456.85" y="456.73" width="20" height="20"/><rect x="456.85" y="437.73" width="20" height="19"/><rect class="cls-4" x="456.85" y="417.73" width="20" height="20"/><rect class="cls-4" x="456.85" y="397.73" width="20" height="20"/><rect x="456.85" y="378.73" width="20" height="19"/><rect class="cls-9" x="456.85" y="358.73" width="20" height="20"/><rect class="cls-3" x="456.85" y="339.73" width="20" height="19"/><rect class="cls-3" x="456.85" y="319.73" width="20" height="20"/><rect class="cls-11" x="456.85" y="299.73" width="20" height="20"/><rect class="cls-11" x="456.85" y="280.73" width="20" height="19"/><rect x="456.85" y="260.73" width="20" height="20"/><rect class="cls-7" x="456.85" y="240.73" width="20" height="20"/><rect class="cls-7" x="456.85" y="221.73" width="20" height="19"/><rect class="cls-7" x="456.85" y="201.73" width="20" height="20"/><rect class="cls-7" x="456.85" y="182.73" width="20" height="19"/><rect class="cls-7" x="456.85" y="162.73" width="20" height="20"/><rect class="cls-7" x="456.85" y="142.73" width="20" height="20"/><rect class="cls-7" x="456.85" y="123.73" width="20" height="19"/><rect class="cls-10" x="456.85" y="103.73" width="20" height="20"/><rect x="456.85" y="84.73" width="20" height="19"/><rect x="437.85" y="848.73" width="19" height="20"/><rect class="cls-7" x="437.85" y="829.73" width="19" height="19"/><rect x="437.85" y="809.73" width="19" height="20"/><rect class="cls-4" x="437.85" y="790.73" width="19" height="19"/><rect class="cls-4" x="437.85" y="770.73" width="19" height="20"/><rect class="cls-4" x="437.85" y="750.73" width="19" height="20"/><rect class="cls-4" x="437.85" y="731.73" width="19" height="19"/><rect class="cls-4" x="437.85" y="711.73" width="19" height="20"/><rect class="cls-4" x="437.85" y="691.73" width="19" height="20"/><rect class="cls-4" x="437.85" y="672.73" width="19" height="19"/><rect class="cls-4" x="437.85" y="652.73" width="19" height="20"/><rect class="cls-4" x="437.85" y="633.73" width="19" height="19"/><rect class="cls-4" x="437.85" y="613.73" width="19" height="20"/><rect class="cls-4" x="437.85" y="593.73" width="19" height="20"/><rect x="437.85" y="574.73" width="19" height="19"/><rect class="cls-4" x="437.85" y="554.73" width="19" height="20"/><rect class="cls-4" x="437.85" y="535.73" width="19" height="19"/><rect class="cls-4" x="437.85" y="515.73" width="19" height="20"/><rect class="cls-4" x="437.85" y="495.73" width="19" height="20"/><rect class="cls-4" x="437.85" y="476.73" width="19" height="19"/><rect class="cls-4" x="437.85" y="456.73" width="19" height="20"/><rect x="437.85" y="437.73" width="19" height="19"/><rect x="437.85" y="417.73" width="19" height="20"/><rect class="cls-4" x="437.85" y="397.73" width="19" height="20"/><rect x="437.85" y="378.73" width="19" height="19"/><rect x="437.85" y="358.73" width="19" height="20"/><rect class="cls-3" x="437.85" y="339.73" width="19" height="19"/><rect class="cls-11" x="437.85" y="319.73" width="19" height="20"/><rect class="cls-11" x="437.85" y="299.73" width="19" height="20"/><rect class="cls-11" x="437.85" y="280.73" width="19" height="19"/><rect x="437.85" y="260.73" width="19" height="20"/><rect class="cls-7" x="437.85" y="240.73" width="19" height="20"/><rect class="cls-7" x="437.85" y="221.73" width="19" height="19"/><rect class="cls-7" x="437.85" y="201.73" width="19" height="20"/><rect class="cls-7" x="437.85" y="182.73" width="19" height="19"/><rect class="cls-7" x="437.85" y="162.73" width="19" height="20"/><rect class="cls-7" x="437.85" y="142.73" width="19" height="20"/><rect class="cls-7" x="437.85" y="123.73" width="19" height="19"/><rect x="437.85" y="103.73" width="19" height="20"/><rect x="417.85" y="829.73" width="20" height="19"/><rect x="417.85" y="809.73" width="20" height="20"/><rect x="417.85" y="790.73" width="20" height="19"/><rect x="417.85" y="770.73" width="20" height="20"/><rect class="cls-4" x="417.85" y="750.73" width="20" height="20"/><rect class="cls-4" x="417.85" y="731.73" width="20" height="19"/><rect class="cls-4" x="417.85" y="711.73" width="20" height="20"/><rect class="cls-4" x="417.85" y="691.73" width="20" height="20"/><rect class="cls-4" x="417.85" y="672.73" width="20" height="19"/><rect class="cls-4" x="417.85" y="652.73" width="20" height="20"/><rect class="cls-4" x="417.85" y="633.73" width="20" height="19"/><rect class="cls-4" x="417.85" y="613.73" width="20" height="20"/><rect class="cls-4" x="417.85" y="593.73" width="20" height="20"/><rect x="417.85" y="574.73" width="20" height="19"/><rect class="cls-4" x="417.85" y="554.73" width="20" height="20"/><rect class="cls-4" x="417.85" y="535.73" width="20" height="19"/><rect class="cls-4" x="417.85" y="515.73" width="20" height="20"/><rect class="cls-4" x="417.85" y="495.73" width="20" height="20"/><rect class="cls-4" x="417.85" y="476.73" width="20" height="19"/><rect class="cls-4" x="417.85" y="456.73" width="20" height="20"/><rect x="417.85" y="437.73" width="20" height="19"/><rect x="417.85" y="417.73" width="20" height="20"/><rect class="cls-4" x="417.85" y="397.73" width="20" height="20"/><rect x="417.85" y="378.73" width="20" height="19"/><rect x="417.85" y="358.73" width="20" height="20"/><rect class="cls-11" x="417.85" y="339.73" width="20" height="19"/><rect class="cls-11" x="417.85" y="319.73" width="20" height="20"/><rect class="cls-11" x="417.85" y="299.73" width="20" height="20"/><rect class="cls-12" x="417.85" y="280.73" width="20" height="19"/><rect x="417.85" y="260.73" width="20" height="20"/><rect class="cls-7" x="417.85" y="240.73" width="20" height="20"/><rect class="cls-7" x="417.85" y="221.73" width="20" height="19"/><rect class="cls-7" x="417.85" y="201.73" width="20" height="20"/><rect class="cls-7" x="417.85" y="182.73" width="20" height="19"/><rect x="417.85" y="162.73" width="20" height="20"/><rect x="417.85" y="142.73" width="20" height="20"/><rect x="417.85" y="123.73" width="20" height="19"/><rect x="397.85" y="809.73" width="20" height="20"/><rect class="cls-4" x="397.85" y="790.73" width="20" height="19"/><rect x="397.85" y="770.73" width="20" height="20"/><rect x="397.85" y="750.73" width="20" height="20"/><rect x="397.85" y="731.73" width="20" height="19"/><rect class="cls-4" x="397.85" y="711.73" width="20" height="20"/><rect class="cls-4" x="397.85" y="691.73" width="20" height="20"/><rect class="cls-4" x="397.85" y="672.73" width="20" height="19"/><rect class="cls-4" x="397.85" y="652.73" width="20" height="20"/><rect class="cls-4" x="397.85" y="633.73" width="20" height="19"/><rect class="cls-4" x="397.85" y="613.73" width="20" height="20"/><rect class="cls-4" x="397.85" y="593.73" width="20" height="20"/><rect class="cls-4" x="397.85" y="574.73" width="20" height="19"/><rect x="397.85" y="554.73" width="20" height="20"/><rect class="cls-4" x="397.85" y="535.73" width="20" height="19"/><rect class="cls-4" x="397.85" y="515.73" width="20" height="20"/><rect class="cls-4" x="397.85" y="495.73" width="20" height="20"/><rect class="cls-4" x="397.85" y="476.73" width="20" height="19"/><rect class="cls-4" x="397.85" y="456.73" width="20" height="20"/><rect x="397.85" y="437.73" width="20" height="19"/><rect class="cls-4" x="397.85" y="417.73" width="20" height="20"/><rect class="cls-4" x="397.85" y="397.73" width="20" height="20"/><rect class="cls-4" x="397.85" y="378.73" width="20" height="19"/><rect x="397.85" y="358.73" width="20" height="20"/><rect class="cls-11" x="397.85" y="339.73" width="20" height="19"/><rect class="cls-11" x="397.85" y="319.73" width="20" height="20"/><rect class="cls-12" x="397.85" y="299.73" width="20" height="20"/><rect class="cls-12" x="397.85" y="280.73" width="20" height="19"/><rect x="397.85" y="260.73" width="20" height="20"/><rect x="397.85" y="240.73" width="20" height="20"/><rect x="397.85" y="221.73" width="20" height="19"/><rect x="397.85" y="201.73" width="20" height="20"/><rect x="397.85" y="182.73" width="20" height="19"/><rect x="378.85" y="809.73" width="19" height="20"/><rect x="378.85" y="790.73" width="19" height="19"/><rect x="378.85" y="770.73" width="19" height="20"/><rect class="cls-4" x="378.85" y="750.73" width="19" height="20"/><rect class="cls-4" x="378.85" y="731.73" width="19" height="19"/><rect x="378.85" y="711.73" width="19" height="20"/><rect x="378.85" y="691.73" width="19" height="20"/><rect x="378.85" y="672.73" width="19" height="19"/><rect class="cls-4" x="378.85" y="652.73" width="19" height="20"/><rect class="cls-4" x="378.85" y="633.73" width="19" height="19"/><rect class="cls-4" x="378.85" y="613.73" width="19" height="20"/><rect class="cls-4" x="378.85" y="593.73" width="19" height="20"/><rect class="cls-4" x="378.85" y="574.73" width="19" height="19"/><rect x="378.85" y="554.73" width="19" height="20"/><rect class="cls-4" x="378.85" y="535.73" width="19" height="19"/><rect class="cls-4" x="378.85" y="515.73" width="19" height="20"/><rect class="cls-4" x="378.85" y="495.73" width="19" height="20"/><rect class="cls-4" x="378.85" y="476.73" width="19" height="19"/><rect class="cls-4" x="378.85" y="456.73" width="19" height="20"/><rect class="cls-4" x="378.85" y="437.73" width="19" height="19"/><rect class="cls-4" x="378.85" y="417.73" width="19" height="20"/><rect class="cls-4" x="378.85" y="397.73" width="19" height="20"/><rect x="378.85" y="378.73" width="19" height="19"/><rect class="cls-11" x="378.85" y="358.73" width="19" height="20"/><rect class="cls-11" x="378.85" y="339.73" width="19" height="19"/><rect class="cls-12" x="378.85" y="319.73" width="19" height="20"/><rect class="cls-12" x="378.85" y="299.73" width="19" height="20"/><rect x="378.85" y="280.73" width="19" height="19"/><rect x="378.85" y="260.73" width="19" height="20"/><rect x="358.85" y="829.73" width="20" height="19"/><rect class="cls-4" x="358.85" y="809.73" width="20" height="20"/><rect class="cls-4" x="358.85" y="790.73" width="20" height="19"/><rect class="cls-4" x="358.85" y="770.73" width="20" height="20"/><rect x="358.85" y="750.73" width="20" height="20"/><rect class="cls-4" x="358.85" y="731.73" width="20" height="19"/><rect class="cls-4" x="358.85" y="711.73" width="20" height="20"/><rect class="cls-4" x="358.85" y="691.73" width="20" height="20"/><rect class="cls-4" x="358.85" y="672.73" width="20" height="19"/><rect class="cls-4" x="358.85" y="652.73" width="20" height="20"/><rect class="cls-4" x="358.85" y="633.73" width="20" height="19"/><rect class="cls-4" x="358.85" y="613.73" width="20" height="20"/><rect x="358.85" y="593.73" width="20" height="20"/><rect x="358.85" y="574.73" width="20" height="19"/><rect x="358.85" y="535.73" width="20" height="19"/><rect x="358.85" y="515.73" width="20" height="20"/><rect class="cls-4" x="358.85" y="495.73" width="20" height="20"/><rect class="cls-4" x="358.85" y="476.73" width="20" height="19"/><rect class="cls-4" x="358.85" y="456.73" width="20" height="20"/><rect class="cls-4" x="358.85" y="437.73" width="20" height="19"/><rect class="cls-4" x="358.85" y="417.73" width="20" height="20"/><rect class="cls-4" x="358.85" y="397.73" width="20" height="20"/><rect x="358.85" y="378.73" width="20" height="19"/><rect class="cls-12" x="358.85" y="358.73" width="20" height="20"/><rect class="cls-12" x="358.85" y="339.73" width="20" height="19"/><rect class="cls-12" x="358.85" y="319.73" width="20" height="20"/><rect x="358.85" y="299.73" width="20" height="20"/><rect class="cls-4" x="358.85" y="280.73" width="20" height="19"/><rect class="cls-4" x="358.85" y="260.73" width="20" height="20"/><rect x="358.85" y="240.73" width="20" height="20"/><rect x="339.85" y="848.73" width="19" height="20"/><rect class="cls-4" x="339.85" y="829.73" width="19" height="19"/><rect class="cls-3" x="339.85" y="809.73" width="19" height="20"/><rect class="cls-3" x="339.85" y="790.73" width="19" height="19"/><rect class="cls-3" x="339.85" y="770.73" width="19" height="20"/><rect class="cls-4" x="339.85" y="750.73" width="19" height="20"/><rect x="339.85" y="731.73" width="19" height="19"/><rect class="cls-4" x="339.85" y="711.73" width="19" height="20"/><rect class="cls-4" x="339.85" y="691.73" width="19" height="20"/><rect class="cls-4" x="339.85" y="672.73" width="19" height="19"/><rect x="339.85" y="652.73" width="19" height="20"/><rect x="339.85" y="633.73" width="19" height="19"/><rect x="339.85" y="613.73" width="19" height="20"/><rect x="339.85" y="495.73" width="19" height="20"/><rect x="339.85" y="476.73" width="19" height="19"/><rect x="339.85" y="456.73" width="19" height="20"/><rect x="339.85" y="437.73" width="19" height="19"/><rect x="339.85" y="417.73" width="19" height="20"/><rect x="339.85" y="397.73" width="19" height="20"/><rect x="339.85" y="378.73" width="19" height="19"/><rect class="cls-12" x="339.85" y="358.73" width="19" height="20"/><rect x="339.85" y="339.73" width="19" height="19"/><rect x="339.85" y="319.73" width="19" height="20"/><rect class="cls-4" x="339.85" y="299.73" width="19" height="20"/><rect x="339.85" y="280.73" width="19" height="19"/><rect x="339.85" y="260.73" width="19" height="20"/><rect class="cls-4" x="339.85" y="240.73" width="19" height="20"/><rect x="339.85" y="221.73" width="19" height="19"/><rect x="319.85" y="848.73" width="20" height="20"/><rect class="cls-4" x="319.85" y="829.73" width="20" height="19"/><rect class="cls-3" x="319.85" y="809.73" width="20" height="20"/><rect class="cls-3" x="319.85" y="790.73" width="20" height="19"/><rect class="cls-3" x="319.85" y="770.73" width="20" height="20"/><rect class="cls-4" x="319.85" y="750.73" width="20" height="20"/><rect x="319.85" y="731.73" width="20" height="19"/><rect x="319.85" y="711.73" width="20" height="20"/><rect x="319.85" y="691.73" width="20" height="20"/><rect x="319.85" y="672.73" width="20" height="19"/><rect x="319.85" y="378.73" width="20" height="19"/><rect x="319.85" y="358.73" width="20" height="20"/><rect x="319.85" y="339.73" width="20" height="19"/><rect class="cls-4" x="319.85" y="319.73" width="20" height="20"/><rect class="cls-4" x="319.85" y="299.73" width="20" height="20"/><rect class="cls-4" x="319.85" y="280.73" width="20" height="19"/><rect class="cls-4" x="319.85" y="260.73" width="20" height="20"/><rect class="cls-4" x="319.85" y="240.73" width="20" height="20"/><rect class="cls-4" x="319.85" y="221.73" width="20" height="19"/><rect x="319.85" y="201.73" width="20" height="20"/><rect x="299.85" y="848.73" width="20" height="20"/><rect class="cls-4" x="299.85" y="829.73" width="20" height="19"/><rect class="cls-3" x="299.85" y="809.73" width="20" height="20"/><rect class="cls-3" x="299.85" y="790.73" width="20" height="19"/><rect class="cls-3" x="299.85" y="770.73" width="20" height="20"/><rect class="cls-4" x="299.85" y="750.73" width="20" height="20"/><rect x="299.85" y="731.73" width="20" height="19"/><rect x="299.85" y="319.73" width="20" height="20"/><rect x="299.85" y="299.73" width="20" height="20"/><rect x="299.85" y="280.73" width="20" height="19"/><rect x="299.85" y="260.73" width="20" height="20"/><rect x="299.85" y="240.73" width="20" height="20"/><rect x="299.85" y="221.73" width="20" height="19"/><rect x="280.85" y="829.73" width="19" height="19"/><rect class="cls-4" x="280.85" y="809.73" width="19" height="20"/><rect class="cls-4" x="280.85" y="790.73" width="19" height="19"/><rect class="cls-4" x="280.85" y="770.73" width="19" height="20"/><rect x="280.85" y="750.73" width="19" height="20"/><rect x="260.85" y="809.73" width="20" height="20"/><rect x="260.85" y="790.73" width="20" height="19"/><rect x="260.85" y="770.73" width="20" height="20"/></g></svg>