<svg xmlns="http://www.w3.org/2000/svg" viewBox="0 0 1000 1000"><defs><style>.cls-1{fill:#f9b2dd;}.cls-2{fill:#ed1e79;}.cls-3{fill:#fcdeec;}.cls-4{fill:#fcd4e8;}.cls-5{fill:#f4bde0;}.cls-6{fill:aqua;}.cls-7{fill:lime;}.cls-8{fill:blue;}.cls-9{fill:#00eae4;}.cls-10{fill:#ff0;}.cls-11{fill:#93278f;}</style></defs><title>uni-1</title><g id="Layer_6" data-name="Layer 6"><rect x="765" y="824" width="20" height="20"/><rect x="765" y="805" width="20" height="19"/><rect x="765" y="785" width="20" height="20"/><rect x="746" y="844" width="19" height="19"/><rect class="cls-1" x="746" y="824" width="19" height="20"/><rect class="cls-1" x="746" y="805" width="19" height="19"/><rect class="cls-1" x="746" y="785" width="19" height="20"/><rect x="746" y="765" width="19" height="20"/><rect x="726" y="863" width="20" height="20"/><rect class="cls-1" x="726" y="844" width="20" height="19"/><rect class="cls-2" x="726" y="824" width="20" height="20"/><rect class="cls-2" x="726" y="805" width="20" height="19"/><rect class="cls-2" x="726" y="785" width="20" height="20"/><rect class="cls-1" x="726" y="765" width="20" height="20"/><rect x="726" y="746" width="20" height="19"/><rect x="706" y="863" width="20" height="20"/><rect class="cls-1" x="706" y="844" width="20" height="19"/><rect class="cls-2" x="706" y="824" width="20" height="20"/><rect class="cls-2" x="706" y="805" width="20" height="19"/><rect class="cls-2" x="706" y="785" width="20" height="20"/><rect class="cls-1" x="706" y="765" width="20" height="20"/><rect x="706" y="746" width="20" height="19"/><rect x="706" y="726" width="20" height="20"/><rect x="706" y="706" width="20" height="20"/><rect x="706" y="687" width="20" height="19"/><rect x="687" y="863" width="19" height="20"/><rect class="cls-1" x="687" y="844" width="19" height="19"/><rect class="cls-2" x="687" y="824" width="19" height="20"/><rect class="cls-2" x="687" y="805" width="19" height="19"/><rect class="cls-2" x="687" y="785" width="19" height="20"/><rect class="cls-1" x="687" y="765" width="19" height="20"/><rect x="687" y="746" width="19" height="19"/><rect class="cls-1" x="687" y="726" width="19" height="20"/><rect class="cls-1" x="687" y="706" width="19" height="20"/><rect class="cls-1" x="687" y="687" width="19" height="19"/><rect x="687" y="667" width="19" height="20"/><rect x="687" y="648" width="19" height="19"/><rect x="687" y="510" width="19" height="20"/><rect x="687" y="491" width="19" height="19"/><rect x="687" y="471" width="19" height="20"/><rect x="687" y="452" width="19" height="19"/><rect x="667" y="844" width="20" height="19"/><rect class="cls-3" x="667" y="824" width="20" height="20"/><rect class="cls-3" x="667" y="805" width="20" height="19"/><rect class="cls-3" x="667" y="785" width="20" height="20"/><rect x="667" y="765" width="20" height="20"/><rect class="cls-4" x="667" y="746" width="20" height="19"/><rect class="cls-3" x="667" y="726" width="20" height="20"/><rect class="cls-3" x="667" y="706" width="20" height="20"/><rect class="cls-3" x="667" y="687" width="20" height="19"/><rect class="cls-1" x="667" y="667" width="20" height="20"/><rect class="cls-1" x="667" y="648" width="20" height="19"/><rect x="667" y="628" width="20" height="20"/><rect x="667" y="608" width="20" height="20"/><rect x="667" y="589" width="20" height="19"/><rect x="667" y="550" width="20" height="19"/><rect x="667" y="530" width="20" height="20"/><rect class="cls-1" x="667" y="510" width="20" height="20"/><rect class="cls-1" x="667" y="491" width="20" height="19"/><rect class="cls-1" x="667" y="471" width="20" height="20"/><rect class="cls-1" x="667" y="452" width="20" height="19"/><rect x="667" y="432" width="20" height="20"/><rect x="667" y="412" width="20" height="20"/><rect x="667" y="393" width="20" height="19"/><rect x="667" y="295" width="20" height="19"/><rect x="667" y="275" width="20" height="20"/><rect x="667" y="255" width="20" height="20"/><rect x="667" y="236" width="20" height="19"/><rect x="667" y="216" width="20" height="20"/><rect x="667" y="197" width="20" height="19"/><rect x="648" y="824" width="19" height="20"/><rect x="648" y="805" width="19" height="19"/><rect x="648" y="785" width="19" height="20"/><rect class="cls-3" x="648" y="765" width="19" height="20"/><rect class="cls-3" x="648" y="746" width="19" height="19"/><rect x="648" y="726" width="19" height="20"/><rect x="648" y="706" width="19" height="20"/><rect x="648" y="687" width="19" height="19"/><rect class="cls-3" x="648" y="667" width="19" height="20"/><rect class="cls-1" x="648" y="648" width="19" height="19"/><rect class="cls-1" x="648" y="628" width="19" height="20"/><rect class="cls-1" x="648" y="608" width="19" height="20"/><rect class="cls-1" x="648" y="589" width="19" height="19"/><rect x="648" y="569" width="19" height="20"/><rect class="cls-1" x="648" y="550" width="19" height="19"/><rect class="cls-1" x="648" y="530" width="19" height="20"/><rect class="cls-3" x="648" y="510" width="19" height="20"/><rect class="cls-3" x="648" y="491" width="19" height="19"/><rect class="cls-3" x="648" y="471" width="19" height="20"/><rect class="cls-3" x="648" y="452" width="19" height="19"/><rect class="cls-1" x="648" y="432" width="19" height="20"/><rect class="cls-1" x="648" y="412" width="19" height="20"/><rect class="cls-1" x="648" y="393" width="19" height="19"/><rect x="648" y="373" width="19" height="20"/><rect x="648" y="314" width="19" height="20"/><rect class="cls-1" x="648" y="295" width="19" height="19"/><rect class="cls-1" x="648" y="275" width="19" height="20"/><rect class="cls-1" x="648" y="255" width="19" height="20"/><rect x="648" y="236" width="19" height="19"/><rect class="cls-1" x="648" y="216" width="19" height="20"/><rect class="cls-1" x="648" y="197" width="19" height="19"/><rect x="648" y="177" width="19" height="20"/><rect x="628" y="824" width="20" height="20"/><rect class="cls-3" x="628" y="805" width="20" height="19"/><rect x="628" y="785" width="20" height="20"/><rect x="628" y="765" width="20" height="20"/><rect x="628" y="746" width="20" height="19"/><rect class="cls-3" x="628" y="726" width="20" height="20"/><rect class="cls-3" x="628" y="706" width="20" height="20"/><rect class="cls-3" x="628" y="687" width="20" height="19"/><rect class="cls-3" x="628" y="667" width="20" height="20"/><rect class="cls-4" x="628" y="648" width="20" height="19"/><rect class="cls-4" x="628" y="628" width="20" height="20"/><rect class="cls-4" x="628" y="608" width="20" height="20"/><rect class="cls-5" x="628" y="589" width="20" height="19"/><rect x="628" y="569" width="20" height="20"/><rect class="cls-5" x="628" y="550" width="20" height="19"/><rect class="cls-4" x="628" y="530" width="20" height="20"/><rect class="cls-3" x="628" y="510" width="20" height="20"/><rect class="cls-3" x="628" y="491" width="20" height="19"/><rect class="cls-3" x="628" y="471" width="20" height="20"/><rect class="cls-3" x="628" y="452" width="20" height="19"/><rect class="cls-4" x="628" y="432" width="20" height="20"/><rect class="cls-4" x="628" y="412" width="20" height="20"/><rect class="cls-4" x="628" y="393" width="20" height="19"/><rect class="cls-5" x="628" y="373" width="20" height="20"/><rect x="628" y="354" width="20" height="19"/><rect x="628" y="334" width="20" height="20"/><rect x="628" y="314" width="20" height="20"/><rect class="cls-5" x="628" y="295" width="20" height="19"/><rect x="628" y="275" width="20" height="20"/><rect x="628" y="255" width="20" height="20"/><rect class="cls-5" x="628" y="236" width="20" height="19"/><rect class="cls-5" x="628" y="216" width="20" height="20"/><rect class="cls-1" x="628" y="197" width="20" height="19"/><rect class="cls-1" x="628" y="177" width="20" height="20"/><rect x="628" y="157" width="20" height="20"/><rect x="608" y="844" width="20" height="19"/><rect x="608" y="824" width="20" height="20"/><rect x="608" y="805" width="20" height="19"/><rect x="608" y="785" width="20" height="20"/><rect class="cls-3" x="608" y="765" width="20" height="20"/><rect class="cls-3" x="608" y="746" width="20" height="19"/><rect class="cls-3" x="608" y="726" width="20" height="20"/><rect class="cls-3" x="608" y="706" width="20" height="20"/><rect class="cls-3" x="608" y="687" width="20" height="19"/><rect class="cls-3" x="608" y="667" width="20" height="20"/><rect class="cls-3" x="608" y="648" width="20" height="19"/><rect class="cls-3" x="608" y="628" width="20" height="20"/><rect class="cls-3" x="608" y="608" width="20" height="20"/><rect x="608" y="589" width="20" height="19"/><rect class="cls-4" x="608" y="569" width="20" height="20"/><rect class="cls-4" x="608" y="550" width="20" height="19"/><rect class="cls-3" x="608" y="530" width="20" height="20"/><rect class="cls-3" x="608" y="510" width="20" height="20"/><rect class="cls-3" x="608" y="491" width="20" height="19"/><rect class="cls-3" x="608" y="471" width="20" height="20"/><rect class="cls-3" x="608" y="452" width="20" height="19"/><rect x="608" y="432" width="20" height="20"/><rect class="cls-3" x="608" y="412" width="20" height="20"/><rect class="cls-3" x="608" y="393" width="20" height="19"/><rect class="cls-3" x="608" y="373" width="20" height="20"/><rect class="cls-5" x="608" y="354" width="20" height="19"/><rect class="cls-5" x="608" y="334" width="20" height="20"/><rect x="608" y="314" width="20" height="20"/><rect class="cls-3" x="608" y="295" width="20" height="19"/><rect class="cls-3" x="608" y="275" width="20" height="20"/><rect class="cls-3" x="608" y="255" width="20" height="20"/><rect class="cls-3" x="608" y="236" width="20" height="19"/><rect x="608" y="216" width="20" height="20"/><rect x="608" y="197" width="20" height="19"/><rect x="608" y="177" width="20" height="20"/><rect x="589" y="863" width="19" height="20"/><rect class="cls-6" x="589" y="844" width="19" height="19"/><rect x="589" y="824" width="19" height="20"/><rect class="cls-3" x="589" y="805" width="19" height="19"/><rect class="cls-3" x="589" y="785" width="19" height="20"/><rect class="cls-3" x="589" y="765" width="19" height="20"/><rect class="cls-3" x="589" y="746" width="19" height="19"/><rect class="cls-3" x="589" y="726" width="19" height="20"/><rect class="cls-3" x="589" y="706" width="19" height="20"/><rect class="cls-3" x="589" y="687" width="19" height="19"/><rect class="cls-3" x="589" y="667" width="19" height="20"/><rect class="cls-3" x="589" y="648" width="19" height="19"/><rect class="cls-3" x="589" y="628" width="19" height="20"/><rect class="cls-3" x="589" y="608" width="19" height="20"/><rect x="589" y="589" width="19" height="19"/><rect class="cls-3" x="589" y="569" width="19" height="20"/><rect class="cls-3" x="589" y="550" width="19" height="19"/><rect class="cls-3" x="589" y="530" width="19" height="20"/><rect class="cls-3" x="589" y="510" width="19" height="20"/><rect class="cls-3" x="589" y="491" width="19" height="19"/><rect class="cls-3" x="589" y="471" width="19" height="20"/><rect class="cls-3" x="589" y="452" width="19" height="19"/><rect x="589" y="432" width="19" height="20"/><rect x="589" y="412" width="19" height="20"/><rect class="cls-3" x="589" y="393" width="19" height="19"/><rect class="cls-3" x="589" y="373" width="19" height="20"/><rect class="cls-3" x="589" y="354" width="19" height="19"/><rect class="cls-3" x="589" y="334" width="19" height="20"/><rect class="cls-3" x="589" y="314" width="19" height="20"/><rect class="cls-3" x="589" y="295" width="19" height="19"/><rect class="cls-3" x="589" y="275" width="19" height="20"/><rect class="cls-3" x="589" y="255" width="19" height="20"/><rect x="589" y="236" width="19" height="19"/><rect x="569" y="863" width="20" height="20"/><rect class="cls-6" x="569" y="844" width="20" height="19"/><rect x="569" y="824" width="20" height="20"/><rect class="cls-3" x="569" y="805" width="20" height="19"/><rect class="cls-3" x="569" y="785" width="20" height="20"/><rect class="cls-3" x="569" y="765" width="20" height="20"/><rect class="cls-3" x="569" y="746" width="20" height="19"/><rect class="cls-3" x="569" y="726" width="20" height="20"/><rect class="cls-3" x="569" y="706" width="20" height="20"/><rect class="cls-3" x="569" y="687" width="20" height="19"/><rect class="cls-3" x="569" y="667" width="20" height="20"/><rect class="cls-3" x="569" y="648" width="20" height="19"/><rect class="cls-3" x="569" y="628" width="20" height="20"/><rect x="569" y="608" width="20" height="20"/><rect class="cls-3" x="569" y="589" width="20" height="19"/><rect class="cls-3" x="569" y="569" width="20" height="20"/><rect x="569" y="550" width="20" height="19"/><rect class="cls-3" x="569" y="530" width="20" height="20"/><rect class="cls-3" x="569" y="510" width="20" height="20"/><rect class="cls-3" x="569" y="491" width="20" height="19"/><rect class="cls-3" x="569" y="471" width="20" height="20"/><rect class="cls-3" x="569" y="452" width="20" height="19"/><rect x="569" y="432" width="20" height="20"/><rect x="569" y="412" width="20" height="20"/><rect class="cls-3" x="569" y="393" width="20" height="19"/><rect class="cls-3" x="569" y="373" width="20" height="20"/><rect class="cls-3" x="569" y="354" width="20" height="19"/><rect class="cls-3" x="569" y="334" width="20" height="20"/><rect x="569" y="314" width="20" height="20"/><rect x="569" y="295" width="20" height="19"/><rect x="569" y="275" width="20" height="20"/><rect x="569" y="255" width="20" height="20"/><rect x="550" y="863" width="19" height="20"/><rect class="cls-6" x="550" y="844" width="19" height="19"/><rect x="550" y="824" width="19" height="20"/><rect class="cls-3" x="550" y="805" width="19" height="19"/><rect class="cls-3" x="550" y="785" width="19" height="20"/><rect class="cls-3" x="550" y="765" width="19" height="20"/><rect class="cls-3" x="550" y="746" width="19" height="19"/><rect class="cls-3" x="550" y="726" width="19" height="20"/><rect class="cls-3" x="550" y="706" width="19" height="20"/><rect class="cls-3" x="550" y="687" width="19" height="19"/><rect class="cls-3" x="550" y="667" width="19" height="20"/><rect class="cls-3" x="550" y="648" width="19" height="19"/><rect class="cls-3" x="550" y="628" width="19" height="20"/><rect x="550" y="608" width="19" height="20"/><rect class="cls-3" x="550" y="589" width="19" height="19"/><rect class="cls-3" x="550" y="569" width="19" height="20"/><rect class="cls-3" x="550" y="550" width="19" height="19"/><rect x="550" y="530" width="19" height="20"/><rect class="cls-3" x="550" y="510" width="19" height="20"/><rect x="550" y="491" width="19" height="19"/><rect class="cls-3" x="550" y="471" width="19" height="20"/><rect class="cls-3" x="550" y="452" width="19" height="19"/><rect x="550" y="432" width="19" height="20"/><rect class="cls-3" x="550" y="412" width="19" height="20"/><rect class="cls-3" x="550" y="393" width="19" height="19"/><rect class="cls-3" x="550" y="373" width="19" height="20"/><rect class="cls-3" x="550" y="354" width="19" height="19"/><rect x="550" y="334" width="19" height="20"/><rect class="cls-7" x="550" y="314" width="19" height="20"/><rect class="cls-8" x="550" y="295" width="19" height="19"/><rect class="cls-8" x="550" y="275" width="19" height="20"/><rect x="550" y="255" width="19" height="20"/><rect x="550" y="236" width="19" height="19"/><rect x="550" y="216" width="19" height="20"/><rect x="530" y="863" width="20" height="20"/><rect x="530" y="844" width="20" height="19"/><rect x="530" y="824" width="20" height="20"/><rect x="530" y="805" width="20" height="19"/><rect x="530" y="785" width="20" height="20"/><rect x="530" y="765" width="20" height="20"/><rect x="530" y="746" width="20" height="19"/><rect x="530" y="726" width="20" height="20"/><rect x="530" y="706" width="20" height="20"/><rect class="cls-3" x="530" y="687" width="20" height="19"/><rect class="cls-3" x="530" y="667" width="20" height="20"/><rect class="cls-3" x="530" y="648" width="20" height="19"/><rect class="cls-3" x="530" y="628" width="20" height="20"/><rect x="530" y="608" width="20" height="20"/><rect class="cls-3" x="530" y="589" width="20" height="19"/><rect class="cls-3" x="530" y="569" width="20" height="20"/><rect class="cls-3" x="530" y="550" width="20" height="19"/><rect x="530" y="530" width="20" height="20"/><rect class="cls-3" x="530" y="510" width="20" height="20"/><rect class="cls-3" x="530" y="491" width="20" height="19"/><rect class="cls-3" x="530" y="471" width="20" height="20"/><rect class="cls-3" x="530" y="452" width="20" height="19"/><rect class="cls-3" x="530" y="432" width="20" height="20"/><rect class="cls-3" x="530" y="412" width="20" height="20"/><rect class="cls-3" x="530" y="393" width="20" height="19"/><rect class="cls-3" x="530" y="373" width="20" height="20"/><rect x="530" y="354" width="20" height="19"/><rect class="cls-7" x="530" y="334" width="20" height="20"/><rect class="cls-8" x="530" y="314" width="20" height="20"/><rect class="cls-2" x="530" y="295" width="20" height="19"/><rect x="530" y="275" width="20" height="20"/><rect class="cls-9" x="530" y="255" width="20" height="20"/><rect class="cls-9" x="530" y="236" width="20" height="19"/><rect x="530" y="216" width="20" height="20"/><rect x="530" y="197" width="20" height="19"/><rect x="510" y="863" width="20" height="20"/><rect x="510" y="844" width="20" height="19"/><rect x="510" y="824" width="20" height="20"/><rect x="510" y="805" width="20" height="19"/><rect x="510" y="785" width="20" height="20"/><rect x="510" y="765" width="20" height="20"/><rect x="510" y="746" width="20" height="19"/><rect x="510" y="726" width="20" height="20"/><rect x="510" y="706" width="20" height="20"/><rect class="cls-3" x="510" y="687" width="20" height="19"/><rect class="cls-3" x="510" y="667" width="20" height="20"/><rect class="cls-3" x="510" y="648" width="20" height="19"/><rect class="cls-3" x="510" y="628" width="20" height="20"/><rect x="510" y="608" width="20" height="20"/><rect class="cls-3" x="510" y="589" width="20" height="19"/><rect class="cls-3" x="510" y="569" width="20" height="20"/><rect class="cls-3" x="510" y="550" width="20" height="19"/><rect x="510" y="530" width="20" height="20"/><rect class="cls-3" x="510" y="510" width="20" height="20"/><rect class="cls-3" x="510" y="491" width="20" height="19"/><rect class="cls-3" x="510" y="471" width="20" height="20"/><rect class="cls-3" x="510" y="452" width="20" height="19"/><rect class="cls-3" x="510" y="432" width="20" height="20"/><rect class="cls-3" x="510" y="412" width="20" height="20"/><rect class="cls-3" x="510" y="393" width="20" height="19"/><rect x="510" y="373" width="20" height="20"/><rect class="cls-7" x="510" y="354" width="20" height="19"/><rect class="cls-8" x="510" y="334" width="20" height="20"/><rect class="cls-2" x="510" y="314" width="20" height="20"/><rect class="cls-2" x="510" y="295" width="20" height="19"/><rect x="510" y="275" width="20" height="20"/><rect class="cls-6" x="510" y="255" width="20" height="20"/><rect class="cls-6" x="510" y="236" width="20" height="19"/><rect class="cls-9" x="510" y="216" width="20" height="20"/><rect class="cls-9" x="510" y="197" width="20" height="19"/><rect x="510" y="177" width="20" height="20"/><rect x="510" y="157" width="20" height="20"/><rect x="510" y="138" width="20" height="19"/><rect x="491" y="863" width="19" height="20"/><rect class="cls-6" x="491" y="844" width="19" height="19"/><rect x="491" y="824" width="19" height="20"/><rect class="cls-3" x="491" y="805" width="19" height="19"/><rect class="cls-3" x="491" y="785" width="19" height="20"/><rect class="cls-3" x="491" y="765" width="19" height="20"/><rect class="cls-3" x="491" y="746" width="19" height="19"/><rect class="cls-3" x="491" y="726" width="19" height="20"/><rect class="cls-3" x="491" y="706" width="19" height="20"/><rect class="cls-3" x="491" y="687" width="19" height="19"/><rect class="cls-3" x="491" y="667" width="19" height="20"/><rect class="cls-3" x="491" y="648" width="19" height="19"/><rect class="cls-3" x="491" y="628" width="19" height="20"/><rect x="491" y="608" width="19" height="20"/><rect class="cls-3" x="491" y="589" width="19" height="19"/><rect class="cls-3" x="491" y="569" width="19" height="20"/><rect class="cls-3" x="491" y="550" width="19" height="19"/><rect x="491" y="530" width="19" height="20"/><rect class="cls-3" x="491" y="510" width="19" height="20"/><rect x="491" y="491" width="19" height="19"/><rect class="cls-3" x="491" y="471" width="19" height="20"/><rect class="cls-3" x="491" y="452" width="19" height="19"/><rect class="cls-3" x="491" y="432" width="19" height="20"/><rect class="cls-3" x="491" y="412" width="19" height="20"/><rect x="491" y="393" width="19" height="19"/><rect class="cls-7" x="491" y="373" width="19" height="20"/><rect class="cls-8" x="491" y="354" width="19" height="19"/><rect class="cls-2" x="491" y="334" width="19" height="20"/><rect class="cls-2" x="491" y="314" width="19" height="20"/><rect class="cls-10" x="491" y="295" width="19" height="19"/><rect x="491" y="275" width="19" height="20"/><rect class="cls-6" x="491" y="255" width="19" height="20"/><rect class="cls-6" x="491" y="236" width="19" height="19"/><rect class="cls-6" x="491" y="216" width="19" height="20"/><rect class="cls-6" x="491" y="197" width="19" height="19"/><rect class="cls-9" x="491" y="177" width="19" height="20"/><rect class="cls-9" x="491" y="157" width="19" height="20"/><rect class="cls-9" x="491" y="138" width="19" height="19"/><rect x="491" y="118" width="19" height="20"/><rect x="471" y="863" width="20" height="20"/><rect class="cls-6" x="471" y="844" width="20" height="19"/><rect x="471" y="824" width="20" height="20"/><rect class="cls-3" x="471" y="805" width="20" height="19"/><rect class="cls-3" x="471" y="785" width="20" height="20"/><rect class="cls-3" x="471" y="765" width="20" height="20"/><rect class="cls-3" x="471" y="746" width="20" height="19"/><rect class="cls-3" x="471" y="726" width="20" height="20"/><rect class="cls-3" x="471" y="706" width="20" height="20"/><rect class="cls-3" x="471" y="687" width="20" height="19"/><rect class="cls-3" x="471" y="667" width="20" height="20"/><rect class="cls-3" x="471" y="648" width="20" height="19"/><rect class="cls-3" x="471" y="628" width="20" height="20"/><rect x="471" y="608" width="20" height="20"/><rect class="cls-3" x="471" y="589" width="20" height="19"/><rect class="cls-3" x="471" y="569" width="20" height="20"/><rect x="471" y="550" width="20" height="19"/><rect class="cls-3" x="471" y="530" width="20" height="20"/><rect class="cls-3" x="471" y="510" width="20" height="20"/><rect class="cls-3" x="471" y="491" width="20" height="19"/><rect class="cls-3" x="471" y="471" width="20" height="20"/><rect x="471" y="452" width="20" height="19"/><rect class="cls-3" x="471" y="432" width="20" height="20"/><rect class="cls-3" x="471" y="412" width="20" height="20"/><rect x="471" y="393" width="20" height="19"/><rect class="cls-8" x="471" y="373" width="20" height="20"/><rect class="cls-2" x="471" y="354" width="20" height="19"/><rect class="cls-2" x="471" y="334" width="20" height="20"/><rect class="cls-10" x="471" y="314" width="20" height="20"/><rect class="cls-10" x="471" y="295" width="20" height="19"/><rect x="471" y="275" width="20" height="20"/><rect class="cls-6" x="471" y="255" width="20" height="20"/><rect class="cls-6" x="471" y="236" width="20" height="19"/><rect class="cls-6" x="471" y="216" width="20" height="20"/><rect class="cls-6" x="471" y="197" width="20" height="19"/><rect class="cls-6" x="471" y="177" width="20" height="20"/><rect class="cls-6" x="471" y="157" width="20" height="20"/><rect class="cls-6" x="471" y="138" width="20" height="19"/><rect class="cls-9" x="471" y="118" width="20" height="20"/><rect x="471" y="99" width="20" height="19"/><rect x="452" y="863" width="19" height="20"/><rect class="cls-6" x="452" y="844" width="19" height="19"/><rect x="452" y="824" width="19" height="20"/><rect class="cls-3" x="452" y="805" width="19" height="19"/><rect class="cls-3" x="452" y="785" width="19" height="20"/><rect class="cls-3" x="452" y="765" width="19" height="20"/><rect class="cls-3" x="452" y="746" width="19" height="19"/><rect class="cls-3" x="452" y="726" width="19" height="20"/><rect class="cls-3" x="452" y="706" width="19" height="20"/><rect class="cls-3" x="452" y="687" width="19" height="19"/><rect class="cls-3" x="452" y="667" width="19" height="20"/><rect class="cls-3" x="452" y="648" width="19" height="19"/><rect class="cls-3" x="452" y="628" width="19" height="20"/><rect class="cls-3" x="452" y="608" width="19" height="20"/><rect x="452" y="589" width="19" height="19"/><rect class="cls-3" x="452" y="569" width="19" height="20"/><rect class="cls-3" x="452" y="550" width="19" height="19"/><rect class="cls-3" x="452" y="530" width="19" height="20"/><rect class="cls-3" x="452" y="510" width="19" height="20"/><rect class="cls-3" x="452" y="491" width="19" height="19"/><rect class="cls-3" x="452" y="471" width="19" height="20"/><rect x="452" y="452" width="19" height="19"/><rect x="452" y="432" width="19" height="20"/><rect class="cls-3" x="452" y="412" width="19" height="20"/><rect x="452" y="393" width="19" height="19"/><rect x="452" y="373" width="19" height="20"/><rect class="cls-2" x="452" y="354" width="19" height="19"/><rect class="cls-10" x="452" y="334" width="19" height="20"/><rect class="cls-10" x="452" y="314" width="19" height="20"/><rect class="cls-10" x="452" y="295" width="19" height="19"/><rect x="452" y="275" width="19" height="20"/><rect class="cls-6" x="452" y="255" width="19" height="20"/><rect class="cls-6" x="452" y="236" width="19" height="19"/><rect class="cls-6" x="452" y="216" width="19" height="20"/><rect class="cls-6" x="452" y="197" width="19" height="19"/><rect class="cls-6" x="452" y="177" width="19" height="20"/><rect class="cls-6" x="452" y="157" width="19" height="20"/><rect class="cls-6" x="452" y="138" width="19" height="19"/><rect x="452" y="118" width="19" height="20"/><rect x="432" y="844" width="20" height="19"/><rect x="432" y="824" width="20" height="20"/><rect x="432" y="805" width="20" height="19"/><rect x="432" y="785" width="20" height="20"/><rect class="cls-3" x="432" y="765" width="20" height="20"/><rect class="cls-3" x="432" y="746" width="20" height="19"/><rect class="cls-3" x="432" y="726" width="20" height="20"/><rect class="cls-3" x="432" y="706" width="20" height="20"/><rect class="cls-3" x="432" y="687" width="20" height="19"/><rect class="cls-3" x="432" y="667" width="20" height="20"/><rect class="cls-3" x="432" y="648" width="20" height="19"/><rect class="cls-3" x="432" y="628" width="20" height="20"/><rect class="cls-3" x="432" y="608" width="20" height="20"/><rect x="432" y="589" width="20" height="19"/><rect class="cls-3" x="432" y="569" width="20" height="20"/><rect class="cls-3" x="432" y="550" width="20" height="19"/><rect class="cls-3" x="432" y="530" width="20" height="20"/><rect class="cls-3" x="432" y="510" width="20" height="20"/><rect class="cls-3" x="432" y="491" width="20" height="19"/><rect class="cls-3" x="432" y="471" width="20" height="20"/><rect x="432" y="452" width="20" height="19"/><rect x="432" y="432" width="20" height="20"/><rect class="cls-3" x="432" y="412" width="20" height="20"/><rect x="432" y="393" width="20" height="19"/><rect x="432" y="373" width="20" height="20"/><rect class="cls-10" x="432" y="354" width="20" height="19"/><rect class="cls-10" x="432" y="334" width="20" height="20"/><rect class="cls-10" x="432" y="314" width="20" height="20"/><rect class="cls-11" x="432" y="295" width="20" height="19"/><rect x="432" y="275" width="20" height="20"/><rect class="cls-6" x="432" y="255" width="20" height="20"/><rect class="cls-6" x="432" y="236" width="20" height="19"/><rect class="cls-6" x="432" y="216" width="20" height="20"/><rect class="cls-6" x="432" y="197" width="20" height="19"/><rect x="432" y="177" width="20" height="20"/><rect x="432" y="157" width="20" height="20"/><rect x="432" y="138" width="20" height="19"/><rect x="412" y="824" width="20" height="20"/><rect class="cls-3" x="412" y="805" width="20" height="19"/><rect x="412" y="785" width="20" height="20"/><rect x="412" y="765" width="20" height="20"/><rect x="412" y="746" width="20" height="19"/><rect class="cls-3" x="412" y="726" width="20" height="20"/><rect class="cls-3" x="412" y="706" width="20" height="20"/><rect class="cls-3" x="412" y="687" width="20" height="19"/><rect class="cls-3" x="412" y="667" width="20" height="20"/><rect class="cls-3" x="412" y="648" width="20" height="19"/><rect class="cls-3" x="412" y="628" width="20" height="20"/><rect class="cls-3" x="412" y="608" width="20" height="20"/><rect class="cls-3" x="412" y="589" width="20" height="19"/><rect x="412" y="569" width="20" height="20"/><rect class="cls-3" x="412" y="550" width="20" height="19"/><rect class="cls-3" x="412" y="530" width="20" height="20"/><rect class="cls-3" x="412" y="510" width="20" height="20"/><rect class="cls-3" x="412" y="491" width="20" height="19"/><rect class="cls-3" x="412" y="471" width="20" height="20"/><rect x="412" y="452" width="20" height="19"/><rect class="cls-3" x="412" y="432" width="20" height="20"/><rect class="cls-3" x="412" y="412" width="20" height="20"/><rect class="cls-3" x="412" y="393" width="20" height="19"/><rect x="412" y="373" width="20" height="20"/><rect class="cls-10" x="412" y="354" width="20" height="19"/><rect class="cls-10" x="412" y="334" width="20" height="20"/><rect class="cls-11" x="412" y="314" width="20" height="20"/><rect class="cls-11" x="412" y="295" width="20" height="19"/><rect x="412" y="275" width="20" height="20"/><rect x="412" y="255" width="20" height="20"/><rect x="412" y="236" width="20" height="19"/><rect x="412" y="216" width="20" height="20"/><rect x="412" y="197" width="20" height="19"/><rect x="393" y="824" width="19" height="20"/><rect x="393" y="805" width="19" height="19"/><rect x="393" y="785" width="19" height="20"/><rect class="cls-3" x="393" y="765" width="19" height="20"/><rect class="cls-3" x="393" y="746" width="19" height="19"/><rect x="393" y="726" width="19" height="20"/><rect x="393" y="706" width="19" height="20"/><rect x="393" y="687" width="19" height="19"/><rect class="cls-3" x="393" y="667" width="19" height="20"/><rect class="cls-3" x="393" y="648" width="19" height="19"/><rect class="cls-3" x="393" y="628" width="19" height="20"/><rect class="cls-3" x="393" y="608" width="19" height="20"/><rect class="cls-3" x="393" y="589" width="19" height="19"/><rect x="393" y="569" width="19" height="20"/><rect class="cls-3" x="393" y="550" width="19" height="19"/><rect class="cls-3" x="393" y="530" width="19" height="20"/><rect class="cls-3" x="393" y="510" width="19" height="20"/><rect class="cls-3" x="393" y="491" width="19" height="19"/><rect class="cls-3" x="393" y="471" width="19" height="20"/><rect class="cls-3" x="393" y="452" width="19" height="19"/><rect class="cls-3" x="393" y="432" width="19" height="20"/><rect class="cls-3" x="393" y="412" width="19" height="20"/><rect x="393" y="393" width="19" height="19"/><rect class="cls-10" x="393" y="373" width="19" height="20"/><rect class="cls-10" x="393" y="354" width="19" height="19"/><rect class="cls-11" x="393" y="334" width="19" height="20"/><rect class="cls-11" x="393" y="314" width="19" height="20"/><rect x="393" y="295" width="19" height="19"/><rect x="393" y="275" width="19" height="20"/><rect x="373" y="844" width="20" height="19"/><rect class="cls-3" x="373" y="824" width="20" height="20"/><rect class="cls-3" x="373" y="805" width="20" height="19"/><rect class="cls-3" x="373" y="785" width="20" height="20"/><rect x="373" y="765" width="20" height="20"/><rect class="cls-3" x="373" y="746" width="20" height="19"/><rect class="cls-3" x="373" y="726" width="20" height="20"/><rect class="cls-3" x="373" y="706" width="20" height="20"/><rect class="cls-3" x="373" y="687" width="20" height="19"/><rect class="cls-3" x="373" y="667" width="20" height="20"/><rect class="cls-3" x="373" y="648" width="20" height="19"/><rect class="cls-3" x="373" y="628" width="20" height="20"/><rect x="373" y="608" width="20" height="20"/><rect x="373" y="589" width="20" height="19"/><rect x="373" y="550" width="20" height="19"/><rect x="373" y="530" width="20" height="20"/><rect class="cls-3" x="373" y="510" width="20" height="20"/><rect class="cls-3" x="373" y="491" width="20" height="19"/><rect class="cls-3" x="373" y="471" width="20" height="20"/><rect class="cls-3" x="373" y="452" width="20" height="19"/><rect class="cls-3" x="373" y="432" width="20" height="20"/><rect class="cls-3" x="373" y="412" width="20" height="20"/><rect x="373" y="393" width="20" height="19"/><rect class="cls-11" x="373" y="373" width="20" height="20"/><rect class="cls-11" x="373" y="354" width="20" height="19"/><rect class="cls-11" x="373" y="334" width="20" height="20"/><rect x="373" y="314" width="20" height="20"/><rect class="cls-3" x="373" y="295" width="20" height="19"/><rect class="cls-3" x="373" y="275" width="20" height="20"/><rect x="373" y="255" width="20" height="20"/><rect x="354" y="863" width="19" height="20"/><rect class="cls-3" x="354" y="844" width="19" height="19"/><rect class="cls-2" x="354" y="824" width="19" height="20"/><rect class="cls-2" x="354" y="805" width="19" height="19"/><rect class="cls-2" x="354" y="785" width="19" height="20"/><rect class="cls-3" x="354" y="765" width="19" height="20"/><rect x="354" y="746" width="19" height="19"/><rect class="cls-3" x="354" y="726" width="19" height="20"/><rect class="cls-3" x="354" y="706" width="19" height="20"/><rect class="cls-3" x="354" y="687" width="19" height="19"/><rect x="354" y="667" width="19" height="20"/><rect x="354" y="648" width="19" height="19"/><rect x="354" y="628" width="19" height="20"/><rect x="354" y="510" width="19" height="20"/><rect x="354" y="491" width="19" height="19"/><rect x="354" y="471" width="19" height="20"/><rect x="354" y="452" width="19" height="19"/><rect x="354" y="432" width="19" height="20"/><rect x="354" y="412" width="19" height="20"/><rect x="354" y="393" width="19" height="19"/><rect class="cls-11" x="354" y="373" width="19" height="20"/><rect x="354" y="354" width="19" height="19"/><rect x="354" y="334" width="19" height="20"/><rect class="cls-3" x="354" y="314" width="19" height="20"/><rect x="354" y="295" width="19" height="19"/><rect x="354" y="275" width="19" height="20"/><rect class="cls-3" x="354" y="255" width="19" height="20"/><rect x="354" y="236" width="19" height="19"/><rect x="334" y="863" width="20" height="20"/><rect class="cls-3" x="334" y="844" width="20" height="19"/><rect class="cls-2" x="334" y="824" width="20" height="20"/><rect class="cls-2" x="334" y="805" width="20" height="19"/><rect class="cls-2" x="334" y="785" width="20" height="20"/><rect class="cls-3" x="334" y="765" width="20" height="20"/><rect x="334" y="746" width="20" height="19"/><rect x="334" y="726" width="20" height="20"/><rect x="334" y="706" width="20" height="20"/><rect x="334" y="687" width="20" height="19"/><rect x="334" y="393" width="20" height="19"/><rect x="334" y="373" width="20" height="20"/><rect x="334" y="354" width="20" height="19"/><rect class="cls-3" x="334" y="334" width="20" height="20"/><rect class="cls-3" x="334" y="314" width="20" height="20"/><rect class="cls-3" x="334" y="295" width="20" height="19"/><rect class="cls-3" x="334" y="275" width="20" height="20"/><rect class="cls-3" x="334" y="255" width="20" height="20"/><rect class="cls-3" x="334" y="236" width="20" height="19"/><rect x="334" y="216" width="20" height="20"/><rect x="314" y="863" width="20" height="20"/><rect class="cls-3" x="314" y="844" width="20" height="19"/><rect class="cls-2" x="314" y="824" width="20" height="20"/><rect class="cls-2" x="314" y="805" width="20" height="19"/><rect class="cls-2" x="314" y="785" width="20" height="20"/><rect class="cls-3" x="314" y="765" width="20" height="20"/><rect x="314" y="746" width="20" height="19"/><rect x="314" y="334" width="20" height="20"/><rect x="314" y="314" width="20" height="20"/><rect x="314" y="295" width="20" height="19"/><rect x="314" y="275" width="20" height="20"/><rect x="314" y="255" width="20" height="20"/><rect x="314" y="236" width="20" height="19"/><rect x="295" y="844" width="19" height="19"/><rect class="cls-3" x="295" y="824" width="19" height="20"/><rect class="cls-3" x="295" y="805" width="19" height="19"/><rect class="cls-3" x="295" y="785" width="19" height="20"/><rect x="295" y="765" width="19" height="20"/><rect x="275" y="824" width="20" height="20"/><rect x="275" y="805" width="20" height="19"/><rect x="275" y="785" width="20" height="20"/></g></svg>