<svg xmlns="http://www.w3.org/2000/svg" viewBox="0 0 1000 1000"><defs><style>.cls-1{fill:#f9b2dd;}.cls-2{fill:#ed1e79;}.cls-3{fill:#fcdeec;}.cls-4{fill:#fcd4e8;}.cls-5{fill:#f4bde0;}.cls-6{fill:aqua;}.cls-7{fill:lime;}.cls-8{fill:blue;}.cls-9{fill:#00eae4;}.cls-10{fill:#ff0;}.cls-11{fill:#93278f;}</style></defs><title>uni-8</title><g id="Layer_8" data-name="Layer 8"><rect x="878" y="166" width="20" height="20"/><rect x="878" y="127" width="20" height="20"/><rect x="878" y="108" width="20" height="19"/><rect x="859" y="166" width="19" height="20"/><rect x="859" y="147" width="19" height="19"/><rect x="859" y="108" width="19" height="19"/><rect x="839" y="166" width="20" height="20"/><rect x="839" y="108" width="20" height="19"/><rect x="820" y="284" width="19" height="20"/><rect x="820" y="245" width="19" height="19"/><rect x="820" y="225" width="19" height="20"/><rect x="800" y="284" width="20" height="20"/><rect x="800" y="264" width="20" height="20"/><rect x="800" y="225" width="20" height="20"/><rect x="780" y="833" width="20" height="20"/><rect x="780" y="814" width="20" height="19"/><rect x="780" y="794" width="20" height="20"/><rect x="780" y="284" width="20" height="20"/><rect x="780" y="225" width="20" height="20"/><rect x="761" y="853" width="19" height="19"/><rect class="cls-1" x="761" y="833" width="19" height="20"/><rect class="cls-1" x="761" y="814" width="19" height="19"/><rect class="cls-1" x="761" y="794" width="19" height="20"/><rect x="761" y="774" width="19" height="20"/><rect x="741" y="872" width="20" height="20"/><rect class="cls-1" x="741" y="853" width="20" height="19"/><rect class="cls-2" x="741" y="833" width="20" height="20"/><rect class="cls-2" x="741" y="814" width="20" height="19"/><rect class="cls-2" x="741" y="794" width="20" height="20"/><rect class="cls-1" x="741" y="774" width="20" height="20"/><rect x="741" y="755" width="20" height="19"/><rect x="721" y="872" width="20" height="20"/><rect class="cls-1" x="721" y="853" width="20" height="19"/><rect class="cls-2" x="721" y="833" width="20" height="20"/><rect class="cls-2" x="721" y="814" width="20" height="19"/><rect class="cls-2" x="721" y="794" width="20" height="20"/><rect class="cls-1" x="721" y="774" width="20" height="20"/><rect x="721" y="755" width="20" height="19"/><rect x="721" y="735" width="20" height="20"/><rect x="721" y="715" width="20" height="20"/><rect x="721" y="696" width="20" height="19"/><rect x="702" y="872" width="19" height="20"/><rect class="cls-1" x="702" y="853" width="19" height="19"/><rect class="cls-2" x="702" y="833" width="19" height="20"/><rect class="cls-2" x="702" y="814" width="19" height="19"/><rect class="cls-2" x="702" y="794" width="19" height="20"/><rect class="cls-1" x="702" y="774" width="19" height="20"/><rect x="702" y="755" width="19" height="19"/><rect class="cls-1" x="702" y="735" width="19" height="20"/><rect class="cls-1" x="702" y="715" width="19" height="20"/><rect class="cls-1" x="702" y="696" width="19" height="19"/><rect x="702" y="676" width="19" height="20"/><rect x="702" y="657" width="19" height="19"/><rect x="702" y="519" width="19" height="20"/><rect x="702" y="500" width="19" height="19"/><rect x="702" y="480" width="19" height="20"/><rect x="702" y="461" width="19" height="19"/><rect x="682" y="853" width="20" height="19"/><rect class="cls-3" x="682" y="833" width="20" height="20"/><rect class="cls-3" x="682" y="814" width="20" height="19"/><rect class="cls-3" x="682" y="794" width="20" height="20"/><rect x="682" y="774" width="20" height="20"/><rect class="cls-4" x="682" y="755" width="20" height="19"/><rect class="cls-3" x="682" y="735" width="20" height="20"/><rect class="cls-3" x="682" y="715" width="20" height="20"/><rect class="cls-3" x="682" y="696" width="20" height="19"/><rect class="cls-1" x="682" y="676" width="20" height="20"/><rect class="cls-1" x="682" y="657" width="20" height="19"/><rect x="682" y="637" width="20" height="20"/><rect x="682" y="617" width="20" height="20"/><rect x="682" y="598" width="20" height="19"/><rect x="682" y="559" width="20" height="19"/><rect x="682" y="539" width="20" height="20"/><rect class="cls-1" x="682" y="519" width="20" height="20"/><rect class="cls-1" x="682" y="500" width="20" height="19"/><rect class="cls-1" x="682" y="480" width="20" height="20"/><rect class="cls-1" x="682" y="461" width="20" height="19"/><rect x="682" y="441" width="20" height="20"/><rect x="682" y="421" width="20" height="20"/><rect x="682" y="402" width="20" height="19"/><rect x="682" y="304" width="20" height="19"/><rect x="682" y="284" width="20" height="20"/><rect x="682" y="264" width="20" height="20"/><rect x="682" y="245" width="20" height="19"/><rect x="682" y="225" width="20" height="20"/><rect x="682" y="206" width="20" height="19"/><rect x="663" y="833" width="19" height="20"/><rect x="663" y="814" width="19" height="19"/><rect x="663" y="794" width="19" height="20"/><rect class="cls-3" x="663" y="774" width="19" height="20"/><rect class="cls-3" x="663" y="755" width="19" height="19"/><rect x="663" y="735" width="19" height="20"/><rect x="663" y="715" width="19" height="20"/><rect x="663" y="696" width="19" height="19"/><rect class="cls-3" x="663" y="676" width="19" height="20"/><rect class="cls-1" x="663" y="657" width="19" height="19"/><rect class="cls-1" x="663" y="637" width="19" height="20"/><rect class="cls-1" x="663" y="617" width="19" height="20"/><rect class="cls-1" x="663" y="598" width="19" height="19"/><rect x="663" y="578" width="19" height="20"/><rect class="cls-1" x="663" y="559" width="19" height="19"/><rect class="cls-1" x="663" y="539" width="19" height="20"/><rect class="cls-3" x="663" y="519" width="19" height="20"/><rect class="cls-3" x="663" y="500" width="19" height="19"/><rect class="cls-3" x="663" y="480" width="19" height="20"/><rect class="cls-3" x="663" y="461" width="19" height="19"/><rect class="cls-1" x="663" y="441" width="19" height="20"/><rect class="cls-1" x="663" y="421" width="19" height="20"/><rect class="cls-1" x="663" y="402" width="19" height="19"/><rect x="663" y="382" width="19" height="20"/><rect x="663" y="323" width="19" height="20"/><rect class="cls-1" x="663" y="304" width="19" height="19"/><rect class="cls-1" x="663" y="284" width="19" height="20"/><rect class="cls-1" x="663" y="264" width="19" height="20"/><rect x="663" y="245" width="19" height="19"/><rect class="cls-1" x="663" y="225" width="19" height="20"/><rect class="cls-1" x="663" y="206" width="19" height="19"/><rect x="663" y="186" width="19" height="20"/><rect x="643" y="833" width="20" height="20"/><rect class="cls-3" x="643" y="814" width="20" height="19"/><rect x="643" y="794" width="20" height="20"/><rect x="643" y="774" width="20" height="20"/><rect x="643" y="755" width="20" height="19"/><rect class="cls-3" x="643" y="735" width="20" height="20"/><rect class="cls-3" x="643" y="715" width="20" height="20"/><rect class="cls-3" x="643" y="696" width="20" height="19"/><rect class="cls-3" x="643" y="676" width="20" height="20"/><rect class="cls-4" x="643" y="657" width="20" height="19"/><rect class="cls-4" x="643" y="637" width="20" height="20"/><rect class="cls-4" x="643" y="617" width="20" height="20"/><rect class="cls-5" x="643" y="598" width="20" height="19"/><rect x="643" y="578" width="20" height="20"/><rect class="cls-5" x="643" y="559" width="20" height="19"/><rect class="cls-4" x="643" y="539" width="20" height="20"/><rect class="cls-3" x="643" y="519" width="20" height="20"/><rect class="cls-3" x="643" y="500" width="20" height="19"/><rect class="cls-3" x="643" y="480" width="20" height="20"/><rect class="cls-3" x="643" y="461" width="20" height="19"/><rect class="cls-4" x="643" y="441" width="20" height="20"/><rect class="cls-4" x="643" y="421" width="20" height="20"/><rect class="cls-4" x="643" y="402" width="20" height="19"/><rect class="cls-5" x="643" y="382" width="20" height="20"/><rect x="643" y="363" width="20" height="19"/><rect x="643" y="343" width="20" height="20"/><rect x="643" y="323" width="20" height="20"/><rect class="cls-5" x="643" y="304" width="20" height="19"/><rect x="643" y="284" width="20" height="20"/><rect x="643" y="264" width="20" height="20"/><rect class="cls-5" x="643" y="245" width="20" height="19"/><rect class="cls-5" x="643" y="225" width="20" height="20"/><rect class="cls-1" x="643" y="206" width="20" height="19"/><rect class="cls-1" x="643" y="186" width="20" height="20"/><rect x="643" y="166" width="20" height="20"/><rect x="623" y="853" width="20" height="19"/><rect x="623" y="833" width="20" height="20"/><rect x="623" y="814" width="20" height="19"/><rect x="623" y="794" width="20" height="20"/><rect class="cls-3" x="623" y="774" width="20" height="20"/><rect class="cls-3" x="623" y="755" width="20" height="19"/><rect class="cls-3" x="623" y="735" width="20" height="20"/><rect class="cls-3" x="623" y="715" width="20" height="20"/><rect class="cls-3" x="623" y="696" width="20" height="19"/><rect class="cls-3" x="623" y="676" width="20" height="20"/><rect class="cls-3" x="623" y="657" width="20" height="19"/><rect class="cls-3" x="623" y="637" width="20" height="20"/><rect class="cls-3" x="623" y="617" width="20" height="20"/><rect x="623" y="598" width="20" height="19"/><rect class="cls-4" x="623" y="578" width="20" height="20"/><rect class="cls-4" x="623" y="559" width="20" height="19"/><rect class="cls-3" x="623" y="539" width="20" height="20"/><rect class="cls-3" x="623" y="519" width="20" height="20"/><rect class="cls-3" x="623" y="500" width="20" height="19"/><rect class="cls-3" x="623" y="480" width="20" height="20"/><rect class="cls-3" x="623" y="461" width="20" height="19"/><rect x="623" y="441" width="20" height="20"/><rect class="cls-3" x="623" y="421" width="20" height="20"/><rect class="cls-3" x="623" y="402" width="20" height="19"/><rect class="cls-3" x="623" y="382" width="20" height="20"/><rect class="cls-5" x="623" y="363" width="20" height="19"/><rect class="cls-5" x="623" y="343" width="20" height="20"/><rect x="623" y="323" width="20" height="20"/><rect class="cls-3" x="623" y="304" width="20" height="19"/><rect class="cls-3" x="623" y="284" width="20" height="20"/><rect class="cls-3" x="623" y="264" width="20" height="20"/><rect class="cls-3" x="623" y="245" width="20" height="19"/><rect x="623" y="225" width="20" height="20"/><rect x="623" y="206" width="20" height="19"/><rect x="623" y="186" width="20" height="20"/><rect x="604" y="872" width="19" height="20"/><rect class="cls-6" x="604" y="853" width="19" height="19"/><rect x="604" y="833" width="19" height="20"/><rect class="cls-3" x="604" y="814" width="19" height="19"/><rect class="cls-3" x="604" y="794" width="19" height="20"/><rect class="cls-3" x="604" y="774" width="19" height="20"/><rect class="cls-3" x="604" y="755" width="19" height="19"/><rect class="cls-3" x="604" y="735" width="19" height="20"/><rect class="cls-3" x="604" y="715" width="19" height="20"/><rect class="cls-3" x="604" y="696" width="19" height="19"/><rect class="cls-3" x="604" y="676" width="19" height="20"/><rect class="cls-3" x="604" y="657" width="19" height="19"/><rect class="cls-3" x="604" y="637" width="19" height="20"/><rect class="cls-3" x="604" y="617" width="19" height="20"/><rect x="604" y="598" width="19" height="19"/><rect class="cls-3" x="604" y="578" width="19" height="20"/><rect class="cls-3" x="604" y="559" width="19" height="19"/><rect class="cls-3" x="604" y="539" width="19" height="20"/><rect class="cls-3" x="604" y="519" width="19" height="20"/><rect class="cls-3" x="604" y="500" width="19" height="19"/><rect class="cls-3" x="604" y="480" width="19" height="20"/><rect class="cls-3" x="604" y="461" width="19" height="19"/><rect x="604" y="441" width="19" height="20"/><rect x="604" y="421" width="19" height="20"/><rect class="cls-3" x="604" y="402" width="19" height="19"/><rect class="cls-3" x="604" y="382" width="19" height="20"/><rect class="cls-3" x="604" y="363" width="19" height="19"/><rect class="cls-3" x="604" y="343" width="19" height="20"/><rect class="cls-3" x="604" y="323" width="19" height="20"/><rect class="cls-3" x="604" y="304" width="19" height="19"/><rect class="cls-3" x="604" y="284" width="19" height="20"/><rect class="cls-3" x="604" y="264" width="19" height="20"/><rect x="604" y="245" width="19" height="19"/><rect x="584" y="872" width="20" height="20"/><rect class="cls-6" x="584" y="853" width="20" height="19"/><rect x="584" y="833" width="20" height="20"/><rect class="cls-3" x="584" y="814" width="20" height="19"/><rect class="cls-3" x="584" y="794" width="20" height="20"/><rect class="cls-3" x="584" y="774" width="20" height="20"/><rect class="cls-3" x="584" y="755" width="20" height="19"/><rect class="cls-3" x="584" y="735" width="20" height="20"/><rect class="cls-3" x="584" y="715" width="20" height="20"/><rect class="cls-3" x="584" y="696" width="20" height="19"/><rect class="cls-3" x="584" y="676" width="20" height="20"/><rect class="cls-3" x="584" y="657" width="20" height="19"/><rect class="cls-3" x="584" y="637" width="20" height="20"/><rect x="584" y="617" width="20" height="20"/><rect class="cls-3" x="584" y="598" width="20" height="19"/><rect class="cls-3" x="584" y="578" width="20" height="20"/><rect class="cls-3" x="584" y="559" width="20" height="19"/><rect class="cls-3" x="584" y="539" width="20" height="20"/><rect class="cls-3" x="584" y="519" width="20" height="20"/><rect class="cls-3" x="584" y="500" width="20" height="19"/><rect class="cls-3" x="584" y="480" width="20" height="20"/><rect class="cls-3" x="584" y="461" width="20" height="19"/><rect x="584" y="441" width="20" height="20"/><rect x="584" y="421" width="20" height="20"/><rect class="cls-3" x="584" y="402" width="20" height="19"/><rect class="cls-3" x="584" y="382" width="20" height="20"/><rect class="cls-3" x="584" y="363" width="20" height="19"/><rect class="cls-3" x="584" y="343" width="20" height="20"/><rect x="584" y="323" width="20" height="20"/><rect x="584" y="304" width="20" height="19"/><rect x="584" y="284" width="20" height="20"/><rect x="584" y="264" width="20" height="20"/><rect x="565" y="872" width="19" height="20"/><rect class="cls-6" x="565" y="853" width="19" height="19"/><rect x="565" y="833" width="19" height="20"/><rect class="cls-3" x="565" y="814" width="19" height="19"/><rect class="cls-3" x="565" y="794" width="19" height="20"/><rect class="cls-3" x="565" y="774" width="19" height="20"/><rect class="cls-3" x="565" y="755" width="19" height="19"/><rect class="cls-3" x="565" y="735" width="19" height="20"/><rect class="cls-3" x="565" y="715" width="19" height="20"/><rect class="cls-3" x="565" y="696" width="19" height="19"/><rect class="cls-3" x="565" y="676" width="19" height="20"/><rect class="cls-3" x="565" y="657" width="19" height="19"/><rect class="cls-3" x="565" y="637" width="19" height="20"/><rect x="565" y="617" width="19" height="20"/><rect class="cls-3" x="565" y="598" width="19" height="19"/><rect class="cls-3" x="565" y="578" width="19" height="20"/><rect class="cls-3" x="565" y="559" width="19" height="19"/><rect class="cls-3" x="565" y="539" width="19" height="20"/><rect class="cls-3" x="565" y="519" width="19" height="20"/><rect x="565" y="500" width="19" height="19"/><rect class="cls-3" x="565" y="480" width="19" height="20"/><rect class="cls-3" x="565" y="461" width="19" height="19"/><rect x="565" y="441" width="19" height="20"/><rect class="cls-3" x="565" y="421" width="19" height="20"/><rect class="cls-3" x="565" y="402" width="19" height="19"/><rect class="cls-3" x="565" y="382" width="19" height="20"/><rect class="cls-3" x="565" y="363" width="19" height="19"/><rect x="565" y="343" width="19" height="20"/><rect class="cls-7" x="565" y="323" width="19" height="20"/><rect class="cls-8" x="565" y="304" width="19" height="19"/><rect class="cls-8" x="565" y="284" width="19" height="20"/><rect x="565" y="264" width="19" height="20"/><rect x="565" y="245" width="19" height="19"/><rect x="565" y="225" width="19" height="20"/><rect x="545" y="872" width="20" height="20"/><rect x="545" y="853" width="20" height="19"/><rect x="545" y="833" width="20" height="20"/><rect x="545" y="814" width="20" height="19"/><rect x="545" y="794" width="20" height="20"/><rect x="545" y="774" width="20" height="20"/><rect x="545" y="755" width="20" height="19"/><rect x="545" y="735" width="20" height="20"/><rect x="545" y="715" width="20" height="20"/><rect class="cls-3" x="545" y="696" width="20" height="19"/><rect class="cls-3" x="545" y="676" width="20" height="20"/><rect class="cls-3" x="545" y="657" width="20" height="19"/><rect class="cls-3" x="545" y="637" width="20" height="20"/><rect x="545" y="617" width="20" height="20"/><rect class="cls-3" x="545" y="598" width="20" height="19"/><rect x="545" y="578" width="20" height="20"/><rect x="545" y="559" width="20" height="19"/><rect x="545" y="539" width="20" height="20"/><rect class="cls-3" x="545" y="519" width="20" height="20"/><rect class="cls-3" x="545" y="500" width="20" height="19"/><rect class="cls-3" x="545" y="480" width="20" height="20"/><rect class="cls-3" x="545" y="461" width="20" height="19"/><rect class="cls-3" x="545" y="441" width="20" height="20"/><rect class="cls-3" x="545" y="421" width="20" height="20"/><rect class="cls-3" x="545" y="402" width="20" height="19"/><rect class="cls-3" x="545" y="382" width="20" height="20"/><rect x="545" y="363" width="20" height="19"/><rect class="cls-7" x="545" y="343" width="20" height="20"/><rect class="cls-8" x="545" y="323" width="20" height="20"/><rect class="cls-2" x="545" y="304" width="20" height="19"/><rect x="545" y="284" width="20" height="20"/><rect class="cls-9" x="545" y="264" width="20" height="20"/><rect class="cls-9" x="545" y="245" width="20" height="19"/><rect x="545" y="225" width="20" height="20"/><rect x="545" y="206" width="20" height="19"/><rect x="525" y="872" width="20" height="20"/><rect x="525" y="853" width="20" height="19"/><rect x="525" y="833" width="20" height="20"/><rect x="525" y="814" width="20" height="19"/><rect x="525" y="794" width="20" height="20"/><rect x="525" y="774" width="20" height="20"/><rect x="525" y="755" width="20" height="19"/><rect x="525" y="735" width="20" height="20"/><rect x="525" y="715" width="20" height="20"/><rect class="cls-3" x="525" y="696" width="20" height="19"/><rect class="cls-3" x="525" y="676" width="20" height="20"/><rect class="cls-3" x="525" y="657" width="20" height="19"/><rect class="cls-3" x="525" y="637" width="20" height="20"/><rect x="525" y="617" width="20" height="20"/><rect class="cls-3" x="525" y="598" width="20" height="19"/><rect x="525" y="578" width="20" height="20"/><rect class="cls-3" x="525" y="559" width="20" height="19"/><rect x="525" y="539" width="20" height="20"/><rect class="cls-3" x="525" y="519" width="20" height="20"/><rect class="cls-3" x="525" y="500" width="20" height="19"/><rect class="cls-3" x="525" y="480" width="20" height="20"/><rect class="cls-3" x="525" y="461" width="20" height="19"/><rect class="cls-3" x="525" y="441" width="20" height="20"/><rect class="cls-3" x="525" y="421" width="20" height="20"/><rect class="cls-3" x="525" y="402" width="20" height="19"/><rect x="525" y="382" width="20" height="20"/><rect class="cls-7" x="525" y="363" width="20" height="19"/><rect class="cls-8" x="525" y="343" width="20" height="20"/><rect class="cls-2" x="525" y="323" width="20" height="20"/><rect class="cls-2" x="525" y="304" width="20" height="19"/><rect x="525" y="284" width="20" height="20"/><rect class="cls-6" x="525" y="264" width="20" height="20"/><rect class="cls-6" x="525" y="245" width="20" height="19"/><rect class="cls-9" x="525" y="225" width="20" height="20"/><rect class="cls-9" x="525" y="206" width="20" height="19"/><rect x="525" y="186" width="20" height="20"/><rect x="525" y="166" width="20" height="20"/><rect x="525" y="147" width="20" height="19"/><rect x="506" y="872" width="19" height="20"/><rect class="cls-6" x="506" y="853" width="19" height="19"/><rect x="506" y="833" width="19" height="20"/><rect class="cls-3" x="506" y="814" width="19" height="19"/><rect class="cls-3" x="506" y="794" width="19" height="20"/><rect class="cls-3" x="506" y="774" width="19" height="20"/><rect class="cls-3" x="506" y="755" width="19" height="19"/><rect class="cls-3" x="506" y="735" width="19" height="20"/><rect class="cls-3" x="506" y="715" width="19" height="20"/><rect class="cls-3" x="506" y="696" width="19" height="19"/><rect class="cls-3" x="506" y="676" width="19" height="20"/><rect class="cls-3" x="506" y="657" width="19" height="19"/><rect class="cls-3" x="506" y="637" width="19" height="20"/><rect x="506" y="617" width="19" height="20"/><rect class="cls-3" x="506" y="598" width="19" height="19"/><rect x="506" y="578" width="19" height="20"/><rect x="506" y="559" width="19" height="19"/><rect x="506" y="539" width="19" height="20"/><rect class="cls-3" x="506" y="519" width="19" height="20"/><rect x="506" y="500" width="19" height="19"/><rect class="cls-3" x="506" y="480" width="19" height="20"/><rect class="cls-3" x="506" y="461" width="19" height="19"/><rect class="cls-3" x="506" y="441" width="19" height="20"/><rect class="cls-3" x="506" y="421" width="19" height="20"/><rect x="506" y="402" width="19" height="19"/><rect class="cls-7" x="506" y="382" width="19" height="20"/><rect class="cls-8" x="506" y="363" width="19" height="19"/><rect class="cls-2" x="506" y="343" width="19" height="20"/><rect class="cls-2" x="506" y="323" width="19" height="20"/><rect class="cls-10" x="506" y="304" width="19" height="19"/><rect x="506" y="284" width="19" height="20"/><rect class="cls-6" x="506" y="264" width="19" height="20"/><rect class="cls-6" x="506" y="245" width="19" height="19"/><rect class="cls-6" x="506" y="225" width="19" height="20"/><rect class="cls-6" x="506" y="206" width="19" height="19"/><rect class="cls-9" x="506" y="186" width="19" height="20"/><rect class="cls-9" x="506" y="166" width="19" height="20"/><rect class="cls-9" x="506" y="147" width="19" height="19"/><rect x="506" y="127" width="19" height="20"/><rect x="486" y="872" width="20" height="20"/><rect class="cls-6" x="486" y="853" width="20" height="19"/><rect x="486" y="833" width="20" height="20"/><rect class="cls-3" x="486" y="814" width="20" height="19"/><rect class="cls-3" x="486" y="794" width="20" height="20"/><rect class="cls-3" x="486" y="774" width="20" height="20"/><rect class="cls-3" x="486" y="755" width="20" height="19"/><rect class="cls-3" x="486" y="735" width="20" height="20"/><rect class="cls-3" x="486" y="715" width="20" height="20"/><rect class="cls-3" x="486" y="696" width="20" height="19"/><rect class="cls-3" x="486" y="676" width="20" height="20"/><rect class="cls-3" x="486" y="657" width="20" height="19"/><rect class="cls-3" x="486" y="637" width="20" height="20"/><rect x="486" y="617" width="20" height="20"/><rect class="cls-3" x="486" y="598" width="20" height="19"/><rect class="cls-3" x="486" y="578" width="20" height="20"/><rect class="cls-3" x="486" y="559" width="20" height="19"/><rect class="cls-3" x="486" y="539" width="20" height="20"/><rect class="cls-3" x="486" y="519" width="20" height="20"/><rect class="cls-3" x="486" y="500" width="20" height="19"/><rect class="cls-3" x="486" y="480" width="20" height="20"/><rect x="486" y="461" width="20" height="19"/><rect class="cls-3" x="486" y="441" width="20" height="20"/><rect class="cls-3" x="486" y="421" width="20" height="20"/><rect x="486" y="402" width="20" height="19"/><rect class="cls-8" x="486" y="382" width="20" height="20"/><rect class="cls-2" x="486" y="363" width="20" height="19"/><rect class="cls-2" x="486" y="343" width="20" height="20"/><rect class="cls-10" x="486" y="323" width="20" height="20"/><rect class="cls-10" x="486" y="304" width="20" height="19"/><rect x="486" y="284" width="20" height="20"/><rect class="cls-6" x="486" y="264" width="20" height="20"/><rect class="cls-6" x="486" y="245" width="20" height="19"/><rect class="cls-6" x="486" y="225" width="20" height="20"/><rect class="cls-6" x="486" y="206" width="20" height="19"/><rect class="cls-6" x="486" y="186" width="20" height="20"/><rect class="cls-6" x="486" y="166" width="20" height="20"/><rect class="cls-6" x="486" y="147" width="20" height="19"/><rect class="cls-9" x="486" y="127" width="20" height="20"/><rect x="486" y="108" width="20" height="19"/><rect x="467" y="872" width="19" height="20"/><rect class="cls-6" x="467" y="853" width="19" height="19"/><rect x="467" y="833" width="19" height="20"/><rect class="cls-3" x="467" y="814" width="19" height="19"/><rect class="cls-3" x="467" y="794" width="19" height="20"/><rect class="cls-3" x="467" y="774" width="19" height="20"/><rect class="cls-3" x="467" y="755" width="19" height="19"/><rect class="cls-3" x="467" y="735" width="19" height="20"/><rect class="cls-3" x="467" y="715" width="19" height="20"/><rect class="cls-3" x="467" y="696" width="19" height="19"/><rect class="cls-3" x="467" y="676" width="19" height="20"/><rect class="cls-3" x="467" y="657" width="19" height="19"/><rect class="cls-3" x="467" y="637" width="19" height="20"/><rect class="cls-3" x="467" y="617" width="19" height="20"/><rect x="467" y="598" width="19" height="19"/><rect class="cls-3" x="467" y="578" width="19" height="20"/><rect class="cls-3" x="467" y="559" width="19" height="19"/><rect class="cls-3" x="467" y="539" width="19" height="20"/><rect class="cls-3" x="467" y="519" width="19" height="20"/><rect class="cls-3" x="467" y="500" width="19" height="19"/><rect class="cls-3" x="467" y="480" width="19" height="20"/><rect x="467" y="461" width="19" height="19"/><rect x="467" y="441" width="19" height="20"/><rect class="cls-3" x="467" y="421" width="19" height="20"/><rect x="467" y="402" width="19" height="19"/><rect x="467" y="382" width="19" height="20"/><rect class="cls-2" x="467" y="363" width="19" height="19"/><rect class="cls-10" x="467" y="343" width="19" height="20"/><rect class="cls-10" x="467" y="323" width="19" height="20"/><rect class="cls-10" x="467" y="304" width="19" height="19"/><rect x="467" y="284" width="19" height="20"/><rect class="cls-6" x="467" y="264" width="19" height="20"/><rect class="cls-6" x="467" y="245" width="19" height="19"/><rect class="cls-6" x="467" y="225" width="19" height="20"/><rect class="cls-6" x="467" y="206" width="19" height="19"/><rect class="cls-6" x="467" y="186" width="19" height="20"/><rect class="cls-6" x="467" y="166" width="19" height="20"/><rect class="cls-6" x="467" y="147" width="19" height="19"/><rect x="467" y="127" width="19" height="20"/><rect x="447" y="853" width="20" height="19"/><rect x="447" y="833" width="20" height="20"/><rect x="447" y="814" width="20" height="19"/><rect x="447" y="794" width="20" height="20"/><rect class="cls-3" x="447" y="774" width="20" height="20"/><rect class="cls-3" x="447" y="755" width="20" height="19"/><rect class="cls-3" x="447" y="735" width="20" height="20"/><rect class="cls-3" x="447" y="715" width="20" height="20"/><rect class="cls-3" x="447" y="696" width="20" height="19"/><rect class="cls-3" x="447" y="676" width="20" height="20"/><rect class="cls-3" x="447" y="657" width="20" height="19"/><rect class="cls-3" x="447" y="637" width="20" height="20"/><rect class="cls-3" x="447" y="617" width="20" height="20"/><rect x="447" y="598" width="20" height="19"/><rect class="cls-3" x="447" y="578" width="20" height="20"/><rect class="cls-3" x="447" y="559" width="20" height="19"/><rect class="cls-3" x="447" y="539" width="20" height="20"/><rect class="cls-3" x="447" y="519" width="20" height="20"/><rect class="cls-3" x="447" y="500" width="20" height="19"/><rect class="cls-3" x="447" y="480" width="20" height="20"/><rect x="447" y="461" width="20" height="19"/><rect x="447" y="441" width="20" height="20"/><rect class="cls-3" x="447" y="421" width="20" height="20"/><rect x="447" y="402" width="20" height="19"/><rect x="447" y="382" width="20" height="20"/><rect class="cls-10" x="447" y="363" width="20" height="19"/><rect class="cls-10" x="447" y="343" width="20" height="20"/><rect class="cls-10" x="447" y="323" width="20" height="20"/><rect class="cls-11" x="447" y="304" width="20" height="19"/><rect x="447" y="284" width="20" height="20"/><rect class="cls-6" x="447" y="264" width="20" height="20"/><rect class="cls-6" x="447" y="245" width="20" height="19"/><rect class="cls-6" x="447" y="225" width="20" height="20"/><rect class="cls-6" x="447" y="206" width="20" height="19"/><rect x="447" y="186" width="20" height="20"/><rect x="447" y="166" width="20" height="20"/><rect x="447" y="147" width="20" height="19"/><rect x="427" y="833" width="20" height="20"/><rect class="cls-3" x="427" y="814" width="20" height="19"/><rect x="427" y="794" width="20" height="20"/><rect x="427" y="774" width="20" height="20"/><rect x="427" y="755" width="20" height="19"/><rect class="cls-3" x="427" y="735" width="20" height="20"/><rect class="cls-3" x="427" y="715" width="20" height="20"/><rect class="cls-3" x="427" y="696" width="20" height="19"/><rect class="cls-3" x="427" y="676" width="20" height="20"/><rect class="cls-3" x="427" y="657" width="20" height="19"/><rect class="cls-3" x="427" y="637" width="20" height="20"/><rect class="cls-3" x="427" y="617" width="20" height="20"/><rect class="cls-3" x="427" y="598" width="20" height="19"/><rect x="427" y="578" width="20" height="20"/><rect class="cls-3" x="427" y="559" width="20" height="19"/><rect class="cls-3" x="427" y="539" width="20" height="20"/><rect class="cls-3" x="427" y="519" width="20" height="20"/><rect class="cls-3" x="427" y="500" width="20" height="19"/><rect class="cls-3" x="427" y="480" width="20" height="20"/><rect x="427" y="461" width="20" height="19"/><rect class="cls-3" x="427" y="441" width="20" height="20"/><rect class="cls-3" x="427" y="421" width="20" height="20"/><rect class="cls-3" x="427" y="402" width="20" height="19"/><rect x="427" y="382" width="20" height="20"/><rect class="cls-10" x="427" y="363" width="20" height="19"/><rect class="cls-10" x="427" y="343" width="20" height="20"/><rect class="cls-11" x="427" y="323" width="20" height="20"/><rect class="cls-11" x="427" y="304" width="20" height="19"/><rect x="427" y="284" width="20" height="20"/><rect x="427" y="264" width="20" height="20"/><rect x="427" y="245" width="20" height="19"/><rect x="427" y="225" width="20" height="20"/><rect x="427" y="206" width="20" height="19"/><rect x="408" y="833" width="19" height="20"/><rect x="408" y="814" width="19" height="19"/><rect x="408" y="794" width="19" height="20"/><rect class="cls-3" x="408" y="774" width="19" height="20"/><rect class="cls-3" x="408" y="755" width="19" height="19"/><rect x="408" y="735" width="19" height="20"/><rect x="408" y="715" width="19" height="20"/><rect x="408" y="696" width="19" height="19"/><rect class="cls-3" x="408" y="676" width="19" height="20"/><rect class="cls-3" x="408" y="657" width="19" height="19"/><rect class="cls-3" x="408" y="637" width="19" height="20"/><rect class="cls-3" x="408" y="617" width="19" height="20"/><rect class="cls-3" x="408" y="598" width="19" height="19"/><rect x="408" y="578" width="19" height="20"/><rect class="cls-3" x="408" y="559" width="19" height="19"/><rect class="cls-3" x="408" y="539" width="19" height="20"/><rect class="cls-3" x="408" y="519" width="19" height="20"/><rect class="cls-3" x="408" y="500" width="19" height="19"/><rect class="cls-3" x="408" y="480" width="19" height="20"/><rect class="cls-3" x="408" y="461" width="19" height="19"/><rect class="cls-3" x="408" y="441" width="19" height="20"/><rect class="cls-3" x="408" y="421" width="19" height="20"/><rect x="408" y="402" width="19" height="19"/><rect class="cls-10" x="408" y="382" width="19" height="20"/><rect class="cls-10" x="408" y="363" width="19" height="19"/><rect class="cls-11" x="408" y="343" width="19" height="20"/><rect class="cls-11" x="408" y="323" width="19" height="20"/><rect x="408" y="304" width="19" height="19"/><rect x="408" y="284" width="19" height="20"/><rect x="388" y="853" width="20" height="19"/><rect class="cls-3" x="388" y="833" width="20" height="20"/><rect class="cls-3" x="388" y="814" width="20" height="19"/><rect class="cls-3" x="388" y="794" width="20" height="20"/><rect x="388" y="774" width="20" height="20"/><rect class="cls-3" x="388" y="755" width="20" height="19"/><rect class="cls-3" x="388" y="735" width="20" height="20"/><rect class="cls-3" x="388" y="715" width="20" height="20"/><rect class="cls-3" x="388" y="696" width="20" height="19"/><rect class="cls-3" x="388" y="676" width="20" height="20"/><rect class="cls-3" x="388" y="657" width="20" height="19"/><rect class="cls-3" x="388" y="637" width="20" height="20"/><rect x="388" y="617" width="20" height="20"/><rect x="388" y="598" width="20" height="19"/><rect x="388" y="559" width="20" height="19"/><rect x="388" y="539" width="20" height="20"/><rect class="cls-3" x="388" y="519" width="20" height="20"/><rect class="cls-3" x="388" y="500" width="20" height="19"/><rect class="cls-3" x="388" y="480" width="20" height="20"/><rect class="cls-3" x="388" y="461" width="20" height="19"/><rect class="cls-3" x="388" y="441" width="20" height="20"/><rect class="cls-3" x="388" y="421" width="20" height="20"/><rect x="388" y="402" width="20" height="19"/><rect class="cls-11" x="388" y="382" width="20" height="20"/><rect class="cls-11" x="388" y="363" width="20" height="19"/><rect class="cls-11" x="388" y="343" width="20" height="20"/><rect x="388" y="323" width="20" height="20"/><rect class="cls-3" x="388" y="304" width="20" height="19"/><rect class="cls-3" x="388" y="284" width="20" height="20"/><rect x="388" y="264" width="20" height="20"/><rect x="369" y="872" width="19" height="20"/><rect class="cls-3" x="369" y="853" width="19" height="19"/><rect class="cls-2" x="369" y="833" width="19" height="20"/><rect class="cls-2" x="369" y="814" width="19" height="19"/><rect class="cls-2" x="369" y="794" width="19" height="20"/><rect class="cls-3" x="369" y="774" width="19" height="20"/><rect x="369" y="755" width="19" height="19"/><rect class="cls-3" x="369" y="735" width="19" height="20"/><rect class="cls-3" x="369" y="715" width="19" height="20"/><rect class="cls-3" x="369" y="696" width="19" height="19"/><rect x="369" y="676" width="19" height="20"/><rect x="369" y="657" width="19" height="19"/><rect x="369" y="637" width="19" height="20"/><rect x="369" y="519" width="19" height="20"/><rect x="369" y="500" width="19" height="19"/><rect x="369" y="480" width="19" height="20"/><rect x="369" y="461" width="19" height="19"/><rect x="369" y="441" width="19" height="20"/><rect x="369" y="421" width="19" height="20"/><rect x="369" y="402" width="19" height="19"/><rect class="cls-11" x="369" y="382" width="19" height="20"/><rect x="369" y="363" width="19" height="19"/><rect x="369" y="343" width="19" height="20"/><rect class="cls-3" x="369" y="323" width="19" height="20"/><rect x="369" y="304" width="19" height="19"/><rect x="369" y="284" width="19" height="20"/><rect class="cls-3" x="369" y="264" width="19" height="20"/><rect x="369" y="245" width="19" height="19"/><rect x="349" y="872" width="20" height="20"/><rect class="cls-3" x="349" y="853" width="20" height="19"/><rect class="cls-2" x="349" y="833" width="20" height="20"/><rect class="cls-2" x="349" y="814" width="20" height="19"/><rect class="cls-2" x="349" y="794" width="20" height="20"/><rect class="cls-3" x="349" y="774" width="20" height="20"/><rect x="349" y="755" width="20" height="19"/><rect x="349" y="735" width="20" height="20"/><rect x="349" y="715" width="20" height="20"/><rect x="349" y="696" width="20" height="19"/><rect x="349" y="402" width="20" height="19"/><rect x="349" y="382" width="20" height="20"/><rect x="349" y="363" width="20" height="19"/><rect class="cls-3" x="349" y="343" width="20" height="20"/><rect class="cls-3" x="349" y="323" width="20" height="20"/><rect class="cls-3" x="349" y="304" width="20" height="19"/><rect class="cls-3" x="349" y="284" width="20" height="20"/><rect class="cls-3" x="349" y="264" width="20" height="20"/><rect class="cls-3" x="349" y="245" width="20" height="19"/><rect x="349" y="225" width="20" height="20"/><rect x="329" y="872" width="20" height="20"/><rect class="cls-3" x="329" y="853" width="20" height="19"/><rect class="cls-2" x="329" y="833" width="20" height="20"/><rect class="cls-2" x="329" y="814" width="20" height="19"/><rect class="cls-2" x="329" y="794" width="20" height="20"/><rect class="cls-3" x="329" y="774" width="20" height="20"/><rect x="329" y="755" width="20" height="19"/><rect x="329" y="343" width="20" height="20"/><rect x="329" y="323" width="20" height="20"/><rect x="329" y="304" width="20" height="19"/><rect x="329" y="284" width="20" height="20"/><rect x="329" y="264" width="20" height="20"/><rect x="329" y="245" width="20" height="19"/><rect x="310" y="853" width="19" height="19"/><rect class="cls-3" x="310" y="833" width="19" height="20"/><rect class="cls-3" x="310" y="814" width="19" height="19"/><rect class="cls-3" x="310" y="794" width="19" height="20"/><rect x="310" y="774" width="19" height="20"/><rect x="290" y="833" width="20" height="20"/><rect x="290" y="814" width="20" height="19"/><rect x="290" y="794" width="20" height="20"/></g></svg>