<svg xmlns="http://www.w3.org/2000/svg" viewBox="0 0 1000 1000"><defs><style>.cls-1{fill:#f9b2dd;}.cls-2{fill:#ed1e79;}.cls-3{fill:#fcdeec;}.cls-4{fill:#fcd4e8;}.cls-5{fill:#f4bde0;}.cls-6{fill:aqua;}.cls-7{fill:#fff;}.cls-8{fill:lime;}.cls-9{fill:blue;}.cls-10{fill:#00eae4;}.cls-11{fill:#ff0;}.cls-12{fill:#93278f;}</style></defs><title>uni-2</title><g id="Triste"><rect x="764" y="835.5" width="20" height="20"/><rect x="764" y="816.5" width="20" height="19"/><rect x="764" y="796.5" width="20" height="20"/><rect x="745" y="855.5" width="19" height="19"/><rect class="cls-1" x="745" y="835.5" width="19" height="20"/><rect class="cls-1" x="745" y="816.5" width="19" height="19"/><rect class="cls-1" x="745" y="796.5" width="19" height="20"/><rect x="745" y="776.5" width="19" height="20"/><rect x="725" y="874.5" width="20" height="20"/><rect class="cls-1" x="725" y="855.5" width="20" height="19"/><rect class="cls-2" x="725" y="835.5" width="20" height="20"/><rect class="cls-2" x="725" y="816.5" width="20" height="19"/><rect class="cls-2" x="725" y="796.5" width="20" height="20"/><rect class="cls-1" x="725" y="776.5" width="20" height="20"/><rect x="725" y="757.5" width="20" height="19"/><rect x="705" y="874.5" width="20" height="20"/><rect class="cls-1" x="705" y="855.5" width="20" height="19"/><rect class="cls-2" x="705" y="835.5" width="20" height="20"/><rect class="cls-2" x="705" y="816.5" width="20" height="19"/><rect class="cls-2" x="705" y="796.5" width="20" height="20"/><rect class="cls-1" x="705" y="776.5" width="20" height="20"/><rect x="705" y="757.5" width="20" height="19"/><rect x="705" y="737.5" width="20" height="20"/><rect x="705" y="717.5" width="20" height="20"/><rect x="705" y="698.5" width="20" height="19"/><rect x="686" y="874.5" width="19" height="20"/><rect class="cls-1" x="686" y="855.5" width="19" height="19"/><rect class="cls-2" x="686" y="835.5" width="19" height="20"/><rect class="cls-2" x="686" y="816.5" width="19" height="19"/><rect class="cls-2" x="686" y="796.5" width="19" height="20"/><rect class="cls-1" x="686" y="776.5" width="19" height="20"/><rect x="686" y="757.5" width="19" height="19"/><rect class="cls-1" x="686" y="737.5" width="19" height="20"/><rect class="cls-1" x="686" y="717.5" width="19" height="20"/><rect class="cls-1" x="686" y="698.5" width="19" height="19"/><rect x="686" y="678.5" width="19" height="20"/><rect x="686" y="659.5" width="19" height="19"/><rect x="686" y="521.5" width="19" height="20"/><rect x="686" y="502.5" width="19" height="19"/><rect x="686" y="482.5" width="19" height="20"/><rect x="686" y="463.5" width="19" height="19"/><rect x="666" y="855.5" width="20" height="19"/><rect class="cls-3" x="666" y="835.5" width="20" height="20"/><rect class="cls-3" x="666" y="816.5" width="20" height="19"/><rect class="cls-3" x="666" y="796.5" width="20" height="20"/><rect x="666" y="776.5" width="20" height="20"/><rect class="cls-4" x="666" y="757.5" width="20" height="19"/><rect class="cls-3" x="666" y="737.5" width="20" height="20"/><rect class="cls-3" x="666" y="717.5" width="20" height="20"/><rect class="cls-3" x="666" y="698.5" width="20" height="19"/><rect class="cls-1" x="666" y="678.5" width="20" height="20"/><rect class="cls-1" x="666" y="659.5" width="20" height="19"/><rect x="666" y="639.5" width="20" height="20"/><rect x="666" y="619.5" width="20" height="20"/><rect x="666" y="600.5" width="20" height="19"/><rect x="666" y="561.5" width="20" height="19"/><rect x="666" y="541.5" width="20" height="20"/><rect class="cls-1" x="666" y="521.5" width="20" height="20"/><rect class="cls-1" x="666" y="502.5" width="20" height="19"/><rect class="cls-1" x="666" y="482.5" width="20" height="20"/><rect class="cls-1" x="666" y="463.5" width="20" height="19"/><rect x="666" y="443.5" width="20" height="20"/><rect x="666" y="423.5" width="20" height="20"/><rect x="666" y="404.5" width="20" height="19"/><rect x="666" y="306.5" width="20" height="19"/><rect x="666" y="286.5" width="20" height="20"/><rect x="666" y="266.5" width="20" height="20"/><rect x="666" y="247.5" width="20" height="19"/><rect x="666" y="227.5" width="20" height="20"/><rect x="666" y="208.5" width="20" height="19"/><rect x="647" y="835.5" width="19" height="20"/><rect x="647" y="816.5" width="19" height="19"/><rect x="647" y="796.5" width="19" height="20"/><rect class="cls-3" x="647" y="776.5" width="19" height="20"/><rect class="cls-3" x="647" y="757.5" width="19" height="19"/><rect x="647" y="737.5" width="19" height="20"/><rect x="647" y="717.5" width="19" height="20"/><rect x="647" y="698.5" width="19" height="19"/><rect class="cls-3" x="647" y="678.5" width="19" height="20"/><rect class="cls-1" x="647" y="659.5" width="19" height="19"/><rect class="cls-1" x="647" y="639.5" width="19" height="20"/><rect class="cls-1" x="647" y="619.5" width="19" height="20"/><rect class="cls-1" x="647" y="600.5" width="19" height="19"/><rect x="647" y="580.5" width="19" height="20"/><rect class="cls-1" x="647" y="561.5" width="19" height="19"/><rect class="cls-1" x="647" y="541.5" width="19" height="20"/><rect class="cls-3" x="647" y="521.5" width="19" height="20"/><rect class="cls-3" x="647" y="502.5" width="19" height="19"/><rect class="cls-3" x="647" y="482.5" width="19" height="20"/><rect class="cls-3" x="647" y="463.5" width="19" height="19"/><rect class="cls-1" x="647" y="443.5" width="19" height="20"/><rect class="cls-1" x="647" y="423.5" width="19" height="20"/><rect class="cls-1" x="647" y="404.5" width="19" height="19"/><rect x="647" y="384.5" width="19" height="20"/><rect x="647" y="325.5" width="19" height="20"/><rect class="cls-1" x="647" y="306.5" width="19" height="19"/><rect class="cls-1" x="647" y="286.5" width="19" height="20"/><rect class="cls-1" x="647" y="266.5" width="19" height="20"/><rect x="647" y="247.5" width="19" height="19"/><rect class="cls-1" x="647" y="227.5" width="19" height="20"/><rect class="cls-1" x="647" y="208.5" width="19" height="19"/><rect x="647" y="188.5" width="19" height="20"/><rect x="627" y="835.5" width="20" height="20"/><rect class="cls-3" x="627" y="816.5" width="20" height="19"/><rect x="627" y="796.5" width="20" height="20"/><rect x="627" y="776.5" width="20" height="20"/><rect x="627" y="757.5" width="20" height="19"/><rect class="cls-3" x="627" y="737.5" width="20" height="20"/><rect class="cls-3" x="627" y="717.5" width="20" height="20"/><rect class="cls-3" x="627" y="698.5" width="20" height="19"/><rect class="cls-3" x="627" y="678.5" width="20" height="20"/><rect class="cls-4" x="627" y="659.5" width="20" height="19"/><rect class="cls-4" x="627" y="639.5" width="20" height="20"/><rect class="cls-4" x="627" y="619.5" width="20" height="20"/><rect class="cls-5" x="627" y="600.5" width="20" height="19"/><rect x="627" y="580.5" width="20" height="20"/><rect class="cls-5" x="627" y="561.5" width="20" height="19"/><rect class="cls-4" x="627" y="541.5" width="20" height="20"/><rect class="cls-3" x="627" y="521.5" width="20" height="20"/><rect class="cls-3" x="627" y="502.5" width="20" height="19"/><rect class="cls-3" x="627" y="482.5" width="20" height="20"/><rect class="cls-3" x="627" y="463.5" width="20" height="19"/><rect class="cls-4" x="627" y="443.5" width="20" height="20"/><rect class="cls-4" x="627" y="423.5" width="20" height="20"/><rect class="cls-4" x="627" y="404.5" width="20" height="19"/><rect class="cls-5" x="627" y="384.5" width="20" height="20"/><rect x="627" y="365.5" width="20" height="19"/><rect x="627" y="345.5" width="20" height="20"/><rect x="627" y="325.5" width="20" height="20"/><rect class="cls-5" x="627" y="306.5" width="20" height="19"/><rect x="627" y="286.5" width="20" height="20"/><rect x="627" y="266.5" width="20" height="20"/><rect class="cls-5" x="627" y="247.5" width="20" height="19"/><rect class="cls-5" x="627" y="227.5" width="20" height="20"/><rect class="cls-1" x="627" y="208.5" width="20" height="19"/><rect class="cls-1" x="627" y="188.5" width="20" height="20"/><rect x="627" y="168.5" width="20" height="20"/><rect x="607" y="855.5" width="20" height="19"/><rect x="607" y="835.5" width="20" height="20"/><rect x="607" y="816.5" width="20" height="19"/><rect x="607" y="796.5" width="20" height="20"/><rect class="cls-3" x="607" y="776.5" width="20" height="20"/><rect class="cls-3" x="607" y="757.5" width="20" height="19"/><rect class="cls-3" x="607" y="737.5" width="20" height="20"/><rect class="cls-3" x="607" y="717.5" width="20" height="20"/><rect class="cls-3" x="607" y="698.5" width="20" height="19"/><rect class="cls-3" x="607" y="678.5" width="20" height="20"/><rect class="cls-3" x="607" y="659.5" width="20" height="19"/><rect class="cls-3" x="607" y="639.5" width="20" height="20"/><rect class="cls-3" x="607" y="619.5" width="20" height="20"/><rect x="607" y="600.5" width="20" height="19"/><rect class="cls-4" x="607" y="580.5" width="20" height="20"/><rect class="cls-4" x="607" y="561.5" width="20" height="19"/><rect class="cls-3" x="607" y="541.5" width="20" height="20"/><rect class="cls-3" x="607" y="521.5" width="20" height="20"/><rect class="cls-3" x="607" y="502.5" width="20" height="19"/><rect class="cls-3" x="607" y="482.5" width="20" height="20"/><rect class="cls-3" x="607" y="463.5" width="20" height="19"/><rect class="cls-3" x="607" y="443.5" width="20" height="20"/><rect class="cls-3" x="607" y="423.5" width="20" height="20"/><rect class="cls-3" x="607" y="404.5" width="20" height="19"/><rect class="cls-4" x="607" y="384.5" width="20" height="20"/><rect class="cls-5" x="607" y="365.5" width="20" height="19"/><rect class="cls-5" x="607" y="345.5" width="20" height="20"/><rect x="607" y="325.5" width="20" height="20"/><rect class="cls-3" x="607" y="306.5" width="20" height="19"/><rect class="cls-3" x="607" y="286.5" width="20" height="20"/><rect class="cls-3" x="607" y="266.5" width="20" height="20"/><rect class="cls-3" x="607" y="247.5" width="20" height="19"/><rect x="607" y="227.5" width="20" height="20"/><rect x="607" y="208.5" width="20" height="19"/><rect x="607" y="188.5" width="20" height="20"/><rect x="588" y="874.5" width="19" height="20"/><rect class="cls-6" x="588" y="855.5" width="19" height="19"/><rect x="588" y="835.5" width="19" height="20"/><rect class="cls-3" x="588" y="816.5" width="19" height="19"/><rect class="cls-3" x="588" y="796.5" width="19" height="20"/><rect class="cls-3" x="588" y="776.5" width="19" height="20"/><rect class="cls-3" x="588" y="757.5" width="19" height="19"/><rect class="cls-3" x="588" y="737.5" width="19" height="20"/><rect class="cls-3" x="588" y="717.5" width="19" height="20"/><rect class="cls-3" x="588" y="698.5" width="19" height="19"/><rect class="cls-3" x="588" y="678.5" width="19" height="20"/><rect class="cls-3" x="588" y="659.5" width="19" height="19"/><rect class="cls-3" x="588" y="639.5" width="19" height="20"/><rect class="cls-3" x="588" y="619.5" width="19" height="20"/><rect x="588" y="600.5" width="19" height="19"/><rect class="cls-3" x="588" y="580.5" width="19" height="20"/><rect class="cls-3" x="588" y="561.5" width="19" height="19"/><rect class="cls-3" x="588" y="541.5" width="19" height="20"/><rect class="cls-3" x="588" y="521.5" width="19" height="20"/><rect class="cls-3" x="588" y="502.5" width="19" height="19"/><rect class="cls-3" x="588" y="482.5" width="19" height="20"/><rect class="cls-3" x="588" y="463.5" width="19" height="19"/><rect x="588" y="443.5" width="19" height="20"/><rect x="588" y="423.5" width="19" height="20"/><rect x="588" y="404.5" width="19" height="19"/><rect x="588" y="384.5" width="19" height="20"/><rect class="cls-3" x="588" y="365.5" width="19" height="19"/><rect class="cls-3" x="588" y="345.5" width="19" height="20"/><rect class="cls-3" x="588" y="325.5" width="19" height="20"/><rect class="cls-3" x="588" y="306.5" width="19" height="19"/><rect class="cls-3" x="588" y="286.5" width="19" height="20"/><rect class="cls-3" x="588" y="266.5" width="19" height="20"/><rect x="588" y="247.5" width="19" height="19"/><rect x="568" y="874.5" width="20" height="20"/><rect class="cls-6" x="568" y="855.5" width="20" height="19"/><rect x="568" y="835.5" width="20" height="20"/><rect class="cls-3" x="568" y="816.5" width="20" height="19"/><rect class="cls-3" x="568" y="796.5" width="20" height="20"/><rect class="cls-3" x="568" y="776.5" width="20" height="20"/><rect class="cls-3" x="568" y="757.5" width="20" height="19"/><rect class="cls-3" x="568" y="737.5" width="20" height="20"/><rect class="cls-3" x="568" y="717.5" width="20" height="20"/><rect class="cls-3" x="568" y="698.5" width="20" height="19"/><rect class="cls-3" x="568" y="678.5" width="20" height="20"/><rect class="cls-3" x="568" y="659.5" width="20" height="19"/><rect class="cls-3" x="568" y="639.5" width="20" height="20"/><rect x="568" y="619.5" width="20" height="20"/><rect class="cls-3" x="568" y="600.5" width="20" height="19"/><rect class="cls-3" x="568" y="580.5" width="20" height="20"/><rect x="568" y="561.5" width="20" height="19"/><rect class="cls-3" x="568" y="541.5" width="20" height="20"/><rect class="cls-3" x="568" y="521.5" width="20" height="20"/><rect class="cls-3" x="568" y="502.5" width="20" height="19"/><rect class="cls-3" x="568" y="482.5" width="20" height="20"/><rect class="cls-3" x="568" y="463.5" width="20" height="19"/><rect x="568" y="443.5" width="20" height="20"/><rect x="568" y="423.5" width="20" height="20"/><rect class="cls-7" x="568" y="404.5" width="20" height="19"/><rect x="568" y="384.5" width="20" height="20"/><rect class="cls-3" x="568" y="365.5" width="20" height="19"/><rect class="cls-3" x="568" y="345.5" width="20" height="20"/><rect x="568" y="325.5" width="20" height="20"/><rect x="568" y="306.5" width="20" height="19"/><rect x="568" y="286.5" width="20" height="20"/><rect x="568" y="266.5" width="20" height="20"/><rect x="549" y="874.5" width="19" height="20"/><rect class="cls-6" x="549" y="855.5" width="19" height="19"/><rect x="549" y="835.5" width="19" height="20"/><rect class="cls-3" x="549" y="816.5" width="19" height="19"/><rect class="cls-3" x="549" y="796.5" width="19" height="20"/><rect class="cls-3" x="549" y="776.5" width="19" height="20"/><rect class="cls-3" x="549" y="757.5" width="19" height="19"/><rect class="cls-3" x="549" y="737.5" width="19" height="20"/><rect class="cls-3" x="549" y="717.5" width="19" height="20"/><rect class="cls-3" x="549" y="698.5" width="19" height="19"/><rect class="cls-3" x="549" y="678.5" width="19" height="20"/><rect class="cls-3" x="549" y="659.5" width="19" height="19"/><rect class="cls-3" x="549" y="639.5" width="19" height="20"/><rect x="549" y="619.5" width="19" height="20"/><rect class="cls-3" x="549" y="600.5" width="19" height="19"/><rect class="cls-3" x="549" y="580.5" width="19" height="20"/><rect class="cls-3" x="549" y="561.5" width="19" height="19"/><rect x="549" y="541.5" width="19" height="20"/><rect class="cls-3" x="549" y="521.5" width="19" height="20"/><rect x="549" y="502.5" width="19" height="19"/><rect class="cls-3" x="549" y="482.5" width="19" height="20"/><rect class="cls-3" x="549" y="463.5" width="19" height="19"/><rect class="cls-3" x="549" y="443.5" width="19" height="20"/><rect class="cls-3" x="549" y="423.5" width="19" height="20"/><rect class="cls-3" x="549" y="404.5" width="19" height="19"/><rect class="cls-3" x="549" y="384.5" width="19" height="20"/><rect class="cls-3" x="549" y="365.5" width="19" height="19"/><rect x="549" y="345.5" width="19" height="20"/><rect class="cls-8" x="549" y="325.5" width="19" height="20"/><rect class="cls-9" x="549" y="306.5" width="19" height="19"/><rect class="cls-9" x="549" y="286.5" width="19" height="20"/><rect x="549" y="266.5" width="19" height="20"/><rect x="549" y="247.5" width="19" height="19"/><rect x="549" y="227.5" width="19" height="20"/><rect x="529" y="874.5" width="20" height="20"/><rect x="529" y="855.5" width="20" height="19"/><rect x="529" y="835.5" width="20" height="20"/><rect x="529" y="816.5" width="20" height="19"/><rect x="529" y="796.5" width="20" height="20"/><rect x="529" y="776.5" width="20" height="20"/><rect x="529" y="757.5" width="20" height="19"/><rect x="529" y="737.5" width="20" height="20"/><rect x="529" y="717.5" width="20" height="20"/><rect class="cls-3" x="529" y="698.5" width="20" height="19"/><rect class="cls-3" x="529" y="678.5" width="20" height="20"/><rect class="cls-3" x="529" y="659.5" width="20" height="19"/><rect class="cls-3" x="529" y="639.5" width="20" height="20"/><rect x="529" y="619.5" width="20" height="20"/><rect class="cls-3" x="529" y="600.5" width="20" height="19"/><rect class="cls-3" x="529" y="580.5" width="20" height="20"/><rect class="cls-3" x="529" y="561.5" width="20" height="19"/><rect x="529" y="541.5" width="20" height="20"/><rect class="cls-3" x="529" y="521.5" width="20" height="20"/><rect class="cls-3" x="529" y="502.5" width="20" height="19"/><rect class="cls-3" x="529" y="482.5" width="20" height="20"/><rect class="cls-3" x="529" y="463.5" width="20" height="19"/><rect class="cls-3" x="529" y="443.5" width="20" height="20"/><rect class="cls-3" x="529" y="423.5" width="20" height="20"/><rect class="cls-3" x="529" y="404.5" width="20" height="19"/><rect class="cls-3" x="529" y="384.5" width="20" height="20"/><rect x="529" y="365.5" width="20" height="19"/><rect class="cls-8" x="529" y="345.5" width="20" height="20"/><rect class="cls-9" x="529" y="325.5" width="20" height="20"/><rect class="cls-2" x="529" y="306.5" width="20" height="19"/><rect x="529" y="286.5" width="20" height="20"/><rect class="cls-10" x="529" y="266.5" width="20" height="20"/><rect class="cls-10" x="529" y="247.5" width="20" height="19"/><rect x="529" y="227.5" width="20" height="20"/><rect x="529" y="208.5" width="20" height="19"/><rect x="509" y="874.5" width="20" height="20"/><rect x="509" y="855.5" width="20" height="19"/><rect x="509" y="835.5" width="20" height="20"/><rect x="509" y="816.5" width="20" height="19"/><rect x="509" y="796.5" width="20" height="20"/><rect x="509" y="776.5" width="20" height="20"/><rect x="509" y="757.5" width="20" height="19"/><rect x="509" y="737.5" width="20" height="20"/><rect x="509" y="717.5" width="20" height="20"/><rect class="cls-3" x="509" y="698.5" width="20" height="19"/><rect class="cls-3" x="509" y="678.5" width="20" height="20"/><rect class="cls-3" x="509" y="659.5" width="20" height="19"/><rect class="cls-3" x="509" y="639.5" width="20" height="20"/><rect x="509" y="619.5" width="20" height="20"/><rect class="cls-3" x="509" y="600.5" width="20" height="19"/><rect class="cls-3" x="509" y="580.5" width="20" height="20"/><rect class="cls-3" x="509" y="561.5" width="20" height="19"/><rect x="509" y="541.5" width="20" height="20"/><rect class="cls-3" x="509" y="521.5" width="20" height="20"/><rect class="cls-3" x="509" y="502.5" width="20" height="19"/><rect class="cls-3" x="509" y="482.5" width="20" height="20"/><rect class="cls-3" x="509" y="463.5" width="20" height="19"/><rect class="cls-3" x="509" y="443.5" width="20" height="20"/><rect class="cls-3" x="509" y="423.5" width="20" height="20"/><rect class="cls-3" x="509" y="404.5" width="20" height="19"/><rect x="509" y="384.5" width="20" height="20"/><rect class="cls-8" x="509" y="365.5" width="20" height="19"/><rect class="cls-9" x="509" y="345.5" width="20" height="20"/><rect class="cls-2" x="509" y="325.5" width="20" height="20"/><rect class="cls-2" x="509" y="306.5" width="20" height="19"/><rect x="509" y="286.5" width="20" height="20"/><rect class="cls-6" x="509" y="266.5" width="20" height="20"/><rect class="cls-6" x="509" y="247.5" width="20" height="19"/><rect class="cls-10" x="509" y="227.5" width="20" height="20"/><rect class="cls-10" x="509" y="208.5" width="20" height="19"/><rect x="509" y="188.5" width="20" height="20"/><rect x="509" y="168.5" width="20" height="20"/><rect x="509" y="149.5" width="20" height="19"/><rect x="490" y="874.5" width="19" height="20"/><rect class="cls-6" x="490" y="855.5" width="19" height="19"/><rect x="490" y="835.5" width="19" height="20"/><rect class="cls-3" x="490" y="816.5" width="19" height="19"/><rect class="cls-3" x="490" y="796.5" width="19" height="20"/><rect class="cls-3" x="490" y="776.5" width="19" height="20"/><rect class="cls-3" x="490" y="757.5" width="19" height="19"/><rect class="cls-3" x="490" y="737.5" width="19" height="20"/><rect class="cls-3" x="490" y="717.5" width="19" height="20"/><rect class="cls-3" x="490" y="698.5" width="19" height="19"/><rect class="cls-3" x="490" y="678.5" width="19" height="20"/><rect class="cls-3" x="490" y="659.5" width="19" height="19"/><rect class="cls-3" x="490" y="639.5" width="19" height="20"/><rect x="490" y="619.5" width="19" height="20"/><rect class="cls-3" x="490" y="600.5" width="19" height="19"/><rect class="cls-3" x="490" y="580.5" width="19" height="20"/><rect class="cls-3" x="490" y="561.5" width="19" height="19"/><rect x="490" y="541.5" width="19" height="20"/><rect class="cls-3" x="490" y="521.5" width="19" height="20"/><rect x="490" y="502.5" width="19" height="19"/><rect class="cls-3" x="490" y="482.5" width="19" height="20"/><rect class="cls-3" x="490" y="463.5" width="19" height="19"/><rect class="cls-3" x="490" y="443.5" width="19" height="20"/><rect class="cls-3" x="490" y="423.5" width="19" height="20"/><rect x="490" y="404.5" width="19" height="19"/><rect class="cls-8" x="490" y="384.5" width="19" height="20"/><rect class="cls-9" x="490" y="365.5" width="19" height="19"/><rect class="cls-2" x="490" y="345.5" width="19" height="20"/><rect class="cls-2" x="490" y="325.5" width="19" height="20"/><rect class="cls-11" x="490" y="306.5" width="19" height="19"/><rect x="490" y="286.5" width="19" height="20"/><rect class="cls-6" x="490" y="266.5" width="19" height="20"/><rect class="cls-6" x="490" y="247.5" width="19" height="19"/><rect class="cls-6" x="490" y="227.5" width="19" height="20"/><rect class="cls-6" x="490" y="208.5" width="19" height="19"/><rect class="cls-10" x="490" y="188.5" width="19" height="20"/><rect class="cls-10" x="490" y="168.5" width="19" height="20"/><rect class="cls-10" x="490" y="149.5" width="19" height="19"/><rect x="490" y="129.5" width="19" height="20"/><rect x="470" y="874.5" width="20" height="20"/><rect class="cls-6" x="470" y="855.5" width="20" height="19"/><rect x="470" y="835.5" width="20" height="20"/><rect class="cls-3" x="470" y="816.5" width="20" height="19"/><rect class="cls-3" x="470" y="796.5" width="20" height="20"/><rect class="cls-3" x="470" y="776.5" width="20" height="20"/><rect class="cls-3" x="470" y="757.5" width="20" height="19"/><rect class="cls-3" x="470" y="737.5" width="20" height="20"/><rect class="cls-3" x="470" y="717.5" width="20" height="20"/><rect class="cls-3" x="470" y="698.5" width="20" height="19"/><rect class="cls-3" x="470" y="678.5" width="20" height="20"/><rect class="cls-3" x="470" y="659.5" width="20" height="19"/><rect class="cls-3" x="470" y="639.5" width="20" height="20"/><rect x="470" y="619.5" width="20" height="20"/><rect class="cls-3" x="470" y="600.5" width="20" height="19"/><rect class="cls-3" x="470" y="580.5" width="20" height="20"/><rect x="470" y="561.5" width="20" height="19"/><rect class="cls-3" x="470" y="541.5" width="20" height="20"/><rect class="cls-3" x="470" y="521.5" width="20" height="20"/><rect class="cls-3" x="470" y="502.5" width="20" height="19"/><rect class="cls-3" x="470" y="482.5" width="20" height="20"/><rect class="cls-3" x="470" y="463.5" width="20" height="19"/><rect class="cls-3" x="470" y="443.5" width="20" height="20"/><rect class="cls-3" x="470" y="423.5" width="20" height="20"/><rect x="470" y="404.5" width="20" height="19"/><rect class="cls-9" x="470" y="384.5" width="20" height="20"/><rect class="cls-2" x="470" y="365.5" width="20" height="19"/><rect class="cls-2" x="470" y="345.5" width="20" height="20"/><rect class="cls-11" x="470" y="325.5" width="20" height="20"/><rect class="cls-11" x="470" y="306.5" width="20" height="19"/><rect x="470" y="286.5" width="20" height="20"/><rect class="cls-6" x="470" y="266.5" width="20" height="20"/><rect class="cls-6" x="470" y="247.5" width="20" height="19"/><rect class="cls-6" x="470" y="227.5" width="20" height="20"/><rect class="cls-6" x="470" y="208.5" width="20" height="19"/><rect class="cls-6" x="470" y="188.5" width="20" height="20"/><rect class="cls-6" x="470" y="168.5" width="20" height="20"/><rect class="cls-6" x="470" y="149.5" width="20" height="19"/><rect class="cls-10" x="470" y="129.5" width="20" height="20"/><rect x="470" y="110.5" width="20" height="19"/><rect x="451" y="874.5" width="19" height="20"/><rect class="cls-6" x="451" y="855.5" width="19" height="19"/><rect x="451" y="835.5" width="19" height="20"/><rect class="cls-3" x="451" y="816.5" width="19" height="19"/><rect class="cls-3" x="451" y="796.5" width="19" height="20"/><rect class="cls-3" x="451" y="776.5" width="19" height="20"/><rect class="cls-3" x="451" y="757.5" width="19" height="19"/><rect class="cls-3" x="451" y="737.5" width="19" height="20"/><rect class="cls-3" x="451" y="717.5" width="19" height="20"/><rect class="cls-3" x="451" y="698.5" width="19" height="19"/><rect class="cls-3" x="451" y="678.5" width="19" height="20"/><rect class="cls-3" x="451" y="659.5" width="19" height="19"/><rect class="cls-3" x="451" y="639.5" width="19" height="20"/><rect class="cls-3" x="451" y="619.5" width="19" height="20"/><rect x="451" y="600.5" width="19" height="19"/><rect class="cls-3" x="451" y="580.5" width="19" height="20"/><rect class="cls-3" x="451" y="561.5" width="19" height="19"/><rect class="cls-3" x="451" y="541.5" width="19" height="20"/><rect class="cls-3" x="451" y="521.5" width="19" height="20"/><rect class="cls-3" x="451" y="502.5" width="19" height="19"/><rect class="cls-3" x="451" y="482.5" width="19" height="20"/><rect x="451" y="463.5" width="19" height="19"/><rect x="451" y="443.5" width="19" height="20"/><rect x="451" y="423.5" width="19" height="20"/><rect x="451" y="404.5" width="19" height="19"/><rect x="451" y="384.5" width="19" height="20"/><rect class="cls-2" x="451" y="365.5" width="19" height="19"/><rect class="cls-11" x="451" y="345.5" width="19" height="20"/><rect class="cls-11" x="451" y="325.5" width="19" height="20"/><rect class="cls-11" x="451" y="306.5" width="19" height="19"/><rect x="451" y="286.5" width="19" height="20"/><rect class="cls-6" x="451" y="266.5" width="19" height="20"/><rect class="cls-6" x="451" y="247.5" width="19" height="19"/><rect class="cls-6" x="451" y="227.5" width="19" height="20"/><rect class="cls-6" x="451" y="208.5" width="19" height="19"/><rect class="cls-6" x="451" y="188.5" width="19" height="20"/><rect class="cls-6" x="451" y="168.5" width="19" height="20"/><rect class="cls-6" x="451" y="149.5" width="19" height="19"/><rect x="451" y="129.5" width="19" height="20"/><rect x="431" y="855.5" width="20" height="19"/><rect x="431" y="835.5" width="20" height="20"/><rect x="431" y="816.5" width="20" height="19"/><rect x="431" y="796.5" width="20" height="20"/><rect class="cls-3" x="431" y="776.5" width="20" height="20"/><rect class="cls-3" x="431" y="757.5" width="20" height="19"/><rect class="cls-3" x="431" y="737.5" width="20" height="20"/><rect class="cls-3" x="431" y="717.5" width="20" height="20"/><rect class="cls-3" x="431" y="698.5" width="20" height="19"/><rect class="cls-3" x="431" y="678.5" width="20" height="20"/><rect class="cls-3" x="431" y="659.5" width="20" height="19"/><rect class="cls-3" x="431" y="639.5" width="20" height="20"/><rect class="cls-3" x="431" y="619.5" width="20" height="20"/><rect x="431" y="600.5" width="20" height="19"/><rect class="cls-3" x="431" y="580.5" width="20" height="20"/><rect class="cls-3" x="431" y="561.5" width="20" height="19"/><rect class="cls-3" x="431" y="541.5" width="20" height="20"/><rect class="cls-3" x="431" y="521.5" width="20" height="20"/><rect class="cls-3" x="431" y="502.5" width="20" height="19"/><rect class="cls-3" x="431" y="482.5" width="20" height="20"/><rect x="431" y="463.5" width="20" height="19"/><rect x="431" y="443.5" width="20" height="20"/><rect class="cls-7" x="431" y="423.5" width="20" height="20"/><rect x="431" y="404.5" width="20" height="19"/><rect x="431" y="384.5" width="20" height="20"/><rect class="cls-11" x="431" y="365.5" width="20" height="19"/><rect class="cls-11" x="431" y="345.5" width="20" height="20"/><rect class="cls-11" x="431" y="325.5" width="20" height="20"/><rect class="cls-12" x="431" y="306.5" width="20" height="19"/><rect x="431" y="286.5" width="20" height="20"/><rect class="cls-6" x="431" y="266.5" width="20" height="20"/><rect class="cls-6" x="431" y="247.5" width="20" height="19"/><rect class="cls-6" x="431" y="227.5" width="20" height="20"/><rect class="cls-6" x="431" y="208.5" width="20" height="19"/><rect x="431" y="188.5" width="20" height="20"/><rect x="431" y="168.5" width="20" height="20"/><rect x="431" y="149.5" width="20" height="19"/><rect x="411" y="835.5" width="20" height="20"/><rect class="cls-3" x="411" y="816.5" width="20" height="19"/><rect x="411" y="796.5" width="20" height="20"/><rect x="411" y="776.5" width="20" height="20"/><rect x="411" y="757.5" width="20" height="19"/><rect class="cls-3" x="411" y="737.5" width="20" height="20"/><rect class="cls-3" x="411" y="717.5" width="20" height="20"/><rect class="cls-3" x="411" y="698.5" width="20" height="19"/><rect class="cls-3" x="411" y="678.5" width="20" height="20"/><rect class="cls-3" x="411" y="659.5" width="20" height="19"/><rect class="cls-3" x="411" y="639.5" width="20" height="20"/><rect class="cls-3" x="411" y="619.5" width="20" height="20"/><rect class="cls-3" x="411" y="600.5" width="20" height="19"/><rect x="411" y="580.5" width="20" height="20"/><rect class="cls-3" x="411" y="561.5" width="20" height="19"/><rect class="cls-3" x="411" y="541.5" width="20" height="20"/><rect class="cls-3" x="411" y="521.5" width="20" height="20"/><rect class="cls-3" x="411" y="502.5" width="20" height="19"/><rect class="cls-3" x="411" y="482.5" width="20" height="20"/><rect class="cls-3" x="411" y="463.5" width="20" height="19"/><rect class="cls-3" x="411" y="443.5" width="20" height="20"/><rect class="cls-3" x="411" y="423.5" width="20" height="20"/><rect class="cls-3" x="411" y="404.5" width="20" height="19"/><rect x="411" y="384.5" width="20" height="20"/><rect class="cls-11" x="411" y="365.5" width="20" height="19"/><rect class="cls-11" x="411" y="345.5" width="20" height="20"/><rect class="cls-12" x="411" y="325.5" width="20" height="20"/><rect class="cls-12" x="411" y="306.5" width="20" height="19"/><rect x="411" y="286.5" width="20" height="20"/><rect x="411" y="266.5" width="20" height="20"/><rect x="411" y="247.5" width="20" height="19"/><rect x="411" y="227.5" width="20" height="20"/><rect x="411" y="208.5" width="20" height="19"/><rect x="392" y="835.5" width="19" height="20"/><rect x="392" y="816.5" width="19" height="19"/><rect x="392" y="796.5" width="19" height="20"/><rect class="cls-3" x="392" y="776.5" width="19" height="20"/><rect class="cls-3" x="392" y="757.5" width="19" height="19"/><rect x="392" y="737.5" width="19" height="20"/><rect x="392" y="717.5" width="19" height="20"/><rect x="392" y="698.5" width="19" height="19"/><rect class="cls-3" x="392" y="678.5" width="19" height="20"/><rect class="cls-3" x="392" y="659.5" width="19" height="19"/><rect class="cls-3" x="392" y="639.5" width="19" height="20"/><rect class="cls-3" x="392" y="619.5" width="19" height="20"/><rect class="cls-3" x="392" y="600.5" width="19" height="19"/><rect x="392" y="580.5" width="19" height="20"/><rect class="cls-3" x="392" y="561.5" width="19" height="19"/><rect class="cls-3" x="392" y="541.5" width="19" height="20"/><rect class="cls-3" x="392" y="521.5" width="19" height="20"/><rect class="cls-3" x="392" y="502.5" width="19" height="19"/><rect class="cls-3" x="392" y="482.5" width="19" height="20"/><rect class="cls-3" x="392" y="463.5" width="19" height="19"/><rect class="cls-3" x="392" y="443.5" width="19" height="20"/><rect class="cls-3" x="392" y="423.5" width="19" height="20"/><rect x="392" y="404.5" width="19" height="19"/><rect class="cls-11" x="392" y="384.5" width="19" height="20"/><rect class="cls-11" x="392" y="365.5" width="19" height="19"/><rect class="cls-12" x="392" y="345.5" width="19" height="20"/><rect class="cls-12" x="392" y="325.5" width="19" height="20"/><rect x="392" y="306.5" width="19" height="19"/><rect x="392" y="286.5" width="19" height="20"/><rect x="372" y="855.5" width="20" height="19"/><rect class="cls-3" x="372" y="835.5" width="20" height="20"/><rect class="cls-3" x="372" y="816.5" width="20" height="19"/><rect class="cls-3" x="372" y="796.5" width="20" height="20"/><rect x="372" y="776.5" width="20" height="20"/><rect class="cls-3" x="372" y="757.5" width="20" height="19"/><rect class="cls-3" x="372" y="737.5" width="20" height="20"/><rect class="cls-3" x="372" y="717.5" width="20" height="20"/><rect class="cls-3" x="372" y="698.5" width="20" height="19"/><rect class="cls-3" x="372" y="678.5" width="20" height="20"/><rect class="cls-3" x="372" y="659.5" width="20" height="19"/><rect class="cls-3" x="372" y="639.5" width="20" height="20"/><rect x="372" y="619.5" width="20" height="20"/><rect x="372" y="600.5" width="20" height="19"/><rect x="372" y="561.5" width="20" height="19"/><rect x="372" y="541.5" width="20" height="20"/><rect class="cls-3" x="372" y="521.5" width="20" height="20"/><rect class="cls-3" x="372" y="502.5" width="20" height="19"/><rect class="cls-3" x="372" y="482.5" width="20" height="20"/><rect class="cls-3" x="372" y="463.5" width="20" height="19"/><rect class="cls-3" x="372" y="443.5" width="20" height="20"/><rect class="cls-3" x="372" y="423.5" width="20" height="20"/><rect x="372" y="404.5" width="20" height="19"/><rect class="cls-12" x="372" y="384.5" width="20" height="20"/><rect class="cls-12" x="372" y="365.5" width="20" height="19"/><rect class="cls-12" x="372" y="345.5" width="20" height="20"/><rect x="372" y="325.5" width="20" height="20"/><rect class="cls-3" x="372" y="306.5" width="20" height="19"/><rect class="cls-3" x="372" y="286.5" width="20" height="20"/><rect x="372" y="266.5" width="20" height="20"/><rect x="353" y="874.5" width="19" height="20"/><rect class="cls-3" x="353" y="855.5" width="19" height="19"/><rect class="cls-2" x="353" y="835.5" width="19" height="20"/><rect class="cls-2" x="353" y="816.5" width="19" height="19"/><rect class="cls-2" x="353" y="796.5" width="19" height="20"/><rect class="cls-3" x="353" y="776.5" width="19" height="20"/><rect x="353" y="757.5" width="19" height="19"/><rect class="cls-3" x="353" y="737.5" width="19" height="20"/><rect class="cls-3" x="353" y="717.5" width="19" height="20"/><rect class="cls-3" x="353" y="698.5" width="19" height="19"/><rect x="353" y="678.5" width="19" height="20"/><rect x="353" y="659.5" width="19" height="19"/><rect x="353" y="639.5" width="19" height="20"/><rect x="353" y="521.5" width="19" height="20"/><rect x="353" y="502.5" width="19" height="19"/><rect x="353" y="482.5" width="19" height="20"/><rect x="353" y="463.5" width="19" height="19"/><rect x="353" y="443.5" width="19" height="20"/><rect x="353" y="423.5" width="19" height="20"/><rect x="353" y="404.5" width="19" height="19"/><rect class="cls-12" x="353" y="384.5" width="19" height="20"/><rect x="353" y="365.5" width="19" height="19"/><rect x="353" y="345.5" width="19" height="20"/><rect class="cls-3" x="353" y="325.5" width="19" height="20"/><rect x="353" y="306.5" width="19" height="19"/><rect x="353" y="286.5" width="19" height="20"/><rect class="cls-3" x="353" y="266.5" width="19" height="20"/><rect x="353" y="247.5" width="19" height="19"/><rect x="333" y="874.5" width="20" height="20"/><rect class="cls-3" x="333" y="855.5" width="20" height="19"/><rect class="cls-2" x="333" y="835.5" width="20" height="20"/><rect class="cls-2" x="333" y="816.5" width="20" height="19"/><rect class="cls-2" x="333" y="796.5" width="20" height="20"/><rect class="cls-3" x="333" y="776.5" width="20" height="20"/><rect x="333" y="757.5" width="20" height="19"/><rect x="333" y="737.5" width="20" height="20"/><rect x="333" y="717.5" width="20" height="20"/><rect x="333" y="698.5" width="20" height="19"/><rect x="333" y="404.5" width="20" height="19"/><rect x="333" y="384.5" width="20" height="20"/><rect x="333" y="365.5" width="20" height="19"/><rect class="cls-3" x="333" y="345.5" width="20" height="20"/><rect class="cls-3" x="333" y="325.5" width="20" height="20"/><rect class="cls-3" x="333" y="306.5" width="20" height="19"/><rect class="cls-3" x="333" y="286.5" width="20" height="20"/><rect class="cls-3" x="333" y="266.5" width="20" height="20"/><rect class="cls-3" x="333" y="247.5" width="20" height="19"/><rect x="333" y="227.5" width="20" height="20"/><rect x="313" y="874.5" width="20" height="20"/><rect class="cls-3" x="313" y="855.5" width="20" height="19"/><rect class="cls-2" x="313" y="835.5" width="20" height="20"/><rect class="cls-2" x="313" y="816.5" width="20" height="19"/><rect class="cls-2" x="313" y="796.5" width="20" height="20"/><rect class="cls-3" x="313" y="776.5" width="20" height="20"/><rect x="313" y="757.5" width="20" height="19"/><rect x="313" y="345.5" width="20" height="20"/><rect x="313" y="325.5" width="20" height="20"/><rect x="313" y="306.5" width="20" height="19"/><rect x="313" y="286.5" width="20" height="20"/><rect x="313" y="266.5" width="20" height="20"/><rect x="313" y="247.5" width="20" height="19"/><rect x="294" y="855.5" width="19" height="19"/><rect class="cls-3" x="294" y="835.5" width="19" height="20"/><rect class="cls-3" x="294" y="816.5" width="19" height="19"/><rect class="cls-3" x="294" y="796.5" width="19" height="20"/><rect x="294" y="776.5" width="19" height="20"/><rect x="274" y="835.5" width="20" height="20"/><rect x="274" y="816.5" width="20" height="19"/><rect x="274" y="796.5" width="20" height="20"/></g></svg>