<svg xmlns="http://www.w3.org/2000/svg" viewBox="0 0 984 968"><defs><style>.cls-1{fill:#f9b2dd;}.cls-2{fill:#ed1e79;}.cls-3{fill:#fcdeec;}.cls-4{fill:#fcd4e8;}.cls-5{fill:#f4bde0;}.cls-6{fill:#31d8f4;}.cls-7{fill:aqua;}.cls-8{fill:lime;}.cls-9{fill:blue;}.cls-10{fill:#00eae4;}.cls-11{fill:#ff0;}.cls-12{fill:#93278f;}</style></defs><title>uni-0</title><g id="Layer_7" data-name="Layer 7"><rect x="785.31" y="845.75" width="20" height="20"/><rect x="785.31" y="826.75" width="20" height="19"/><rect x="785.31" y="806.75" width="20" height="20"/><rect x="766.31" y="865.75" width="19" height="19"/><rect class="cls-1" x="766.31" y="845.75" width="19" height="20"/><rect class="cls-1" x="766.31" y="826.75" width="19" height="19"/><rect class="cls-1" x="766.31" y="806.75" width="19" height="20"/><rect x="766.31" y="786.75" width="19" height="20"/><rect x="746.31" y="884.75" width="20" height="20"/><rect class="cls-1" x="746.31" y="865.75" width="20" height="19"/><rect class="cls-2" x="746.31" y="845.75" width="20" height="20"/><rect class="cls-2" x="746.31" y="826.75" width="20" height="19"/><rect class="cls-2" x="746.31" y="806.75" width="20" height="20"/><rect class="cls-1" x="746.31" y="786.75" width="20" height="20"/><rect x="746.31" y="767.75" width="20" height="19"/><rect x="726.31" y="884.75" width="20" height="20"/><rect class="cls-1" x="726.31" y="865.75" width="20" height="19"/><rect class="cls-2" x="726.31" y="845.75" width="20" height="20"/><rect class="cls-2" x="726.31" y="826.75" width="20" height="19"/><rect class="cls-2" x="726.31" y="806.75" width="20" height="20"/><rect class="cls-1" x="726.31" y="786.75" width="20" height="20"/><rect x="726.31" y="767.75" width="20" height="19"/><rect x="726.31" y="747.75" width="20" height="20"/><rect x="726.31" y="727.75" width="20" height="20"/><rect x="726.31" y="708.75" width="20" height="19"/><rect x="707.31" y="884.75" width="19" height="20"/><rect class="cls-1" x="707.31" y="865.75" width="19" height="19"/><rect class="cls-2" x="707.31" y="845.75" width="19" height="20"/><rect class="cls-2" x="707.31" y="826.75" width="19" height="19"/><rect class="cls-2" x="707.31" y="806.75" width="19" height="20"/><rect class="cls-1" x="707.31" y="786.75" width="19" height="20"/><rect x="707.31" y="767.75" width="19" height="19"/><rect class="cls-1" x="707.31" y="747.75" width="19" height="20"/><rect class="cls-1" x="707.31" y="727.75" width="19" height="20"/><rect class="cls-1" x="707.31" y="708.75" width="19" height="19"/><rect x="707.31" y="688.75" width="19" height="20"/><rect x="707.31" y="669.75" width="19" height="19"/><rect x="707.31" y="531.75" width="19" height="20"/><rect x="707.31" y="512.75" width="19" height="19"/><rect x="707.31" y="492.75" width="19" height="20"/><rect x="707.31" y="473.75" width="19" height="19"/><rect x="687.31" y="865.75" width="20" height="19"/><rect class="cls-3" x="687.31" y="845.75" width="20" height="20"/><rect class="cls-3" x="687.31" y="826.75" width="20" height="19"/><rect class="cls-3" x="687.31" y="806.75" width="20" height="20"/><rect x="687.31" y="786.75" width="20" height="20"/><rect class="cls-4" x="687.31" y="767.75" width="20" height="19"/><rect class="cls-3" x="687.31" y="747.75" width="20" height="20"/><rect class="cls-3" x="687.31" y="727.75" width="20" height="20"/><rect class="cls-3" x="687.31" y="708.75" width="20" height="19"/><rect class="cls-1" x="687.31" y="688.75" width="20" height="20"/><rect class="cls-1" x="687.31" y="669.75" width="20" height="19"/><rect x="687.31" y="649.75" width="20" height="20"/><rect x="687.31" y="629.75" width="20" height="20"/><rect x="687.31" y="610.75" width="20" height="19"/><rect x="687.31" y="571.75" width="20" height="19"/><rect x="687.31" y="551.75" width="20" height="20"/><rect class="cls-1" x="687.31" y="531.75" width="20" height="20"/><rect class="cls-1" x="687.31" y="512.75" width="20" height="19"/><rect class="cls-1" x="687.31" y="492.75" width="20" height="20"/><rect class="cls-1" x="687.31" y="473.75" width="20" height="19"/><rect x="687.31" y="453.75" width="20" height="20"/><rect x="687.31" y="433.75" width="20" height="20"/><rect x="687.31" y="414.75" width="20" height="19"/><rect x="687.31" y="316.75" width="20" height="19"/><rect x="687.31" y="296.75" width="20" height="20"/><rect x="687.31" y="276.75" width="20" height="20"/><rect x="687.31" y="257.75" width="20" height="19"/><rect x="687.31" y="237.75" width="20" height="20"/><rect x="687.31" y="218.75" width="20" height="19"/><rect x="668.31" y="845.75" width="19" height="20"/><rect x="668.31" y="826.75" width="19" height="19"/><rect x="668.31" y="806.75" width="19" height="20"/><rect class="cls-3" x="668.31" y="786.75" width="19" height="20"/><rect class="cls-3" x="668.31" y="767.75" width="19" height="19"/><rect x="668.31" y="747.75" width="19" height="20"/><rect x="668.31" y="727.75" width="19" height="20"/><rect x="668.31" y="708.75" width="19" height="19"/><rect class="cls-3" x="668.31" y="688.75" width="19" height="20"/><rect class="cls-1" x="668.31" y="669.75" width="19" height="19"/><rect class="cls-1" x="668.31" y="649.75" width="19" height="20"/><rect class="cls-1" x="668.31" y="629.75" width="19" height="20"/><rect class="cls-1" x="668.31" y="610.75" width="19" height="19"/><rect x="668.31" y="590.75" width="19" height="20"/><rect class="cls-1" x="668.31" y="571.75" width="19" height="19"/><rect class="cls-1" x="668.31" y="551.75" width="19" height="20"/><rect class="cls-3" x="668.31" y="531.75" width="19" height="20"/><rect class="cls-3" x="668.31" y="512.75" width="19" height="19"/><rect class="cls-3" x="668.31" y="492.75" width="19" height="20"/><rect class="cls-3" x="668.31" y="473.75" width="19" height="19"/><rect class="cls-1" x="668.31" y="453.75" width="19" height="20"/><rect class="cls-1" x="668.31" y="433.75" width="19" height="20"/><rect class="cls-1" x="668.31" y="414.75" width="19" height="19"/><rect x="668.31" y="394.75" width="19" height="20"/><rect x="668.31" y="335.75" width="19" height="20"/><rect class="cls-1" x="668.31" y="316.75" width="19" height="19"/><rect class="cls-1" x="668.31" y="296.75" width="19" height="20"/><rect class="cls-1" x="668.31" y="276.75" width="19" height="20"/><rect x="668.31" y="257.75" width="19" height="19"/><rect class="cls-1" x="668.31" y="237.75" width="19" height="20"/><rect class="cls-1" x="668.31" y="218.75" width="19" height="19"/><rect x="668.31" y="198.75" width="19" height="20"/><rect x="648.31" y="845.75" width="20" height="20"/><rect class="cls-3" x="648.31" y="826.75" width="20" height="19"/><rect x="648.31" y="806.75" width="20" height="20"/><rect x="648.31" y="786.75" width="20" height="20"/><rect x="648.31" y="767.75" width="20" height="19"/><rect class="cls-3" x="648.31" y="747.75" width="20" height="20"/><rect class="cls-3" x="648.31" y="727.75" width="20" height="20"/><rect class="cls-3" x="648.31" y="708.75" width="20" height="19"/><rect class="cls-3" x="648.31" y="688.75" width="20" height="20"/><rect class="cls-4" x="648.31" y="669.75" width="20" height="19"/><rect class="cls-4" x="648.31" y="649.75" width="20" height="20"/><rect class="cls-4" x="648.31" y="629.75" width="20" height="20"/><rect class="cls-5" x="648.31" y="610.75" width="20" height="19"/><rect x="648.31" y="590.75" width="20" height="20"/><rect class="cls-5" x="648.31" y="571.75" width="20" height="19"/><rect class="cls-4" x="648.31" y="551.75" width="20" height="20"/><rect class="cls-3" x="648.31" y="531.75" width="20" height="20"/><rect class="cls-3" x="648.31" y="512.75" width="20" height="19"/><rect class="cls-3" x="648.31" y="492.75" width="20" height="20"/><rect class="cls-3" x="648.31" y="473.75" width="20" height="19"/><rect class="cls-4" x="648.31" y="453.75" width="20" height="20"/><rect class="cls-4" x="648.31" y="433.75" width="20" height="20"/><rect class="cls-4" x="648.31" y="414.75" width="20" height="19"/><rect class="cls-5" x="648.31" y="394.75" width="20" height="20"/><rect x="648.31" y="375.75" width="20" height="19"/><rect x="648.31" y="355.75" width="20" height="20"/><rect x="648.31" y="335.75" width="20" height="20"/><rect class="cls-5" x="648.31" y="316.75" width="20" height="19"/><rect x="648.31" y="296.75" width="20" height="20"/><rect x="648.31" y="276.75" width="20" height="20"/><rect class="cls-5" x="648.31" y="257.75" width="20" height="19"/><rect class="cls-5" x="648.31" y="237.75" width="20" height="20"/><rect class="cls-1" x="648.31" y="218.75" width="20" height="19"/><rect class="cls-1" x="648.31" y="198.75" width="20" height="20"/><rect x="648.31" y="178.75" width="20" height="20"/><rect x="628.31" y="865.75" width="20" height="19"/><rect x="628.31" y="845.75" width="20" height="20"/><rect x="628.31" y="826.75" width="20" height="19"/><rect x="628.31" y="806.75" width="20" height="20"/><rect class="cls-3" x="628.31" y="786.75" width="20" height="20"/><rect class="cls-3" x="628.31" y="767.75" width="20" height="19"/><rect class="cls-3" x="628.31" y="747.75" width="20" height="20"/><rect class="cls-3" x="628.31" y="727.75" width="20" height="20"/><rect class="cls-3" x="628.31" y="708.75" width="20" height="19"/><rect class="cls-3" x="628.31" y="688.75" width="20" height="20"/><rect class="cls-3" x="628.31" y="669.75" width="20" height="19"/><rect class="cls-3" x="628.31" y="649.75" width="20" height="20"/><rect class="cls-3" x="628.31" y="629.75" width="20" height="20"/><rect x="628.31" y="610.75" width="20" height="19"/><rect class="cls-4" x="628.31" y="590.75" width="20" height="20"/><rect class="cls-4" x="628.31" y="571.75" width="20" height="19"/><rect class="cls-3" x="628.31" y="551.75" width="20" height="20"/><rect class="cls-3" x="628.31" y="531.75" width="20" height="20"/><rect class="cls-6" x="628.31" y="512.75" width="20" height="19"/><rect class="cls-6" x="628.31" y="492.75" width="20" height="20"/><rect class="cls-6" x="628.31" y="473.75" width="20" height="19"/><rect x="628.31" y="453.75" width="20" height="20"/><rect class="cls-3" x="628.31" y="433.75" width="20" height="20"/><rect class="cls-3" x="628.31" y="414.75" width="20" height="19"/><rect class="cls-3" x="628.31" y="394.75" width="20" height="20"/><rect class="cls-5" x="628.31" y="375.75" width="20" height="19"/><rect class="cls-5" x="628.31" y="355.75" width="20" height="20"/><rect x="628.31" y="335.75" width="20" height="20"/><rect class="cls-3" x="628.31" y="316.75" width="20" height="19"/><rect class="cls-3" x="628.31" y="296.75" width="20" height="20"/><rect class="cls-3" x="628.31" y="276.75" width="20" height="20"/><rect class="cls-3" x="628.31" y="257.75" width="20" height="19"/><rect x="628.31" y="237.75" width="20" height="20"/><rect x="628.31" y="218.75" width="20" height="19"/><rect x="628.31" y="198.75" width="20" height="20"/><rect x="609.31" y="884.75" width="19" height="20"/><rect class="cls-7" x="609.31" y="865.75" width="19" height="19"/><rect x="609.31" y="845.75" width="19" height="20"/><rect class="cls-3" x="609.31" y="826.75" width="19" height="19"/><rect class="cls-3" x="609.31" y="806.75" width="19" height="20"/><rect class="cls-3" x="609.31" y="786.75" width="19" height="20"/><rect class="cls-3" x="609.31" y="767.75" width="19" height="19"/><rect class="cls-3" x="609.31" y="747.75" width="19" height="20"/><rect class="cls-3" x="609.31" y="727.75" width="19" height="20"/><rect class="cls-3" x="609.31" y="708.75" width="19" height="19"/><rect class="cls-3" x="609.31" y="688.75" width="19" height="20"/><rect class="cls-3" x="609.31" y="669.75" width="19" height="19"/><rect class="cls-3" x="609.31" y="649.75" width="19" height="20"/><rect class="cls-3" x="609.31" y="629.75" width="19" height="20"/><rect x="609.31" y="610.75" width="19" height="19"/><rect class="cls-3" x="609.31" y="590.75" width="19" height="20"/><rect class="cls-3" x="609.31" y="571.75" width="19" height="19"/><rect class="cls-3" x="609.31" y="551.75" width="19" height="20"/><rect class="cls-3" x="609.31" y="531.75" width="19" height="20"/><rect class="cls-3" x="609.31" y="512.75" width="19" height="19"/><rect class="cls-6" x="609.31" y="492.75" width="19" height="20"/><rect class="cls-6" x="609.31" y="473.75" width="19" height="19"/><rect x="609.31" y="453.75" width="19" height="20"/><rect x="609.31" y="433.75" width="19" height="20"/><rect class="cls-3" x="609.31" y="414.75" width="19" height="19"/><rect class="cls-3" x="609.31" y="394.75" width="19" height="20"/><rect class="cls-3" x="609.31" y="375.75" width="19" height="19"/><rect class="cls-3" x="609.31" y="355.75" width="19" height="20"/><rect class="cls-3" x="609.31" y="335.75" width="19" height="20"/><rect class="cls-3" x="609.31" y="316.75" width="19" height="19"/><rect class="cls-3" x="609.31" y="296.75" width="19" height="20"/><rect class="cls-3" x="609.31" y="276.75" width="19" height="20"/><rect x="609.31" y="257.75" width="19" height="19"/><rect x="589.31" y="884.75" width="20" height="20"/><rect class="cls-7" x="589.31" y="865.75" width="20" height="19"/><rect x="589.31" y="845.75" width="20" height="20"/><rect class="cls-3" x="589.31" y="826.75" width="20" height="19"/><rect class="cls-3" x="589.31" y="806.75" width="20" height="20"/><rect class="cls-3" x="589.31" y="786.75" width="20" height="20"/><rect class="cls-3" x="589.31" y="767.75" width="20" height="19"/><rect class="cls-3" x="589.31" y="747.75" width="20" height="20"/><rect class="cls-3" x="589.31" y="727.75" width="20" height="20"/><rect class="cls-3" x="589.31" y="708.75" width="20" height="19"/><rect class="cls-3" x="589.31" y="688.75" width="20" height="20"/><rect class="cls-3" x="589.31" y="669.75" width="20" height="19"/><rect class="cls-3" x="589.31" y="649.75" width="20" height="20"/><rect x="589.31" y="629.75" width="20" height="20"/><rect class="cls-3" x="589.31" y="610.75" width="20" height="19"/><rect class="cls-3" x="589.31" y="590.75" width="20" height="20"/><rect x="589.31" y="571.75" width="20" height="19"/><rect class="cls-3" x="589.31" y="551.75" width="20" height="20"/><rect class="cls-3" x="589.31" y="531.75" width="20" height="20"/><rect class="cls-3" x="589.31" y="512.75" width="20" height="19"/><rect class="cls-3" x="589.31" y="492.75" width="20" height="20"/><rect class="cls-3" x="589.31" y="473.75" width="20" height="19"/><rect x="589.31" y="453.75" width="20" height="20"/><rect x="589.31" y="433.75" width="20" height="20"/><rect class="cls-3" x="589.31" y="414.75" width="20" height="19"/><rect class="cls-3" x="589.31" y="394.75" width="20" height="20"/><rect class="cls-3" x="589.31" y="375.75" width="20" height="19"/><rect class="cls-3" x="589.31" y="355.75" width="20" height="20"/><rect x="589.31" y="335.75" width="20" height="20"/><rect x="589.31" y="316.75" width="20" height="19"/><rect x="589.31" y="296.75" width="20" height="20"/><rect x="589.31" y="276.75" width="20" height="20"/><rect x="570.31" y="884.75" width="19" height="20"/><rect class="cls-7" x="570.31" y="865.75" width="19" height="19"/><rect x="570.31" y="845.75" width="19" height="20"/><rect class="cls-3" x="570.31" y="826.75" width="19" height="19"/><rect class="cls-3" x="570.31" y="806.75" width="19" height="20"/><rect class="cls-3" x="570.31" y="786.75" width="19" height="20"/><rect class="cls-3" x="570.31" y="767.75" width="19" height="19"/><rect class="cls-3" x="570.31" y="747.75" width="19" height="20"/><rect class="cls-3" x="570.31" y="727.75" width="19" height="20"/><rect class="cls-3" x="570.31" y="708.75" width="19" height="19"/><rect class="cls-3" x="570.31" y="688.75" width="19" height="20"/><rect class="cls-3" x="570.31" y="669.75" width="19" height="19"/><rect class="cls-3" x="570.31" y="649.75" width="19" height="20"/><rect x="570.31" y="629.75" width="19" height="20"/><rect class="cls-3" x="570.31" y="610.75" width="19" height="19"/><rect class="cls-3" x="570.31" y="590.75" width="19" height="20"/><rect class="cls-3" x="570.31" y="571.75" width="19" height="19"/><rect x="570.31" y="551.75" width="19" height="20"/><rect class="cls-3" x="570.31" y="531.75" width="19" height="20"/><rect x="570.31" y="512.75" width="19" height="19"/><rect class="cls-3" x="570.31" y="492.75" width="19" height="20"/><rect class="cls-3" x="570.31" y="473.75" width="19" height="19"/><rect x="570.31" y="453.75" width="19" height="20"/><rect class="cls-3" x="570.31" y="433.75" width="19" height="20"/><rect class="cls-3" x="570.31" y="414.75" width="19" height="19"/><rect class="cls-3" x="570.31" y="394.75" width="19" height="20"/><rect class="cls-3" x="570.31" y="375.75" width="19" height="19"/><rect x="570.31" y="355.75" width="19" height="20"/><rect class="cls-8" x="570.31" y="335.75" width="19" height="20"/><rect class="cls-9" x="570.31" y="316.75" width="19" height="19"/><rect class="cls-9" x="570.31" y="296.75" width="19" height="20"/><rect x="570.31" y="276.75" width="19" height="20"/><rect x="570.31" y="257.75" width="19" height="19"/><rect x="570.31" y="237.75" width="19" height="20"/><rect x="550.31" y="884.75" width="20" height="20"/><rect x="550.31" y="865.75" width="20" height="19"/><rect x="550.31" y="845.75" width="20" height="20"/><rect x="550.31" y="826.75" width="20" height="19"/><rect x="550.31" y="806.75" width="20" height="20"/><rect x="550.31" y="786.75" width="20" height="20"/><rect x="550.31" y="767.75" width="20" height="19"/><rect x="550.31" y="747.75" width="20" height="20"/><rect x="550.31" y="727.75" width="20" height="20"/><rect class="cls-3" x="550.31" y="708.75" width="20" height="19"/><rect class="cls-3" x="550.31" y="688.75" width="20" height="20"/><rect class="cls-3" x="550.31" y="669.75" width="20" height="19"/><rect class="cls-3" x="550.31" y="649.75" width="20" height="20"/><rect x="550.31" y="629.75" width="20" height="20"/><rect class="cls-3" x="550.31" y="610.75" width="20" height="19"/><rect class="cls-3" x="550.31" y="590.75" width="20" height="20"/><rect class="cls-3" x="550.31" y="571.75" width="20" height="19"/><rect x="550.31" y="551.75" width="20" height="20"/><rect class="cls-3" x="550.31" y="531.75" width="20" height="20"/><rect class="cls-3" x="550.31" y="512.75" width="20" height="19"/><rect class="cls-3" x="550.31" y="492.75" width="20" height="20"/><rect class="cls-3" x="550.31" y="473.75" width="20" height="19"/><rect class="cls-3" x="550.31" y="453.75" width="20" height="20"/><rect class="cls-3" x="550.31" y="433.75" width="20" height="20"/><rect class="cls-3" x="550.31" y="414.75" width="20" height="19"/><rect class="cls-3" x="550.31" y="394.75" width="20" height="20"/><rect x="550.31" y="375.75" width="20" height="19"/><rect class="cls-8" x="550.31" y="355.75" width="20" height="20"/><rect class="cls-9" x="550.31" y="335.75" width="20" height="20"/><rect class="cls-2" x="550.31" y="316.75" width="20" height="19"/><rect x="550.31" y="296.75" width="20" height="20"/><rect class="cls-10" x="550.31" y="276.75" width="20" height="20"/><rect class="cls-10" x="550.31" y="257.75" width="20" height="19"/><rect x="550.31" y="237.75" width="20" height="20"/><rect x="550.31" y="218.75" width="20" height="19"/><rect x="530.31" y="884.75" width="20" height="20"/><rect x="530.31" y="865.75" width="20" height="19"/><rect x="530.31" y="845.75" width="20" height="20"/><rect x="530.31" y="826.75" width="20" height="19"/><rect x="530.31" y="806.75" width="20" height="20"/><rect x="530.31" y="786.75" width="20" height="20"/><rect x="530.31" y="767.75" width="20" height="19"/><rect x="530.31" y="747.75" width="20" height="20"/><rect x="530.31" y="727.75" width="20" height="20"/><rect class="cls-3" x="530.31" y="708.75" width="20" height="19"/><rect class="cls-3" x="530.31" y="688.75" width="20" height="20"/><rect class="cls-3" x="530.31" y="669.75" width="20" height="19"/><rect class="cls-3" x="530.31" y="649.75" width="20" height="20"/><rect x="530.31" y="629.75" width="20" height="20"/><rect class="cls-3" x="530.31" y="610.75" width="20" height="19"/><rect class="cls-3" x="530.31" y="590.75" width="20" height="20"/><rect class="cls-3" x="530.31" y="571.75" width="20" height="19"/><rect x="530.31" y="551.75" width="20" height="20"/><rect class="cls-3" x="530.31" y="531.75" width="20" height="20"/><rect class="cls-3" x="530.31" y="512.75" width="20" height="19"/><rect class="cls-3" x="530.31" y="492.75" width="20" height="20"/><rect class="cls-3" x="530.31" y="473.75" width="20" height="19"/><rect class="cls-3" x="530.31" y="453.75" width="20" height="20"/><rect class="cls-3" x="530.31" y="433.75" width="20" height="20"/><rect class="cls-3" x="530.31" y="414.75" width="20" height="19"/><rect x="530.31" y="394.75" width="20" height="20"/><rect class="cls-8" x="530.31" y="375.75" width="20" height="19"/><rect class="cls-9" x="530.31" y="355.75" width="20" height="20"/><rect class="cls-2" x="530.31" y="335.75" width="20" height="20"/><rect class="cls-2" x="530.31" y="316.75" width="20" height="19"/><rect x="530.31" y="296.75" width="20" height="20"/><rect class="cls-7" x="530.31" y="276.75" width="20" height="20"/><rect class="cls-7" x="530.31" y="257.75" width="20" height="19"/><rect class="cls-10" x="530.31" y="237.75" width="20" height="20"/><rect class="cls-10" x="530.31" y="218.75" width="20" height="19"/><rect x="530.31" y="198.75" width="20" height="20"/><rect x="530.31" y="178.75" width="20" height="20"/><rect x="530.31" y="159.75" width="20" height="19"/><rect x="511.31" y="884.75" width="19" height="20"/><rect class="cls-7" x="511.31" y="865.75" width="19" height="19"/><rect x="511.31" y="845.75" width="19" height="20"/><rect class="cls-3" x="511.31" y="826.75" width="19" height="19"/><rect class="cls-3" x="511.31" y="806.75" width="19" height="20"/><rect class="cls-3" x="511.31" y="786.75" width="19" height="20"/><rect class="cls-3" x="511.31" y="767.75" width="19" height="19"/><rect class="cls-3" x="511.31" y="747.75" width="19" height="20"/><rect class="cls-3" x="511.31" y="727.75" width="19" height="20"/><rect class="cls-3" x="511.31" y="708.75" width="19" height="19"/><rect class="cls-3" x="511.31" y="688.75" width="19" height="20"/><rect class="cls-3" x="511.31" y="669.75" width="19" height="19"/><rect class="cls-3" x="511.31" y="649.75" width="19" height="20"/><rect x="511.31" y="629.75" width="19" height="20"/><rect class="cls-3" x="511.31" y="610.75" width="19" height="19"/><rect class="cls-3" x="511.31" y="590.75" width="19" height="20"/><rect class="cls-3" x="511.31" y="571.75" width="19" height="19"/><rect x="511.31" y="551.75" width="19" height="20"/><rect class="cls-3" x="511.31" y="531.75" width="19" height="20"/><rect x="511.31" y="512.75" width="19" height="19"/><rect class="cls-3" x="511.31" y="492.75" width="19" height="20"/><rect class="cls-3" x="511.31" y="473.75" width="19" height="19"/><rect class="cls-3" x="511.31" y="453.75" width="19" height="20"/><rect class="cls-3" x="511.31" y="433.75" width="19" height="20"/><rect x="511.31" y="414.75" width="19" height="19"/><rect class="cls-8" x="511.31" y="394.75" width="19" height="20"/><rect class="cls-9" x="511.31" y="375.75" width="19" height="19"/><rect class="cls-2" x="511.31" y="355.75" width="19" height="20"/><rect class="cls-2" x="511.31" y="335.75" width="19" height="20"/><rect class="cls-11" x="511.31" y="316.75" width="19" height="19"/><rect x="511.31" y="296.75" width="19" height="20"/><rect class="cls-7" x="511.31" y="276.75" width="19" height="20"/><rect class="cls-7" x="511.31" y="257.75" width="19" height="19"/><rect class="cls-7" x="511.31" y="237.75" width="19" height="20"/><rect class="cls-7" x="511.31" y="218.75" width="19" height="19"/><rect class="cls-10" x="511.31" y="198.75" width="19" height="20"/><rect class="cls-10" x="511.31" y="178.75" width="19" height="20"/><rect class="cls-10" x="511.31" y="159.75" width="19" height="19"/><rect x="511.31" y="139.75" width="19" height="20"/><rect x="491.31" y="884.75" width="20" height="20"/><rect class="cls-7" x="491.31" y="865.75" width="20" height="19"/><rect x="491.31" y="845.75" width="20" height="20"/><rect class="cls-3" x="491.31" y="826.75" width="20" height="19"/><rect class="cls-3" x="491.31" y="806.75" width="20" height="20"/><rect class="cls-3" x="491.31" y="786.75" width="20" height="20"/><rect class="cls-3" x="491.31" y="767.75" width="20" height="19"/><rect class="cls-3" x="491.31" y="747.75" width="20" height="20"/><rect class="cls-3" x="491.31" y="727.75" width="20" height="20"/><rect class="cls-3" x="491.31" y="708.75" width="20" height="19"/><rect class="cls-3" x="491.31" y="688.75" width="20" height="20"/><rect class="cls-3" x="491.31" y="669.75" width="20" height="19"/><rect class="cls-3" x="491.31" y="649.75" width="20" height="20"/><rect x="491.31" y="629.75" width="20" height="20"/><rect class="cls-3" x="491.31" y="610.75" width="20" height="19"/><rect class="cls-3" x="491.31" y="590.75" width="20" height="20"/><rect x="491.31" y="571.75" width="20" height="19"/><rect class="cls-3" x="491.31" y="551.75" width="20" height="20"/><rect class="cls-3" x="491.31" y="531.75" width="20" height="20"/><rect class="cls-3" x="491.31" y="512.75" width="20" height="19"/><rect class="cls-3" x="491.31" y="492.75" width="20" height="20"/><rect x="491.31" y="473.75" width="20" height="19"/><rect class="cls-3" x="491.31" y="453.75" width="20" height="20"/><rect class="cls-3" x="491.31" y="433.75" width="20" height="20"/><rect x="491.31" y="414.75" width="20" height="19"/><rect class="cls-9" x="491.31" y="394.75" width="20" height="20"/><rect class="cls-2" x="491.31" y="375.75" width="20" height="19"/><rect class="cls-2" x="491.31" y="355.75" width="20" height="20"/><rect class="cls-11" x="491.31" y="335.75" width="20" height="20"/><rect class="cls-11" x="491.31" y="316.75" width="20" height="19"/><rect x="491.31" y="296.75" width="20" height="20"/><rect class="cls-7" x="491.31" y="276.75" width="20" height="20"/><rect class="cls-7" x="491.31" y="257.75" width="20" height="19"/><rect class="cls-7" x="491.31" y="237.75" width="20" height="20"/><rect class="cls-7" x="491.31" y="218.75" width="20" height="19"/><rect class="cls-7" x="491.31" y="198.75" width="20" height="20"/><rect class="cls-7" x="491.31" y="178.75" width="20" height="20"/><rect class="cls-7" x="491.31" y="159.75" width="20" height="19"/><rect class="cls-10" x="491.31" y="139.75" width="20" height="20"/><rect x="491.31" y="120.75" width="20" height="19"/><rect x="472.31" y="884.75" width="19" height="20"/><rect class="cls-7" x="472.31" y="865.75" width="19" height="19"/><rect x="472.31" y="845.75" width="19" height="20"/><rect class="cls-3" x="472.31" y="826.75" width="19" height="19"/><rect class="cls-3" x="472.31" y="806.75" width="19" height="20"/><rect class="cls-3" x="472.31" y="786.75" width="19" height="20"/><rect class="cls-3" x="472.31" y="767.75" width="19" height="19"/><rect class="cls-3" x="472.31" y="747.75" width="19" height="20"/><rect class="cls-3" x="472.31" y="727.75" width="19" height="20"/><rect class="cls-3" x="472.31" y="708.75" width="19" height="19"/><rect class="cls-3" x="472.31" y="688.75" width="19" height="20"/><rect class="cls-3" x="472.31" y="669.75" width="19" height="19"/><rect class="cls-3" x="472.31" y="649.75" width="19" height="20"/><rect class="cls-3" x="472.31" y="629.75" width="19" height="20"/><rect x="472.31" y="610.75" width="19" height="19"/><rect class="cls-3" x="472.31" y="590.75" width="19" height="20"/><rect class="cls-3" x="472.31" y="571.75" width="19" height="19"/><rect class="cls-3" x="472.31" y="551.75" width="19" height="20"/><rect class="cls-3" x="472.31" y="531.75" width="19" height="20"/><rect class="cls-3" x="472.31" y="512.75" width="19" height="19"/><rect class="cls-3" x="472.31" y="492.75" width="19" height="20"/><rect x="472.31" y="473.75" width="19" height="19"/><rect x="472.31" y="453.75" width="19" height="20"/><rect class="cls-3" x="472.31" y="433.75" width="19" height="20"/><rect x="472.31" y="414.75" width="19" height="19"/><rect x="472.31" y="394.75" width="19" height="20"/><rect class="cls-2" x="472.31" y="375.75" width="19" height="19"/><rect class="cls-11" x="472.31" y="355.75" width="19" height="20"/><rect class="cls-11" x="472.31" y="335.75" width="19" height="20"/><rect class="cls-11" x="472.31" y="316.75" width="19" height="19"/><rect x="472.31" y="296.75" width="19" height="20"/><rect class="cls-7" x="472.31" y="276.75" width="19" height="20"/><rect class="cls-7" x="472.31" y="257.75" width="19" height="19"/><rect class="cls-7" x="472.31" y="237.75" width="19" height="20"/><rect class="cls-7" x="472.31" y="218.75" width="19" height="19"/><rect class="cls-7" x="472.31" y="198.75" width="19" height="20"/><rect class="cls-7" x="472.31" y="178.75" width="19" height="20"/><rect class="cls-7" x="472.31" y="159.75" width="19" height="19"/><rect x="472.31" y="139.75" width="19" height="20"/><rect x="452.31" y="865.75" width="20" height="19"/><rect x="452.31" y="845.75" width="20" height="20"/><rect x="452.31" y="826.75" width="20" height="19"/><rect x="452.31" y="806.75" width="20" height="20"/><rect class="cls-3" x="452.31" y="786.75" width="20" height="20"/><rect class="cls-3" x="452.31" y="767.75" width="20" height="19"/><rect class="cls-3" x="452.31" y="747.75" width="20" height="20"/><rect class="cls-3" x="452.31" y="727.75" width="20" height="20"/><rect class="cls-3" x="452.31" y="708.75" width="20" height="19"/><rect class="cls-3" x="452.31" y="688.75" width="20" height="20"/><rect class="cls-3" x="452.31" y="669.75" width="20" height="19"/><rect class="cls-3" x="452.31" y="649.75" width="20" height="20"/><rect class="cls-3" x="452.31" y="629.75" width="20" height="20"/><rect x="452.31" y="610.75" width="20" height="19"/><rect class="cls-3" x="452.31" y="590.75" width="20" height="20"/><rect class="cls-3" x="452.31" y="571.75" width="20" height="19"/><rect class="cls-3" x="452.31" y="551.75" width="20" height="20"/><rect class="cls-3" x="452.31" y="531.75" width="20" height="20"/><rect class="cls-6" x="452.31" y="512.75" width="20" height="19"/><rect class="cls-6" x="452.31" y="492.75" width="20" height="20"/><rect x="452.31" y="473.75" width="20" height="19"/><rect x="452.31" y="453.75" width="20" height="20"/><rect class="cls-3" x="452.31" y="433.75" width="20" height="20"/><rect x="452.31" y="414.75" width="20" height="19"/><rect x="452.31" y="394.75" width="20" height="20"/><rect class="cls-11" x="452.31" y="375.75" width="20" height="19"/><rect class="cls-11" x="452.31" y="355.75" width="20" height="20"/><rect class="cls-11" x="452.31" y="335.75" width="20" height="20"/><rect class="cls-12" x="452.31" y="316.75" width="20" height="19"/><rect x="452.31" y="296.75" width="20" height="20"/><rect class="cls-7" x="452.31" y="276.75" width="20" height="20"/><rect class="cls-7" x="452.31" y="257.75" width="20" height="19"/><rect class="cls-7" x="452.31" y="237.75" width="20" height="20"/><rect class="cls-7" x="452.31" y="218.75" width="20" height="19"/><rect x="452.31" y="198.75" width="20" height="20"/><rect x="452.31" y="178.75" width="20" height="20"/><rect x="452.31" y="159.75" width="20" height="19"/><rect x="432.31" y="845.75" width="20" height="20"/><rect class="cls-3" x="432.31" y="826.75" width="20" height="19"/><rect x="432.31" y="806.75" width="20" height="20"/><rect x="432.31" y="786.75" width="20" height="20"/><rect x="432.31" y="767.75" width="20" height="19"/><rect class="cls-3" x="432.31" y="747.75" width="20" height="20"/><rect class="cls-3" x="432.31" y="727.75" width="20" height="20"/><rect class="cls-3" x="432.31" y="708.75" width="20" height="19"/><rect class="cls-3" x="432.31" y="688.75" width="20" height="20"/><rect class="cls-3" x="432.31" y="669.75" width="20" height="19"/><rect class="cls-3" x="432.31" y="649.75" width="20" height="20"/><rect class="cls-3" x="432.31" y="629.75" width="20" height="20"/><rect class="cls-3" x="432.31" y="610.75" width="20" height="19"/><rect x="432.31" y="590.75" width="20" height="20"/><rect class="cls-3" x="432.31" y="571.75" width="20" height="19"/><rect class="cls-3" x="432.31" y="551.75" width="20" height="20"/><rect class="cls-6" x="432.31" y="531.75" width="20" height="20"/><rect class="cls-6" x="432.31" y="512.75" width="20" height="19"/><rect class="cls-6" x="432.31" y="492.75" width="20" height="20"/><rect x="432.31" y="473.75" width="20" height="19"/><rect class="cls-3" x="432.31" y="453.75" width="20" height="20"/><rect class="cls-3" x="432.31" y="433.75" width="20" height="20"/><rect class="cls-3" x="432.31" y="414.75" width="20" height="19"/><rect x="432.31" y="394.75" width="20" height="20"/><rect class="cls-11" x="432.31" y="375.75" width="20" height="19"/><rect class="cls-11" x="432.31" y="355.75" width="20" height="20"/><rect class="cls-12" x="432.31" y="335.75" width="20" height="20"/><rect class="cls-12" x="432.31" y="316.75" width="20" height="19"/><rect x="432.31" y="296.75" width="20" height="20"/><rect x="432.31" y="276.75" width="20" height="20"/><rect x="432.31" y="257.75" width="20" height="19"/><rect x="432.31" y="237.75" width="20" height="20"/><rect x="432.31" y="218.75" width="20" height="19"/><rect x="413.31" y="845.75" width="19" height="20"/><rect x="413.31" y="826.75" width="19" height="19"/><rect x="413.31" y="806.75" width="19" height="20"/><rect class="cls-3" x="413.31" y="786.75" width="19" height="20"/><rect class="cls-3" x="413.31" y="767.75" width="19" height="19"/><rect x="413.31" y="747.75" width="19" height="20"/><rect x="413.31" y="727.75" width="19" height="20"/><rect x="413.31" y="708.75" width="19" height="19"/><rect class="cls-3" x="413.31" y="688.75" width="19" height="20"/><rect class="cls-3" x="413.31" y="669.75" width="19" height="19"/><rect class="cls-3" x="413.31" y="649.75" width="19" height="20"/><rect class="cls-3" x="413.31" y="629.75" width="19" height="20"/><rect class="cls-3" x="413.31" y="610.75" width="19" height="19"/><rect x="413.31" y="590.75" width="19" height="20"/><rect class="cls-3" x="413.31" y="571.75" width="19" height="19"/><rect class="cls-3" x="413.31" y="551.75" width="19" height="20"/><rect class="cls-3" x="413.31" y="531.75" width="19" height="20"/><rect class="cls-3" x="413.31" y="512.75" width="19" height="19"/><rect class="cls-3" x="413.31" y="492.75" width="19" height="20"/><rect class="cls-3" x="413.31" y="473.75" width="19" height="19"/><rect class="cls-3" x="413.31" y="453.75" width="19" height="20"/><rect class="cls-3" x="413.31" y="433.75" width="19" height="20"/><rect x="413.31" y="414.75" width="19" height="19"/><rect class="cls-11" x="413.31" y="394.75" width="19" height="20"/><rect class="cls-11" x="413.31" y="375.75" width="19" height="19"/><rect class="cls-12" x="413.31" y="355.75" width="19" height="20"/><rect class="cls-12" x="413.31" y="335.75" width="19" height="20"/><rect x="413.31" y="316.75" width="19" height="19"/><rect x="413.31" y="296.75" width="19" height="20"/><rect x="393.31" y="865.75" width="20" height="19"/><rect class="cls-3" x="393.31" y="845.75" width="20" height="20"/><rect class="cls-3" x="393.31" y="826.75" width="20" height="19"/><rect class="cls-3" x="393.31" y="806.75" width="20" height="20"/><rect x="393.31" y="786.75" width="20" height="20"/><rect class="cls-3" x="393.31" y="767.75" width="20" height="19"/><rect class="cls-3" x="393.31" y="747.75" width="20" height="20"/><rect class="cls-3" x="393.31" y="727.75" width="20" height="20"/><rect class="cls-3" x="393.31" y="708.75" width="20" height="19"/><rect class="cls-3" x="393.31" y="688.75" width="20" height="20"/><rect class="cls-3" x="393.31" y="669.75" width="20" height="19"/><rect class="cls-3" x="393.31" y="649.75" width="20" height="20"/><rect x="393.31" y="629.75" width="20" height="20"/><rect x="393.31" y="610.75" width="20" height="19"/><rect x="393.31" y="571.75" width="20" height="19"/><rect x="393.31" y="551.75" width="20" height="20"/><rect class="cls-3" x="393.31" y="531.75" width="20" height="20"/><rect class="cls-3" x="393.31" y="512.75" width="20" height="19"/><rect class="cls-3" x="393.31" y="492.75" width="20" height="20"/><rect class="cls-3" x="393.31" y="473.75" width="20" height="19"/><rect class="cls-3" x="393.31" y="453.75" width="20" height="20"/><rect class="cls-3" x="393.31" y="433.75" width="20" height="20"/><rect x="393.31" y="414.75" width="20" height="19"/><rect class="cls-12" x="393.31" y="394.75" width="20" height="20"/><rect class="cls-12" x="393.31" y="375.75" width="20" height="19"/><rect class="cls-12" x="393.31" y="355.75" width="20" height="20"/><rect x="393.31" y="335.75" width="20" height="20"/><rect class="cls-3" x="393.31" y="316.75" width="20" height="19"/><rect class="cls-3" x="393.31" y="296.75" width="20" height="20"/><rect x="393.31" y="276.75" width="20" height="20"/><rect x="374.31" y="884.75" width="19" height="20"/><rect class="cls-3" x="374.31" y="865.75" width="19" height="19"/><rect class="cls-2" x="374.31" y="845.75" width="19" height="20"/><rect class="cls-2" x="374.31" y="826.75" width="19" height="19"/><rect class="cls-2" x="374.31" y="806.75" width="19" height="20"/><rect class="cls-3" x="374.31" y="786.75" width="19" height="20"/><rect x="374.31" y="767.75" width="19" height="19"/><rect class="cls-3" x="374.31" y="747.75" width="19" height="20"/><rect class="cls-3" x="374.31" y="727.75" width="19" height="20"/><rect class="cls-3" x="374.31" y="708.75" width="19" height="19"/><rect x="374.31" y="688.75" width="19" height="20"/><rect x="374.31" y="669.75" width="19" height="19"/><rect x="374.31" y="649.75" width="19" height="20"/><rect x="374.31" y="531.75" width="19" height="20"/><rect x="374.31" y="512.75" width="19" height="19"/><rect x="374.31" y="492.75" width="19" height="20"/><rect x="374.31" y="473.75" width="19" height="19"/><rect x="374.31" y="453.75" width="19" height="20"/><rect x="374.31" y="433.75" width="19" height="20"/><rect x="374.31" y="414.75" width="19" height="19"/><rect class="cls-12" x="374.31" y="394.75" width="19" height="20"/><rect x="374.31" y="375.75" width="19" height="19"/><rect x="374.31" y="355.75" width="19" height="20"/><rect class="cls-3" x="374.31" y="335.75" width="19" height="20"/><rect x="374.31" y="316.75" width="19" height="19"/><rect x="374.31" y="296.75" width="19" height="20"/><rect class="cls-3" x="374.31" y="276.75" width="19" height="20"/><rect x="374.31" y="257.75" width="19" height="19"/><rect x="354.31" y="884.75" width="20" height="20"/><rect class="cls-3" x="354.31" y="865.75" width="20" height="19"/><rect class="cls-2" x="354.31" y="845.75" width="20" height="20"/><rect class="cls-2" x="354.31" y="826.75" width="20" height="19"/><rect class="cls-2" x="354.31" y="806.75" width="20" height="20"/><rect class="cls-3" x="354.31" y="786.75" width="20" height="20"/><rect x="354.31" y="767.75" width="20" height="19"/><rect x="354.31" y="747.75" width="20" height="20"/><rect x="354.31" y="727.75" width="20" height="20"/><rect x="354.31" y="708.75" width="20" height="19"/><rect x="354.31" y="414.75" width="20" height="19"/><rect x="354.31" y="394.75" width="20" height="20"/><rect x="354.31" y="375.75" width="20" height="19"/><rect class="cls-3" x="354.31" y="355.75" width="20" height="20"/><rect class="cls-3" x="354.31" y="335.75" width="20" height="20"/><rect class="cls-3" x="354.31" y="316.75" width="20" height="19"/><rect class="cls-3" x="354.31" y="296.75" width="20" height="20"/><rect class="cls-3" x="354.31" y="276.75" width="20" height="20"/><rect class="cls-3" x="354.31" y="257.75" width="20" height="19"/><rect x="354.31" y="237.75" width="20" height="20"/><rect x="334.31" y="884.75" width="20" height="20"/><rect class="cls-3" x="334.31" y="865.75" width="20" height="19"/><rect class="cls-2" x="334.31" y="845.75" width="20" height="20"/><rect class="cls-2" x="334.31" y="826.75" width="20" height="19"/><rect class="cls-2" x="334.31" y="806.75" width="20" height="20"/><rect class="cls-3" x="334.31" y="786.75" width="20" height="20"/><rect x="334.31" y="767.75" width="20" height="19"/><rect x="334.31" y="355.75" width="20" height="20"/><rect x="334.31" y="335.75" width="20" height="20"/><rect x="334.31" y="316.75" width="20" height="19"/><rect x="334.31" y="296.75" width="20" height="20"/><rect x="334.31" y="276.75" width="20" height="20"/><rect x="334.31" y="257.75" width="20" height="19"/><rect x="315.31" y="865.75" width="19" height="19"/><rect class="cls-3" x="315.31" y="845.75" width="19" height="20"/><rect class="cls-3" x="315.31" y="826.75" width="19" height="19"/><rect class="cls-3" x="315.31" y="806.75" width="19" height="20"/><rect x="315.31" y="786.75" width="19" height="20"/><rect x="295.31" y="845.75" width="20" height="20"/><rect x="295.31" y="826.75" width="20" height="19"/><rect x="295.31" y="806.75" width="20" height="20"/></g></svg>