<svg xmlns="http://www.w3.org/2000/svg" viewBox="0 0 978.24 977.24"><defs><style>.cls-1{fill:#f9b2dd;}.cls-2{fill:#ed1e79;}.cls-3{fill:#fcdeec;}.cls-4{fill:#fcd4e8;}.cls-5{fill:#f4bde0;}.cls-6{fill:aqua;}.cls-7{fill:lime;}.cls-8{fill:blue;}.cls-9{fill:#00eae4;}.cls-10{fill:#ff0;}.cls-11{fill:#93278f;}</style></defs><title>uni-5</title><g id="Layer_9" data-name="Layer 9"><rect x="782.24" y="800.74" width="20" height="20"/><rect x="782.24" y="781.74" width="20" height="19"/><rect x="782.24" y="761.74" width="20" height="20"/><rect x="763.24" y="820.74" width="19" height="19"/><rect class="cls-1" x="763.24" y="800.74" width="19" height="20"/><rect class="cls-1" x="763.24" y="781.74" width="19" height="19"/><rect class="cls-1" x="763.24" y="761.74" width="19" height="20"/><rect x="763.24" y="741.74" width="19" height="20"/><rect x="743.24" y="839.74" width="20" height="20"/><rect class="cls-1" x="743.24" y="820.74" width="20" height="19"/><rect class="cls-2" x="743.24" y="800.74" width="20" height="20"/><rect class="cls-2" x="743.24" y="781.74" width="20" height="19"/><rect class="cls-2" x="743.24" y="761.74" width="20" height="20"/><rect class="cls-1" x="743.24" y="741.74" width="20" height="20"/><rect x="743.24" y="722.74" width="20" height="19"/><rect x="723.24" y="839.74" width="20" height="20"/><rect class="cls-1" x="723.24" y="820.74" width="20" height="19"/><rect class="cls-2" x="723.24" y="800.74" width="20" height="20"/><rect class="cls-2" x="723.24" y="781.74" width="20" height="19"/><rect class="cls-2" x="723.24" y="761.74" width="20" height="20"/><rect class="cls-1" x="723.24" y="741.74" width="20" height="20"/><rect x="723.24" y="722.74" width="20" height="19"/><rect x="723.24" y="702.74" width="20" height="20"/><rect x="723.24" y="682.74" width="20" height="20"/><rect x="723.24" y="663.74" width="20" height="19"/><rect x="704.24" y="839.74" width="19" height="20"/><rect class="cls-1" x="704.24" y="820.74" width="19" height="19"/><rect class="cls-2" x="704.24" y="800.74" width="19" height="20"/><rect class="cls-2" x="704.24" y="781.74" width="19" height="19"/><rect class="cls-2" x="704.24" y="761.74" width="19" height="20"/><rect class="cls-1" x="704.24" y="741.74" width="19" height="20"/><rect x="704.24" y="722.74" width="19" height="19"/><rect class="cls-1" x="704.24" y="702.74" width="19" height="20"/><rect class="cls-1" x="704.24" y="682.74" width="19" height="20"/><rect class="cls-1" x="704.24" y="663.74" width="19" height="19"/><rect x="704.24" y="643.74" width="19" height="20"/><rect x="704.24" y="624.74" width="19" height="19"/><rect x="704.24" y="486.74" width="19" height="20"/><rect x="704.24" y="467.74" width="19" height="19"/><rect x="704.24" y="447.74" width="19" height="20"/><rect x="704.24" y="428.74" width="19" height="19"/><rect x="684.24" y="820.74" width="20" height="19"/><rect class="cls-3" x="684.24" y="800.74" width="20" height="20"/><rect class="cls-3" x="684.24" y="781.74" width="20" height="19"/><rect class="cls-3" x="684.24" y="761.74" width="20" height="20"/><rect x="684.24" y="741.74" width="20" height="20"/><rect class="cls-4" x="684.24" y="722.74" width="20" height="19"/><rect class="cls-3" x="684.24" y="702.74" width="20" height="20"/><rect class="cls-3" x="684.24" y="682.74" width="20" height="20"/><rect class="cls-3" x="684.24" y="663.74" width="20" height="19"/><rect class="cls-1" x="684.24" y="643.74" width="20" height="20"/><rect class="cls-1" x="684.24" y="624.74" width="20" height="19"/><rect x="684.24" y="604.74" width="20" height="20"/><rect x="684.24" y="584.74" width="20" height="20"/><rect x="684.24" y="565.74" width="20" height="19"/><rect x="684.24" y="526.74" width="20" height="19"/><rect x="684.24" y="506.74" width="20" height="20"/><rect class="cls-1" x="684.24" y="486.74" width="20" height="20"/><rect class="cls-1" x="684.24" y="467.74" width="20" height="19"/><rect class="cls-1" x="684.24" y="447.74" width="20" height="20"/><rect class="cls-1" x="684.24" y="428.74" width="20" height="19"/><rect x="684.24" y="408.74" width="20" height="20"/><rect x="684.24" y="388.74" width="20" height="20"/><rect x="684.24" y="369.74" width="20" height="19"/><rect x="684.24" y="271.74" width="20" height="19"/><rect x="684.24" y="251.74" width="20" height="20"/><rect x="684.24" y="231.74" width="20" height="20"/><rect x="684.24" y="212.74" width="20" height="19"/><rect x="684.24" y="192.74" width="20" height="20"/><rect x="684.24" y="173.74" width="20" height="19"/><rect x="665.24" y="800.74" width="19" height="20"/><rect x="665.24" y="781.74" width="19" height="19"/><rect x="665.24" y="761.74" width="19" height="20"/><rect class="cls-3" x="665.24" y="741.74" width="19" height="20"/><rect class="cls-3" x="665.24" y="722.74" width="19" height="19"/><rect x="665.24" y="702.74" width="19" height="20"/><rect x="665.24" y="682.74" width="19" height="20"/><rect x="665.24" y="663.74" width="19" height="19"/><rect class="cls-3" x="665.24" y="643.74" width="19" height="20"/><rect class="cls-1" x="665.24" y="624.74" width="19" height="19"/><rect class="cls-1" x="665.24" y="604.74" width="19" height="20"/><rect class="cls-1" x="665.24" y="584.74" width="19" height="20"/><rect class="cls-1" x="665.24" y="565.74" width="19" height="19"/><rect x="665.24" y="545.74" width="19" height="20"/><rect class="cls-1" x="665.24" y="526.74" width="19" height="19"/><rect class="cls-1" x="665.24" y="506.74" width="19" height="20"/><rect class="cls-3" x="665.24" y="486.74" width="19" height="20"/><rect class="cls-3" x="665.24" y="467.74" width="19" height="19"/><rect class="cls-3" x="665.24" y="447.74" width="19" height="20"/><rect class="cls-3" x="665.24" y="428.74" width="19" height="19"/><rect class="cls-1" x="665.24" y="408.74" width="19" height="20"/><rect class="cls-1" x="665.24" y="388.74" width="19" height="20"/><rect class="cls-1" x="665.24" y="369.74" width="19" height="19"/><rect x="665.24" y="349.74" width="19" height="20"/><rect x="665.24" y="290.74" width="19" height="20"/><rect class="cls-1" x="665.24" y="271.74" width="19" height="19"/><rect class="cls-1" x="665.24" y="251.74" width="19" height="20"/><rect class="cls-1" x="665.24" y="231.74" width="19" height="20"/><rect x="665.24" y="212.74" width="19" height="19"/><rect class="cls-1" x="665.24" y="192.74" width="19" height="20"/><rect class="cls-1" x="665.24" y="173.74" width="19" height="19"/><rect x="665.24" y="153.74" width="19" height="20"/><rect x="645.24" y="800.74" width="20" height="20"/><rect class="cls-3" x="645.24" y="781.74" width="20" height="19"/><rect x="645.24" y="761.74" width="20" height="20"/><rect x="645.24" y="741.74" width="20" height="20"/><rect x="645.24" y="722.74" width="20" height="19"/><rect class="cls-3" x="645.24" y="702.74" width="20" height="20"/><rect class="cls-3" x="645.24" y="682.74" width="20" height="20"/><rect class="cls-3" x="645.24" y="663.74" width="20" height="19"/><rect class="cls-3" x="645.24" y="643.74" width="20" height="20"/><rect class="cls-4" x="645.24" y="624.74" width="20" height="19"/><rect class="cls-4" x="645.24" y="604.74" width="20" height="20"/><rect class="cls-4" x="645.24" y="584.74" width="20" height="20"/><rect class="cls-5" x="645.24" y="565.74" width="20" height="19"/><rect x="645.24" y="545.74" width="20" height="20"/><rect class="cls-5" x="645.24" y="526.74" width="20" height="19"/><rect class="cls-4" x="645.24" y="506.74" width="20" height="20"/><rect class="cls-3" x="645.24" y="486.74" width="20" height="20"/><rect class="cls-3" x="645.24" y="467.74" width="20" height="19"/><rect class="cls-3" x="645.24" y="447.74" width="20" height="20"/><rect class="cls-3" x="645.24" y="428.74" width="20" height="19"/><rect class="cls-4" x="645.24" y="408.74" width="20" height="20"/><rect class="cls-4" x="645.24" y="388.74" width="20" height="20"/><rect class="cls-4" x="645.24" y="369.74" width="20" height="19"/><rect class="cls-5" x="645.24" y="349.74" width="20" height="20"/><rect x="645.24" y="330.74" width="20" height="19"/><rect x="645.24" y="310.74" width="20" height="20"/><rect x="645.24" y="290.74" width="20" height="20"/><rect class="cls-5" x="645.24" y="271.74" width="20" height="19"/><rect x="645.24" y="251.74" width="20" height="20"/><rect x="645.24" y="231.74" width="20" height="20"/><rect class="cls-5" x="645.24" y="212.74" width="20" height="19"/><rect class="cls-5" x="645.24" y="192.74" width="20" height="20"/><rect class="cls-1" x="645.24" y="173.74" width="20" height="19"/><rect class="cls-1" x="645.24" y="153.74" width="20" height="20"/><rect x="645.24" y="133.74" width="20" height="20"/><rect x="625.24" y="820.74" width="20" height="19"/><rect x="625.24" y="800.74" width="20" height="20"/><rect x="625.24" y="781.74" width="20" height="19"/><rect x="625.24" y="761.74" width="20" height="20"/><rect class="cls-3" x="625.24" y="741.74" width="20" height="20"/><rect class="cls-3" x="625.24" y="722.74" width="20" height="19"/><rect class="cls-3" x="625.24" y="702.74" width="20" height="20"/><rect class="cls-3" x="625.24" y="682.74" width="20" height="20"/><rect class="cls-3" x="625.24" y="663.74" width="20" height="19"/><rect class="cls-3" x="625.24" y="643.74" width="20" height="20"/><rect class="cls-3" x="625.24" y="624.74" width="20" height="19"/><rect class="cls-3" x="625.24" y="604.74" width="20" height="20"/><rect class="cls-3" x="625.24" y="584.74" width="20" height="20"/><rect x="625.24" y="565.74" width="20" height="19"/><rect class="cls-4" x="625.24" y="545.74" width="20" height="20"/><rect class="cls-4" x="625.24" y="526.74" width="20" height="19"/><rect class="cls-3" x="625.24" y="506.74" width="20" height="20"/><rect class="cls-3" x="625.24" y="486.74" width="20" height="20"/><rect class="cls-3" x="625.24" y="467.74" width="20" height="19"/><rect class="cls-3" x="625.24" y="447.74" width="20" height="20"/><rect class="cls-3" x="625.24" y="428.74" width="20" height="19"/><rect x="625.24" y="408.74" width="20" height="20"/><rect class="cls-3" x="625.24" y="388.74" width="20" height="20"/><rect class="cls-3" x="625.24" y="369.74" width="20" height="19"/><rect class="cls-4" x="625.24" y="349.74" width="20" height="20"/><rect class="cls-5" x="625.24" y="330.74" width="20" height="19"/><rect class="cls-5" x="625.24" y="310.74" width="20" height="20"/><rect x="625.24" y="290.74" width="20" height="20"/><rect class="cls-3" x="625.24" y="271.74" width="20" height="19"/><rect class="cls-3" x="625.24" y="251.74" width="20" height="20"/><rect class="cls-3" x="625.24" y="231.74" width="20" height="20"/><rect class="cls-3" x="625.24" y="212.74" width="20" height="19"/><rect x="625.24" y="192.74" width="20" height="20"/><rect x="625.24" y="173.74" width="20" height="19"/><rect x="625.24" y="153.74" width="20" height="20"/><rect x="606.24" y="839.74" width="19" height="20"/><rect class="cls-6" x="606.24" y="820.74" width="19" height="19"/><rect x="606.24" y="800.74" width="19" height="20"/><rect class="cls-3" x="606.24" y="781.74" width="19" height="19"/><rect class="cls-3" x="606.24" y="761.74" width="19" height="20"/><rect class="cls-3" x="606.24" y="741.74" width="19" height="20"/><rect class="cls-3" x="606.24" y="722.74" width="19" height="19"/><rect class="cls-3" x="606.24" y="702.74" width="19" height="20"/><rect class="cls-3" x="606.24" y="682.74" width="19" height="20"/><rect class="cls-3" x="606.24" y="663.74" width="19" height="19"/><rect class="cls-3" x="606.24" y="643.74" width="19" height="20"/><rect class="cls-3" x="606.24" y="624.74" width="19" height="19"/><rect class="cls-3" x="606.24" y="604.74" width="19" height="20"/><rect class="cls-3" x="606.24" y="584.74" width="19" height="20"/><rect x="606.24" y="565.74" width="19" height="19"/><rect class="cls-3" x="606.24" y="545.74" width="19" height="20"/><rect class="cls-3" x="606.24" y="526.74" width="19" height="19"/><rect class="cls-3" x="606.24" y="506.74" width="19" height="20"/><rect class="cls-3" x="606.24" y="486.74" width="19" height="20"/><rect class="cls-3" x="606.24" y="467.74" width="19" height="19"/><rect class="cls-3" x="606.24" y="447.74" width="19" height="20"/><rect class="cls-3" x="606.24" y="428.74" width="19" height="19"/><rect x="606.24" y="408.74" width="19" height="20"/><rect x="606.24" y="388.74" width="19" height="20"/><rect class="cls-3" x="606.24" y="369.74" width="19" height="19"/><rect class="cls-3" x="606.24" y="349.74" width="19" height="20"/><rect class="cls-3" x="606.24" y="330.74" width="19" height="19"/><rect class="cls-3" x="606.24" y="310.74" width="19" height="20"/><rect class="cls-3" x="606.24" y="290.74" width="19" height="20"/><rect class="cls-3" x="606.24" y="271.74" width="19" height="19"/><rect class="cls-3" x="606.24" y="251.74" width="19" height="20"/><rect class="cls-3" x="606.24" y="231.74" width="19" height="20"/><rect x="606.24" y="212.74" width="19" height="19"/><rect x="586.24" y="839.74" width="20" height="20"/><rect class="cls-6" x="586.24" y="820.74" width="20" height="19"/><rect x="586.24" y="800.74" width="20" height="20"/><rect class="cls-3" x="586.24" y="781.74" width="20" height="19"/><rect class="cls-3" x="586.24" y="761.74" width="20" height="20"/><rect class="cls-3" x="586.24" y="741.74" width="20" height="20"/><rect class="cls-3" x="586.24" y="722.74" width="20" height="19"/><rect class="cls-3" x="586.24" y="702.74" width="20" height="20"/><rect class="cls-3" x="586.24" y="682.74" width="20" height="20"/><rect class="cls-3" x="586.24" y="663.74" width="20" height="19"/><rect class="cls-3" x="586.24" y="643.74" width="20" height="20"/><rect class="cls-3" x="586.24" y="624.74" width="20" height="19"/><rect class="cls-3" x="586.24" y="604.74" width="20" height="20"/><rect x="586.24" y="584.74" width="20" height="20"/><rect class="cls-3" x="586.24" y="565.74" width="20" height="19"/><rect class="cls-3" x="586.24" y="545.74" width="20" height="20"/><rect x="586.24" y="526.74" width="20" height="19"/><rect class="cls-3" x="586.24" y="506.74" width="20" height="20"/><rect class="cls-3" x="586.24" y="486.74" width="20" height="20"/><rect class="cls-3" x="586.24" y="467.74" width="20" height="19"/><rect class="cls-3" x="586.24" y="447.74" width="20" height="20"/><rect class="cls-3" x="586.24" y="428.74" width="20" height="19"/><rect x="586.24" y="408.74" width="20" height="20"/><rect x="586.24" y="388.74" width="20" height="20"/><rect class="cls-3" x="586.24" y="369.74" width="20" height="19"/><rect class="cls-3" x="586.24" y="349.74" width="20" height="20"/><rect class="cls-3" x="586.24" y="330.74" width="20" height="19"/><rect class="cls-3" x="586.24" y="310.74" width="20" height="20"/><rect x="586.24" y="290.74" width="20" height="20"/><rect x="586.24" y="271.74" width="20" height="19"/><rect x="586.24" y="251.74" width="20" height="20"/><rect x="586.24" y="231.74" width="20" height="20"/><rect x="567.24" y="839.74" width="19" height="20"/><rect class="cls-6" x="567.24" y="820.74" width="19" height="19"/><rect x="567.24" y="800.74" width="19" height="20"/><rect class="cls-3" x="567.24" y="781.74" width="19" height="19"/><rect class="cls-3" x="567.24" y="761.74" width="19" height="20"/><rect class="cls-3" x="567.24" y="741.74" width="19" height="20"/><rect class="cls-3" x="567.24" y="722.74" width="19" height="19"/><rect class="cls-3" x="567.24" y="702.74" width="19" height="20"/><rect class="cls-3" x="567.24" y="682.74" width="19" height="20"/><rect class="cls-3" x="567.24" y="663.74" width="19" height="19"/><rect class="cls-3" x="567.24" y="643.74" width="19" height="20"/><rect class="cls-3" x="567.24" y="624.74" width="19" height="19"/><rect class="cls-3" x="567.24" y="604.74" width="19" height="20"/><rect x="567.24" y="584.74" width="19" height="20"/><rect class="cls-3" x="567.24" y="565.74" width="19" height="19"/><rect x="567.24" y="545.74" width="19" height="20"/><rect class="cls-3" x="567.24" y="526.74" width="19" height="19"/><rect class="cls-3" x="567.24" y="506.74" width="19" height="20"/><rect x="567.24" y="486.74" width="19" height="20"/><rect class="cls-3" x="567.24" y="467.74" width="19" height="19"/><rect class="cls-3" x="567.24" y="447.74" width="19" height="20"/><rect class="cls-3" x="567.24" y="428.74" width="19" height="19"/><rect x="567.24" y="408.74" width="19" height="20"/><rect class="cls-3" x="567.24" y="388.74" width="19" height="20"/><rect class="cls-3" x="567.24" y="369.74" width="19" height="19"/><rect class="cls-3" x="567.24" y="349.74" width="19" height="20"/><rect class="cls-3" x="567.24" y="330.74" width="19" height="19"/><rect x="567.24" y="310.74" width="19" height="20"/><rect class="cls-7" x="567.24" y="290.74" width="19" height="20"/><rect class="cls-8" x="567.24" y="271.74" width="19" height="19"/><rect class="cls-8" x="567.24" y="251.74" width="19" height="20"/><rect x="567.24" y="231.74" width="19" height="20"/><rect x="567.24" y="212.74" width="19" height="19"/><rect x="567.24" y="192.74" width="19" height="20"/><rect x="547.24" y="839.74" width="20" height="20"/><rect x="547.24" y="820.74" width="20" height="19"/><rect x="547.24" y="800.74" width="20" height="20"/><rect x="547.24" y="781.74" width="20" height="19"/><rect x="547.24" y="761.74" width="20" height="20"/><rect x="547.24" y="741.74" width="20" height="20"/><rect x="547.24" y="722.74" width="20" height="19"/><rect x="547.24" y="702.74" width="20" height="20"/><rect x="547.24" y="682.74" width="20" height="20"/><rect class="cls-3" x="547.24" y="663.74" width="20" height="19"/><rect class="cls-3" x="547.24" y="643.74" width="20" height="20"/><rect class="cls-3" x="547.24" y="624.74" width="20" height="19"/><rect class="cls-3" x="547.24" y="604.74" width="20" height="20"/><rect x="547.24" y="584.74" width="20" height="20"/><rect class="cls-3" x="547.24" y="565.74" width="20" height="19"/><rect x="547.24" y="545.74" width="20" height="20"/><rect class="cls-3" x="547.24" y="526.74" width="20" height="19"/><rect class="cls-3" x="547.24" y="506.74" width="20" height="20"/><rect class="cls-3" x="547.24" y="486.74" width="20" height="20"/><rect class="cls-3" x="547.24" y="467.74" width="20" height="19"/><rect class="cls-3" x="547.24" y="447.74" width="20" height="20"/><rect class="cls-3" x="547.24" y="428.74" width="20" height="19"/><rect class="cls-3" x="547.24" y="408.74" width="20" height="20"/><rect class="cls-3" x="547.24" y="388.74" width="20" height="20"/><rect class="cls-3" x="547.24" y="369.74" width="20" height="19"/><rect class="cls-3" x="547.24" y="349.74" width="20" height="20"/><rect x="547.24" y="330.74" width="20" height="19"/><rect class="cls-7" x="547.24" y="310.74" width="20" height="20"/><rect class="cls-8" x="547.24" y="290.74" width="20" height="20"/><rect class="cls-2" x="547.24" y="271.74" width="20" height="19"/><rect x="547.24" y="251.74" width="20" height="20"/><rect class="cls-9" x="547.24" y="231.74" width="20" height="20"/><rect class="cls-9" x="547.24" y="212.74" width="20" height="19"/><rect x="547.24" y="192.74" width="20" height="20"/><rect x="547.24" y="173.74" width="20" height="19"/><rect x="527.24" y="839.74" width="20" height="20"/><rect x="527.24" y="820.74" width="20" height="19"/><rect x="527.24" y="800.74" width="20" height="20"/><rect x="527.24" y="781.74" width="20" height="19"/><rect x="527.24" y="761.74" width="20" height="20"/><rect x="527.24" y="741.74" width="20" height="20"/><rect x="527.24" y="722.74" width="20" height="19"/><rect x="527.24" y="702.74" width="20" height="20"/><rect x="527.24" y="682.74" width="20" height="20"/><rect class="cls-3" x="527.24" y="663.74" width="20" height="19"/><rect class="cls-3" x="527.24" y="643.74" width="20" height="20"/><rect class="cls-3" x="527.24" y="624.74" width="20" height="19"/><rect class="cls-3" x="527.24" y="604.74" width="20" height="20"/><rect x="527.24" y="584.74" width="20" height="20"/><rect class="cls-3" x="527.24" y="565.74" width="20" height="19"/><rect x="527.24" y="545.74" width="20" height="20"/><rect class="cls-3" x="527.24" y="526.74" width="20" height="19"/><rect class="cls-3" x="527.24" y="506.74" width="20" height="20"/><rect class="cls-3" x="527.24" y="486.74" width="20" height="20"/><rect class="cls-3" x="527.24" y="467.74" width="20" height="19"/><rect class="cls-3" x="527.24" y="447.74" width="20" height="20"/><rect class="cls-3" x="527.24" y="428.74" width="20" height="19"/><rect class="cls-3" x="527.24" y="408.74" width="20" height="20"/><rect class="cls-3" x="527.24" y="388.74" width="20" height="20"/><rect class="cls-3" x="527.24" y="369.74" width="20" height="19"/><rect x="527.24" y="349.74" width="20" height="20"/><rect class="cls-7" x="527.24" y="330.74" width="20" height="19"/><rect class="cls-8" x="527.24" y="310.74" width="20" height="20"/><rect class="cls-2" x="527.24" y="290.74" width="20" height="20"/><rect class="cls-2" x="527.24" y="271.74" width="20" height="19"/><rect x="527.24" y="251.74" width="20" height="20"/><rect class="cls-6" x="527.24" y="231.74" width="20" height="20"/><rect class="cls-6" x="527.24" y="212.74" width="20" height="19"/><rect class="cls-9" x="527.24" y="192.74" width="20" height="20"/><rect class="cls-9" x="527.24" y="173.74" width="20" height="19"/><rect x="527.24" y="153.74" width="20" height="20"/><rect x="527.24" y="133.74" width="20" height="20"/><rect x="527.24" y="114.74" width="20" height="19"/><rect x="508.24" y="839.74" width="19" height="20"/><rect class="cls-6" x="508.24" y="820.74" width="19" height="19"/><rect x="508.24" y="800.74" width="19" height="20"/><rect class="cls-3" x="508.24" y="781.74" width="19" height="19"/><rect class="cls-3" x="508.24" y="761.74" width="19" height="20"/><rect class="cls-3" x="508.24" y="741.74" width="19" height="20"/><rect class="cls-3" x="508.24" y="722.74" width="19" height="19"/><rect class="cls-3" x="508.24" y="702.74" width="19" height="20"/><rect class="cls-3" x="508.24" y="682.74" width="19" height="20"/><rect class="cls-3" x="508.24" y="663.74" width="19" height="19"/><rect class="cls-3" x="508.24" y="643.74" width="19" height="20"/><rect class="cls-3" x="508.24" y="624.74" width="19" height="19"/><rect class="cls-3" x="508.24" y="604.74" width="19" height="20"/><rect x="508.24" y="584.74" width="19" height="20"/><rect class="cls-3" x="508.24" y="565.74" width="19" height="19"/><rect x="508.24" y="545.74" width="19" height="20"/><rect class="cls-3" x="508.24" y="526.74" width="19" height="19"/><rect class="cls-3" x="508.24" y="506.74" width="19" height="20"/><rect x="508.24" y="486.74" width="19" height="20"/><rect class="cls-3" x="508.24" y="467.74" width="19" height="19"/><rect class="cls-3" x="508.24" y="447.74" width="19" height="20"/><rect class="cls-3" x="508.24" y="428.74" width="19" height="19"/><rect class="cls-3" x="508.24" y="408.74" width="19" height="20"/><rect class="cls-3" x="508.24" y="388.74" width="19" height="20"/><rect x="508.24" y="369.74" width="19" height="19"/><rect class="cls-7" x="508.24" y="349.74" width="19" height="20"/><rect class="cls-8" x="508.24" y="330.74" width="19" height="19"/><rect class="cls-2" x="508.24" y="310.74" width="19" height="20"/><rect class="cls-2" x="508.24" y="290.74" width="19" height="20"/><rect class="cls-10" x="508.24" y="271.74" width="19" height="19"/><rect x="508.24" y="251.74" width="19" height="20"/><rect class="cls-6" x="508.24" y="231.74" width="19" height="20"/><rect class="cls-6" x="508.24" y="212.74" width="19" height="19"/><rect class="cls-6" x="508.24" y="192.74" width="19" height="20"/><rect class="cls-6" x="508.24" y="173.74" width="19" height="19"/><rect class="cls-9" x="508.24" y="153.74" width="19" height="20"/><rect class="cls-9" x="508.24" y="133.74" width="19" height="20"/><rect class="cls-9" x="508.24" y="114.74" width="19" height="19"/><rect x="508.24" y="94.74" width="19" height="20"/><rect x="488.24" y="839.74" width="20" height="20"/><rect class="cls-6" x="488.24" y="820.74" width="20" height="19"/><rect x="488.24" y="800.74" width="20" height="20"/><rect class="cls-3" x="488.24" y="781.74" width="20" height="19"/><rect class="cls-3" x="488.24" y="761.74" width="20" height="20"/><rect class="cls-3" x="488.24" y="741.74" width="20" height="20"/><rect class="cls-3" x="488.24" y="722.74" width="20" height="19"/><rect class="cls-3" x="488.24" y="702.74" width="20" height="20"/><rect class="cls-3" x="488.24" y="682.74" width="20" height="20"/><rect class="cls-3" x="488.24" y="663.74" width="20" height="19"/><rect class="cls-3" x="488.24" y="643.74" width="20" height="20"/><rect class="cls-3" x="488.24" y="624.74" width="20" height="19"/><rect class="cls-3" x="488.24" y="604.74" width="20" height="20"/><rect x="488.24" y="584.74" width="20" height="20"/><rect class="cls-3" x="488.24" y="565.74" width="20" height="19"/><rect class="cls-3" x="488.24" y="545.74" width="20" height="20"/><rect x="488.24" y="526.74" width="20" height="19"/><rect class="cls-3" x="488.24" y="506.74" width="20" height="20"/><rect class="cls-3" x="488.24" y="486.74" width="20" height="20"/><rect class="cls-3" x="488.24" y="467.74" width="20" height="19"/><rect class="cls-3" x="488.24" y="447.74" width="20" height="20"/><rect x="488.24" y="428.74" width="20" height="19"/><rect class="cls-3" x="488.24" y="408.74" width="20" height="20"/><rect class="cls-3" x="488.24" y="388.74" width="20" height="20"/><rect x="488.24" y="369.74" width="20" height="19"/><rect class="cls-8" x="488.24" y="349.74" width="20" height="20"/><rect class="cls-2" x="488.24" y="330.74" width="20" height="19"/><rect class="cls-2" x="488.24" y="310.74" width="20" height="20"/><rect class="cls-10" x="488.24" y="290.74" width="20" height="20"/><rect class="cls-10" x="488.24" y="271.74" width="20" height="19"/><rect x="488.24" y="251.74" width="20" height="20"/><rect class="cls-6" x="488.24" y="231.74" width="20" height="20"/><rect class="cls-6" x="488.24" y="212.74" width="20" height="19"/><rect class="cls-6" x="488.24" y="192.74" width="20" height="20"/><rect class="cls-6" x="488.24" y="173.74" width="20" height="19"/><rect class="cls-6" x="488.24" y="153.74" width="20" height="20"/><rect class="cls-6" x="488.24" y="133.74" width="20" height="20"/><rect class="cls-6" x="488.24" y="114.74" width="20" height="19"/><rect class="cls-9" x="488.24" y="94.74" width="20" height="20"/><rect x="488.24" y="75.74" width="20" height="19"/><rect x="469.24" y="839.74" width="19" height="20"/><rect class="cls-6" x="469.24" y="820.74" width="19" height="19"/><rect x="469.24" y="800.74" width="19" height="20"/><rect class="cls-3" x="469.24" y="781.74" width="19" height="19"/><rect class="cls-3" x="469.24" y="761.74" width="19" height="20"/><rect class="cls-3" x="469.24" y="741.74" width="19" height="20"/><rect class="cls-3" x="469.24" y="722.74" width="19" height="19"/><rect class="cls-3" x="469.24" y="702.74" width="19" height="20"/><rect class="cls-3" x="469.24" y="682.74" width="19" height="20"/><rect class="cls-3" x="469.24" y="663.74" width="19" height="19"/><rect class="cls-3" x="469.24" y="643.74" width="19" height="20"/><rect class="cls-3" x="469.24" y="624.74" width="19" height="19"/><rect class="cls-3" x="469.24" y="604.74" width="19" height="20"/><rect class="cls-3" x="469.24" y="584.74" width="19" height="20"/><rect x="469.24" y="565.74" width="19" height="19"/><rect class="cls-3" x="469.24" y="545.74" width="19" height="20"/><rect class="cls-3" x="469.24" y="526.74" width="19" height="19"/><rect class="cls-3" x="469.24" y="506.74" width="19" height="20"/><rect class="cls-3" x="469.24" y="486.74" width="19" height="20"/><rect class="cls-3" x="469.24" y="467.74" width="19" height="19"/><rect class="cls-3" x="469.24" y="447.74" width="19" height="20"/><rect x="469.24" y="428.74" width="19" height="19"/><rect x="469.24" y="408.74" width="19" height="20"/><rect class="cls-3" x="469.24" y="388.74" width="19" height="20"/><rect x="469.24" y="369.74" width="19" height="19"/><rect x="469.24" y="349.74" width="19" height="20"/><rect class="cls-2" x="469.24" y="330.74" width="19" height="19"/><rect class="cls-10" x="469.24" y="310.74" width="19" height="20"/><rect class="cls-10" x="469.24" y="290.74" width="19" height="20"/><rect class="cls-10" x="469.24" y="271.74" width="19" height="19"/><rect x="469.24" y="251.74" width="19" height="20"/><rect class="cls-6" x="469.24" y="231.74" width="19" height="20"/><rect class="cls-6" x="469.24" y="212.74" width="19" height="19"/><rect class="cls-6" x="469.24" y="192.74" width="19" height="20"/><rect class="cls-6" x="469.24" y="173.74" width="19" height="19"/><rect class="cls-6" x="469.24" y="153.74" width="19" height="20"/><rect class="cls-6" x="469.24" y="133.74" width="19" height="20"/><rect class="cls-6" x="469.24" y="114.74" width="19" height="19"/><rect x="469.24" y="94.74" width="19" height="20"/><rect x="449.24" y="820.74" width="20" height="19"/><rect x="449.24" y="800.74" width="20" height="20"/><rect x="449.24" y="781.74" width="20" height="19"/><rect x="449.24" y="761.74" width="20" height="20"/><rect class="cls-3" x="449.24" y="741.74" width="20" height="20"/><rect class="cls-3" x="449.24" y="722.74" width="20" height="19"/><rect class="cls-3" x="449.24" y="702.74" width="20" height="20"/><rect class="cls-3" x="449.24" y="682.74" width="20" height="20"/><rect class="cls-3" x="449.24" y="663.74" width="20" height="19"/><rect class="cls-3" x="449.24" y="643.74" width="20" height="20"/><rect class="cls-3" x="449.24" y="624.74" width="20" height="19"/><rect class="cls-3" x="449.24" y="604.74" width="20" height="20"/><rect class="cls-3" x="449.24" y="584.74" width="20" height="20"/><rect x="449.24" y="565.74" width="20" height="19"/><rect class="cls-3" x="449.24" y="545.74" width="20" height="20"/><rect class="cls-3" x="449.24" y="526.74" width="20" height="19"/><rect class="cls-3" x="449.24" y="506.74" width="20" height="20"/><rect class="cls-3" x="449.24" y="486.74" width="20" height="20"/><rect class="cls-3" x="449.24" y="467.74" width="20" height="19"/><rect class="cls-3" x="449.24" y="447.74" width="20" height="20"/><rect x="449.24" y="428.74" width="20" height="19"/><rect x="449.24" y="408.74" width="20" height="20"/><rect class="cls-3" x="449.24" y="388.74" width="20" height="20"/><rect x="449.24" y="369.74" width="20" height="19"/><rect x="449.24" y="349.74" width="20" height="20"/><rect class="cls-10" x="449.24" y="330.74" width="20" height="19"/><rect class="cls-10" x="449.24" y="310.74" width="20" height="20"/><rect class="cls-10" x="449.24" y="290.74" width="20" height="20"/><rect class="cls-11" x="449.24" y="271.74" width="20" height="19"/><rect x="449.24" y="251.74" width="20" height="20"/><rect class="cls-6" x="449.24" y="231.74" width="20" height="20"/><rect class="cls-6" x="449.24" y="212.74" width="20" height="19"/><rect class="cls-6" x="449.24" y="192.74" width="20" height="20"/><rect class="cls-6" x="449.24" y="173.74" width="20" height="19"/><rect x="449.24" y="153.74" width="20" height="20"/><rect x="449.24" y="133.74" width="20" height="20"/><rect x="449.24" y="114.74" width="20" height="19"/><rect x="429.24" y="800.74" width="20" height="20"/><rect class="cls-3" x="429.24" y="781.74" width="20" height="19"/><rect x="429.24" y="761.74" width="20" height="20"/><rect x="429.24" y="741.74" width="20" height="20"/><rect x="429.24" y="722.74" width="20" height="19"/><rect class="cls-3" x="429.24" y="702.74" width="20" height="20"/><rect class="cls-3" x="429.24" y="682.74" width="20" height="20"/><rect class="cls-3" x="429.24" y="663.74" width="20" height="19"/><rect class="cls-3" x="429.24" y="643.74" width="20" height="20"/><rect class="cls-3" x="429.24" y="624.74" width="20" height="19"/><rect class="cls-3" x="429.24" y="604.74" width="20" height="20"/><rect class="cls-3" x="429.24" y="584.74" width="20" height="20"/><rect class="cls-3" x="429.24" y="565.74" width="20" height="19"/><rect x="429.24" y="545.74" width="20" height="20"/><rect class="cls-3" x="429.24" y="526.74" width="20" height="19"/><rect class="cls-3" x="429.24" y="506.74" width="20" height="20"/><rect class="cls-3" x="429.24" y="486.74" width="20" height="20"/><rect class="cls-3" x="429.24" y="467.74" width="20" height="19"/><rect class="cls-3" x="429.24" y="447.74" width="20" height="20"/><rect x="429.24" y="428.74" width="20" height="19"/><rect class="cls-3" x="429.24" y="408.74" width="20" height="20"/><rect class="cls-3" x="429.24" y="388.74" width="20" height="20"/><rect class="cls-3" x="429.24" y="369.74" width="20" height="19"/><rect x="429.24" y="349.74" width="20" height="20"/><rect class="cls-10" x="429.24" y="330.74" width="20" height="19"/><rect class="cls-10" x="429.24" y="310.74" width="20" height="20"/><rect class="cls-11" x="429.24" y="290.74" width="20" height="20"/><rect class="cls-11" x="429.24" y="271.74" width="20" height="19"/><rect x="429.24" y="251.74" width="20" height="20"/><rect x="429.24" y="231.74" width="20" height="20"/><rect x="429.24" y="212.74" width="20" height="19"/><rect x="429.24" y="192.74" width="20" height="20"/><rect x="429.24" y="173.74" width="20" height="19"/><rect x="410.24" y="800.74" width="19" height="20"/><rect x="410.24" y="781.74" width="19" height="19"/><rect x="410.24" y="761.74" width="19" height="20"/><rect class="cls-3" x="410.24" y="741.74" width="19" height="20"/><rect class="cls-3" x="410.24" y="722.74" width="19" height="19"/><rect x="410.24" y="702.74" width="19" height="20"/><rect x="410.24" y="682.74" width="19" height="20"/><rect x="410.24" y="663.74" width="19" height="19"/><rect class="cls-3" x="410.24" y="643.74" width="19" height="20"/><rect class="cls-3" x="410.24" y="624.74" width="19" height="19"/><rect class="cls-3" x="410.24" y="604.74" width="19" height="20"/><rect class="cls-3" x="410.24" y="584.74" width="19" height="20"/><rect class="cls-3" x="410.24" y="565.74" width="19" height="19"/><rect x="410.24" y="545.74" width="19" height="20"/><rect class="cls-3" x="410.24" y="526.74" width="19" height="19"/><rect class="cls-3" x="410.24" y="506.74" width="19" height="20"/><rect class="cls-3" x="410.24" y="486.74" width="19" height="20"/><rect class="cls-3" x="410.24" y="467.74" width="19" height="19"/><rect class="cls-3" x="410.24" y="447.74" width="19" height="20"/><rect class="cls-3" x="410.24" y="428.74" width="19" height="19"/><rect class="cls-3" x="410.24" y="408.74" width="19" height="20"/><rect class="cls-3" x="410.24" y="388.74" width="19" height="20"/><rect x="410.24" y="369.74" width="19" height="19"/><rect class="cls-10" x="410.24" y="349.74" width="19" height="20"/><rect class="cls-10" x="410.24" y="330.74" width="19" height="19"/><rect class="cls-11" x="410.24" y="310.74" width="19" height="20"/><rect class="cls-11" x="410.24" y="290.74" width="19" height="20"/><rect x="410.24" y="271.74" width="19" height="19"/><rect x="410.24" y="251.74" width="19" height="20"/><rect x="390.24" y="820.74" width="20" height="19"/><rect class="cls-3" x="390.24" y="800.74" width="20" height="20"/><rect class="cls-3" x="390.24" y="781.74" width="20" height="19"/><rect class="cls-3" x="390.24" y="761.74" width="20" height="20"/><rect x="390.24" y="741.74" width="20" height="20"/><rect class="cls-3" x="390.24" y="722.74" width="20" height="19"/><rect class="cls-3" x="390.24" y="702.74" width="20" height="20"/><rect class="cls-3" x="390.24" y="682.74" width="20" height="20"/><rect class="cls-3" x="390.24" y="663.74" width="20" height="19"/><rect class="cls-3" x="390.24" y="643.74" width="20" height="20"/><rect class="cls-3" x="390.24" y="624.74" width="20" height="19"/><rect class="cls-3" x="390.24" y="604.74" width="20" height="20"/><rect x="390.24" y="584.74" width="20" height="20"/><rect x="390.24" y="565.74" width="20" height="19"/><rect x="390.24" y="526.74" width="20" height="19"/><rect x="390.24" y="506.74" width="20" height="20"/><rect class="cls-3" x="390.24" y="486.74" width="20" height="20"/><rect class="cls-3" x="390.24" y="467.74" width="20" height="19"/><rect class="cls-3" x="390.24" y="447.74" width="20" height="20"/><rect class="cls-3" x="390.24" y="428.74" width="20" height="19"/><rect class="cls-3" x="390.24" y="408.74" width="20" height="20"/><rect class="cls-3" x="390.24" y="388.74" width="20" height="20"/><rect x="390.24" y="369.74" width="20" height="19"/><rect class="cls-11" x="390.24" y="349.74" width="20" height="20"/><rect class="cls-11" x="390.24" y="330.74" width="20" height="19"/><rect class="cls-11" x="390.24" y="310.74" width="20" height="20"/><rect x="390.24" y="290.74" width="20" height="20"/><rect class="cls-3" x="390.24" y="271.74" width="20" height="19"/><rect class="cls-3" x="390.24" y="251.74" width="20" height="20"/><rect x="390.24" y="231.74" width="20" height="20"/><rect x="371.24" y="839.74" width="19" height="20"/><rect class="cls-3" x="371.24" y="820.74" width="19" height="19"/><rect class="cls-2" x="371.24" y="800.74" width="19" height="20"/><rect class="cls-2" x="371.24" y="781.74" width="19" height="19"/><rect class="cls-2" x="371.24" y="761.74" width="19" height="20"/><rect class="cls-3" x="371.24" y="741.74" width="19" height="20"/><rect x="371.24" y="722.74" width="19" height="19"/><rect class="cls-3" x="371.24" y="702.74" width="19" height="20"/><rect class="cls-3" x="371.24" y="682.74" width="19" height="20"/><rect class="cls-3" x="371.24" y="663.74" width="19" height="19"/><rect x="371.24" y="643.74" width="19" height="20"/><rect x="371.24" y="624.74" width="19" height="19"/><rect x="371.24" y="604.74" width="19" height="20"/><rect x="371.24" y="486.74" width="19" height="20"/><rect x="371.24" y="467.74" width="19" height="19"/><rect x="371.24" y="447.74" width="19" height="20"/><rect x="371.24" y="428.74" width="19" height="19"/><rect x="371.24" y="408.74" width="19" height="20"/><rect x="371.24" y="388.74" width="19" height="20"/><rect x="371.24" y="369.74" width="19" height="19"/><rect class="cls-11" x="371.24" y="349.74" width="19" height="20"/><rect x="371.24" y="330.74" width="19" height="19"/><rect x="371.24" y="310.74" width="19" height="20"/><rect class="cls-3" x="371.24" y="290.74" width="19" height="20"/><rect x="371.24" y="271.74" width="19" height="19"/><rect x="371.24" y="251.74" width="19" height="20"/><rect class="cls-3" x="371.24" y="231.74" width="19" height="20"/><rect x="371.24" y="212.74" width="19" height="19"/><rect x="351.24" y="839.74" width="20" height="20"/><rect class="cls-3" x="351.24" y="820.74" width="20" height="19"/><rect class="cls-2" x="351.24" y="800.74" width="20" height="20"/><rect class="cls-2" x="351.24" y="781.74" width="20" height="19"/><rect class="cls-2" x="351.24" y="761.74" width="20" height="20"/><rect class="cls-3" x="351.24" y="741.74" width="20" height="20"/><rect x="351.24" y="722.74" width="20" height="19"/><rect x="351.24" y="702.74" width="20" height="20"/><rect x="351.24" y="682.74" width="20" height="20"/><rect x="351.24" y="663.74" width="20" height="19"/><rect x="351.24" y="369.74" width="20" height="19"/><rect x="351.24" y="349.74" width="20" height="20"/><rect x="351.24" y="330.74" width="20" height="19"/><rect class="cls-3" x="351.24" y="310.74" width="20" height="20"/><rect class="cls-3" x="351.24" y="290.74" width="20" height="20"/><rect class="cls-3" x="351.24" y="271.74" width="20" height="19"/><rect class="cls-3" x="351.24" y="251.74" width="20" height="20"/><rect class="cls-3" x="351.24" y="231.74" width="20" height="20"/><rect class="cls-3" x="351.24" y="212.74" width="20" height="19"/><rect x="351.24" y="192.74" width="20" height="20"/><rect x="331.24" y="839.74" width="20" height="20"/><rect class="cls-3" x="331.24" y="820.74" width="20" height="19"/><rect class="cls-2" x="331.24" y="800.74" width="20" height="20"/><rect class="cls-2" x="331.24" y="781.74" width="20" height="19"/><rect class="cls-2" x="331.24" y="761.74" width="20" height="20"/><rect class="cls-3" x="331.24" y="741.74" width="20" height="20"/><rect x="331.24" y="722.74" width="20" height="19"/><rect x="331.24" y="310.74" width="20" height="20"/><rect x="331.24" y="290.74" width="20" height="20"/><rect x="331.24" y="271.74" width="20" height="19"/><rect x="331.24" y="251.74" width="20" height="20"/><rect x="331.24" y="231.74" width="20" height="20"/><rect x="331.24" y="212.74" width="20" height="19"/><rect x="312.24" y="820.74" width="19" height="19"/><rect class="cls-3" x="312.24" y="800.74" width="19" height="20"/><rect class="cls-3" x="312.24" y="781.74" width="19" height="19"/><rect class="cls-3" x="312.24" y="761.74" width="19" height="20"/><rect x="312.24" y="741.74" width="19" height="20"/><rect x="292.24" y="800.74" width="20" height="20"/><rect x="292.24" y="781.74" width="20" height="19"/><rect x="292.24" y="761.74" width="20" height="20"/></g></svg>