<svg xmlns="http://www.w3.org/2000/svg" viewBox="0 0 1000 1000"><defs><style>.cls-1{fill:#f9b2dd;}.cls-2{fill:#ed1e79;}.cls-3{fill:#fcdeec;}.cls-4{fill:#fcd4e8;}.cls-5{fill:#f4bde0;}.cls-6{fill:aqua;}.cls-7{fill:#fff;}.cls-8{fill:lime;}.cls-9{fill:blue;}.cls-10{fill:#00eae4;}.cls-11{fill:#ff0;}.cls-12{fill:#93278f;}</style></defs><title>uni-6</title><g id="Feliz"><rect x="745" y="823.5" width="20" height="20"/><rect x="745" y="804.5" width="20" height="19"/><rect x="745" y="784.5" width="20" height="20"/><rect x="726" y="843.5" width="19" height="19"/><rect class="cls-1" x="726" y="823.5" width="19" height="20"/><rect class="cls-1" x="726" y="804.5" width="19" height="19"/><rect class="cls-1" x="726" y="784.5" width="19" height="20"/><rect x="726" y="764.5" width="19" height="20"/><rect x="706" y="862.5" width="20" height="20"/><rect class="cls-1" x="706" y="843.5" width="20" height="19"/><rect class="cls-2" x="706" y="823.5" width="20" height="20"/><rect class="cls-2" x="706" y="804.5" width="20" height="19"/><rect class="cls-2" x="706" y="784.5" width="20" height="20"/><rect class="cls-1" x="706" y="764.5" width="20" height="20"/><rect x="706" y="745.5" width="20" height="19"/><rect x="686" y="862.5" width="20" height="20"/><rect class="cls-1" x="686" y="843.5" width="20" height="19"/><rect class="cls-2" x="686" y="823.5" width="20" height="20"/><rect class="cls-2" x="686" y="804.5" width="20" height="19"/><rect class="cls-2" x="686" y="784.5" width="20" height="20"/><rect class="cls-1" x="686" y="764.5" width="20" height="20"/><rect x="686" y="745.5" width="20" height="19"/><rect x="686" y="725.5" width="20" height="20"/><rect x="686" y="705.5" width="20" height="20"/><rect x="686" y="686.5" width="20" height="19"/><rect x="667" y="862.5" width="19" height="20"/><rect class="cls-1" x="667" y="843.5" width="19" height="19"/><rect class="cls-2" x="667" y="823.5" width="19" height="20"/><rect class="cls-2" x="667" y="804.5" width="19" height="19"/><rect class="cls-2" x="667" y="784.5" width="19" height="20"/><rect class="cls-1" x="667" y="764.5" width="19" height="20"/><rect x="667" y="745.5" width="19" height="19"/><rect class="cls-1" x="667" y="725.5" width="19" height="20"/><rect class="cls-1" x="667" y="705.5" width="19" height="20"/><rect class="cls-1" x="667" y="686.5" width="19" height="19"/><rect x="667" y="666.5" width="19" height="20"/><rect x="667" y="647.5" width="19" height="19"/><rect x="667" y="509.5" width="19" height="20"/><rect x="667" y="490.5" width="19" height="19"/><rect x="667" y="470.5" width="19" height="20"/><rect x="667" y="451.5" width="19" height="19"/><rect x="647" y="843.5" width="20" height="19"/><rect class="cls-3" x="647" y="823.5" width="20" height="20"/><rect class="cls-3" x="647" y="804.5" width="20" height="19"/><rect class="cls-3" x="647" y="784.5" width="20" height="20"/><rect x="647" y="764.5" width="20" height="20"/><rect class="cls-4" x="647" y="745.5" width="20" height="19"/><rect class="cls-3" x="647" y="725.5" width="20" height="20"/><rect class="cls-3" x="647" y="705.5" width="20" height="20"/><rect class="cls-3" x="647" y="686.5" width="20" height="19"/><rect class="cls-1" x="647" y="666.5" width="20" height="20"/><rect class="cls-1" x="647" y="647.5" width="20" height="19"/><rect x="647" y="627.5" width="20" height="20"/><rect x="647" y="607.5" width="20" height="20"/><rect x="647" y="588.5" width="20" height="19"/><rect x="647" y="549.5" width="20" height="19"/><rect x="647" y="529.5" width="20" height="20"/><rect class="cls-1" x="647" y="509.5" width="20" height="20"/><rect class="cls-1" x="647" y="490.5" width="20" height="19"/><rect class="cls-1" x="647" y="470.5" width="20" height="20"/><rect class="cls-1" x="647" y="451.5" width="20" height="19"/><rect x="647" y="431.5" width="20" height="20"/><rect x="647" y="411.5" width="20" height="20"/><rect x="647" y="392.5" width="20" height="19"/><rect x="647" y="294.5" width="20" height="19"/><rect x="647" y="274.5" width="20" height="20"/><rect x="647" y="254.5" width="20" height="20"/><rect x="647" y="235.5" width="20" height="19"/><rect x="647" y="215.5" width="20" height="20"/><rect x="647" y="196.5" width="20" height="19"/><rect x="628" y="823.5" width="19" height="20"/><rect x="628" y="804.5" width="19" height="19"/><rect x="628" y="784.5" width="19" height="20"/><rect class="cls-3" x="628" y="764.5" width="19" height="20"/><rect class="cls-3" x="628" y="745.5" width="19" height="19"/><rect x="628" y="725.5" width="19" height="20"/><rect x="628" y="705.5" width="19" height="20"/><rect x="628" y="686.5" width="19" height="19"/><rect class="cls-3" x="628" y="666.5" width="19" height="20"/><rect class="cls-1" x="628" y="647.5" width="19" height="19"/><rect class="cls-1" x="628" y="627.5" width="19" height="20"/><rect class="cls-1" x="628" y="607.5" width="19" height="20"/><rect class="cls-1" x="628" y="588.5" width="19" height="19"/><rect x="628" y="568.5" width="19" height="20"/><rect class="cls-1" x="628" y="549.5" width="19" height="19"/><rect class="cls-1" x="628" y="529.5" width="19" height="20"/><rect class="cls-3" x="628" y="509.5" width="19" height="20"/><rect class="cls-3" x="628" y="490.5" width="19" height="19"/><rect class="cls-3" x="628" y="470.5" width="19" height="20"/><rect class="cls-3" x="628" y="451.5" width="19" height="19"/><rect class="cls-1" x="628" y="431.5" width="19" height="20"/><rect class="cls-1" x="628" y="411.5" width="19" height="20"/><rect class="cls-1" x="628" y="392.5" width="19" height="19"/><rect x="628" y="372.5" width="19" height="20"/><rect x="628" y="313.5" width="19" height="20"/><rect class="cls-1" x="628" y="294.5" width="19" height="19"/><rect class="cls-1" x="628" y="274.5" width="19" height="20"/><rect class="cls-1" x="628" y="254.5" width="19" height="20"/><rect x="628" y="235.5" width="19" height="19"/><rect class="cls-1" x="628" y="215.5" width="19" height="20"/><rect class="cls-1" x="628" y="196.5" width="19" height="19"/><rect x="628" y="176.5" width="19" height="20"/><rect x="608" y="823.5" width="20" height="20"/><rect class="cls-3" x="608" y="804.5" width="20" height="19"/><rect x="608" y="784.5" width="20" height="20"/><rect x="608" y="764.5" width="20" height="20"/><rect x="608" y="745.5" width="20" height="19"/><rect class="cls-3" x="608" y="725.5" width="20" height="20"/><rect class="cls-3" x="608" y="705.5" width="20" height="20"/><rect class="cls-3" x="608" y="686.5" width="20" height="19"/><rect class="cls-3" x="608" y="666.5" width="20" height="20"/><rect class="cls-4" x="608" y="647.5" width="20" height="19"/><rect class="cls-4" x="608" y="627.5" width="20" height="20"/><rect class="cls-4" x="608" y="607.5" width="20" height="20"/><rect class="cls-5" x="608" y="588.5" width="20" height="19"/><rect x="608" y="568.5" width="20" height="20"/><rect class="cls-5" x="608" y="549.5" width="20" height="19"/><rect class="cls-4" x="608" y="529.5" width="20" height="20"/><rect class="cls-3" x="608" y="509.5" width="20" height="20"/><rect class="cls-3" x="608" y="490.5" width="20" height="19"/><rect class="cls-3" x="608" y="470.5" width="20" height="20"/><rect class="cls-3" x="608" y="451.5" width="20" height="19"/><rect class="cls-3" x="608" y="431.5" width="20" height="20"/><rect class="cls-4" x="608" y="411.5" width="20" height="20"/><rect class="cls-4" x="608" y="392.5" width="20" height="19"/><rect class="cls-5" x="608" y="372.5" width="20" height="20"/><rect x="608" y="353.5" width="20" height="19"/><rect x="608" y="333.5" width="20" height="20"/><rect x="608" y="313.5" width="20" height="20"/><rect class="cls-5" x="608" y="294.5" width="20" height="19"/><rect x="608" y="274.5" width="20" height="20"/><rect x="608" y="254.5" width="20" height="20"/><rect class="cls-5" x="608" y="235.5" width="20" height="19"/><rect class="cls-5" x="608" y="215.5" width="20" height="20"/><rect class="cls-1" x="608" y="196.5" width="20" height="19"/><rect class="cls-1" x="608" y="176.5" width="20" height="20"/><rect x="608" y="156.5" width="20" height="20"/><rect x="588" y="843.5" width="20" height="19"/><rect x="588" y="823.5" width="20" height="20"/><rect x="588" y="804.5" width="20" height="19"/><rect x="588" y="784.5" width="20" height="20"/><rect class="cls-3" x="588" y="764.5" width="20" height="20"/><rect class="cls-3" x="588" y="745.5" width="20" height="19"/><rect class="cls-3" x="588" y="725.5" width="20" height="20"/><rect class="cls-3" x="588" y="705.5" width="20" height="20"/><rect class="cls-3" x="588" y="686.5" width="20" height="19"/><rect class="cls-3" x="588" y="666.5" width="20" height="20"/><rect class="cls-3" x="588" y="647.5" width="20" height="19"/><rect class="cls-3" x="588" y="627.5" width="20" height="20"/><rect class="cls-3" x="588" y="607.5" width="20" height="20"/><rect x="588" y="588.5" width="20" height="19"/><rect class="cls-4" x="588" y="568.5" width="20" height="20"/><rect class="cls-4" x="588" y="549.5" width="20" height="19"/><rect class="cls-3" x="588" y="529.5" width="20" height="20"/><rect class="cls-3" x="588" y="509.5" width="20" height="20"/><rect class="cls-3" x="588" y="490.5" width="20" height="19"/><rect class="cls-3" x="588" y="470.5" width="20" height="20"/><rect class="cls-3" x="588" y="451.5" width="20" height="19"/><rect x="588" y="431.5" width="20" height="20"/><rect class="cls-3" x="588" y="411.5" width="20" height="20"/><rect class="cls-3" x="588" y="392.5" width="20" height="19"/><rect class="cls-4" x="588" y="372.5" width="20" height="20"/><rect class="cls-5" x="588" y="353.5" width="20" height="19"/><rect class="cls-5" x="588" y="333.5" width="20" height="20"/><rect x="588" y="313.5" width="20" height="20"/><rect class="cls-3" x="588" y="294.5" width="20" height="19"/><rect class="cls-3" x="588" y="274.5" width="20" height="20"/><rect class="cls-3" x="588" y="254.5" width="20" height="20"/><rect class="cls-3" x="588" y="235.5" width="20" height="19"/><rect x="588" y="215.5" width="20" height="20"/><rect x="588" y="196.5" width="20" height="19"/><rect x="588" y="176.5" width="20" height="20"/><rect x="569" y="862.5" width="19" height="20"/><rect class="cls-6" x="569" y="843.5" width="19" height="19"/><rect x="569" y="823.5" width="19" height="20"/><rect class="cls-3" x="569" y="804.5" width="19" height="19"/><rect class="cls-3" x="569" y="784.5" width="19" height="20"/><rect class="cls-3" x="569" y="764.5" width="19" height="20"/><rect class="cls-3" x="569" y="745.5" width="19" height="19"/><rect class="cls-3" x="569" y="725.5" width="19" height="20"/><rect class="cls-3" x="569" y="705.5" width="19" height="20"/><rect class="cls-3" x="569" y="686.5" width="19" height="19"/><rect class="cls-3" x="569" y="666.5" width="19" height="20"/><rect class="cls-3" x="569" y="647.5" width="19" height="19"/><rect class="cls-3" x="569" y="627.5" width="19" height="20"/><rect class="cls-3" x="569" y="607.5" width="19" height="20"/><rect x="569" y="588.5" width="19" height="19"/><rect class="cls-3" x="569" y="568.5" width="19" height="20"/><rect class="cls-3" x="569" y="549.5" width="19" height="19"/><rect x="569" y="529.5" width="19" height="20"/><rect class="cls-3" x="569" y="509.5" width="19" height="20"/><rect class="cls-3" x="569" y="490.5" width="19" height="19"/><rect class="cls-3" x="569" y="470.5" width="19" height="20"/><rect class="cls-3" x="569" y="451.5" width="19" height="19"/><rect x="569" y="431.5" width="19" height="20"/><rect x="569" y="411.5" width="19" height="20"/><rect class="cls-3" x="569" y="392.5" width="19" height="19"/><rect class="cls-3" x="569" y="372.5" width="19" height="20"/><rect class="cls-3" x="569" y="353.5" width="19" height="19"/><rect class="cls-3" x="569" y="333.5" width="19" height="20"/><rect class="cls-3" x="569" y="313.5" width="19" height="20"/><rect class="cls-3" x="569" y="294.5" width="19" height="19"/><rect class="cls-3" x="569" y="274.5" width="19" height="20"/><rect class="cls-3" x="569" y="254.5" width="19" height="20"/><rect x="569" y="235.5" width="19" height="19"/><rect x="549" y="862.5" width="20" height="20"/><rect class="cls-6" x="549" y="843.5" width="20" height="19"/><rect x="549" y="823.5" width="20" height="20"/><rect class="cls-3" x="549" y="804.5" width="20" height="19"/><rect class="cls-3" x="549" y="784.5" width="20" height="20"/><rect class="cls-3" x="549" y="764.5" width="20" height="20"/><rect class="cls-3" x="549" y="745.5" width="20" height="19"/><rect class="cls-3" x="549" y="725.5" width="20" height="20"/><rect class="cls-3" x="549" y="705.5" width="20" height="20"/><rect class="cls-3" x="549" y="686.5" width="20" height="19"/><rect class="cls-3" x="549" y="666.5" width="20" height="20"/><rect class="cls-3" x="549" y="647.5" width="20" height="19"/><rect class="cls-3" x="549" y="627.5" width="20" height="20"/><rect x="549" y="607.5" width="20" height="20"/><rect class="cls-3" x="549" y="588.5" width="20" height="19"/><rect class="cls-3" x="549" y="568.5" width="20" height="20"/><rect x="549" y="549.5" width="20" height="19"/><rect x="549" y="529.5" width="20" height="20"/><rect class="cls-3" x="549" y="509.5" width="20" height="20"/><rect class="cls-3" x="549" y="490.5" width="20" height="19"/><rect class="cls-3" x="549" y="470.5" width="20" height="20"/><rect class="cls-3" x="549" y="451.5" width="20" height="19"/><rect x="549" y="431.5" width="20" height="20"/><rect x="549" y="411.5" width="20" height="20"/><rect class="cls-3" x="549" y="392.5" width="20" height="19"/><rect class="cls-3" x="549" y="372.5" width="20" height="20"/><rect class="cls-3" x="549" y="353.5" width="20" height="19"/><rect class="cls-3" x="549" y="333.5" width="20" height="20"/><rect x="549" y="313.5" width="20" height="20"/><rect x="549" y="294.5" width="20" height="19"/><rect x="549" y="274.5" width="20" height="20"/><rect x="549" y="254.5" width="20" height="20"/><rect x="530" y="862.5" width="19" height="20"/><rect class="cls-6" x="530" y="843.5" width="19" height="19"/><rect x="530" y="823.5" width="19" height="20"/><rect class="cls-3" x="530" y="804.5" width="19" height="19"/><rect class="cls-3" x="530" y="784.5" width="19" height="20"/><rect class="cls-3" x="530" y="764.5" width="19" height="20"/><rect class="cls-3" x="530" y="745.5" width="19" height="19"/><rect class="cls-3" x="530" y="725.5" width="19" height="20"/><rect class="cls-3" x="530" y="705.5" width="19" height="20"/><rect class="cls-3" x="530" y="686.5" width="19" height="19"/><rect class="cls-3" x="530" y="666.5" width="19" height="20"/><rect class="cls-3" x="530" y="647.5" width="19" height="19"/><rect class="cls-3" x="530" y="627.5" width="19" height="20"/><rect x="530" y="607.5" width="19" height="20"/><rect class="cls-3" x="530" y="588.5" width="19" height="19"/><rect x="530" y="568.5" width="19" height="20"/><rect class="cls-7" x="530" y="549.5" width="19" height="19"/><rect x="530" y="529.5" width="19" height="20"/><rect class="cls-3" x="530" y="509.5" width="19" height="20"/><rect x="530" y="490.5" width="19" height="19"/><rect class="cls-3" x="530" y="470.5" width="19" height="20"/><rect class="cls-3" x="530" y="451.5" width="19" height="19"/><rect x="530" y="431.5" width="19" height="20"/><rect class="cls-3" x="530" y="411.5" width="19" height="20"/><rect class="cls-3" x="530" y="392.5" width="19" height="19"/><rect class="cls-3" x="530" y="372.5" width="19" height="20"/><rect class="cls-3" x="530" y="353.5" width="19" height="19"/><rect x="530" y="333.5" width="19" height="20"/><rect class="cls-8" x="530" y="313.5" width="19" height="20"/><rect class="cls-9" x="530" y="294.5" width="19" height="19"/><rect class="cls-9" x="530" y="274.5" width="19" height="20"/><rect x="530" y="254.5" width="19" height="20"/><rect x="530" y="235.5" width="19" height="19"/><rect x="530" y="215.5" width="19" height="20"/><rect x="510" y="862.5" width="20" height="20"/><rect x="510" y="843.5" width="20" height="19"/><rect x="510" y="823.5" width="20" height="20"/><rect x="510" y="804.5" width="20" height="19"/><rect x="510" y="784.5" width="20" height="20"/><rect x="510" y="764.5" width="20" height="20"/><rect x="510" y="745.5" width="20" height="19"/><rect x="510" y="725.5" width="20" height="20"/><rect x="510" y="705.5" width="20" height="20"/><rect class="cls-3" x="510" y="686.5" width="20" height="19"/><rect class="cls-3" x="510" y="666.5" width="20" height="20"/><rect class="cls-3" x="510" y="647.5" width="20" height="19"/><rect class="cls-3" x="510" y="627.5" width="20" height="20"/><rect x="510" y="607.5" width="20" height="20"/><rect class="cls-3" x="510" y="588.5" width="20" height="19"/><rect x="510" y="568.5" width="20" height="20"/><rect class="cls-7" x="510" y="549.5" width="20" height="19"/><rect x="510" y="529.5" width="20" height="20"/><rect class="cls-3" x="510" y="509.5" width="20" height="20"/><rect class="cls-3" x="510" y="490.5" width="20" height="19"/><rect class="cls-3" x="510" y="470.5" width="20" height="20"/><rect class="cls-3" x="510" y="451.5" width="20" height="19"/><rect class="cls-3" x="510" y="431.5" width="20" height="20"/><rect class="cls-3" x="510" y="411.5" width="20" height="20"/><rect class="cls-3" x="510" y="392.5" width="20" height="19"/><rect class="cls-3" x="510" y="372.5" width="20" height="20"/><rect x="510" y="353.5" width="20" height="19"/><rect class="cls-8" x="510" y="333.5" width="20" height="20"/><rect class="cls-9" x="510" y="313.5" width="20" height="20"/><rect class="cls-2" x="510" y="294.5" width="20" height="19"/><rect x="510" y="274.5" width="20" height="20"/><rect class="cls-10" x="510" y="254.5" width="20" height="20"/><rect class="cls-10" x="510" y="235.5" width="20" height="19"/><rect x="510" y="215.5" width="20" height="20"/><rect x="510" y="196.5" width="20" height="19"/><rect x="490" y="862.5" width="20" height="20"/><rect x="490" y="843.5" width="20" height="19"/><rect x="490" y="823.5" width="20" height="20"/><rect x="490" y="804.5" width="20" height="19"/><rect x="490" y="784.5" width="20" height="20"/><rect x="490" y="764.5" width="20" height="20"/><rect x="490" y="745.5" width="20" height="19"/><rect x="490" y="725.5" width="20" height="20"/><rect x="490" y="705.5" width="20" height="20"/><rect class="cls-3" x="490" y="686.5" width="20" height="19"/><rect class="cls-3" x="490" y="666.5" width="20" height="20"/><rect class="cls-3" x="490" y="647.5" width="20" height="19"/><rect class="cls-3" x="490" y="627.5" width="20" height="20"/><rect x="490" y="607.5" width="20" height="20"/><rect class="cls-3" x="490" y="588.5" width="20" height="19"/><rect x="490" y="568.5" width="20" height="20"/><rect class="cls-7" x="490" y="549.5" width="20" height="19"/><rect x="490" y="529.5" width="20" height="20"/><rect class="cls-3" x="490" y="509.5" width="20" height="20"/><rect class="cls-3" x="490" y="490.5" width="20" height="19"/><rect class="cls-3" x="490" y="470.5" width="20" height="20"/><rect class="cls-3" x="490" y="451.5" width="20" height="19"/><rect class="cls-3" x="490" y="431.5" width="20" height="20"/><rect class="cls-3" x="490" y="411.5" width="20" height="20"/><rect class="cls-3" x="490" y="392.5" width="20" height="19"/><rect x="490" y="372.5" width="20" height="20"/><rect class="cls-8" x="490" y="353.5" width="20" height="19"/><rect class="cls-9" x="490" y="333.5" width="20" height="20"/><rect class="cls-2" x="490" y="313.5" width="20" height="20"/><rect class="cls-2" x="490" y="294.5" width="20" height="19"/><rect x="490" y="274.5" width="20" height="20"/><rect class="cls-6" x="490" y="254.5" width="20" height="20"/><rect class="cls-6" x="490" y="235.5" width="20" height="19"/><rect class="cls-10" x="490" y="215.5" width="20" height="20"/><rect class="cls-10" x="490" y="196.5" width="20" height="19"/><rect x="490" y="176.5" width="20" height="20"/><rect x="490" y="156.5" width="20" height="20"/><rect x="490" y="137.5" width="20" height="19"/><rect x="471" y="862.5" width="19" height="20"/><rect class="cls-6" x="471" y="843.5" width="19" height="19"/><rect x="471" y="823.5" width="19" height="20"/><rect class="cls-3" x="471" y="804.5" width="19" height="19"/><rect class="cls-3" x="471" y="784.5" width="19" height="20"/><rect class="cls-3" x="471" y="764.5" width="19" height="20"/><rect class="cls-3" x="471" y="745.5" width="19" height="19"/><rect class="cls-3" x="471" y="725.5" width="19" height="20"/><rect class="cls-3" x="471" y="705.5" width="19" height="20"/><rect class="cls-3" x="471" y="686.5" width="19" height="19"/><rect class="cls-3" x="471" y="666.5" width="19" height="20"/><rect class="cls-3" x="471" y="647.5" width="19" height="19"/><rect class="cls-3" x="471" y="627.5" width="19" height="20"/><rect x="471" y="607.5" width="19" height="20"/><rect class="cls-3" x="471" y="588.5" width="19" height="19"/><rect x="471" y="568.5" width="19" height="20"/><rect class="cls-7" x="471" y="549.5" width="19" height="19"/><rect x="471" y="529.5" width="19" height="20"/><rect class="cls-3" x="471" y="509.5" width="19" height="20"/><rect x="471" y="490.5" width="19" height="19"/><rect class="cls-3" x="471" y="470.5" width="19" height="20"/><rect class="cls-3" x="471" y="451.5" width="19" height="19"/><rect class="cls-3" x="471" y="431.5" width="19" height="20"/><rect class="cls-3" x="471" y="411.5" width="19" height="20"/><rect x="471" y="392.5" width="19" height="19"/><rect class="cls-8" x="471" y="372.5" width="19" height="20"/><rect class="cls-9" x="471" y="353.5" width="19" height="19"/><rect class="cls-2" x="471" y="333.5" width="19" height="20"/><rect class="cls-2" x="471" y="313.5" width="19" height="20"/><rect class="cls-11" x="471" y="294.5" width="19" height="19"/><rect x="471" y="274.5" width="19" height="20"/><rect class="cls-6" x="471" y="254.5" width="19" height="20"/><rect class="cls-6" x="471" y="235.5" width="19" height="19"/><rect class="cls-6" x="471" y="215.5" width="19" height="20"/><rect class="cls-6" x="471" y="196.5" width="19" height="19"/><rect class="cls-10" x="471" y="176.5" width="19" height="20"/><rect class="cls-10" x="471" y="156.5" width="19" height="20"/><rect class="cls-10" x="471" y="137.5" width="19" height="19"/><rect x="471" y="117.5" width="19" height="20"/><rect x="451" y="862.5" width="20" height="20"/><rect class="cls-6" x="451" y="843.5" width="20" height="19"/><rect x="451" y="823.5" width="20" height="20"/><rect class="cls-3" x="451" y="804.5" width="20" height="19"/><rect class="cls-3" x="451" y="784.5" width="20" height="20"/><rect class="cls-3" x="451" y="764.5" width="20" height="20"/><rect class="cls-3" x="451" y="745.5" width="20" height="19"/><rect class="cls-3" x="451" y="725.5" width="20" height="20"/><rect class="cls-3" x="451" y="705.5" width="20" height="20"/><rect class="cls-3" x="451" y="686.5" width="20" height="19"/><rect class="cls-3" x="451" y="666.5" width="20" height="20"/><rect class="cls-3" x="451" y="647.5" width="20" height="19"/><rect class="cls-3" x="451" y="627.5" width="20" height="20"/><rect x="451" y="607.5" width="20" height="20"/><rect class="cls-3" x="451" y="588.5" width="20" height="19"/><rect class="cls-3" x="451" y="568.5" width="20" height="20"/><rect x="451" y="549.5" width="20" height="19"/><rect x="451" y="529.5" width="20" height="20"/><rect class="cls-3" x="451" y="509.5" width="20" height="20"/><rect class="cls-3" x="451" y="490.5" width="20" height="19"/><rect class="cls-3" x="451" y="470.5" width="20" height="20"/><rect x="451" y="451.5" width="20" height="19"/><rect class="cls-3" x="451" y="431.5" width="20" height="20"/><rect class="cls-3" x="451" y="411.5" width="20" height="20"/><rect x="451" y="392.5" width="20" height="19"/><rect class="cls-9" x="451" y="372.5" width="20" height="20"/><rect class="cls-2" x="451" y="353.5" width="20" height="19"/><rect class="cls-2" x="451" y="333.5" width="20" height="20"/><rect class="cls-11" x="451" y="313.5" width="20" height="20"/><rect class="cls-11" x="451" y="294.5" width="20" height="19"/><rect x="451" y="274.5" width="20" height="20"/><rect class="cls-6" x="451" y="254.5" width="20" height="20"/><rect class="cls-6" x="451" y="235.5" width="20" height="19"/><rect class="cls-6" x="451" y="215.5" width="20" height="20"/><rect class="cls-6" x="451" y="196.5" width="20" height="19"/><rect class="cls-6" x="451" y="176.5" width="20" height="20"/><rect class="cls-6" x="451" y="156.5" width="20" height="20"/><rect class="cls-6" x="451" y="137.5" width="20" height="19"/><rect class="cls-10" x="451" y="117.5" width="20" height="20"/><rect x="451" y="98.5" width="20" height="19"/><rect x="432" y="862.5" width="19" height="20"/><rect class="cls-6" x="432" y="843.5" width="19" height="19"/><rect x="432" y="823.5" width="19" height="20"/><rect class="cls-3" x="432" y="804.5" width="19" height="19"/><rect class="cls-3" x="432" y="784.5" width="19" height="20"/><rect class="cls-3" x="432" y="764.5" width="19" height="20"/><rect class="cls-3" x="432" y="745.5" width="19" height="19"/><rect class="cls-3" x="432" y="725.5" width="19" height="20"/><rect class="cls-3" x="432" y="705.5" width="19" height="20"/><rect class="cls-3" x="432" y="686.5" width="19" height="19"/><rect class="cls-3" x="432" y="666.5" width="19" height="20"/><rect class="cls-3" x="432" y="647.5" width="19" height="19"/><rect class="cls-3" x="432" y="627.5" width="19" height="20"/><rect class="cls-3" x="432" y="607.5" width="19" height="20"/><rect x="432" y="588.5" width="19" height="19"/><rect class="cls-3" x="432" y="568.5" width="19" height="20"/><rect class="cls-3" x="432" y="549.5" width="19" height="19"/><rect x="432" y="529.5" width="19" height="20"/><rect class="cls-3" x="432" y="509.5" width="19" height="20"/><rect class="cls-3" x="432" y="490.5" width="19" height="19"/><rect class="cls-3" x="432" y="470.5" width="19" height="20"/><rect x="432" y="451.5" width="19" height="19"/><rect x="432" y="431.5" width="19" height="20"/><rect class="cls-3" x="432" y="411.5" width="19" height="20"/><rect x="432" y="392.5" width="19" height="19"/><rect x="432" y="372.5" width="19" height="20"/><rect class="cls-2" x="432" y="353.5" width="19" height="19"/><rect class="cls-11" x="432" y="333.5" width="19" height="20"/><rect class="cls-11" x="432" y="313.5" width="19" height="20"/><rect class="cls-11" x="432" y="294.5" width="19" height="19"/><rect x="432" y="274.5" width="19" height="20"/><rect class="cls-6" x="432" y="254.5" width="19" height="20"/><rect class="cls-6" x="432" y="235.5" width="19" height="19"/><rect class="cls-6" x="432" y="215.5" width="19" height="20"/><rect class="cls-6" x="432" y="196.5" width="19" height="19"/><rect class="cls-6" x="432" y="176.5" width="19" height="20"/><rect class="cls-6" x="432" y="156.5" width="19" height="20"/><rect class="cls-6" x="432" y="137.5" width="19" height="19"/><rect x="432" y="117.5" width="19" height="20"/><rect x="412" y="843.5" width="20" height="19"/><rect x="412" y="823.5" width="20" height="20"/><rect x="412" y="804.5" width="20" height="19"/><rect x="412" y="784.5" width="20" height="20"/><rect class="cls-3" x="412" y="764.5" width="20" height="20"/><rect class="cls-3" x="412" y="745.5" width="20" height="19"/><rect class="cls-3" x="412" y="725.5" width="20" height="20"/><rect class="cls-3" x="412" y="705.5" width="20" height="20"/><rect class="cls-3" x="412" y="686.5" width="20" height="19"/><rect class="cls-3" x="412" y="666.5" width="20" height="20"/><rect class="cls-3" x="412" y="647.5" width="20" height="19"/><rect class="cls-3" x="412" y="627.5" width="20" height="20"/><rect class="cls-3" x="412" y="607.5" width="20" height="20"/><rect x="412" y="588.5" width="20" height="19"/><rect class="cls-3" x="412" y="568.5" width="20" height="20"/><rect class="cls-3" x="412" y="549.5" width="20" height="19"/><rect class="cls-3" x="412" y="529.5" width="20" height="20"/><rect class="cls-3" x="412" y="509.5" width="20" height="20"/><rect class="cls-3" x="412" y="490.5" width="20" height="19"/><rect class="cls-3" x="412" y="470.5" width="20" height="20"/><rect x="412" y="451.5" width="20" height="19"/><rect x="412" y="431.5" width="20" height="20"/><rect class="cls-3" x="412" y="411.5" width="20" height="20"/><rect x="412" y="392.5" width="20" height="19"/><rect x="412" y="372.5" width="20" height="20"/><rect class="cls-11" x="412" y="353.5" width="20" height="19"/><rect class="cls-11" x="412" y="333.5" width="20" height="20"/><rect class="cls-11" x="412" y="313.5" width="20" height="20"/><rect class="cls-12" x="412" y="294.5" width="20" height="19"/><rect x="412" y="274.5" width="20" height="20"/><rect class="cls-6" x="412" y="254.5" width="20" height="20"/><rect class="cls-6" x="412" y="235.5" width="20" height="19"/><rect class="cls-6" x="412" y="215.5" width="20" height="20"/><rect class="cls-6" x="412" y="196.5" width="20" height="19"/><rect x="412" y="176.5" width="20" height="20"/><rect x="412" y="156.5" width="20" height="20"/><rect x="412" y="137.5" width="20" height="19"/><rect x="392" y="823.5" width="20" height="20"/><rect class="cls-3" x="392" y="804.5" width="20" height="19"/><rect x="392" y="784.5" width="20" height="20"/><rect x="392" y="764.5" width="20" height="20"/><rect x="392" y="745.5" width="20" height="19"/><rect class="cls-3" x="392" y="725.5" width="20" height="20"/><rect class="cls-3" x="392" y="705.5" width="20" height="20"/><rect class="cls-3" x="392" y="686.5" width="20" height="19"/><rect class="cls-3" x="392" y="666.5" width="20" height="20"/><rect class="cls-3" x="392" y="647.5" width="20" height="19"/><rect class="cls-3" x="392" y="627.5" width="20" height="20"/><rect class="cls-3" x="392" y="607.5" width="20" height="20"/><rect class="cls-3" x="392" y="588.5" width="20" height="19"/><rect x="392" y="568.5" width="20" height="20"/><rect class="cls-3" x="392" y="549.5" width="20" height="19"/><rect class="cls-3" x="392" y="529.5" width="20" height="20"/><rect class="cls-3" x="392" y="509.5" width="20" height="20"/><rect class="cls-3" x="392" y="490.5" width="20" height="19"/><rect class="cls-3" x="392" y="470.5" width="20" height="20"/><rect x="392" y="451.5" width="20" height="19"/><rect class="cls-3" x="392" y="431.5" width="20" height="20"/><rect class="cls-3" x="392" y="411.5" width="20" height="20"/><rect class="cls-3" x="392" y="392.5" width="20" height="19"/><rect x="392" y="372.5" width="20" height="20"/><rect class="cls-11" x="392" y="353.5" width="20" height="19"/><rect class="cls-11" x="392" y="333.5" width="20" height="20"/><rect class="cls-12" x="392" y="313.5" width="20" height="20"/><rect class="cls-12" x="392" y="294.5" width="20" height="19"/><rect x="392" y="274.5" width="20" height="20"/><rect x="392" y="254.5" width="20" height="20"/><rect x="392" y="235.5" width="20" height="19"/><rect x="392" y="215.5" width="20" height="20"/><rect x="392" y="196.5" width="20" height="19"/><rect x="373" y="823.5" width="19" height="20"/><rect x="373" y="804.5" width="19" height="19"/><rect x="373" y="784.5" width="19" height="20"/><rect class="cls-3" x="373" y="764.5" width="19" height="20"/><rect class="cls-3" x="373" y="745.5" width="19" height="19"/><rect x="373" y="725.5" width="19" height="20"/><rect x="373" y="705.5" width="19" height="20"/><rect x="373" y="686.5" width="19" height="19"/><rect class="cls-3" x="373" y="666.5" width="19" height="20"/><rect class="cls-3" x="373" y="647.5" width="19" height="19"/><rect class="cls-3" x="373" y="627.5" width="19" height="20"/><rect class="cls-3" x="373" y="607.5" width="19" height="20"/><rect class="cls-3" x="373" y="588.5" width="19" height="19"/><rect x="373" y="568.5" width="19" height="20"/><rect class="cls-3" x="373" y="549.5" width="19" height="19"/><rect class="cls-3" x="373" y="529.5" width="19" height="20"/><rect class="cls-3" x="373" y="509.5" width="19" height="20"/><rect class="cls-3" x="373" y="490.5" width="19" height="19"/><rect class="cls-3" x="373" y="470.5" width="19" height="20"/><rect class="cls-3" x="373" y="451.5" width="19" height="19"/><rect class="cls-3" x="373" y="431.5" width="19" height="20"/><rect class="cls-3" x="373" y="411.5" width="19" height="20"/><rect x="373" y="392.5" width="19" height="19"/><rect class="cls-11" x="373" y="372.5" width="19" height="20"/><rect class="cls-11" x="373" y="353.5" width="19" height="19"/><rect class="cls-12" x="373" y="333.5" width="19" height="20"/><rect class="cls-12" x="373" y="313.5" width="19" height="20"/><rect x="373" y="294.5" width="19" height="19"/><rect x="373" y="274.5" width="19" height="20"/><rect x="353" y="843.5" width="20" height="19"/><rect class="cls-3" x="353" y="823.5" width="20" height="20"/><rect class="cls-3" x="353" y="804.5" width="20" height="19"/><rect class="cls-3" x="353" y="784.5" width="20" height="20"/><rect x="353" y="764.5" width="20" height="20"/><rect class="cls-3" x="353" y="745.5" width="20" height="19"/><rect class="cls-3" x="353" y="725.5" width="20" height="20"/><rect class="cls-3" x="353" y="705.5" width="20" height="20"/><rect class="cls-3" x="353" y="686.5" width="20" height="19"/><rect class="cls-3" x="353" y="666.5" width="20" height="20"/><rect class="cls-3" x="353" y="647.5" width="20" height="19"/><rect class="cls-3" x="353" y="627.5" width="20" height="20"/><rect x="353" y="607.5" width="20" height="20"/><rect x="353" y="588.5" width="20" height="19"/><rect x="353" y="549.5" width="20" height="19"/><rect x="353" y="529.5" width="20" height="20"/><rect class="cls-3" x="353" y="509.5" width="20" height="20"/><rect class="cls-3" x="353" y="490.5" width="20" height="19"/><rect class="cls-3" x="353" y="470.5" width="20" height="20"/><rect class="cls-3" x="353" y="451.5" width="20" height="19"/><rect class="cls-3" x="353" y="431.5" width="20" height="20"/><rect class="cls-3" x="353" y="411.5" width="20" height="20"/><rect x="353" y="392.5" width="20" height="19"/><rect class="cls-12" x="353" y="372.5" width="20" height="20"/><rect class="cls-12" x="353" y="353.5" width="20" height="19"/><rect class="cls-12" x="353" y="333.5" width="20" height="20"/><rect x="353" y="313.5" width="20" height="20"/><rect class="cls-3" x="353" y="294.5" width="20" height="19"/><rect class="cls-3" x="353" y="274.5" width="20" height="20"/><rect x="353" y="254.5" width="20" height="20"/><rect x="334" y="862.5" width="19" height="20"/><rect class="cls-3" x="334" y="843.5" width="19" height="19"/><rect class="cls-2" x="334" y="823.5" width="19" height="20"/><rect class="cls-2" x="334" y="804.5" width="19" height="19"/><rect class="cls-2" x="334" y="784.5" width="19" height="20"/><rect class="cls-3" x="334" y="764.5" width="19" height="20"/><rect x="334" y="745.5" width="19" height="19"/><rect class="cls-3" x="334" y="725.5" width="19" height="20"/><rect class="cls-3" x="334" y="705.5" width="19" height="20"/><rect class="cls-3" x="334" y="686.5" width="19" height="19"/><rect x="334" y="666.5" width="19" height="20"/><rect x="334" y="647.5" width="19" height="19"/><rect x="334" y="627.5" width="19" height="20"/><rect x="334" y="509.5" width="19" height="20"/><rect x="334" y="490.5" width="19" height="19"/><rect x="334" y="470.5" width="19" height="20"/><rect x="334" y="451.5" width="19" height="19"/><rect x="334" y="431.5" width="19" height="20"/><rect x="334" y="411.5" width="19" height="20"/><rect x="334" y="392.5" width="19" height="19"/><rect class="cls-12" x="334" y="372.5" width="19" height="20"/><rect x="334" y="353.5" width="19" height="19"/><rect x="334" y="333.5" width="19" height="20"/><rect class="cls-3" x="334" y="313.5" width="19" height="20"/><rect x="334" y="294.5" width="19" height="19"/><rect x="334" y="274.5" width="19" height="20"/><rect class="cls-3" x="334" y="254.5" width="19" height="20"/><rect x="334" y="235.5" width="19" height="19"/><rect x="314" y="862.5" width="20" height="20"/><rect class="cls-3" x="314" y="843.5" width="20" height="19"/><rect class="cls-2" x="314" y="823.5" width="20" height="20"/><rect class="cls-2" x="314" y="804.5" width="20" height="19"/><rect class="cls-2" x="314" y="784.5" width="20" height="20"/><rect class="cls-3" x="314" y="764.5" width="20" height="20"/><rect x="314" y="745.5" width="20" height="19"/><rect x="314" y="725.5" width="20" height="20"/><rect x="314" y="705.5" width="20" height="20"/><rect x="314" y="686.5" width="20" height="19"/><rect x="314" y="392.5" width="20" height="19"/><rect x="314" y="372.5" width="20" height="20"/><rect x="314" y="353.5" width="20" height="19"/><rect class="cls-3" x="314" y="333.5" width="20" height="20"/><rect class="cls-3" x="314" y="313.5" width="20" height="20"/><rect class="cls-3" x="314" y="294.5" width="20" height="19"/><rect class="cls-3" x="314" y="274.5" width="20" height="20"/><rect class="cls-3" x="314" y="254.5" width="20" height="20"/><rect class="cls-3" x="314" y="235.5" width="20" height="19"/><rect x="314" y="215.5" width="20" height="20"/><rect x="294" y="862.5" width="20" height="20"/><rect class="cls-3" x="294" y="843.5" width="20" height="19"/><rect class="cls-2" x="294" y="823.5" width="20" height="20"/><rect class="cls-2" x="294" y="804.5" width="20" height="19"/><rect class="cls-2" x="294" y="784.5" width="20" height="20"/><rect class="cls-3" x="294" y="764.5" width="20" height="20"/><rect x="294" y="745.5" width="20" height="19"/><rect x="294" y="333.5" width="20" height="20"/><rect x="294" y="313.5" width="20" height="20"/><rect x="294" y="294.5" width="20" height="19"/><rect x="294" y="274.5" width="20" height="20"/><rect x="294" y="254.5" width="20" height="20"/><rect x="294" y="235.5" width="20" height="19"/><rect x="275" y="843.5" width="19" height="19"/><rect class="cls-3" x="275" y="823.5" width="19" height="20"/><rect class="cls-3" x="275" y="804.5" width="19" height="19"/><rect class="cls-3" x="275" y="784.5" width="19" height="20"/><rect x="275" y="764.5" width="19" height="20"/><rect x="255" y="823.5" width="20" height="20"/><rect x="255" y="804.5" width="20" height="19"/><rect x="255" y="784.5" width="20" height="20"/></g></svg>