<svg id="f3af2cdf-14fc-4795-97c1-1b15e57008c6" data-name="Layer 1" xmlns="http://www.w3.org/2000/svg" viewBox="0 0 1000 1000"><defs><style>.\36 a9c206c-e7e6-401a-817e-8643d66c58bf{fill:#010000;}.\34 293f7a5-0b18-4071-b518-6bf82bbeaabe{fill:#020101;}.\34 4eb3ba7-4887-4228-89f5-ace209e7ef68{fill:#010100;}.\32 42eb5d2-7d6d-4c84-800b-fd7fe6d2344e{fill:#050201;}.f26f5598-1a54-44fe-bd0a-a6434994a05e{fill:#050101;}.\38 e76f5ab-a8f8-4bf0-a973-d6c60122c6a1{fill:#040101;}.\35 f3ee360-a2f0-49f8-8e58-8d469645632d{fill:#020201;}.\31 bfb4f31-7702-4bf3-b3f1-7e1e375abb9f{fill:#010201;}.d04c6fe4-8caa-4cab-8924-1e69f74badfd{fill:#e97414;}.\35 0ca459f-6339-465c-a4ee-ec93f8b14628{fill:#652310;}.\30 7a17d52-d97a-4edc-a9e0-ad36b225fe29{fill:#afd867;}.\31 48fac8a-d1b0-4456-88e1-cdaf68233ddb{fill:#e87415;}.\31 b631508-d5ff-4803-8853-7e8f5cf9f197{fill:#a2221a;}.b808a758-a553-4089-87ab-ea62baf00946{fill:#020000;}.e3e580ad-cc6e-421a-bbcc-05f8d37f35b5{fill:#d1500e;}.\34 23fce83-eb10-4fb2-9226-264c44ab30a4{fill:#050000;}.de9e0bfe-3390-47b4-81e4-feb654fbcbe8{fill:#d24f0e;}.a3ef6509-6747-415f-b3a0-00847144f307{fill:#fbfaf7;}.\36 9eb100c-fca9-4d52-af05-d679d3ad7edb{fill:#fcfaf7;}.\31 1c49d52-2391-4018-8e50-62129e0ae60a{fill:#050100;}.c64678e8-c995-4898-92a1-5dbd3e689981{fill:#060000;}.\36 90bcab2-fd7d-4851-897e-6fc3e04c48dd{fill:#80321e;}.\35 fe0661a-912d-44ed-a8ad-77651284420d{fill:#030000;}.d349d10f-3bd5-4b0f-bf9d-b8592d8617e8{fill:#a5211a;}</style></defs><title>unigotchi_desgin</title><path class="6a9c206c-e7e6-401a-817e-8643d66c58bf" d="M869.24,279c17.24,0.9,40.18-8.08,50.07,3.58,8.49,10,2.66,33.65,2.76,51.26,0.18,31.51.59,63-.22,94.54-0.32,12.52,2.58,16.74,15.26,16.64,37.7-.29,37.7.35,37.7,39.16,0,19.7-.43,39.41.17,59.09,0.29,9.44-2.56,12.6-11.61,12.19-13.72-.63-27.49.06-41.24,0.19-0.85-.9-1.71-1.79-2.57-2.68-4.87-9.1-3.73-19.19-4-28.94-0.28-11.23-4.89-17-15.89-17.1-6.26,0-12.52-.26-18.77-0.26H120.26c-3.76,0-7.51-.06-11.27.06-20.79.64-22,1.84-23,23.71-0.32,6.56-.1,13.17-2.25,19.5a13.17,13.17,0,0,1-4.48,6c-4.37-.21-8.74-0.55-13.12-0.6-39.84-.42-39.85-0.4-39.84-41.39,0-19.06.43-38.13-.17-57.17-0.3-9.4,2.5-13.52,11.56-12.06a10,10,0,0,0,1.88,0C79,443.47,79,443.47,79,402.62c0-36.14.4-72.3-.23-108.43-0.2-11.42,1.75-16.85,14.11-15.66,13,1.25,26.25.35,39.38,0.39,0.85,0.92,1.7,1.83,2.56,2.74,4.75,9.14,3.72,19.16,3.77,28.93,0.21,35.47.28,70.94,0,106.41-0.12,14.82,5.17,22.22,19.76,21.25,4.35-.29,8.75.06,13.13,0.06q329.31,0,658.62,0c32.89,0,32.91-.07,32.95-34.91,0-31.53-.09-63.06.07-94.59,0-9.14-.73-18.48,3.64-27C867.54,280.86,868.39,279.94,869.24,279Z"/><path d="M922.13,555.67l-0.35,55.24c-0.94.87-1.88,1.74-2.81,2.62-8.77,4.74-18.3,3.77-27.63,3.77q-390.54.13-781.08,0c-9.32,0-18.86,1-27.64-3.75-0.93-.88-1.86-1.77-2.79-2.66l-0.62-55,0.6-.56c7.16-6.87,16.13-6.53,24.85-6.53q396.14-.22,792.27,0c8.72,0,17.69-.38,24.86,6.5Z"/><path class="4293f7a5-0b18-4071-b518-6bf82bbeaabe" d="M869.19,831.76c-0.21,17.65,5.9,40.56-2.36,51.52-8.72,11.57-31.55,3.63-48.16,3.65-222.67.26-445.34,0-668,.57-15.48,0-21.33-3.57-19.24-20.22,1.46-11.63.68-23.58,0.9-35.38,0.91-.9,1.82-1.8,2.73-2.71,8.72-4.92,18.27-3.94,27.59-3.94q338.09-.13,676.18,0c9.32,0,18.87-1,27.63,3.83C867.36,829.95,868.28,830.85,869.19,831.76Z"/><path class="6a9c206c-e7e6-401a-817e-8643d66c58bf" d="M237.54,168.35c0.12-17.65-6.11-40.49,2.09-51.53,8.7-11.72,31.52-3.7,48.12-3.74,152.57-.32,305.13.11,457.7-0.63,16.13-.08,20.61,4.69,18.85,20.65-1.29,11.66-.28,23.61-0.3,35.42-0.92.88-1.84,1.77-2.75,2.66C752.49,176,743,175,733.63,175q-232.91.14-465.81,0c-9.32,0-18.87,1-27.6-3.93C239.32,170.2,238.43,169.28,237.54,168.35Z"/><path class="44eb3ba7-4887-4228-89f5-ace209e7ef68" d="M921.75,665.8c0.12,50.92-.12,101.84.63,152.74,0.18,12-4.25,14-14,13.43-13-.75-26.1-0.2-39.15-0.21l0.18,0.17c-8.18-10.05-5.75-22.27-6-33.82-0.37-17-.44-34,0-51,0.34-14.34-5.69-20-19-19.73-9.77.18-20.11,1.46-28.6-6-7.81-18.56-7.53-37.19-.44-55.88a18.7,18.7,0,0,1,13.59-5.28c30.07,0.48,60.32-4.47,90.19,3C920,664.06,920.85,664.93,921.75,665.8Z"/><path class="44eb3ba7-4887-4228-89f5-ace209e7ef68" d="M132.31,831.89c-14.33,0-28.67-.51-43,0.06-8.25.33-10.61-2.76-10.51-11.19,0.59-51.65.74-103.3,1-155,0.9-.84,1.81-1.69,2.7-2.55,34.53-4.89,69-7.95,103.36,1.77,7.88,18.56,7.43,37.19.38,55.86-8.23,8-18.68,6.86-28.47,6.51-14.74-.52-19.91,6.6-19.58,21.32,0.45,19.69.23,39.4,0,59.1-0.09,8.55,0,17.2-6,24.14Z"/><path class="242eb5d2-7d6d-4c84-800b-fd7fe6d2344e" d="M184.88,223.6c-0.09-18-7.66-41.57,2.72-52.24s32.81-2.48,49.95-3l0,0c9.91,14.87,6.27,31.28,4.54,47.31-0.89,8.2-6.7,12.52-14.12,13.31-13.55,1.45-27.23,3.4-40.39-2.6C186.65,225.45,185.76,224.53,184.88,223.6Z"/><path class="f26f5598-1a54-44fe-bd0a-a6434994a05e" d="M764,168.53c17.08,0.32,39.52-7.85,49.73,3s2.31,34.35,2.91,52.29c-0.91.88-1.82,1.76-2.73,2.66a22.07,22.07,0,0,1-12.49,3.31c-13.76-.68-31.63,6.39-39.28-9.1a55,55,0,0,1,2-52.28Z"/><path class="f26f5598-1a54-44fe-bd0a-a6434994a05e" d="M132.23,278.92c-0.23-18-7.7-41.59,2.66-52.26s32.84-2.42,50-3.06v0c10,14.82,6.53,31.22,4.68,47.26C188.74,278,184,283,177.24,283.82c-15.28,1.94-30.89,5.57-45-4.92h0Z"/><path class="8e76f5ab-a8f8-4bf0-a973-d6c60122c6a1" d="M816.62,223.77c17.08,0.43,39.51-7.8,49.75,3s2.4,34.32,2.87,52.26l0.14-.1c-14.11,10.46-29.72,6.84-45,4.9-6.77-.86-11.5-5.82-12.32-12.93-1.85-16-5.3-32.43,4.67-47.25Z"/><path class="5f3ee360-a2f0-49f8-8e58-8d469645632d" d="M79.87,665.8c-14.36,0-28.74-.34-43.08.24-8.1.33-10.27-2.57-10.78-11.07-2.69-44.36-3-44.35,38.87-44.4,5,0,10,.21,15,0.32l-0.25-.39q14.12,27.84,0,55.69Z"/><path class="1bfb4f31-7702-4bf3-b3f1-7e1e375abb9f" d="M921.78,610.91c14.26-.11,28.52-0.36,42.77-0.24,3.87,0,9.79-2.06,10,5.08q0.56,22.45,0,44.92c-0.18,7.06-6,5.09-9.95,5.14-14.26.18-28.53,0-42.79,0l0.32,0.39q-14.15-27.84,0-55.68Z"/><path class="d04c6fe4-8caa-4cab-8924-1e69f74badfd" d="M816.74,223.64c1.51,17.87-7.82,41.66,4.14,52,10.15,8.77,31.89,2.76,48.51,3.28,0,49.27-.33,98.55.26,147.82,0.16,12.95-2.35,18.32-16.25,18.29q-352.82-.65-705.64-0.09c-11.72,0-16.52-2.82-16.29-16.27,0.84-49.91.61-99.84,0.78-149.77,16.87-1.9,39.36,8.21,49.16-4.57,8.32-10.84,2.85-33.36,3.48-50.71,16.89-1.94,39.42,8.18,49.23-4.55,8.33-10.8,2.8-33.38,3.41-50.74l526.58,0c1.41,17.88-7.84,41.68,4.11,52C778.35,229.15,800.11,223.12,816.74,223.64Z"/><path class="50ca459f-6339-465c-a4ee-ec93f8b14628" d="M921.79,555.32l-842,0C78.3,500.07,78.3,500.07,130,500.07H895.88c26.09,0,26.11,0,26.09,27.65C922,536.92,921.85,546.12,921.79,555.32Z"/><path class="07a17d52-d97a-4edc-a9e0-ad36b225fe29" d="M922.07,610.51q0,27.84,0,55.68l-105.41.51c-5.62,4.92-12.41,5.68-19.29,5.67-45.88,0-91.77,1-137.64-.47a532.78,532.78,0,0,1-54.33-.16c-69.6-.25-139.19-0.13-208.78,0a517.46,517.46,0,0,1-54.42.17c-46.07,1.45-92.15.49-138.22,0.5-6.95,0-13.68-1.07-19.43-5.69l-104.95-.52q0-27.84,0-55.69H922.07Z"/><path class="148fac8a-d1b0-4456-88e1-cdaf68233ddb" d="M132.25,832c-0.17-32.17,0-64.35-.71-96.51-0.25-11.3,3.65-15.05,14.11-14.41,13.09,0.81,26.25.36,39.38,0.46,0.75,0.8,1.51,1.61,2.28,2.4,4.42,8.54,3.7,18,3.38,27-0.51,14.57,5.89,19.74,19.25,19.61,36.31-.34,72.62-0.22,108.93-0.06,12.39,0.05,18.63-4.89,18.3-18.53-0.22-9.13-.77-18.45,2.31-27.37a13.59,13.59,0,0,1,4.14-5.49c16.71-5.76,33.5-5.12,50.34-.67a11.82,11.82,0,0,1,4.63,5c4,10,2.6,20.68,3,31.08,0.38,10.57,5.22,15.48,15.11,15.55q84.28,0.63,168.55,0c10-.08,14.55-5.37,14.85-15.8,0.29-9.78-.75-19.72,2.39-29.28a14.45,14.45,0,0,1,4-5.69c16.69-6.18,33.52-5.17,50.41-1a11.58,11.58,0,0,1,4.69,4.86c3.22,7.4,2.65,15.36,2.92,23.2,0.78,22.76,1.73,23.91,24.19,24q49.66,0.29,99.33,0c21.05-.16,22-1.35,22.8-23.4,0.3-7.83-.4-15.82,3.45-23.07,0.76-.81,1.54-1.6,2.31-2.4,16.72,0.22,38-7.36,48.91,2.75,11.33,10.49,3.07,33.32,3.74,50.72,0.73,19,.13,38,0.11,57Z"/><path class="1b631508-d5ff-4803-8853-7e8f5cf9f197" d="M658.77,666.69H816.66q0,27.41-.06,54.81l0.26-.25c-6,5.67-13.51,6.45-21.08,6.5q-58.11.4-116.21,0c-7.57-.05-15-0.83-21.08-6.51l0.25,0.26C650.09,703.23,649.15,685,658.77,666.69Z"/><path class="1b631508-d5ff-4803-8853-7e8f5cf9f197" d="M184.53,666.71l157.87,0c10.27,18.19,9.22,36.48.49,54.85l0.26-.28c-6,5.67-13.5,6.46-21.08,6.52q-58.11.4-116.21,0c-7.57-.05-15-0.82-21.09-6.49L185,721.5Q184.78,694.11,184.53,666.71Z"/><path class="b808a758-a553-4089-87ab-ea62baf00946" d="M658.67,224.27c52.67-3.29,52.72-3.29,52.64,50.94,0,19.59-.4,39.18-0.61,58.78-17.12,10.54-34.48,9-52,1.13-1.84-.29-3.67-0.64-5.51-0.86-15.2-1.83-36,7.41-44.33-4.09-9-12.49-3.13-33.82-2-51.32,8.42-7.94,18.88-5.83,28.6-5.67,12.9,0.22,17.87-5.63,17.65-18.87C652.94,244.06,651.16,233.1,658.67,224.27Z"/><path class="b808a758-a553-4089-87ab-ea62baf00946" d="M342.55,224.44c52.67-4,52.67-4,52.67,51.22,0,14.42-.71,28.89.2,43.25,0.79,12.5-4.08,15.92-15.16,15.4-12.42-.58-24.91.45-37.36,0.78-14.42,9.1-29.87,5.92-45.09,3.8-6.25-.87-9.72-5.27-9.32-12.31,0.88-15.47-2-31.09,1.61-46.45l0.7-1.26c9.07-8.19,20.15-5.56,30.5-5.78,10.89-.24,15.7-5,16-16.56C337.47,245.67,334.84,234,342.55,224.44Z"/><path class="e3e580ad-cc6e-421a-bbcc-05f8d37f35b5" d="M290.09,280.13c0.48,16.95-4.88,38.45,3,49.61,8.6,12.15,30.28,2.66,46.12,4.62,1.23,0.15,2.45.49,3.67,0.74,0,54.5,0,54.5-51.38,54.5-6.89,0-13.82.48-20.67-.11-10.39-.9-24.77,5.47-30.29-3.49-7.69-12.48-3-29.38-2.32-44.3,0.41-9.51,9-7.06,14.86-7.3,33.16-1.38,33-1.32,33.51-35.93C286.69,292.29,283.82,285.13,290.09,280.13Z"/><path class="423fce83-eb10-4fb2-9226-264c44ab30a4" d="M499.8,389.44c-12.51,0-25.06-.76-37.5.21-11.95.93-14.5-4.36-14.66-15.91-0.54-39.63-.94-39.63,36.86-39.63,18.13,0,36.3.69,54.39-.23,11.86-.61,14.58,4.12,14.69,15.88,0.37,39.71.82,39.71-36.89,39.68H499.8Z"/><path class="de9e0bfe-3390-47b4-81e4-feb654fbcbe8" d="M658.73,335.12l52-1.13c6.22,0.11,12.45.3,18.67,0.31,35.59,0.08,41.57,8.32,34.66,46-1.44,7.86-5.44,9.29-11.59,9.28-27.39,0-54.79-.19-82.17.09-9.19.09-11.8-4.62-11.6-13.34C659,362.58,658.74,348.85,658.73,335.12Z"/><path class="a3ef6509-6747-415f-b3a0-00847144f307" d="M342.55,224.44c0,14.42-.41,28.85.11,43.24C343,276.27,340.1,279.27,332,279c-13.71-.52-27.45-0.11-41.17-0.1C289.81,211.16,278.7,223.91,342.55,224.44Z"/><path class="69eb100c-fca9-4d52-af05-d679d3ad7edb" d="M658.67,224.27c-0.95,17.57,7,40.57-3.06,51.27s-32,2.2-48.75,3.3C606.36,210.76,594.43,224.29,658.67,224.27Z"/><path class="11c49d52-2391-4018-8e50-62129e0ae60a" d="M342.9,721.52q-0.24-27.43-.48-54.86l52.4-.07c9.63,18.23,8.85,36.61.68,55.08Z"/><path class="c64678e8-c995-4898-92a1-5dbd3e689981" d="M658.77,666.69l0,54.81-52.57.16c-8.43-18.41-8.51-36.78.22-55.12Z"/><path class="690bcab2-fd7d-4851-897e-6fc3e04c48dd" d="M606.39,666.55q-0.11,27.56-.22,55.12l0.23-.38c-7.23,6.62-16.12,6.54-24.88,6.56q-80.7.22-161.39,0c-8.76,0-17.65.07-24.88-6.56l0.25,0.39q-0.34-27.54-.68-55.08Z"/><path class="5fe0661a-912d-44ed-a8ad-77651284420d" d="M395.25,721.29H606.39c-0.14,13.8-.74,27.62-0.27,41.39,0.33,9.85-2.37,14-12.57,14q-92.95-.57-185.9,0c-10.22.07-12.94-4.19-12.57-14C395.61,748.91,395.24,735.09,395.25,721.29Z"/><path class="5fe0661a-912d-44ed-a8ad-77651284420d" d="M184.78,721.26l158.38,0c-0.22,13.79-.89,27.59-0.52,41.36,0.27,9.74-2.23,14.18-12.53,14.08q-66.63-.69-133.27,0c-10.26.11-12.93-4.33-12.54-14C184.86,748.86,184.65,735.05,184.78,721.26Z"/><path class="5fe0661a-912d-44ed-a8ad-77651284420d" d="M658.48,721.25H816.86c-2.12,18,8,42.11-4.58,52.42-10.62,8.73-32.4,2.68-49.25,2.78-28.16.18-56.4-1.21-84.47,0.51-17.48,1.07-21.82-5.62-20.11-22.23C659.59,743.7,658.55,732.42,658.48,721.25Z"/><path class="d349d10f-3bd5-4b0f-bf9d-b8592d8617e8" d="M502.42,670c28.1,0,56.23.9,84.27-.3,20.72-.89,15,13.92,15.52,25.17,0.57,11.8,2.57,23.19-15.93,22.84-56.8-1.07-113.64-1.17-170.43,0-20,.42-16.36-12.29-16.56-24.31-0.21-12.5-2.5-24.9,17-23.84C444.92,671.11,473.7,670,502.42,670Z"/></svg>