<svg id="babc3c6d-3b29-4559-aa1c-b31194a20c69" data-name="Layer 1" xmlns="http://www.w3.org/2000/svg" viewBox="0 0 1000 1000"><defs><style>.\32 1100eb0-ecd0-414d-a272-1f4156270218{fill:#010101;}.\38 b472e33-7c8b-46ae-a3e2-86973dc7a384{fill:#656565;}.\31 53877d3-45b3-4732-98b6-e9463d5a63ca{fill:#dcdcdc;}.\38 fa3f173-d4fd-4d1f-9d83-584b1de60ba4{fill:#f3f3f3;}.af0e5a1c-d21b-4e4c-8ed7-ac544d65e218{fill:#cdcdcd;}.\39 3543469-b90d-4545-89b3-21a7a1b36173{fill:#d7d7d7;}.\30 b9d63d8-1f4c-4dd2-bc88-a47ebb231f02{fill:#c8c8c8;}.\39 807525b-88a4-4f96-9eb4-600af174f6ee{fill:#fefefe;}.b6b346bb-b946-4f77-8daa-6c85aa245b30{fill:#d9d9d9;}.f27ee26b-232b-49e3-a501-2f20ec80d76d{fill:#c5c5c5;}.\31 e33b487-7641-47db-a8bf-c5923ac90801{fill:#ccc;}.\34 53a47a3-123b-4a58-9c0e-0ccfaa0fbfc6{fill:#4b4b4b;}.\35 f2197db-5b4e-48c1-b743-b11851184be9{fill:#4d4d4d;}.\39 d745b0b-d1a9-462b-8f84-adf71568d768{fill:#fcfcfc;}.fcce6ed1-f912-43df-a734-764f33a5ee9e{fill:#c9c9c9;}.\34 6c6c931-9a6b-4eb9-82b3-19dc142efa89{fill:#e4e4e4;}.ad7e8ecf-5a2d-44ba-93d5-7fdc74cdf435{fill:#c6c6c6;}.\36 0f4216b-fbaa-453c-8674-bd33af49d884{fill:#bdbdbd;}.e8f1765b-3eda-4f90-996f-537f1f06ddf5{fill:#c1c1c1;}.\31 67e0983-ab46-49ce-801e-897360ead57c{fill:#b3b3b3;}.\32 e364919-f9d6-470a-a255-9290402420c2{fill:#525252;}.\34 c8b4699-bb9c-4964-b19a-036dbd08f3b1{fill:#d0d0d0;}.\38 73143af-06db-4cec-817b-c5883e494ec6{fill:#464646;}.\31 3516af6-be75-4c48-b2bb-12ee1e4a7601{fill:#d1d1d1;}.\30 55993a1-cdf1-4054-8ceb-5a8b5e70a4a5{fill:#373737;}.\35 997dde3-b274-4eba-924b-4151d714f392{fill:#434343;}.f9e190e5-fd0e-4399-9c5c-ec06a64f826c{fill:#cfcfcf;}.\34 e5a186c-001e-441f-b2c6-14ddb337daef{fill:#454545;}.\37 1dd5186-8efd-4ccc-bd1e-cc643609ee0b{fill:#383838;}.eceb53dc-6e81-4e37-956e-0b6035416b4b{fill:#cecece;}.\37 75d38c8-c5d8-45b8-b43b-cf7420a73db8{fill:#474747;}.\32 d496a63-9bcd-4492-9a48-f0774d19006a{fill:#d4d4d4;}.\36 f2eb7ce-647e-4ba9-bb94-248cdc0fb694{fill:#4a4a4a;}.\38 a3e721b-671f-4e48-90b4-194945a9a86a{fill:#4c4c4c;}.db4fd5c5-425f-498e-8e4d-2f240598d0b1{fill:#414141;}.a5a4270c-769f-40c6-841b-168596793bb4{fill:#3d3d3d;}.d6873500-2058-4077-94d8-b26a156fead0{fill:#292929;}.f12f59d8-3207-4e30-a5be-6a6efc86cbaf{fill:#3a3a3a;}.a2c3a655-75ad-41f6-be1c-23cf91ed152d{fill:#3f3f3f;}.\38 93056e9-d52c-43b0-82b2-327ddd4f9102{fill:#9b9b9b;}.\34 1a61866-9d46-4500-a164-9fe200abcaa3{fill:#8c8c8c;}.\34 48b1aa6-f64b-4333-90c2-4aca1aff759d{fill:#959595;}.b55dfa7d-3e52-4a6d-ae17-c951890d99f3{fill:#646464;}.a9cfac68-523f-4e0c-9ee0-fd461f86bbe6{fill:#777;}.\39 95f8589-4624-4a25-97c1-2a63ac07a425{fill:#343434;}.a928393d-682a-458e-905a-27dffa81b617{fill:#717171;}.f116d169-077f-4cd2-b96d-b99778fad89f{fill:#363636;}.\34 b50ca96-5f0e-4327-9f55-e44056a93be9{fill:#6a6a6a;}.f25378d8-2d7b-460b-a2ef-47d66327486e{fill:#393939;}.\33 0aef0db-c380-4d15-8108-99eb66fb98b4{fill:#dbdbdb;}.\32 b8a8005-79b4-4551-9098-2d2f4fc9de85{fill:#d8d8d8;}.\37 995ad15-4696-427b-b2a8-eee391f32650{fill:#a0a0a0;}.\31 23545ff-3ba9-4ebe-baa9-4c721434b471{fill:#e7e7e7;}.bf78d579-9684-4451-9e1d-a2a173d48369{fill:#e6e6e6;}.\32 3cd5b02-a5f3-42b6-8f7f-3ff492d67a2f{fill:#7e7e7e;}.\36 fff7353-fa85-4322-a949-f6192f00a92c{fill:#dadada;}.\33 a972252-47a6-4317-b72f-6f4a73d8af5a{fill:#7f7f7f;}.ade3606d-afeb-477c-acaa-954c37f841ec{fill:#ddd;}.\35 1b80fd5-9fa3-4391-91fa-ee2e006f2383{fill:#919191;}.\33 1069c80-9c64-4533-bb4a-4e39376ef564{fill:#ebebeb;}.\31 174f574-856d-4f54-b53d-b8a4ddcfe050{fill:#e0e0e0;}.\34 a6af700-3f0d-4531-b150-0d6885478d76{fill:#7b7b7b;}.\35 2995bc7-669d-4580-b994-2d2d8fb479ae{fill:#fdfdfd;}.\33 818e26e-2044-4658-9d92-8fa54bf9a0e8{fill:#cacaca;}.\35 ac8827c-457e-41d5-a756-c59fb5b67cee{fill:#939393;}.\33 88006ae-6bb7-4b0a-964d-2175e4a2ba80{fill:#828282;}.d7fe29aa-7dbc-4908-9c86-0d2d823ea630{fill:#858585;}.cdd00473-9704-4d1d-9e0c-31be20ca2fda{fill:#989898;}.ed200ba4-46fa-4245-adc4-48c1b0266cba{fill:#f8f8f8;}.f1bd89fa-5fe1-42b3-8312-8471111280a8{fill:#8a8a8a;}.\32 acd000a-d140-43cf-9f5c-cc6361a28fed{fill:#d6d6d6;}.d7db2bd4-f55c-4a6b-9fc2-32f4192b9273{fill:#898989;}.\37 54499b1-78d6-4749-912c-f55b1fb86f2c{fill:#8b8b8b;}.\36 d7050d7-f019-4db7-b881-7ad07a7af62d{fill:#6f6f6f;}.c5f9d26a-25c5-4bc7-b318-9ee03c12d453{fill:#222;}.\30 f8cc7e8-6f9c-4605-8317-3bb3ca7bb335{fill:#ededed;}.\34 20ce6f0-b938-4f90-864d-77d88b7570a1{fill:#7c7c7c;}</style></defs><title>unigotchi_desgin</title><path d="M867.79,950.89c0.22,23.88.22,23.88-23.6,23.88q-350.1,0-700.19.23c-9.78,0-13.82-2.34-12-12.15,1.91-10-2.49-13.61-12.07-11.8-10.25,1.94-12.35-2.81-11.89-12.23,0.79-16.18.71-32.45,0-48.64-0.34-8.14,1.56-12,10.16-10.33,11.44,2.27,16-2.35,13.77-13.7-1.67-8.6,2.09-10.87,10.28-10.21,9,0.73,18.25-.52,27.26.33,8.82,0.83,10.1-2.67,10.09-10.61q-0.34-261.09-.4-522.18c0-10.4,1.79-15.64,13.13-13.38,8.73,1.74,12.3-1.49,11-10.67-0.78-5.42-.14-11.06-0.14-16.59,0-18.28,0-18.62,17.95-20,6-.45,5.88-3.34,5.86-7.63-0.12-17.8.38-35.62-.25-53.4-0.28-8,1.38-12.1,10.1-10.4,11.28,2.2,15.55-2,14-13.67-1.06-8.17.42-16.64-.35-24.88-0.72-7.63,1.93-10.15,9.17-8.94,11,1.83,17.64-.91,14.76-13.92-2-8.94,2.74-11.12,10.45-9.79,10.56,1.82,15.52-1.87,13.25-13-1.83-9,1.94-12.46,10.77-10.71,11.2,2.22,14.87-2.79,13-13.31-1.42-7.89,1-11.45,9.89-10.61,9,0.85,18.22-.39,27.26.33,8.16,0.65,12-1.56,10.3-10.19-2.19-11.32,2.19-15.43,13.77-13.91,8.16,1.08,16.64-.37,24.88.35,7.67,0.68,10.25-2.15,8.78-9.29-2.69-13.09,3.66-15,15.27-14.86,46.67,0.64,93.36.51,140,.06,8.64-.08,12.76,1.59,10.91,10.81-2.18,10.89,2.27,14.93,13.15,13.25,4.64-.72,9.48-0.21,14.22-0.09,6.26,0.15,13.84-1.63,18.41,1.27s1.43,11,1.49,16.72c0,4.93,2.19,5.9,6.51,5.81,10.28-.22,20.61.47,30.84-0.25,8.1-.57,12,1.49,10.32,10.17-2.2,11.29,2.22,16,13.72,13.75,8.53-1.69,11.46,2.1,10,10.27C700,117,703,122.66,714.55,120.22c10.19-2.16,12.39,3.2,10.9,11.75-1.7,9.76,2.08,13.84,11.93,12s13.3,2.39,12,12.07c-0.7,5-.22,10.27-0.1,15.41,0.15,6.25-1.59,13.85,1.35,18.36s11,1.5,16.76,1.46c6.3,0,5.66,3.68,5.65,7.78-0.08,17.8.47,35.62-.24,53.39-0.33,8.37,1.95,11.84,10.32,10.2,11.59-2.27,15.29,2.55,13.8,13.87-1,7.39.61,15.11-.37,22.5-1.33,10,3,12.65,11.79,11.12,9.49-1.65,12.41,1.6,12.39,11.76C820.33,495.92,820.52,670,820.21,844c0,9.64,2.07,13.75,12.09,12.14,3.86-.62,7.9-0.09,11.85-0.09,23.79,0,23.79,0,23.68,23.84l-1.67,1.44c-4.17,2.09-8.69,1.55-13.13,1.78q-331.14.15-662.25,0.09c-16.81,3.45-34,1.36-50.84,3-4.68,17.89-1.23,36-1.91,54-0.13,3.35,2.31,4.77,5.47,5s6.33,0.07,9.49.07q300.79,0,601.58,0c4.75,0,9.49-.09,14.23.2a24.93,24.93,0,0,1,4.46.64c21.51,3.37,43.18.61,64.75,1.6,9.37,0.43,18.89-1.56,28.09,1.64Z"/><path class="21100eb0-ecd0-414d-a272-1f4156270218" d="M867.83,879.93c23.82-.25,23.82-0.25,23.82,23.66,0,12.26-.7,24.57.22,36.76,0.69,9.17-2.24,12.12-11.05,10.79-4.26-.64-8.68-0.2-13-0.25l0.26,0.29a13.45,13.45,0,0,1-3.4-8.59c-0.5-18.1-.37-36.21,0-54.31a13.29,13.29,0,0,1,3.44-8.59Z"/><path class="8b472e33-7c8b-46ae-a3e2-86973dc7a384" d="M269.58,193.63c4.4-1.68,5.58-5.68,6.94-9.57,3.63-7.82,1.56-16.12,1.27-24.06-0.33-9.21,1.46-14.36,11.9-12.53,1.17,0.21,3.16,1.07,3.63-1.32,4.38-1.69,5.65-5.64,6.93-9.58a7.45,7.45,0,0,1,.91.68,3.48,3.48,0,0,1,.45.74c-3.39-13.63,6.33-14.31,15.43-15.61,4.43-1.64,5.64-5.63,7-9.53-1.49.54,1.78-.61,0.9,0.7a2.56,2.56,0,0,0,.41.43c1.3-2.84-1.86-7.18,3-8.84,12.25-.47,24.48-0.44,36.7-0.11,1.58,0.07-.12-2.66.12-1.09-12.66,1.49-25.35.88-38,.43-1.55-7,4.08-3.89,6.46-4.16,10.27-1.19,20.76,1.55,31-1.56,4.35-1.7,5.68-5.61,7-9.54-1.52.44,1.82-.6,0.91,0.7a2.24,2.24,0,0,0,.41.5c1.26-2.87-1.79-7.12,2.86-8.91C387.19,81,398.71,81,410.23,81c1.57-.33-0.81-2.33,0-0.95-11.88,1.82-23.8,1-35.72.55-1.41-7,4.2-3.82,6.63-4.11,10.24-1.2,20.71,1.57,30.88-1.57,4.35-1.69,5.67-5.6,7-9.51,3.55-1.26-.74-8.58,5.85-7.53,45-1.2,89.89-.15,134.82-0.59q-64,0-128,0c-3.46,0-7.11,1.15-10.36-1.15,1.91-6.47,7.26-3.31,10.86-3.33,42.87-.25,85.73-0.13,128.6-0.22,4.24,0,8.66,1.11,12.73-1.13,4.76-1.87,7.49-.39,7.94,4.83q0.79,9.24,1.56,18.47c11.32,3.48,23,.44,34.36,1.8,3.53,0.42,9.34-1.78,9.55,5.26a3.78,3.78,0,0,0-.17,1.11c1.43,1.45.76-1.32,1.73-.9,3.19,5.18.93,11,2,16.47,11.32,3.48,23,.44,34.36,1.8,3.53,0.42,9.34-1.78,9.55,5.26a3.78,3.78,0,0,0-.17,1.11c1.43,1.45.76-1.32,1.73-.9,0.54,1.43,1.42,2.82,1.55,4.28,1.41,15.8,1.38,15.81,16.81,12.32,6,4.32,2.14,11.55,5,16.8,1.44,2,2.74,4,2.4,6.68,4.27,3.82,9.8.27,14.34,2.46,1.69,8.9,1,17.88.87,26.83-0.07,1.58,2.59,0,1,.15-0.07,0-.14-0.13-0.14-0.41,0.11-8.92-3.14-18.07,1.77-26.67,5,6.69,1.17,14.32,2.27,21.43,0.88,5.7-1.47,11.68,1.39,17.25l2.21,6.54c4.33,4.08,10.47-.63,14.87,3.06,1.09,16.41.3,32.83,0.65,49.25-0.14-14.59.16-29.18-.14-43.77,0-2.35-.31-4.76,2.07-6.31,4.77,2.54,2.57,7,2.62,10.57,0.23,16.54.14,33.09,0.09,49.63-3,6.13-8.29,5-13.12,3.54-4.47-1.34-4.86-5.68-5.32-9.66-1-8.92,1.56-18.1-1.95-26.8-1.8-2.93-4.57-4.92-7.14-7.09-13.76-3.89-15.89-14.07-14.84-26.46,0.42-4.93,1.29-10.3-2.16-14.82-1.73-2.74-4.7-4.19-6.79-6.46a2.58,2.58,0,0,1,0-2.15c-11.17.79-13.8-7.76-17.1-15.58-1.83-2.51-4.77-3.83-6.72-6.16-8-3.6-15.17-8.08-17.06-17.62-1.85-2.53-4.72-3.93-6.89-6.11-5.26-4-11.26-1.58-16.86-1.7-17.68-.37-17.68-0.15-23.52-15.35-1.78-2.73-4.62-4.33-6.94-6.47C594,92.66,587.94,95.14,582.33,95c-17.72-.37-17.72-0.14-23.76-15.43-1.91-2.81-4.85-4.5-7.37-6.64a8.83,8.83,0,0,0-5.5-1.7c-30.9.07-61.81-.06-92.71,0.07a8.74,8.74,0,0,0-5.49,1.62c-2.72,1.88-4.14,4.92-6.34,7.26-2.79,14.42-13,15.69-25.1,14.82-5.57-.4-11.69-2-16.89,2-2.38,2-3.45,5.17-5.93,7a2.08,2.08,0,0,1-2.1-.38c2.47,12.92-7.75,14-15.85,17-1.85,1.77-3.65,3.59-5.44,5.42-1.55,10.75-7.82,16.73-18.41,18.37-1.81,1.79-3.61,3.59-5.38,5.43-1.32,11.05-8.22,16.49-18.52,18.5-1.82,1.88-3.72,3.68-5.39,5.7-3.48,5.85-1.57,12.26-1.78,18.39-0.71,21,.67,17.06-15.93,23-2,1.71-3.79,3.57-5.63,5.41-1.71,10.91-8.59,16.61-18.89,18.88a59.88,59.88,0,0,0-5.41,6c-3.4,13.11-1.17,26.43-1.47,39.62-0.43,18.89-.12,18.9-16.27,25.48a34,34,0,0,0-6.21,7.17c-1.94,4.59-1.21,9.4-1.21,14.1q-0.06,227.25,0,454.5c0,4.71-.67,9.51,1.25,14,1.36,2.07,2.51,4.29,3.8,6.4,1.19,1.54,2.46,3,4.6,3.11,8,0.46,13.15,4,13.84,12.48,0.26,3.18,2.56,4.53,5.13,5.66,13.42,1.92,27-.61,40.39,1.49,7.42,3.48,7.32,9,4.08,15.27-3.62,3.48-8.11,4.62-13,4.66-29.06.24-58.11,0.18-87.17,0-3.55,0-7.09-.25-10.06-2.61-3.5-4.44-2.81-9.73-2.81-14.8q-0.09-248.8,0-497.6c0-7-2-15.81,8.31-16.74,2.55-.37.16-1.59,0.51,0a1.64,1.64,0,0,1-1.13.28,35.41,35.41,0,0,0-4.68.51c-1.54,0-3.23.09-4.15-1.49-1.11-1.89.19-2.78,1.74-3.36,3.88-1.45,8.39,1.65,12-1.68,4.41-1.67,5.6-5.67,6.95-9.56,3.62-7.82,1.56-16.12,1.27-24.06-0.33-9.22,1.47-14.36,11.9-12.52,1.17,0.21,3.16,1.07,3.62-1.33,4.38-1.68,5.64-5.64,7-9.56,3.41-13.84,1-27.9,1.43-41.85C254.67,196.6,254.33,196.59,269.58,193.63Z"/><path class="153877d3-45b3-4732-98b6-e9463d5a63ca" d="M796.4,317.25c0.1,40.73.28,81.47,0.29,122.2q0,203.51.16,407c0,7.93-1.89,9.8-9.71,9.79q-223.68-.39-447.36-0.33c-6.09,0-12.56,1.91-18.3-2,2.32-2.26,5.23-1.37,7.9-1.37,151.44,0.23,302.89-.57,454.33.34a3.43,3.43,0,0,0,.31-1c1.55-.3-0.82-2.26.15-1,0.34,0.44-.05.5-0.79,0.9-2.62,1.42-5.39.61-8.05,0.61q-220.66.08-441.32,0c-3.12,0-6.35.64-9.32-1a2.53,2.53,0,0,1,.88-3.91c5.57-2.88,11.61-1.93,17.47-1.93q212.8-.07,425.56,0c5.79-2.13,14.06,5.17,17.85-4.71-0.1-1.37-.13-2.69-0.15-4.05q-0.23-249.15,0-498.2c0-5.87-.78-11.92,2.26-17.43C790.44,318.5,792.78,316.6,796.4,317.25Z"/><path class="8fa3f173-d4fd-4d1f-9d83-584b1de60ba4" d="M189.1,880.27q151.63-.16,303.26-0.3,181.84,0,363.68.21c3.33,2,4,4,.33,6.39a15,15,0,0,1-4.39,1.12c-39.12.56-78.22,0.22-117.33,0.23q-261.9.07-523.81,0c-5.13,0-10.32.42-15.38-.45C191.72,886.82,187.09,886.29,189.1,880.27Z"/><path class="af0e5a1c-d21b-4e4c-8ed7-ac544d65e218" d="M189.1,880.27c2.22,7.7,8.6,4.14,12.94,4.14q181.37,0.32,362.74.17,139.88,0,279.76,0c3.95,0,7.89.22,11.84,0.34,3,3.91,2.94,7.8-.06,11.69-3.52.7-5.13-2.1-7.29-3.92-5.82-3.7-12.33-2.34-18.55-2.34q-310.77-.1-621.54-0.06c-7.51,0-15,.09-22.53-0.08a43.65,43.65,0,0,1-6.68-.61c-9.47-2.78-19.19-1.42-28.82-1.77-4.6-.17-9.34.52-13.54-2.16a2.47,2.47,0,0,1-.51-3.72C154.3,881.94,171.74,882.2,189.1,880.27Z"/><path class="93543469-b90d-4545-89b3-21a7a1b36173" d="M136.87,882l0.31,3.29a8.66,8.66,0,0,1,2.06,3.47,20.12,20.12,0,0,1,.68,4c1.05,15.33-.72,30.73,1.15,46a5.94,5.94,0,0,0,2.3,3.15c5.85,1.87,11.83,1,17.71,1q291.62,0.08,583.23.05c6.71,0,13.44-.22,20.15.27a14,14,0,0,1,4.44,1.24,3.16,3.16,0,0,1,1.77,3.77c-6.7.27-13.4,0.79-20.1,0.79q-305.27.05-610.55,0c-2.79,0-6.57,2.4-6.51-3.44,0.21-20.51.23-41,.41-61.54C133.92,882.49,134.72,881,136.87,882Z"/><path class="0b9d63d8-1f4c-4dd2-bc88-a47ebb231f02" d="M222.1,312.32a3.71,3.71,0,0,1,1,.56,12.27,12.27,0,0,1,1,1.43c-4.86,2.74-11.28-2.56-15.59,3,3.14,5.55,1.8,11.62,1.8,17.45q0.12,246.17.07,492.34c0,5.54-.13,11.07.16,16.59,1.21,7.13,6.94,5.17,11.23,5.18,29.51,0.09,59,.28,88.52-0.09,2.77,0,5.49-.39,8.06,1a2.78,2.78,0,0,1,1.34,3.59c-36.73.36-73.46,0.62-110.18,1.22-4.8.08-4.66-1.49-4.65-5.44q0.36-258.44.4-516.89c0-1.19,0-2.37,0-3.56C205.28,312.2,205.28,312.2,222.1,312.32Z"/><path class="9807525b-88a4-4f96-9eb4-600af174f6ee" d="M319.67,853.35a3.38,3.38,0,0,0,0-1.81c-1.26-2.16.19-2.9,1.85-3.54a3.14,3.14,0,0,1,2.74,1.53c5.49,3.39,11.57,1.78,17.36,1.79q217,0.14,434,.12c3.85,0,7.87-1,13.78,2.2H769.73q-220.58,0-441.16,0c-2.36,0-4.73.24-7.09,0.36A1.72,1.72,0,0,1,319.67,853.35Z"/><path class="b6b346bb-b946-4f77-8daa-6c85aa245b30" d="M858.37,885.35L856,880.18l12-.49v71.49c-27.39-.06-54.78,0-82.17-0.29-4.46,0-9.4,1.73-13.4-2,11.14-3.23,22.52-1,33.77-1.3,16.56-.43,33.14-0.12,49.72-0.14-23.08,0-46.16.09-69.24-.17-3.94,0-8.73,2.34-11.84-2.4,3.29-5.49,8.85-4.16,13.7-4.22,18.76-.22,37.53,0,56.29-0.16,4.09,0,8.71,1.57,12-2.46,1-3.58.52-7.23,0.58-10.85C857.3,913.25,858.22,899.31,858.37,885.35Z"/><path class="f27ee26b-232b-49e3-a501-2f20ec80d76d" d="M746.6,260.58c5,7.95,12.86,3.83,19.25,3.64,4.44-.14,5.51.32,5.4,4.41-0.34,12.18-.56,24.36-0.82,36.54a2.12,2.12,0,0,1-3.24-.4c-4.79-10.31-.13-21.56-3.19-32a4.59,4.59,0,0,0-4.27-1.28c-6.44,0-7.23,3.93-7.53,9.35-0.46,8.44,2.64,17.4-3,25.24-6.49,1.4-6.93-3.42-7.59-7.64-0.73-4.63-.15-9.33,0-14,0.23-7.31-1.3-13-10-14.3-4.46-.65-9-2.47-4.19-8.37C733.65,259.28,740.13,260,746.6,260.58Z"/><path class="1e33b487-7641-47db-a8bf-c5923ac90801" d="M573.52,51.41c-3.37,4.21-8.09,2.28-12.14,2.3-42.89.18-85.79,0-128.68,0.27-3.44,0-8-2.65-10.49,2.35a1.2,1.2,0,0,1,.43,1.43,0.92,0.92,0,0,1-.6.64L421.27,70c-2.51-.69-1.1-3.31-2.3-4.61,0-2.36.36-4.79-.08-7.06-1.18-6.12.28-7.46,7.13-7.38C475.19,51.54,524.35,51.36,573.52,51.41Z"/><path class="453a47a3-123b-4a58-9c0e-0ccfaa0fbfc6" d="M748.92,305.3c0.18-7.45.86-14.94,0.4-22.35-0.56-9-.94-17,11.84-15.12,1.33,1.41,1.3,3,.68,4.69-6.43,6.83-5,15.26-4.66,23.43,0.16,3.38,2,5,5.53,3.87a6,6,0,0,1,3.1.16c1.66,1.3.51,4.29,3,5.06a2,2,0,0,1,1.59.12l0.33,4.55c-3.93,4.73-9.34,3.34-14.38,3.49C752.09,312.29,746.85,312.23,748.92,305.3Z"/><path class="5f2197db-5b4e-48c1-b743-b11851184be9" d="M746.6,260.58c-5.88,3.78-12.57,1-18.75,2.33-4-.11-4.52-3.21-5.29-6.12,0.89-12.28-4-25.07,3.26-36.79,5.17,0.67,4.37,4.66,4.43,8.09,0.07,4.32.55,8.71-.07,12.93-1.71,11.48.92,18.74,14.51,16.76q1.14-1.55,2.14.09Z"/><path class="9d745b0b-d1a9-462b-8f84-adf71568d768" d="M775.21,944.16c5.74,4,12.24,2,18.37,2,21.6,0.25,43.21.1,64.81,2.73H772.48a1.67,1.67,0,0,1-1.81-.7,2.79,2.79,0,0,0,0-1.67c-1.45-2.07,0-2.84,1.59-3.58A3.68,3.68,0,0,1,775.21,944.16Z"/><path class="fcce6ed1-f912-43df-a734-764f33a5ee9e" d="M269.58,193.63a3.35,3.35,0,0,1,1,.59,9.52,9.52,0,0,1,.85,1.49c-20.26-3-16.07,11.31-16.06,22.67q0,19.48,0,39c0,0.77-.08,1.53-0.13,2.3-3.06-.19-1.15-3.18-2.46-4.36,0-16.79.66-33.62-.32-50.36-0.55-9.39,1.48-13.44,11.27-11.48A33.78,33.78,0,0,0,269.58,193.63Z"/><path class="f27ee26b-232b-49e3-a501-2f20ec80d76d" d="M746.83,257.88l-1.08.16-1.06-.25c-0.07-16.81-.06-33.61-0.27-50.42,0-3.71,1.53-8-2.44-10.85q-1.51,1.36-2.3-.51c-4.85-.29-10.23,2.25-14.23-2.62,7.15,0.09,17.6-2.6,20.62,1,3.71,4.39,1.4,14,1.36,21.39C747.35,229.8,747,243.84,746.83,257.88Z"/><path class="46c6c931-9a6b-4eb9-82b3-19dc142efa89" d="M756.52,310.51l14.24-.79c6.12,0.1,12.24.27,18.36,0.26,5,0,8.3,1.4,7.28,7.27l-5.12,2.62a8.58,8.58,0,0,1-4.85-1.56c-7.67-1.41-15.46.65-23.08-.67C759.67,317,754.12,317.32,756.52,310.51Z"/><path class="fcce6ed1-f912-43df-a734-764f33a5ee9e" d="M293.32,146.16a3.37,3.37,0,0,1,1,.59,9.59,9.59,0,0,1,.85,1.49c-20.21-3-16,11.3-16.06,22.58,0,5.1,0,10.21,0,15.31,0,0.77-.07,1.53-0.11,2.3-3.05-.19-1.14-3.18-2.45-4.35,0-7,0-14,0-21C276.49,146,276.49,146,293.32,146.16Z"/><path class="fcce6ed1-f912-43df-a734-764f33a5ee9e" d="M245.84,264.84a3.38,3.38,0,0,1,1,.59,9.66,9.66,0,0,1,.86,1.49c-20.2-3-16,11.32-16.06,22.59,0,5.1,0,10.21,0,15.31,0,0.77-.07,1.53-0.11,2.3-3-.2-1.13-3.19-2.45-4.36,0-7-.05-14,0-21C229,264.72,229,264.72,245.84,264.84Z"/><path class="0b9d63d8-1f4c-4dd2-bc88-a47ebb231f02" d="M412,74.92a3.52,3.52,0,0,1,1,.56,10.68,10.68,0,0,1,.95,1.45c-9.22.22-18.46,0.13-27.64,0.82-3.84.29-8.62-2.76-11.56,2.31a1.21,1.21,0,0,1,.42,1.43,0.92,0.92,0,0,1-.6.65l-0.74,11.72c-2.55-.76-1.17-3.38-2.35-4.74-3-13.06,2.94-16.18,14.92-14.63C394.8,75.58,403.45,74.84,412,74.92Z"/><path class="0b9d63d8-1f4c-4dd2-bc88-a47ebb231f02" d="M364.52,98.67a3.46,3.46,0,0,1,1,.56,10.34,10.34,0,0,1,.93,1.45c-9.22.22-18.46,0.11-27.64,0.8-3.84.29-8.62-2.71-11.57,2.32a1.23,1.23,0,0,1,.43,1.45,0.93,0.93,0,0,1-.61.66l-0.74,11.7c-2.54-.77-1.16-3.38-2.33-4.74-3.05-13.08,3-16.18,14.92-14.63C347.34,99.31,356,98.59,364.52,98.67Z"/><path class="ad7e8ecf-5a2d-44ba-93d5-7fdc74cdf435" d="M628.48,82l-1.13,6.83c1.36-13.52-8.21-10.79-16.21-11.37-9.38-.68-19.29,3.49-28.12-2.72,12.91,0.07,26,1.31,38.69-.19C630,73.55,628.48,77.5,628.48,82Z"/><path class="ad7e8ecf-5a2d-44ba-93d5-7fdc74cdf435" d="M676,105.73l-1.13,6.83c1.36-13.52-8.21-10.79-16.21-11.37-9.38-.68-19.29,3.49-28.12-2.72,12.91,0.07,26,1.31,38.69-.19C677.48,97.28,676,101.23,676,105.73Z"/><path class="60f4216b-fbaa-453c-8674-bd33af49d884" d="M716,148.62c-4.85-.41-10.35,2.46-14.25-2.81,7.16,0.1,18.44-2.43,20.54.89,3.57,5.61,1.47,14.9,1.5,22.65,0,5.83-.33,11.67-0.52,17.51-5-6.57-1.35-14.18-2.54-21.2-0.93-5.5,2.37-11.65-2.49-16.55C717.23,150,716.5,149.78,716,148.62Z"/><path class="f27ee26b-232b-49e3-a501-2f20ec80d76d" d="M317,122.39l1,0.55a2.23,2.23,0,0,1,1,.58c0.14,1.63-1.16,1.6-2.11,1.44-11.07-1.86-16,2.49-14.19,13.83,0,0.31-1.1.81-1.69,1.21l-0.82-3.42C300.17,122.26,300.17,122.26,317,122.39Z"/><path class="e8f1765b-3eda-4f90-996f-537f1f06ddf5" d="M699.31,139.13c-4.14-4.86-1.31-11.8-5-16.8,3-1.55,5.41-1.87,5.38,2.59C699.67,129.66,699.45,134.39,699.31,139.13Z"/><path class="167e0983-ab46-49ce-801e-897360ead57c" d="M756.52,310.51c7.73,8.28,17.57,3.37,26.45,3.89,3,0.18,6-2,6.51,2.9-2.65,8.12-1.12,16.43-1.12,24.66q0,241.24.13,482.47c0,5.72-2.78,11.75.92,17.32l0.31,2.35c-3,3.6-7,2.6-10.94,2.6q-224-.17-448,0a18.48,18.48,0,0,0-6.37,1.89l-0.16.92A9.06,9.06,0,0,0,322,849c-1.55-1.38-1.53-2.94-.51-4.6-0.51-4.5,3.68-10.74-4.57-12.39-8.49-1.95-17.14-1.14-25.64-.73-9.54.46-15.21-2.32-15.52-12.58a6.69,6.69,0,0,0-2.69-5,50.47,50.47,0,0,0-7.08-4c-10.9-1.37-14-8.2-14-18.32,0.16-37.57.07-75.14,0.07-112.72q0-171.45.08-342.9c0-23.52-1.64-20.22,18.06-26.5,0.86-1.09,1.75-2.16,2.59-3.26,4.39-4.62,2.92-10.43,3-15.83,0.2-11.07.38-22.16,0-33.22-0.38-10.36,2.73-17,14.33-16.95a7.09,7.09,0,0,0,4.25-1.88c0.7-1,1.48-2,2.26-2.91,1.21-1.55,2.67-3,2.71-5.13,0.15-9.18,4.54-13.86,13.94-13.56a6.17,6.17,0,0,0,5.93-3.23c0.64-1,1.33-2,2-3,3.95-7.4,1.83-15.38,2.06-23.08,0.46-15.34.29-15.43,14.86-18.4a8,8,0,0,0,4-2.18c0.67-1,1.4-1.91,2.13-2.83,0.85-1.27,2.22-2.37,2.25-4,0.17-9.9,4.73-15.12,15-14.62a5.53,5.53,0,0,0,4.85-2.71c0.63-1,1.31-1.88,2-2.8a9,9,0,0,0,2.21-5.27c0.24-8.39,4.13-13,12.92-12.77,2.8,0.07,5.41-.63,6.9-3.41,0.63-1,1.32-2,2-3,5.58-17.32,5.59-17.06,25.25-17.49,6.68-.15,14.12,2.75,19.93-3.26A39.35,39.35,0,0,1,440,91.32c5.64-17.1,5.64-17.12,24.83-17.13,25.61,0,51.22.17,76.82-.09C551.19,74,557.78,77,560,86.78c1.57,2.67,1.72,6.08,4.29,8.24,7,5.58,15.23,3.13,22.76,2.85,10.94-.4,18.37,2.67,20.88,14,1.17,2.59,1.87,5.46,4.3,7.31,6.75,4.66,14.47,2.87,21.6,2.42,11.3-.71,19,2.63,21.87,14.13,2.35,7.88,10.62,4.18,15.18,7.72,3.67,0.2,7.22.57,7.62,5.39,3.38,5.24.47,12.18,4.67,17.18a3.47,3.47,0,0,0,.73.91c19.74,9.11,19.78,9.19,18.22,32.67-0.21,3.09-1.35,6.25.73,9.15a32.32,32.32,0,0,0,4.06,5.65c1.73,1.89,4.06,2.2,6.39,2.39,8.38,0.68,10.69,5.85,11.08,13.49,0.47,9.17-2,18.41.72,27.49l2.74,5.11c-2.3,5.78,2.22,4.76,4.88,4.4,9.89-1.33,12.31,4.26,12.19,12.49-0.11,7-.28,14-0.33,21,0,2.79,1.64,4.22,4.32,4.56C749.31,310.16,753.29,309.79,756.52,310.51Z"/><path class="2e364919-f9d6-470a-a255-9290402420c2" d="M208.4,846.69q-0.15-79.35-.29-158.69-0.08-177.65,0-355.3c0-5.12.27-10.24,0.41-15.36h18.55c-15.12-.77-14.47,8.76-14.45,19.52q0.42,254.69.33,509.38A3,3,0,0,1,208.4,846.69Z"/><path class="4c8b4699-bb9c-4964-b19a-036dbd08f3b1" d="M274.34,309.63c-0.33,6-4.93,5.52-8.68,5.09-8.84-1-10.34,3.39-10.33,11.13,0.17,155.93.42,311.87-.39,467.8-0.07,13.32,10.18,9.7,14.73,14.82-5.4,3.82-10.94,3.11-16.55.55-2.24-1-2.28-3.24-2.78-5.19-2.9-4.29-1.93-9.18-1.93-13.84q-0.08-230.6,0-461.21c0-4.66-.95-9.54,1.88-13.86,0.47-3,2.16-4.79,5.24-5.16C261.78,307,268,306.49,274.34,309.63Z"/><path class="873143af-06db-4cec-817b-c5883e494ec6" d="M250.29,314.91c0.12,47.07.31,94.14,0.33,141.21q0.09,169.7,0,339.41c0,2.76-.21,5.53-0.32,8.29-1.79.59-4,1.9-4.25-1.44-0.26-3.94-.14-7.9-0.14-11.85q0-233,.24-465.9C246.19,321.63,241.64,314.93,250.29,314.91Z"/><path class="13516af6-be75-4c48-b2bb-12ee1e4a7601" d="M559.09,89.29c-2.79-.29-4-1.37-3.64-4.6,0.66-5.88-3.19-7.26-8.21-7.25-31.25,0-62.5.14-93.75-.06-6.24,0-8.56,2.36-8.22,8.4,0.19,3.38,1,7.5-4.28,8.25-5.67-4.43-4.2-9.23-.73-14.13,0.5-3.35.39-7.11,5.17-7.52a588.9,588.9,0,0,1,106.73-.05c3.43,0.44,7,.66,7.51,5.28C562,81.62,562.67,85.57,559.09,89.29Z"/><path class="055993a1-cdf1-4054-8ceb-5a8b5e70a4a5" d="M208.4,846.69l4.53-.45c32.76,0.07,65.52.21,98.28,0.13,3.44,0,6.88-1.26,10.32-1.94L322,849l-2.38,2.5c-16-2.29-32-.63-48.07-0.85-18.06-.25-36.13.05-54.2-0.08C214,850.58,209,853.4,208.4,846.69Z"/><path class="5997dde3-b274-4eba-924b-4151d714f392" d="M552.16,72.32l-106.73.05c-1.19-2.65-1.16-4.44,2.54-4.44,34.57,0,69.14-.15,103.71.06C558.37,68,552.95,70.74,552.16,72.32Z"/><path class="f9e190e5-fd0e-4399-9c5c-ec06a64f826c" d="M298.07,238.39c-0.29,6-4.86,5.55-8.62,5.13-8.73-1-10.64,3.21-10.38,11,0.48,14.56.22,29.15,0.07,43.72,0,3.61,1.58,8.34-4.33,9.39a7.08,7.08,0,0,1-2.57-6.32c0.86-19.21-2.47-38.54,1.79-57.64a5.52,5.52,0,0,1,5.23-5.17C285.51,235.77,291.78,235.29,298.07,238.39Z"/><path class="4e5a186c-001e-441f-b2c6-14ddb337daef" d="M274,243.71l0.78,64a2.32,2.32,0,0,0-.47,2l-18.82.13c-2.15-4.38.72-4.76,3.75-4.33,9.69,1.36,10.83-3.92,10.55-11.91-0.52-14.94-.22-29.9-0.08-44.85C269.77,246.21,267.83,241.18,274,243.71Z"/><path class="71dd5186-8efd-4ccc-bd1e-cc643609ee0b" d="M422,58.4a2.15,2.15,0,0,1,.18-2.07H567.84c-4.93,3.44-8.87,2.2-12.51,2.21Q488.68,58.6,422,58.4Z"/><path class="f9e190e5-fd0e-4399-9c5c-ec06a64f826c" d="M440.49,95.94c-0.13,5.06-3.66,5.28-7.42,5.26-5.51,0-11,.23-16.54,0-10.38-.48-21.32-2.08-19.43,14.25,0.07,0.63-2.35,1.55-3.61,2.34-5.63-4.44-4.18-9.24-.72-14.14,0.48-3.37.39-7.14,5.19-7.54A100,100,0,0,1,440.49,95.94Z"/><path class="eceb53dc-6e81-4e37-956e-0b6035416b4b" d="M345.54,167.17c-0.51,6.88-5.87,5.39-9.77,5.11-7.57-.54-9.55,3-9.18,9.84,0.41,7.45.13,14.94,0.05,22.42,0,3.43.78,7.43-4.37,8.19-4.93-13.32-3.26-26.77-.8-40.23,0.47-3,2.17-4.81,5.26-5.18C333,164.56,339.25,164.08,345.54,167.17Z"/><path class="4e5a186c-001e-441f-b2c6-14ddb337daef" d="M321.48,172.49l0.8,40.23a2.21,2.21,0,0,0-.46,1.9c-6.22,4.28-12.47,4.19-18.76.16-2.27-4.39.65-4.73,3.66-4.31,9.6,1.34,11.14-3.79,10.56-11.84-0.57-7.81-.08-15.7-0.17-23.55C317.07,171.46,318.75,171.2,321.48,172.49Z"/><path class="5f2197db-5b4e-48c1-b743-b11851184be9" d="M704.21,215.46l-2.83-5.14c-1.19-12.63-2.05-25.25.71-37.8,5.09,0.65,4.39,4.56,4.42,8,0.05,6.21.29,12.44-.07,18.63-0.45,7.69,2.07,11.94,10.51,11.24,6.79-.57,3.72,2.14,1.33,4.48C713.76,218.89,709,218,704.21,215.46Z"/><path class="775d38c8-c5d8-45b8-b43b-cf7420a73db8" d="M559.09,89.29l0.59-11.69c0.75,0.22,2.12.38,2.15,0.67C563.47,96,576.7,91.47,587.43,91.65c4.32,0.07,8.92-.94,12.91.22,4.91,1.42-.68,2.69-0.78,4.2-12.5,4.78-25.1,3.66-37.73.67C559.1,94.93,559.78,91.86,559.09,89.29Z"/><path class="775d38c8-c5d8-45b8-b43b-cf7420a73db8" d="M609.3,120.48c-2.72-1.82-2.06-4.87-2.72-7.45-1.78-4-2.44-7.94.58-11.7,0.74,0.22,2.12.39,2.14,0.68,1.67,17.65,14.84,13.25,25.6,13.38,4.32,0.05,8.92-.94,12.9.21,4.9,1.42-.68,2.68-0.78,4.2C634.54,124.59,621.94,123.47,609.3,120.48Z"/><path class="5997dde3-b274-4eba-924b-4151d714f392" d="M440.49,95.94L398,96.09c-2.08-4.26.52-4.46,3.7-4.42,7.82,0.08,15.67-.33,23.47.18s11.94-1.7,10.78-10.34c-0.78-5.78,1.47-4.93,4.35-1.61-1.07,4.78-1.35,9.52.73,14.13A2.16,2.16,0,0,0,440.49,95.94Z"/><path class="eceb53dc-6e81-4e37-956e-0b6035416b4b" d="M609.3,120.48l37.74-.67c3.45,0.41,7.1.53,7.57,5.25,2.29,4,3,8-.6,11.71-2-.28-4.13-0.7-3.73-3.33,1.27-8.47-4.28-8.55-10.11-8.51-7,.05-14,0-21,0C615.13,125,611.32,124.79,609.3,120.48Z"/><path class="eceb53dc-6e81-4e37-956e-0b6035416b4b" d="M607.17,101.33L606.59,113c-6-15.84-19.52-11.52-31.37-11.85-4.85-.13-10.43,1.55-13.38-4.44l37.73-.67C603,96.46,606.66,96.65,607.17,101.33Z"/><path class="1e33b487-7641-47db-a8bf-c5923ac90801" d="M702.09,172.52l-0.71,37.8c-3.49-.42-5-2.5-3.64-5.66,2.35-5.65,1.25-11.49,1.58-17.26,0.54-9.35-1.42-16.44-13.21-15.06-3.08.36-5.28-1-5.67-4.37,4.56-4.14,9.34-3.13,14.18-.62C698.12,167.61,701.63,167.87,702.09,172.52Z"/><path class="1e33b487-7641-47db-a8bf-c5923ac90801" d="M704.21,215.46l14.08-.61c3.51,0.25,7.07.44,7.54,5.15l-0.71,37.8c-3.49-.42-5-2.5-3.64-5.65,2.35-5.65,1.25-11.49,1.58-17.25,0.54-9.34-1.4-16.45-13.2-15.07C706.79,220.18,704.56,218.9,704.21,215.46Z"/><path class="1e33b487-7641-47db-a8bf-c5923ac90801" d="M393,119.65c-0.13.77-.2,2.2-0.4,2.22-12.27,1.17-19.27,8.4-22.85,19.65-6.32-5.21-3.24-10.87-.8-16.5,0.48-3,2.18-4.83,5.28-5.2C380.46,117.08,386.71,116.66,393,119.65Z"/><path class="1e33b487-7641-47db-a8bf-c5923ac90801" d="M369.27,143.42c-0.14.77-.21,2.2-0.42,2.21-12.31,1.11-19.25,8.4-22.85,19.62-6.31-5.2-3.25-10.86-.8-16.49,0.48-3,2.17-4.82,5.27-5.19C356.72,140.81,363,140.38,369.27,143.42Z"/><path class="1e33b487-7641-47db-a8bf-c5923ac90801" d="M303.06,214.79l18.76-.16c-0.14.77-.22,2.19-0.43,2.21-12.3,1.13-19.28,8.39-22.86,19.63-6.31-5.2-3.25-10.86-.8-16.49C298.21,216.91,299.94,215.14,303.06,214.79Z"/><path class="2d496a63-9bcd-4492-9a48-f0774d19006a" d="M274.8,811.07c5.21,0.74,4.52,4.83,4.27,8.19-0.63,8.53,3.74,10.57,11.44,10.85,8.81,0.32,18-2.71,26.45,1.94-14.31-.61-28.83,3-42.91-2.18C271.65,823.49,270.21,817.16,274.8,811.07Z"/><path class="6f2eb7ce-647e-4ba9-bb94-248cdc0fb694" d="M274.8,811.07L274,829.87C273,829.45,271,829,271,828.63c0.37-12.49-6-16.92-17.82-15.68-1.3.14-.63-2.55,0-3.94l16.55-.55Z"/><path class="5f2197db-5b4e-48c1-b743-b11851184be9" d="M694.62,167.35l-14.18.62c-4.31-6-1.44-12.73-1.92-19.12,2.84,0.25,4.33,1.84,4.18,4.65-0.39,7.39,3.53,9.89,10.3,9.34C698.93,162.38,697.82,164.5,694.62,167.35Z"/><path class="8a3e721b-671f-4e48-90b4-194945a9a86a" d="M654,136.76l0.6-11.71c2,0.26,4.17.94,4.08,3.19-0.33,8.52,3.69,11.2,11.93,11.1,6.35-.08,1,2.63.26,4.12C665.14,141.53,655.49,149.45,654,136.76Z"/><path class="4e5a186c-001e-441f-b2c6-14ddb337daef" d="M297.73,220c0.86,5.47-3.51,11.19.8,16.49a2.26,2.26,0,0,0-.46,1.93l-18.81.15c-2.14-4.32.65-4.69,3.7-4.34,8,0.93,11.72-2.15,10.5-10.51C293,220.71,293.33,217.77,297.73,220Z"/><path class="4e5a186c-001e-441f-b2c6-14ddb337daef" d="M345.21,148.76c0.86,5.47-3.51,11.19.8,16.49a2.26,2.26,0,0,0-.47,1.92l-18.8.15c-2.14-4.33.66-4.68,3.71-4.33,8,0.93,11.72-2.16,10.5-10.51C340.51,149.5,340.81,146.56,345.21,148.76Z"/><path class="4e5a186c-001e-441f-b2c6-14ddb337daef" d="M369.27,143.42l-18.79.15c-2.15-4.35.69-4.67,3.71-4.32,8,0.92,11.71-2.16,10.49-10.51-0.43-3-.14-5.9,4.26-3.73,0.88,5.47-3.52,11.2.8,16.5A2.25,2.25,0,0,0,369.27,143.42Z"/><path class="5997dde3-b274-4eba-924b-4151d714f392" d="M393,119.65l-18.77.16c-1.25-2.66-1.07-4.7,2.52-4.27,8.85,1.06,12.62-2,11.89-11.56-0.49-6.46,2.6-1,4.14-.36-1.1,4.78-1.34,9.52.72,14.14A2.1,2.1,0,0,0,393,119.65Z"/><path class="db4fd5c5-425f-498e-8e4d-2f240598d0b1" d="M739.68,196l2.3,0.51v54.25h-2.3V196Z"/><path class="a5a4270c-769f-40c6-841b-168596793bb4" d="M327.08,105.9a2.24,2.24,0,0,1,.17-2.11h41.37l0.05,2.11h-41.6Z"/><path class="d6873500-2058-4077-94d8-b26a156fead0" d="M318.06,837.07H277.49V835.5h40.83Z"/><path class="f12f59d8-3207-4e30-a5be-6a6efc86cbaf" d="M374.56,82.15a2.2,2.2,0,0,1,.18-2.07h39l0,2.07H374.56Z"/><path class="a2c3a655-75ad-41f6-be1c-23cf91ed152d" d="M716,148.62l2.25,0.48v30.42l-2.25,0V148.62Z"/><path class="f12f59d8-3207-4e30-a5be-6a6efc86cbaf" d="M590.66,80.36h22.87l0,1.23H590.6Z"/><path class="f12f59d8-3207-4e30-a5be-6a6efc86cbaf" d="M661.21,105.58H638.27l-0.07-1.08h22.64Z"/><path class="893056e9-d52c-43b0-82b2-327ddd4f9102" d="M789.42,841.74c-2.73-.27-4.31-1.47-4.19-4.52,4.42-107.84.91-215.73,1.85-323.59,0.49-56.15.11-112.3,0.05-168.46,0-8.15-.25-16.31-0.79-24.43-0.19-2.84.89-3.4,3.14-3.46l1.8,2.58c-2.42,5.26-1.69,10.86-1.69,16.35Q789.48,589,789.42,841.74Z"/><path class="893056e9-d52c-43b0-82b2-327ddd4f9102" d="M326.63,846.54c3.59-3.69,8.21-2.2,12.38-2.2q216-.11,432-0.16c6.24,0,12.5,2.13,18.72-.09,2,2.5,1.64,4.49-1.7,4.68-5.05.29-10.13,0-15.2,0-4.14-2-8.56-1-12.84-1q-210.3-.09-420.6-0.11C335.15,847.68,330.71,848.83,326.63,846.54Z"/><path class="41a61866-9d46-4500-a164-9fe200abcaa3" d="M326.63,846.54q216.33,0,432.66.16c4.53,0,9.54-1.79,13.55,2.1q-210,.1-420,0.19c-9.49,0-19-.25-28.46-0.39Z"/><path class="448b1aa6-f64b-4333-90c2-4aca1aff759d" d="M858.37,885.35c4,2.68,2.73,6.31,2.52,10.26-0.56,10.46-.24,21-0.28,31.45-4.49.09-4.89-3.57-5-6.43-0.44-8.07-2.18-16.22.42-24.25q0.2-5.73.4-11.46A3.47,3.47,0,0,1,858.37,885.35Z"/><path class="167e0983-ab46-49ce-801e-897360ead57c" d="M856,896.39c3.63,5.77,1.94,12.23,2.46,18.42,0.35,4.13-1.68,8.74,2.16,12.26q0.12,6,.25,12c-7.36,4.73-15.75,3.3-23.69,3.45-20.69.4-41.39,0.17-62.08,0.12a4.53,4.53,0,0,1-3.41-1.79c-2.43-4.14-1.15-10.71-7.9-12.06-6.33-.93-12.66-0.51-19-0.51q-253.69,0-507.38,0c-4.74,0-9.48.07-14.23,0-13.83-.33-15.5-1.68-19.56-15.49a21,21,0,0,0-6.35-6.81c-8.28-2.06-15.63-5.35-18.83-14.15a4.62,4.62,0,0,1,1.28-4.92l4.92,0.32c4.58,1.93,9.38.93,14.07,0.94q318.66,0.09,637.33.09c5.83,0,12-1.28,17.12,2.94C853.5,893.23,853.86,895.28,856,896.39Z"/><path class="b55dfa7d-3e52-4a6d-ae17-c951890d99f3" d="M767.94,927c8.22,1.67,4.14,7.89,4.59,12.43-2.46,1.44-4.37.2-6.23-1.29-5.75-2.21-11.75-1.26-17.63-1.26q-262.82-.08-525.65-0.2c-5.23,0-12.12,3.14-15.35-4.56,3.29-2,6.95-1.13,10.43-1.13q268-.07,536.06,0c2.51,0,5,0,5.69.08,3.41-.35,1.16-2.66,2-1.34,0.28,0.43,0,.58-0.89.79-3.88,1-7.8.36-11.69,0.37q-265.06.06-530.13,0.17c-4,0-8.67-2.39-12,2,3.1,6.48,9,3.7,13.66,3.71q132.2,0.27,264.4.13,133.39,0,266.77,0c5.45,0,11.14-1,16.13,2.4,0,4-2.92,4.18-5.68,4.46-3.94.39-7.9,0.21-11.85,0.21q-298.15,0-596.31-.06c-5.79,0-11.92,1.55-17.29-2.21l0.07-52.37c10.47-1.91,21-.72,29.54-1.08-8.4-1.26-19,1.5-29.32-1.06a4.45,4.45,0,0,1-.09-1.88c14.23-.39,28.52-2.39,42.58,1.63l0.22,5c2.52,3.1,1.51,7.47,3.88,10.61,13.54,1.47,16.35,14.6,24.28,22.21,4.95,2.25,10.17,1.41,15.26,1.41q265.21,0.06,530.42.07C758.52,926.19,763.31,925.39,767.94,927Z"/><path class="a9cfac68-523f-4e0c-9ee0-fd461f86bbe6" d="M853.2,891.14c-6.25-.56-12.5-1.6-18.74-1.61q-315.8-.12-631.6-0.18c-6,0-12.56,2.11-18.17-2.17Q514.34,887.06,844,887C847.35,887,852.47,884.62,853.2,891.14Z"/><path class="995f8589-4624-4a25-97c1-2a63ac07a425" d="M768.17,939.12l4.36,0.26q0.33,1,.7,2.07,1,1,.54,1.71a1.2,1.2,0,0,1-.86.71l-2.23,2.69-2.41-.45c-4.56-2-9.36-1-14-1Q452.59,945,150.95,945c-4.62,0-9.48,1.35-13.9-1.26a1.6,1.6,0,0,1-.06-2.11q306.48-.09,613-0.3c6,0,12.61,2.31,18.21-2.19v0Z"/><path class="a928393d-682a-458e-905a-27dffa81b617" d="M137,943.74l441.07,0.18q89.52,0,179,.14c3.74,0,8-1.72,11.12,2.05q-310.94.16-621.88,0.29C143.08,946.4,139.13,948.25,137,943.74Z"/><path class="f116d169-077f-4cd2-b96d-b99778fad89f" d="M137.27,887.12H169.8l0,2.14H137.05A2,2,0,0,1,137.27,887.12Z"/><path class="448b1aa6-f64b-4333-90c2-4aca1aff759d" d="M772.91,943.87l0.32-2.41c29.21-.6,58.5,1.58,87.63-2.35,2,7.95-4.4,4.62-7.07,4.65-26.19.33-52.38,0.32-78.57,0.4A5.86,5.86,0,0,0,772.91,943.87Z"/><path class="4b50ca96-5f0e-4327-9f55-e44056a93be9" d="M768.84,305c-2.64-.42-3.16-2.43-3.46-4.61a41.15,41.15,0,0,1,.29-32.69c5.39,7.74,1.53,16.43,2.5,24.62C768.67,296.56,768.63,300.82,768.84,305Z"/><path class="f25378d8-2d7b-460b-a2ef-47d66327486e" d="M765.67,267.75q-0.14,16.34-.29,32.69a12.2,12.2,0,0,1-1.77.11c-6-9.09-3.65-18.89-2.43-28.59l0-4.13Z"/><path class="4b50ca96-5f0e-4327-9f55-e44056a93be9" d="M761.18,272c5,9.17.86,19.12,2.43,28.59-1.77,6-7.48,6.59-8.49,2-2-9.13-3-19.1,1-28.31C756.67,273,759.44,272.69,761.18,272Z"/><path d="M386,547.06c7.84-.7,7.42,4.9,7.63,10,4.5,5.91,3.09,12.91,2.51,19.25-0.85,9.43,2.08,15.5,11.17,18.38,6.91-.56,10.32,1.25,9.74,9.55-0.89,12.77-.17,25.66-0.13,38.49-4.37,3.48-9.52,3.25-14.67,3.09-8.14-.25-12.21-4.51-12.49-12.57-0.29-8.27-.35-16.55-0.06-24.8,0.26-7.3-2.39-11.66-10.15-10.77-10.22,1.17-13.38-4.42-13.6-13.2q-0.31-12.4,0-24.81c0.15-6.37-2.72-9.18-9.07-9.68-13.84-1.08-13.92-1.36-14.77-16.59-0.06-5.22-3.36-6.23-7.76-6.17-9.65.12-19.31-.7-28.92,0.62-5.63,3.42-3.75,9.06-3.85,13.88-0.66,32.14,1,64.31-.93,96.45-0.1,1.59,0,3.09-1.39,4.19l-0.76-.24-0.41.68c-18.72,8-27.15,2.79-27.16-16.91q-0.07-113.92,0-227.83c0-18.14,1.78-20,19.4-20.07,21.36-.1,42.72-0.2,64.08,0,14.75,0.17,16.63,1.23,17.34,15.66,0.53,10.69,10,6.74,14.24,10.92,6.35-.39,7.35,3,7.29,8.66-0.27,29-.1,58-0.08,87-7.89,2.76-15.77,4.84-23.61-.12-4.18-4.52-3.67-10.18-3.68-15.68,0-21.7-.12-43.4.05-65.09,0-6.12-.49-11.3-8.5-10.9-15.3-.24-30.62.18-45.91-0.2-7.87-.2-10.09,2.93-10,10.43,0.37,22.76.16,45.52,0.11,68.28,0,5.1.24,9.69,7.11,9.5,15.29,0.32,30.57,0,45.84.19,4.63,0.06,9.47-.76,13.62,2.28,4.69,3.61,4.44,8.87,4.57,14,0.11,4.32.45,8.7,0,13C371.58,536.65,373.3,545.21,386,547.06Z"/><path d="M742.06,404.62c6.33-.38,7.35,3,7.3,8.66-0.27,29-.1,58-0.08,87-7.88,2.79-15.77,4.85-23.61-.1C721.48,495.67,722,490,722,484.52c0-21.7-.12-43.4.05-65.1,0-6.12-.49-11.3-8.5-10.9-15.32-.24-30.63,0-45.95-0.15-6.63-.08-10.07,1.61-9.94,9.24,0.38,23.16.18,46.34,0.11,69.51,0,5.17.41,9.64,7.22,9.42,15.7,0.31,31.39,0,47.07.18,4.66,0.05,9.52-.48,13.34,3.21,7.68,15.75,3.84,25-11.24,27.2-15.72.34-31.45,0.26-47.17,0.07-6.44-.08-9,2.07-9.39,8.71-2.13,32.6-.24,65.23-1.07,97.83-0.09,3.38,2.84,8.09-2.84,10.07-4.35,2.5-9.12,2.2-13.86,2.09-8.09-.19-12.38-4.26-12.7-12.41C627,630.73,627,628,627,625.2q0-113.12,0-226.23c0-19.46,1.45-20.92,20.8-21,20.93-.06,41.85-0.19,62.78.05,14.65,0.17,16.51,1.24,17.25,15.69C728.36,404.42,737.83,400.45,742.06,404.62Z"/><path class="153877d3-45b3-4732-98b6-e9463d5a63ca" d="M465.27,644.81c-12.36-1.41-7.43-11.18-7.63-17.48-0.27-8.63,4.45-14.68,13.83-15.73,8.24-2.69,16.82-.81,25.2-1.79,3.16-.37,6.16-0.11,8.17-3.08l-0.3-2.38c-3.47-4.36-.86-9.2-0.87-13.76-0.16-52.92-.05-105.84-0.23-158.76,0-3.6,2.34-8.71-3.75-10.37l-2.46-4.88c-5.18-4.89-11.65-2.75-17.64-3.25-4.17-.34-8.46.9-12.52-0.93-10.59-6.07-11.39-16.07-9.21-26.2,1.4-6.51,5.65-12,13.68-12,25-2.5,50.08-.93,75.11-0.84,8.85,0,17.83-3.65,26.62.34,1.25,3.66-1.35,4-3.73,4-32.73,0-65.46.4-98.19-.3-0.41,0-.6-1.33-0.77-0.84,1.82,2.74,4.75,1.22,7,1.2,32.37-.17,64.74.7,97.1-0.43a10.85,10.85,0,0,1,5.55,1.65c2.07,0.07,4.12.15,5.16,2.42,2.56,6.81.93,13.84,1,20.77,0,2.29-1.19,3.56-3.69,3a9,9,0,0,1-1.91-3c-5-17.11-5-17.12-23.54-17.13H486.12c-2.77,0-5.53,0-8.3.1-5.31.19-9.32,1.63-9.15,8.13s4.35,7.74,9.53,8c7.51,0.35,15,.18,22.53.24,9.74,0.08,14.54,4.69,14.67,14.48q0.14,10.67.13,21.35,0,81.84,0,163.69c0,19.13-2.19,21.18-21,21.39-4,0-7.92-.15-11.86.07-4.6.26-10.24-1.21-12.93,3.75-3.05,5.63-.16,10.66,3.78,15C473.31,648.22,469.69,647.43,465.27,644.81Z"/><path class="153877d3-45b3-4732-98b6-e9463d5a63ca" d="M742.06,404.62c-13.66,1.21-18.86,1.91-16.27-15.08,0.86-5.65-.45-8.65-7.29-8.58-27.27.32-54.56,0.38-81.82-.08-6.89-.12-6.38,3-6.37,7.87q0.26,117.43.23,234.86c0,18.72,0,18.72,19,19.18,1.58,0,3.16,0,4.74,0l-0.06,1.59-2.53,4.88c-6.15,3.73-12.43,1.43-18.69.4-3.14-4.09-9.24-5.78-9.72-12-1.88-3.32-1-7-1-10.43-0.23-77.23.3-154.45-.3-231.68a13.75,13.75,0,0,1,1.24-6.9c2.07-7.56,5.39-13.87,14.45-14.43,18.67-2.51,37.44-.9,56.15-0.9,7.26,0,14.68-3.67,21.86.37,1.28,3.65-1.33,4-3.7,4-24.85,0-49.69.36-74.53-.26-0.41,0-.6-1.34-1.58.41,7.07,0,13.38-.18,19.68,0,22.37,0.77,44.79-1.72,67.12,1.11,3.44,0,6.62,1.18,7.22,4.76,1.45,8.68,1,18.7,14.83,15.69C746,399.14,746,400.4,742.06,404.62Z"/><path class="30aef0db-c380-4d15-8108-99eb66fb98b4" d="M386,404.63c-13.65,1.21-18.9,1.94-16.26-15.06,1.08-6.94-1.79-8.64-8.48-8.55q-39.71.52-79.42-.07c-6.41-.11-7.69,1.51-7.66,7.78,0.3,78.25.27,156.51,0.3,234.77,0,18.8,0,18.8,18.89,19.3,1.58,0,3.16,0,4.74,0l-2.46,6.43c-6.15,3.72-12.43,1.41-18.69.4-3.1-4.07-9.21-5.71-9.61-11.95C265.11,628.94,265,620,265,611q-0.14-102.49,0-205c0-5.91-.34-11.88,2.23-17.46,2-7.63,5.43-13.79,14.42-14.4,18.67-2.49,37.44-.89,56.15-0.89,7.26,0,14.68-3.68,21.86.37,1.25,3.66-1.36,4-3.74,4-24.87,0-49.74.37-74.61-.27-0.4,0-.6-1.34-1.37.33,6.89,0.19,13.22-.1,19.53.12,22.39,0.79,44.84-1.71,67.2,1.11,3.44,0,6.61,1.2,7.2,4.78,1.44,8.7.94,18,14.89,16.16C391.66,399.51,386.33,402.56,386,404.63Z"/><path class="2b8a8005-79b4-4551-9098-2d2f4fc9de85" d="M345.39,530.89a13.83,13.83,0,0,1,.21,3.53c-2.18,10.93,1.34,15.85,13.08,13.18,8.8-2,11.77,1.67,10.92,10.71-0.91,9.79.55,19.81-.51,29.57-0.77,7.06,1.54,8.2,7.49,7.36,3.1-.43,6.33.12,9.44-0.29,5.88-.77,7.47,1.71,7.27,7.33-0.41,11,.63,22.19-0.48,33.14-0.73,7.25,1.86,7.8,7.58,7.35,5.48-.43,11-0.06,16.55,0l-2.59,6.54c-6.15,3.82-12.43,1.26-18.67.4-5.28-4.47-11.06-8.65-9.79-16.91-2.88-10.17.77-20.77-2.06-30.93-10.87-.73-22.35-0.67-21.68-16.54-2.88-10.17.77-20.77-2.06-30.93-10.22-1.18-22.09-.13-21.53-15.88a11.67,11.67,0,0,0-2.63-7.44C339,528.17,342.21,529.26,345.39,530.89Z"/><path class="7995ad15-4696-427b-b2a8-eee391f32650" d="M267.22,388.58q0.07,124.57.14,249.13c-2.59-.33-4.39-1.27-4.4-4.39q-0.11-82.16-.31-164.33c0-21.74,0-43.48,0-65.22C262.64,398.24,262.23,392.6,267.22,388.58Z"/><path class="123545ff-3ba9-4ebe-baa9-4c721434b471" d="M654.23,644.37a6,6,0,0,0,.06-1.59c0-36.15.34-72.3-.08-108.44-0.09-7.86.73-11.17,9.87-10.63,16.47,1,33,.39,49.56.45,2.67,2.66,8.87-2.23,9.64,4.5a10.87,10.87,0,0,0-.36,1.92c-6.1,4.45-12.81.76-19.21,1.27a210.27,210.27,0,0,1-31.6.15c-7.38-.52-9.37,2.72-11,8.19-3.56,5.88-1.61,12.35-1.68,18.5-0.28,24.87,0,49.74-.33,74.6C659.1,637.23,661.87,643.41,654.23,644.37Z"/><path class="bf78d579-9684-4451-9e1d-a2a173d48369" d="M465.27,644.81c3-.07,6.15.79,8.62-1.78,2.58-3.7,6.61-4.1,10.5-4.14,29.78-.35,59.55-0.48,89.33.05a15.23,15.23,0,0,1,7.84,2.18l1.57,1.75-2.6,6.44c-3.11,2.58-6.8,1.34-10.2,1.35q-46.49.16-93,0c-3.48,0-7.08.79-10.41-1C465.24,648.46,464.06,647,465.27,644.81Z"/><path class="23cd5b02-a5f3-42b6-8f7f-3ff492d67a2f" d="M580.59,412c-1.11,4.74-1.15,5-6.11,3.95a60.57,60.57,0,0,0-29.11,1.18,3.34,3.34,0,0,1,.09,4.46q-0.23,89.94-.52,179.87a24.42,24.42,0,0,0,2.57,10.17c-2.31,1.31-4.4,1.29-6.14-1-3-5.55-1.94-11.59-2-17.44-0.32-59.23.45-118.46-.44-177.7a6.51,6.51,0,0,1,1.66-4.21C554,407.51,567.36,406.51,580.59,412Z"/><path class="893056e9-d52c-43b0-82b2-327ddd4f9102" d="M623.24,388.62q0,124.5.06,249c-2.23-.33-3-1.18-3-3.84,0.32-75.84.37-151.68,0.86-227.51C621.25,400.5,616.63,393.76,623.24,388.62Z"/><path class="9d745b0b-d1a9-462b-8f84-adf71568d768" d="M299.28,642.38c-0.35-37.46-.63-74.92-1.11-112.39-0.07-5.45,2-7.2,7.08-5.71,3.57,3.33-4,6.52-.11,9.89,0.16,1.33.29,2.62,0.39,4-0.5,27.89,0,55.75-.25,83.6,0,4.64.87,9.48-2,13.72C303.13,638.45,302.75,641.31,299.28,642.38Z"/><path class="6fff7353-fa85-4322-a949-f6192f00a92c" d="M369.14,500.32h24.07c0.22,9.64-7,6.23-11.92,6.76-5.15,7.88-5.17,25.38,0,33.28,3,0.76,6.61.12,8.59,3.19,0.16,0.24-2.49,2.3-3.84,3.51-16.64.79-16.58,0.79-16.47-15.05,0.07-10.67-.06-21.33-0.1-32Z"/><path class="893056e9-d52c-43b0-82b2-327ddd4f9102" d="M499.7,421.46c1.16-3.25-1.31-7,3.14-10.2,2.61,15.41,1.64,31.11,1.83,46.69,0.19,16.13,0,32.27,0,48.41q0,24.79,0,49.59,0,24.2-.15,48.4c-2.74-.27-4.39-1.48-4.15-4.53,4.34-55.63.7-111.35,1.94-167C502.43,428.75,501.91,424.94,499.7,421.46Z"/><path class="2b8a8005-79b4-4551-9098-2d2f4fc9de85" d="M545.46,421.6q0-2.23-.09-4.46c4.7,0.21,4.32,3.65,4.32,6.82,0,59.93,0,119.85-2.25,180q0-5.63,0-11.25,0-79.31-.06-158.62C547.37,429.88,548.85,425.32,545.46,421.6Z"/><path class="3a972252-47a6-4317-b72f-6f4a73d8af5a" d="M661.16,540.19c-2.18-8.18,1.39-10.09,9.17-9.85,17.52,0.54,35.06.21,52.6,0.23,3.19,8.82-3.88,4.26-5.93,4-17.17-2.5-34.34-.59-51.51-0.44-0.48,0-.95,1.12-1.42,1.72a3.34,3.34,0,0,1,.09,4.45v97.09h-3V540.19Z"/><path class="ade3606d-afeb-477c-acaa-954c37f841ec" d="M542.54,611.67l5,0c7.45,0,14.89.12,22.34,0.14,13.07,0,18.48,4.66,17.37,17.43-0.37,4.25,5.66,11.85-4.09,13.65v-0.29a12.43,12.43,0,0,1-3-6.24c-2.79-14.13-2.81-14.07-16.63-14.23-6.64-.08-13.33.59-19.91-0.91-4.68-1.47-5.1-4.87-4-8.94A1.88,1.88,0,0,1,542.54,611.67Z"/><path class="ade3606d-afeb-477c-acaa-954c37f841ec" d="M580.59,412l-39.71.35c-5.69-5.75.71-6.91,3.57-9.43,13.1-1.4,26.29-4.44,38.92,2.24,4.19-7.63,1.16-15.88,2.05-23.79C591.21,392.75,590.52,403.11,580.59,412Z"/><path class="3a972252-47a6-4317-b72f-6f4a73d8af5a" d="M303.4,532.9a9.38,9.38,0,0,1,.07-1.86c10.05-5.09,20.06-6.13,30,.3-0.37,5.17-3.57,3.7-6.79,3.17-6.28-1-12.67-2.22-18.68,1.31a3.34,3.34,0,0,1,.09,4.45q-0.26,47.65-.54,95.3a7.05,7.05,0,0,1-.62,2l-1.69-2.26c-2.38-21.14-.4-42.36-1.07-63.53C303.75,558.8,305.12,545.82,303.4,532.9Z"/><path class="b6b346bb-b946-4f77-8daa-6c85aa245b30" d="M723.29,528.66c-2.1-3.89-7.3-1.13-9.64-4.5,9.75,1.46,14.73-1.38,12.07-12.39-0.9-3.71-.16-7.81-0.17-11.73l-0.3.32,24-.06c0.15,9.59-6.87,6.36-11.91,6.66-5,1.53-2.39,6.84-4.75,9.68C729.65,520.76,730,527.41,723.29,528.66Z"/><path class="51b80fd5-9fa3-4391-91fa-ee2e006f2383" d="M573.6,374.58l-102-.41c2.64-3.43,6.44-2.25,9.85-2.38,29.07-1.15,58.24,2.19,87.26-2.09,4.54-.67,10.12-1.24,9.5,6.45C575.73,378.26,574.85,375.89,573.6,374.58Z"/><path class="31069c80-9c64-4533-bb4a-4e39376ef564" d="M407.34,594.7c-11.44,2.07-15.71-2.59-14.31-14.1,0.94-7.75.47-15.68,0.62-23.53l3.23-8.12,3.11,9.91c0.52,6.11-.3,12.28.47,18.33,0.49,3.82-.65,8.8,4.63,10.72l8.89,2.65Z"/><path class="1174f574-856d-4f54-b53d-b8a4ddcfe050" d="M333.47,531.34l-30-.3c-2.93-3.18,3.11-4,1.78-6.75,10.88-.22,21.75-0.41,32.63-0.66,5-.11,8.38,1.34,7.51,7.26-3.11,2.57-6.31-.24-9.45.14Z"/><path class="4a6af700-3f0d-4531-b150-0d6885478d76" d="M466.94,649.7l113.59-.4c1.52,1.5,2.73,4.13-.33,3.91-36-2.63-72.11-.21-108.14-1.27C470.34,651.9,468.65,650.48,466.94,649.7Z"/><path class="52995bc7-669d-4580-b994-2d2d8fb479ae" d="M573.6,374.58l4.56,1.56,2.11,2.81h-111q0-1.17,0-2.35c30.61,0,61.22.05,91.83-.06C565.32,376.52,569.88,377.95,573.6,374.58Z"/><path class="2b8a8005-79b4-4551-9098-2d2f4fc9de85" d="M308.09,540.28q0-2.23-.09-4.45c4.69,0.21,4.31,3.65,4.31,6.81,0,29.89,0,59.78-2.25,89.79q0-9.71,0-19.42c0-20.49.06-41,0-61.46C310,547.74,311.26,543.59,308.09,540.28Z"/><path class="2b8a8005-79b4-4551-9098-2d2f4fc9de85" d="M664.16,540.28q0-2.23-.09-4.45c4.69,0.21,4.31,3.65,4.31,6.81,0,29.89,0,59.78-2.25,89.79q0-9.71,0-19.42c0-20.49.06-41,0-61.46C666.06,547.74,667.33,543.59,664.16,540.28Z"/><path class="3818e26e-2044-4658-9d92-8fa54bf9a0e8" d="M303.4,532.9c2.46,2.58,2,5.81,2,8.94q-0.08,46.72-.17,93.45a18.88,18.88,0,0,0-2,.17Q303.33,584.18,303.4,532.9Z"/><path class="5ac8827c-457e-41d5-a756-c59fb5b67cee" d="M360,374.58l-78.33-.4c2.25-3.08,5.59-2.29,8.66-2.42,21.58-.86,43.25,1.79,64.76-2.06,4.52-.81,10.1-1.22,9.46,6.45C362.1,378.25,361.21,375.9,360,374.58Z"/><path class="5ac8827c-457e-41d5-a756-c59fb5b67cee" d="M716,374.59l-78.33-.41c3.43-4,8.07-2.15,12.21-2.37,20-1.06,40.1,1.77,60.06-2,4.4-.84,11.12-2.39,10.63,6.37C718.18,378.25,717.27,375.91,716,374.59Z"/><path class="9d745b0b-d1a9-462b-8f84-adf71568d768" d="M398.21,493c-0.18,1.16.07,2.85-.6,3.37-2.88,2.24-1.82-1.06-1.84-1.72q-0.35-11.15-.38-22.31c0-21.53,0-43.05,0-64.92,4.21,1.55,1.86,4.89,2.9,7,4.3,18.3,1.25,36.86,1.83,55.29C400.35,477.5,402.05,485.56,398.21,493Z"/><path class="9d745b0b-d1a9-462b-8f84-adf71568d768" d="M754.28,493c-0.18,1.16.07,2.85-.6,3.37-2.88,2.24-1.82-1.06-1.84-1.72q-0.35-11.15-.38-22.31c0-21.53,0-43.05,0-64.92,4.21,1.55,1.86,4.89,2.9,7,4.3,18.3,1.25,36.86,1.83,55.29C756.41,477.5,758.12,485.56,754.28,493Z"/><path class="52995bc7-669d-4580-b994-2d2d8fb479ae" d="M360,374.58l4.56,1.57,2.13,2.8H279.4v-2.36c22.7,0,45.41.07,68.11-.06C351.7,376.51,356.24,377.93,360,374.58Z"/><path class="52995bc7-669d-4580-b994-2d2d8fb479ae" d="M716,374.59l4.57,1.56,2.1,2.8H635.47V376.6c22.7,0,45.4.07,68.1-.06C707.75,376.51,712.3,377.94,716,374.59Z"/><path class="93543469-b90d-4545-89b3-21a7a1b36173" d="M761.55,490.3V412.87l1.06,0V490Z"/><path class="93543469-b90d-4545-89b3-21a7a1b36173" d="M406.68,412.41v78h-1v-78h1Z"/><path class="388006ae-6bb7-4b0a-964d-2175e4a2ba80" d="M400.53,417.2c4.51,8.53,1.74,17.68,2,26.51,0.47,16.89.08,33.8,0,50.7a2,2,0,0,1-.68.75l-1.69-2.31C398.67,467.62,398,442.4,400.53,417.2Z"/><path class="388006ae-6bb7-4b0a-964d-2175e4a2ba80" d="M756.6,417.2c4.51,8.53,1.74,17.68,2,26.51,0.47,16.89.08,33.8,0,50.7a2,2,0,0,1-.68.75l-1.69-2.31C754.74,467.62,754.08,442.4,756.6,417.2Z"/><path class="3818e26e-2044-4658-9d92-8fa54bf9a0e8" d="M400.53,417.2q-0.19,37.82-.37,75.65-1,.05-2,0.19,0-39.27.07-78.54Z"/><path class="3818e26e-2044-4658-9d92-8fa54bf9a0e8" d="M756.6,417.2q-0.19,37.82-.37,75.65-1,.05-2,0.19,0-39.27.07-78.54Z"/><path class="d7fe29aa-7dbc-4908-9c86-0d2d823ea630" d="M405.1,587.92c-2.5.63-6.64,2.35-6.29-1.7,0.8-9.12-3.81-18.48,1.18-27.35C406.38,567.73,399.2,579,405.1,587.92Z"/><path class="cdd00473-9704-4d1d-9e0c-31be20ca2fda" d="M504.85,606.74c3.34,5.58-1.54,4.76-4.11,4.81-9.75.21-19.51,0.07-29.27,0.05,7.69-6.16,17.09-1.27,25.37-3.89C499.37,606.92,502.17,607,504.85,606.74Z"/><path class="ed200ba4-46fa-4245-adc4-48c1b0266cba" d="M421.33,598v42C419,625.81,418.58,611.65,421.33,598Z"/><path class="f1bd89fa-5fe1-42b3-8312-8471111280a8" d="M381.27,540.36c-2.28.61-5,1.58-5.09-2.19-0.19-9.77-.28-19.55,0-29.32,0.1-3.93,3-2.35,5.15-1.77C377.24,518.17,377.88,529.26,381.27,540.36Z"/><path class="2acd000a-d140-43cf-9f5c-cc6361a28fed" d="M430.44,602.82V635.1l-1.18,0V602.39Z"/><path class="5ac8827c-457e-41d5-a756-c59fb5b67cee" d="M360.09,554.36c5.07,10,.67,20.67,2.06,30.94C358.13,575.2,359.17,564.77,360.09,554.36Z"/><path class="5ac8827c-457e-41d5-a756-c59fb5b67cee" d="M383.83,601.83c5.07,10,.67,20.67,2.06,30.94C381.87,622.68,382.91,612.25,383.83,601.83Z"/><path class="4a6af700-3f0d-4531-b150-0d6885478d76" d="M467.08,412.41c7.64-.14,15.28-0.36,22.92-0.37,3.23,0,7.39-1,7.25,4.54C487.58,412.38,476.61,417.55,467.08,412.41Z"/><path class="d7db2bd4-f55c-4a6b-9fc2-32f4192b9273" d="M425.83,609.84V640h-1.17V609.77Z"/><path class="754499b1-78d6-4749-912c-f55b1fb86f2c" d="M633,649.65l18.69-.4c3.59,3.53,1,5.42-2.1,4.6C644.09,652.4,637.83,653.72,633,649.65Z"/><path class="754499b1-78d6-4749-912c-f55b1fb86f2c" d="M395.68,649.67l18.67-.4c3.55,3.56,1,5.4-2.14,4.57C406.72,652.4,400.49,653.7,395.68,649.67Z"/><path class="754499b1-78d6-4749-912c-f55b1fb86f2c" d="M277,649.66l18.69-.4c3.6,3.56,1,5.41-2.12,4.59C288,652.4,281.78,653.72,277,649.66Z"/><path class="448b1aa6-f64b-4333-90c2-4aca1aff759d" d="M732.61,516.64c3.25-2.41-6.28-11.09,4.75-9.68-1.41,3.53-3.54,6.83-1,10.95a2.61,2.61,0,0,1-2.52,3.93C733.39,521.83,733,518.46,732.61,516.64Z"/><path class="30aef0db-c380-4d15-8108-99eb66fb98b4" d="M767.94,927c-46.26.12-92.53,0.33-138.79,0.34q-206.43,0-412.86-.16c-4.47,0-9.56,2-13.41-2.3-2.48-5.59-3.5-11.11.77-16.39,2.1,0.34,4.21,1.21,4,3.55-1.39,13.36,7.19,13,16.61,13q265.08-.19,530.15,0C758.88,925,763.9,923.1,767.94,927Z"/><path class="6f2eb7ce-647e-4ba9-bb94-248cdc0fb694" d="M203.65,908.44l-0.77,16.39c-1.07-.41-3.08-0.85-3.08-1.24,0.32-12.48-6-17-17.87-15.71-1.28.13-.58-2.56,0-3.94,5.38-3.14,10.92-1.52,16.44-.54C201.48,903.69,203.16,905.45,203.65,908.44Z"/><path class="2acd000a-d140-43cf-9f5c-cc6361a28fed" d="M198.4,903.4l-16.44.54c-4.06-3.46-1.68-8-2-12.06C185,897.46,190.65,902.13,198.4,903.4Z"/><path class="6d7050d7-f019-4db7-b881-7ad07a7af62d" d="M768.16,939.14q-278,0-555.93-.19c-2.88,0-14.21,4.76-6.59-6.8a1.29,1.29,0,0,1,2.32.17c4.49,3.83,9.87,2,14.8,2q264.78,0.15,529.57.18c5.53,0,12.2-2.49,15.84,4.61v0Z"/><path class="c5f9d26a-25c5-4bc7-b318-9ee03c12d453" d="M208,932.32l-1.15-.24-1.17.07c0.48-4.56,4-2.36,6-2.36q275.18-.12,550.35,0c2.5,0,5.57-1.47,7.83,2.26H675.27q-228.92,0-457.84-.08C214.27,932,211.11,932.21,208,932.32Z"/><path class="0f8cc7e8-6f9c-4605-8317-3bb3ca7bb335" d="M307.7,499.57c-6.15,1.17-9.91,1.25-9.65-7.64,0.75-26.07.43-52.18,0.06-78.27-0.09-6.58,1.24-8.86,8.47-8.55,16.95,0.73,33.94.32,50.92,0.37,1.49,2.17.8,3.95-1,5.52-9.68,4-19.84,1.31-29.75,2.1-5,.39-10.07-0.76-14.81,1.5-2.9,1.45-3.43,4-3.42,7q0.16,33.15,0,66.3a4.51,4.51,0,0,0,1.62,3.05c12.9,2.36,25.87.41,38.77,1.09,4.84,0.25,10-.34,14.67,5.69C344,500.41,325.71,497.26,307.7,499.57Z"/><path class="b6b346bb-b946-4f77-8daa-6c85aa245b30" d="M307.7,499.57c12.26-4.16,24.89-1,37.31-1.84,4.94-.35,9.93-0.06,14.9-0.89-18.12-3.71-36.68,1.23-54.69-3.53a8.74,8.74,0,0,1,5.22-3.21c13-1,26-.22,39-0.49,4.52-.09,9.46-0.17,9.37-6.24-0.35-23.95,2.07-47.95-1.29-71.84-0.07-.67-0.13-1.34-0.2-2l0.22-4.05c10.24-2.81,12.36,1.66,12.12,11.34-0.71,27.82-.39,55.67-0.48,83.51l0.3-.32Z"/><path class="0f8cc7e8-6f9c-4605-8317-3bb3ca7bb335" d="M663.77,499.57c-6.15,1.17-9.91,1.25-9.65-7.64,0.75-26.07.43-52.18,0.06-78.27-0.09-6.58,1.24-8.86,8.47-8.55,16.95,0.73,33.94.32,50.92,0.37,1.49,2.17.8,3.95-1,5.52-9.68,4-19.84,1.31-29.75,2.1-5,.39-10.07-0.76-14.81,1.5-2.9,1.45-3.43,4-3.42,7q0.16,33.15,0,66.3a4.51,4.51,0,0,0,1.62,3.05c12.9,2.37,25.87.41,38.77,1.09,4.84,0.25,10-.34,14.67,5.69C700.07,500.4,681.78,497.26,663.77,499.57Z"/><path class="b6b346bb-b946-4f77-8daa-6c85aa245b30" d="M663.77,499.57c12.26-4.16,24.89-1,37.31-1.84,5-.35,10-0.06,14.92-0.89-18.13-3.71-36.7,1.22-54.71-3.53a8.74,8.74,0,0,1,5.22-3.21c13-1,26-.22,39-0.49,4.52-.09,9.46-0.17,9.37-6.24-0.35-23.95,2.07-47.95-1.29-71.84-0.07-.67-0.13-1.34-0.2-2l0.22-4.05c10.25-2.82,12.36,1.67,12.12,11.34-0.69,27.83-.37,55.69-0.44,83.54l0.3-.32Z"/><path class="21100eb0-ecd0-414d-a272-1f4156270218" d="M583.37,405.16l-40.75.44c-3,2-5.08,3.91-4.92,8.4,2.43,65.05,1,130.13.79,195.2,0,3.26.12,6.26,1.8,9.08,11,0.11,22,.86,32.88.13,8.29-.55,11.62,1.59,10.26,10.2-0.72,4.55-.24,9.3-0.3,14L473.89,643c-17.54,1.46-7.88-11.93-9.5-18.49-2.33-9.48,5.87-5.74,10-5.86,10.27-.3,20.57-0.14,30.84.21,5.14,0.17,6.8-1.61,6.79-6.83q-0.24-99.69,0-199.39c0-6.69-2.78-8-8.53-7.81-10.65.37-21.34,0-32,.54-5.94.33-8-.28-7.51-7.41,1.24-16.66.65-16.72,17.39-16.73,30.07,0,60.15.56,90.19-.3,10.42-.3,13.42,2.69,11.81,12.42C582.76,397.21,583.34,401.23,583.37,405.16Z"/><path class="52995bc7-669d-4580-b994-2d2d8fb479ae" d="M540.3,618.28c-3.82,1.06-4.73-.83-4.73-4.26q0.08-101.34,0-202.68c0-5.44,2-7.23,7.07-5.74,1.33,2.75-4.7,3.59-1.74,6.75a6.9,6.9,0,0,0-.11,1.86c1.58,16.53.59,33.1,0.65,49.65q0.25,67.49,0,135c0,4.25,1.14,8.69-1.14,12.77A5.14,5.14,0,0,1,540.3,618.28Z"/><path class="3818e26e-2044-4658-9d92-8fa54bf9a0e8" d="M540.29,611.62q0.24-98.7.49-197.4c2.49,2.57,2,5.82,2,9q-0.12,94.25-.25,188.5Z"/><path class="420ce6f0-b938-4f90-864d-77d88b7570a1" d="M310,492.66l-4.73.64c-0.21-25.71-.18-51.43-0.8-77.13-0.13-5.52,2.73-4.35,5.69-4.42,13.48-1.56,27-.34,40.52-0.68,3-.07,5.41.65,5.45,4.32-2.61,5.31-7.33,2.85-11.25,2.9-10.76.13-21.58-1.73-32.19,1.25a8.75,8.75,0,0,0-1.58,5.24c-0.08,21.34-.28,42.66.16,64A5.91,5.91,0,0,1,310,492.66Z"/><path class="b6b346bb-b946-4f77-8daa-6c85aa245b30" d="M354.91,416.63c-0.21-6.51-5.23-4.47-8.63-4.55-12-.29-24.11-0.25-36.16-0.33,15.55-4.32,31.49-.62,47.17-2.23l0.48,0.58c1.25,4.23,7.2,8.66-.53,12.51C354.09,421.55,353.36,419.54,354.91,416.63Z"/><path class="cdd00473-9704-4d1d-9e0c-31be20ca2fda" d="M357.57,421.72c3.88-3.81-2.2-7.78.19-11.61,3,1.8,5.38,3.24,5.24,8-0.65,22-.81,44.09-0.59,66.13,0.06,6.73-2,9-8.73,8.77-14.56-.46-29.14-0.26-43.72-0.32q0-1,0-2c10.6-6.9,22.86-3.31,34.25-4.8,9.78-1.28,12.33-4.7,12.39-13.86C356.74,455.23,354.84,438.42,357.57,421.72Z"/><path class="420ce6f0-b938-4f90-864d-77d88b7570a1" d="M666,492.66l-4.73.64c-0.21-25.71-.18-51.43-0.8-77.13-0.13-5.52,2.73-4.35,5.69-4.42,13.48-1.56,27-.34,40.52-0.68,3-.07,5.41.65,5.45,4.32-2.61,5.31-7.33,2.85-11.25,2.9-10.76.13-21.58-1.73-32.19,1.25a8.75,8.75,0,0,0-1.58,5.24c-0.08,21.34-.28,42.66.16,64A5.91,5.91,0,0,1,666,492.66Z"/><path class="b6b346bb-b946-4f77-8daa-6c85aa245b30" d="M711,416.63c-0.21-6.51-5.23-4.47-8.63-4.55-12-.29-24.11-0.25-36.16-0.33,15.55-4.32,31.49-.62,47.17-2.23l0.48,0.58c1.25,4.23,7.2,8.66-.53,12.51C710.15,421.55,709.42,419.53,711,416.63Z"/><path class="cdd00473-9704-4d1d-9e0c-31be20ca2fda" d="M713.64,421.72c3.88-3.81-2.2-7.78.19-11.61,3,1.8,5.38,3.24,5.24,8-0.65,22-.81,44.09-0.59,66.13,0.06,6.73-2,9-8.73,8.77-14.56-.46-29.14-0.26-43.72-0.32q0-1,0-2c10.6-6.9,22.86-3.31,34.25-4.8,9.78-1.28,12.33-4.7,12.39-13.86C712.8,455.23,710.91,438.42,713.64,421.72Z"/><path class="167e0983-ab46-49ce-801e-897360ead57c" d="M357.57,421.72c5,20.63,1.25,41.57,2.11,62.35,0.12,2.94-1.23,4.9-5,5-14.9.32-29.78,1-44.68,1.59-4.57-5.59-2.08-12.16-2.17-18.22-0.25-16.93.13-33.87,0.27-50.81,5.91,1.74,3,6.59,3,9.88,0.25,16.77.33,33.55,0.05,48.21,0.35,3.68,2.77,1.57,1.37,2.3-0.34.18-.57-0.09-0.63-0.8-1.3-16.89-.25-33.82-0.53-50.72-0.08-4.76.3-9.54-3.35-13.36,15.6-4.69,31.26-2.62,46.93-.48C355.11,418.69,355.48,420.65,357.57,421.72Z"/><path class="93543469-b90d-4545-89b3-21a7a1b36173" d="M308,417.12c2.79,0.15,4.28,1.54,4.28,4.42,0,21.36,0,42.71-2.2,64.06,0-17.2.09-34.39-.07-51.59,0-4.16,1.49-8.71-1.93-12.39Q308,419.37,308,417.12Z"/><path class="167e0983-ab46-49ce-801e-897360ead57c" d="M713.64,421.72c5,20.63,1.25,41.57,2.11,62.35,0.12,2.94-1.23,4.9-5,5-14.9.32-29.78,1-44.68,1.59-4.57-5.59-2.08-12.16-2.17-18.22-0.25-16.93.13-33.87,0.27-50.81,5.91,1.74,3,6.59,3,9.88,0.3,16.77.23,33.55,0.09,48.66,0.31,3.24,2.73,1.13,1.33,1.86-0.34.18-.57-0.09-0.63-0.8-1.3-16.89-.25-33.82-0.54-50.72-0.08-4.76.3-9.54-3.35-13.36,15.6-4.69,31.26-2.62,46.93-.48C711.18,418.69,711.55,420.65,713.64,421.72Z"/><path class="93543469-b90d-4545-89b3-21a7a1b36173" d="M664,417.12c2.79,0.15,4.28,1.54,4.28,4.41,0,21.36,0,42.71-2.2,64.06,0-17.2.09-34.39-.07-51.59,0-4.16,1.49-8.71-1.93-12.39Q664.09,419.37,664,417.12Z"/></svg>