<svg id="d1f5a6ed-926b-4ac4-849f-adb2adc46165" data-name="Layer 1" xmlns="http://www.w3.org/2000/svg" viewBox="0 0 1000 1000"><defs><style>.ebc86944-8382-4932-a803-bfe62e3dcc39{fill:#fdfd00;}.f63401a9-6acc-45b4-bb74-7f6a08f41b6d{fill:#fdde00;}.\35 d9062ca-5b08-4eba-ac60-1f256460ee23{fill:#fddf00;}.fd8c65fe-fc9d-4878-8b9e-26062cb289c4{fill:#bebe01;}.\36 72fb07a-24e0-48b4-8e4a-6c169d2fbff8{fill:#beb801;}.\33 e434b85-658b-4f84-8441-e6d6885b6872{fill:#cdcd01;}.b8217b06-90af-48eb-aad0-1cb4b44057a9{fill:#ccc901;}.\39 c61a26a-da56-4bab-8dcc-887771645ec7{fill:#c4b001;}.\33 f567c26-bd5a-4070-8476-15cb70730ef6{fill:#c6c001;}</style></defs><title>unigotchi_desgin</title><path d="M498.79,974.79c-49,0-98.06-.19-147.09.19-8,.06-10.55-1.86-10.11-10.05,0.72-13.56-.51-27.23.39-40.77,0.66-10-1.65-13.35-12.44-13.1-34.59.78-69.22-.05-103.82,0.52-9,.15-11-2.61-10.59-11,0.71-14.39-.15-28.84.33-43.25,0.23-6.89-1.72-9.35-8.86-9.07-13.58.54-27.28-.78-40.76,0.47-12.55,1.16-15.27-3.59-14.39-15.07,1-13.52-.07-27.19.38-40.77,0.21-6.49-1.81-8.51-8.34-8.3-14.41.47-28.89-.61-43.24,0.39-10.31.72-11.88-3.24-11.74-12.37C89,738.41,88.27,704.19,89,670c0.21-10.08-3-12.47-12.36-11.93-13.55.77-27.21-.36-40.77,0.41-8.6.49-10.89-1.87-10.84-10.67,0.42-67.57.25-135.14,0.26-202.71,0-31.31.23-62.63-.21-93.94-0.1-7.47,1.6-10,9.44-9.61,14,0.7,28-.31,42,0.42,9.27,0.48,12.67-1.75,12.46-11.9-0.7-33.36.25-66.75-.54-100.11-0.27-11.37,1.76-16.11,14.33-14.9,13.47,1.3,27.18,0,40.76.44,6.55,0.23,8.52-1.86,8.32-8.32-0.43-14,.52-28.05-0.34-42-0.64-10.34,1.48-14.78,13.14-13.78,14.32,1.23,28.82,0,43.23.41,6,0.15,7.78-1.81,7.63-7.73-0.38-14.41.4-28.86-.31-43.25-0.45-9.16,1.5-12.62,11.76-12.39,33.77,0.75,67.58-.32,101.34.6,11.9,0.32,14.45-3.73,13.72-14.43-0.86-12.72.48-25.58-.47-38.29C340.79,26.73,344.12,25,353.06,25c92.7,0.35,185.41.23,278.12,0.25,27,0,26.77,0,27.24,27.3,0.2,11.76-5.37,27.44,2.35,34.17,6.64,5.8,21.93,1.87,33.39,1.92,26.78,0.12,53.57.32,80.34-.14,7.72-.13,10.84,1.36,10.42,9.9-0.75,15.21.06,30.49-.33,45.72-0.16,6,1.85,7.78,7.71,7.65,14.82-.34,29.69.42,44.49-0.31,8.9-.44,12.47,1.54,11.85,11.29-0.91,14.36.21,28.85-.43,43.24-0.35,7.84,2.28,9.77,9.77,9.46,14.4-.59,28.85.27,43.25-0.34,7.85-.33,10.47,1.66,10.34,10-0.5,34.19.19,68.4-.44,102.59-0.2,10.66,1.68,15.44,13.73,14.3,13.07-1.24,26.38.37,39.51-.46,8.87-.56,10.68,2.28,10.64,10.8-0.35,80.34-.2,160.69-0.19,241,0,19-.3,37.91.14,56.86,0.15,6.55-1.8,8.37-8.24,8.17-14.41-.47-28.87.42-43.25-0.34-9.38-.5-12.59,1.8-12.38,11.91,0.71,32.95.27,65.92,0.27,98.88,0,15.84,0,15.84-16.47,15.84-12.77,0-25.56.35-38.31-.14-6.55-.25-8.52,1.85-8.32,8.32,0.43,14-.52,28.05.35,42,0.64,10.35-1.49,14.77-13.15,13.78-14.32-1.23-28.82,0-43.23-.41-6-.15-7.78,1.83-7.62,7.74,0.38,14.41-.4,28.86.31,43.25,0.45,9.17-1.51,12.61-11.76,12.39-34.18-.74-68.4.21-102.58-0.57-10.76-.25-13.14,3.11-12.49,13.07,0.88,13.54-.3,27.21.41,40.77,0.43,8.16-2.1,10.14-10.12,10.08C598.5,974.6,548.64,974.79,498.79,974.79Z"/><path class="ebc86944-8382-4932-a803-bfe62e3dcc39" d="M467.53,596.62l0.42,123.48c-2.75,3.07-6.48,3.33-10.19,3.39-14,.22-27.92.14-41.88,0-8.47-.06-13.07-3.88-13.15-12.59q-0.47-52.35,0-104.7c0-4.85.28-10.89,7.18-10.77C429.14,595.81,448.39,593.58,467.53,596.62Z"/><path class="f63401a9-6acc-45b4-bb74-7f6a08f41b6d" d="M216,720l-0.72-61.14c-6.27-19.33-2.79-39-2.06-58.61,0.15-4,3.92-6.57,7.88-6.6,18.81-.13,37.73-3.16,56.38,1.84,4.06,4.36,3.35,9.86,3.4,15.1,0.15,15.92,0,31.84.1,47.76s0.13,32.12-.09,48.18c-0.19,14-1,15.07-14.53,14.73C249.6,720.79,232.75,722.91,216,720Z"/><path class="ebc86944-8382-4932-a803-bfe62e3dcc39" d="M280.09,216l123.5-.32c3.06,2.75,3.32,6.48,3.38,10.19,0.22,14,.14,27.91,0,41.87-0.07,8.5-4,13-12.65,13.09q-52.33.45-104.67,0c-4.85,0-10.87-.3-10.74-7.21C279.3,254.38,277.07,235.13,280.09,216Z"/><path class="ebc86944-8382-4932-a803-bfe62e3dcc39" d="M215.7,403.6q0.15-61.75.3-123.51c19.13-3,38.38-.71,57.56-1.18,6.16-.15,6.84,5,7.16,9.54,0.58,8.19.25,16.41,0.25,24.62,0,25,.12,50.07,0,75.11-0.1,17.05-1.92,18.75-19.35,18.9-10.67.09-21.34,0.13-32,0C224.74,407,219.6,407.66,215.7,403.6Z"/><path class="ebc86944-8382-4932-a803-bfe62e3dcc39" d="M467.94,280l-0.41,123.48c-20.73,2.38-41.46,2-62.21.15-3.07-3.89-2.69-8.54-2.7-13-0.1-32.11-.17-64.21,0-96.32,0.09-15.6,2.24-17.57,18.05-17.77q16.67-.21,33.34,0C458.87,276.58,464,275.88,467.94,280Z"/><path class="f63401a9-6acc-45b4-bb74-7f6a08f41b6d" d="M403.59,784.43L280.09,784c-3-19.19-.92-38.51-1.1-57.76-0.07-7.7,7-6.9,12.13-7,20.18-.38,40.36-0.1,60.54-0.2,13.92,0.12,27.84-.11,41.75.15,6.64,0.13,12.76,1.67,13.17,9.66a408.23,408.23,0,0,1-.15,50.28A8,8,0,0,1,403.59,784.43Z"/><path class="5d9062ca-5b08-4eba-ac60-1f256460ee23" d="M153.78,405.92l26.7-.26c11.15-1.09,22.29-1.75,33.4.43,5.53,19,2.68,38.28,1.79,57.43-0.31,6.71-6.68,7.63-12.25,7.72-14,.23-28,0.36-42-0.06-4.82-.55-8.93-1.88-8.73-7.95C153.32,444.13,151.19,425,153.78,405.92Z"/><path class="ebc86944-8382-4932-a803-bfe62e3dcc39" d="M594.12,786.82a541,541,0,0,1,0,59.44c-18.77,2.58-37.64.43-56.44,1.16-6.65.26-8.55-3.92-8.73-9.36-0.49-14.36-.53-28.74,0-43.1,0.18-4.67,1.27-9.37,7.48-9.2C555.66,786.28,574.93,784.21,594.12,786.82Z"/><path class="f63401a9-6acc-45b4-bb74-7f6a08f41b6d" d="M213.11,658L154,657.92c-3-18.78-.53-37.68-1.29-56.5-0.24-6,3.74-7.9,8.7-8.1,14.81-.61,29.63-0.64,44.43,0,4.26,0.19,8.61,1.39,8.46,6.92C213.74,619.5,216,638.8,213.11,658Z"/><path class="ebc86944-8382-4932-a803-bfe62e3dcc39" d="M594.11,153.8a530.84,530.84,0,0,1,0,59.43c-19.18,2.63-38.45.54-57.67,1.07-6.21.17-7.3-4.54-7.48-9.2-0.55-14.36-.52-28.74,0-43.1,0.19-5.44,2.08-9.62,8.73-9.36C556.48,153.37,575.34,151.21,594.11,153.8Z"/><path class="fd8c65fe-fc9d-4878-8b9e-26062cb289c4" d="M212.41,406.61l-31.94-1,35.23-2.06c17.71,0,35.41-.24,53.12,0,6.34,0.09,8.71-2.12,8.68-8.58-0.18-35.41-.23-70.83.11-106.23,0.07-7.57-3.31-8.81-9.72-8.72-17.29.25-34.59,0-51.88,0,13.71-5.11,27.91-1.66,41.86-2.14,19.88-.7,19.39-0.21,20.09-20.09,0.49-13.95-3-28.15,2.15-41.86,0,17.3.39,34.6-.07,51.88-0.2,7.73,2.62,9.79,10,9.72,34.18-.33,68.36-0.42,102.54,0,8.72,0.11,11.41-2.72,11.13-11.28-0.55-16.87-.13-33.76-0.11-50.65l2-62.14,1.74,1.52c5,18.81,1.55,38,2.28,56.93,0,1.48,0,3,0,4.46,0.47,13.46.08,26.94,0.19,40.41,0.14,16.6.28,16.72,17.39,16.84,13.06,0.09,26.13-.3,39.2.2,1.48,0,2.95,0,4.42,0,18.57,0.38,37.18-1.58,55.7,1.19a7.27,7.27,0,0,1,3.46,2.82l-62.08,2c-17.61,0-35.22.22-52.81-.13-7-.14-9.25,2.41-9.18,9.27,0.41,38.06.48,76.13,0.66,114.19q-2.21,1.85-3.78-.57c-4-5.44-3.08-11.78-3.11-17.86-0.13-28.36,0-56.73-.1-85.09-0.08-14.67-1.13-15.78-15.13-15.85q-43.16-.2-86.32,0c-13.1.08-14.15,1.12-14.23,14.07q-0.25,43.78,0,87.55c0.09,12.55,1.5,13.91,14.51,14,28.77,0.23,57.55,0,86.32.13,6.08,0,12.42-.85,17.89,3a2.43,2.43,0,0,1,1,3.79c-5.35,4.18-11.72,3.31-17.81,3.34-28.82.14-57.64-.07-86.46,0.12-14.33.09-15.26,1.2-15.5,15.61-0.23,13.58.35,27.17-.29,40.75,0,1.53,0,3.06,0,4.59,0.34,19.16.41,38.32,0,57.48,0,1.54,0,3.08,0,4.62-0.79,18.43,3,37.08-2.58,55.29a3,3,0,0,1-4.15.49c-5.52-9.45-2.63-19.82-3.08-29.78a228.73,228.73,0,0,1,.14-25.53c0-1.54,0-3.07,0-4.61-0.35-19.09-.41-38.19,0-57.27,0-1.49,0-3,0-4.48-0.5-15.21-.26-30.43-0.15-45.64,0.06-8.41-3.43-11.62-11.78-11.75-15.18-.24-30.42,1.48-45.54-1.14A43.13,43.13,0,0,1,212.41,406.61Z"/><path class="672fb07a-24e0-48b4-8e4a-6c169d2fbff8" d="M277.69,589.07h2.13c35.36,2.28,70.75.42,106.12,1.18,9.89,0.21,14.2-3.33,13.93-13.6-0.37-14.38-.47-28.8.12-43.2,0-1.52,0-3,0-4.54-0.35-19.15-.41-38.29,0-57.43,0-1.55,0-3.1,0-4.65-0.59-15.46-.22-30.92-0.18-46.37,0-4.83-.27-9.87,3.48-13.82l0.17-3.21,0,0,3.19-.15,60.92,0.15c-3.4,4.68-8.28,1.89-12.42,2.24-16.19,1.37-32.6-2.26-48.69,2-0.21,16-.57,32-0.6,48-0.09,42.34.22,84.69-.24,127-0.1,8.89,1.73,12.42,11.37,11.81,13.92-.88,27.94-0.36,41.91-0.14,2.91,0,6.69-1.91,8.66,2.25-17.63,0-35.27.27-52.89,0-6.27-.09-8.71,1.86-8.66,8.4,0.25,35.26.34,70.53,0,105.79-0.08,8,3.35,9.56,10.31,9.43,17.22-.34,34.44-0.13,51.66-0.15l62.06,2-1.51,1.75c-18.81,5.07-38,1.56-57,2.3-1.48,0-3,0-4.46,0-14.31.48-28.64,0-43,.23-13.19.21-14,1-14.24,13.86-0.25,14.32.28,28.65-.24,43,0,1.51,0,3,0,4.51-0.74,19.05,2.7,38.26-2.21,57.15l-1.72,1.57c-2.53-16.18-.42-32.47-1.16-48.69-0.2-4.45-.65-8.89-1-13.34,0-17.55-.22-35.1.1-52.65,0.13-6.85-2.25-9.4-9.18-9.24-14.27.33-28.57,0-42.85-.06a2.77,2.77,0,0,1,1.17-3.84c11.15-4.42,22.82-2,34.24-2.29,8.72-.24,12.72-3.42,12.69-12.45q-0.16-45.74,0-91.47c0-8.08-2.7-12.17-11.39-12.14-30.9.14-61.81,0.07-92.71,0-8.35,0-11.56,3.66-11.93,11.89-0.66,14.72,2.35,29.65-2.24,44.17a4,4,0,0,1-3.85,1.9l-0.32-61.48a9.07,9.07,0,0,1-1.61-3.11A4.91,4.91,0,0,1,277.69,589.07Z"/><path class="3e434b85-658b-4f84-8441-e6d6885b6872" d="M471,276.84l-3.53.33c-6.44-11.52-2.95-24-3.28-36.09-0.59-21.54-.19-21.14-21.58-21.73-12.05-.33-24.56,3.1-36.12-3.17l0.3-3.71c6.24-4.46,13.45-2.77,20.3-3,7.38-.27,14.78,0,22.17-0.09,13.79-.22,14.63-1,14.8-14.73,0.1-8.62-.13-17.25,0-25.87,0.15-7.85-3.45-11.14-11.13-11.11-10.26,0-20.53.13-30.8-.08-5.26-.11-10.78.62-15.28-3.23a6.63,6.63,0,0,0-1.26-.8c1.48-2.8,4.16-2.12,6.49-2.12q87.91-.06,175.82,0c2.25,0,5.06-.86,6.16,2.38-16.84,0-33.7.55-50.5-.15-9.48-.4-12.15,3-11.65,12,0.68,12.28.56,24.65,0,36.95-0.33,7.89,2.08,11,10.37,10.73,17.23-.51,34.49-0.12,51.74-0.11-12.91,5.35-26.38,1.78-39.55,2.21-22.33.74-21.88,0.26-22.59,22.57-0.42,13.29,3,26.82-1.95,39.9a6.69,6.69,0,0,0-.81-1.23c-6.26-11.19-2.83-23.34-3.14-35-0.59-22.18-.18-22.35-22.43-22.16-33,.28-29-4.27-29.6,29.66C473.87,258.41,476.39,268.11,471,276.84Z"/><path class="b8217b06-90af-48eb-aad0-1cb4b44057a9" d="M467.5,722.87L471,723.2c4.58,6.21,2.85,13.43,3.1,20.28,0.28,7.39,0,14.8.09,22.2,0.21,13.89,1,14.72,14.66,14.89,8.63,0.11,17.27-.13,25.9,0,7.84,0.15,11.17-3.43,11.14-11.12,0-10.28-.13-20.56.09-30.83,0.11-5.27-.63-10.8,3.27-15.28a6,6,0,0,0,.77-1.26c4.88,16.41,1.78,33.21,1.8,49.78,0,10.28,2.53,13.48,12.89,12.74,13.52-1,27.16-.35,40.75-0.13,2.93,0,6.72-1.88,8.67,2.32-16.84,0-33.69.54-50.5-.15-9.46-.39-12.18,3-11.66,12a306.44,306.44,0,0,1,.07,35.71c-0.53,9,2.1,12.41,11.59,12,16.81-.7,33.66-0.17,50.5-0.16-1.93,4.17-5.72,2.32-8.62,2.33q-86,.14-172,0c-2.66,0-5.85,1.17-7.71-2.09a4.46,4.46,0,0,0,1.17-.69c11.16-6.33,23.32-2.87,35-3.18,22.17-.6,22.34-0.18,22.15-22.42-0.28-32.95,4.24-29-29.66-29.62-9.24-.16-18.95,2.43-27.62-3.17l-0.33-3.44c11.55-6.37,24.08-2.9,36.13-3.23,21.43-.59,21-0.19,21.62-21.73C464.53,746.93,461,734.39,467.5,722.87Z"/><path class="9c61a26a-da56-4bab-8dcc-887771645ec7" d="M277.32,593.64q0,1.58,0,3.16c-17.21-.08-34.42.21-51.61-0.4-8.44-.3-10.37,3.13-10.22,10.82,0.35,17.19-.08,34.4-0.19,51.61a3.62,3.62,0,0,1-2.22-.83c0-17.28-.27-34.57.24-51.84,0.23-7.74-2.67-10-10-9.79-13.15.44-26.35,0.6-39.49,0-8.65-.41-10.32,3.37-10.12,11,0.46,16.86.21,33.74,0.26,50.61-4.67-1.58-2.5-5.54-2.51-8.32q-0.2-117.51,0-235c0-2.93-1.79-6.7,2.34-8.66,0,17.52.13,35,0,52.55,0,5.41.36,10,7.47,9.58a3.54,3.54,0,0,1,0,3.84c-5.89,8.42-3.54,18-3.77,27.22-0.26,10.13-.51,20.3.83,30.42a24,24,0,0,1,0,4.22c-1.38,14.69-.24,29.43-0.79,44.12-0.33,8.84,3.13,12.6,12.14,12.46,14.3-.23,28.61-0.35,42.93.08,1.51,0,3,0,4.52,0,15.46-.62,30.91-0.21,46.35-0.21C268.32,590.17,273.3,590.12,277.32,593.64Z"/><path class="9c61a26a-da56-4bab-8dcc-887771645ec7" d="M351.65,720.21q0,1.14,0,2.27c-20.54.06-41.09,0.39-61.62,0-7.38-.13-10.18,2-10,9.71,0.46,17.24.07,34.51,0,51.76-5.2-14.54-1.5-29.54-2.07-44.31-0.68-17.41-.18-16.88-17.65-17.64-14.77-.64-29.78,3.15-44.33-2.07,17.26,0,34.53-.39,51.77.05,7.67,0.2,9.93-2.56,9.78-10-0.37-17.25,0-34.51.07-51.77l2.11,0.07,1.6,1.53c4.4,11.08,2.05,22.66,2.25,34,0.4,22.42.13,22.37,22,22.46,11.87,0,23.74-.38,35.61.26C345,716.79,348.88,716.93,351.65,720.21Z"/><path class="3f567c26-bd5a-4070-8476-15cb70730ef6" d="M161.23,470.1q0-1,0-2c14.37-.07,28.75-0.32,43.12-0.13,6.11,0.08,9-1.79,8.86-8.41-0.49-17.63-.57-35.27-0.81-52.91l3.85-.18c5.12,7.44,3.1,15.92,3.16,24,0.25,33.59.12,33.48,34.24,33.71,8,0.06,16.57-1.92,23.8,3.75q0,1.27,0,2.53c-10.62,6.86-22.47,3.41-33.75,3.64-26.46.54-24.27-1.09-24.18,24.15,0.11,30.48-3.55,27.25,27.88,27.83,10.06,0.19,20.69-2.81,30,3.66v2.57c-10.62,6.84-22.47,3.39-33.75,3.65-26,.61-23.73-1.64-24.33,24.17-0.26,11.29,3.13,23.11-3.48,33.8l-2.86,0c-6.57-10.14-3.33-21.49-3.57-32.28-0.61-28,2.23-25.13-26.11-25.7-9.09-.18-18.9,2.84-27.08-4q0-.95,0-1.89c9.08-7.2,19.74-3.73,29.66-3.93,25.47-.5,23.49.76,23.39-23.54-0.14-31.5,3.6-28-28.27-28.42C174.29,474,166.95,475.79,161.23,470.1Z"/><path class="ebc86944-8382-4932-a803-bfe62e3dcc39" d="M403.45,403.41c-37.84.06-75.68,0-113.52,0.32-7.3.06-10.13-1.94-10-9.72,0.35-35,.29-69.93,0-104.89-0.05-7,2.25-9.28,9.22-9.22,35,0.27,69.93.33,104.89,0,7.78-.08,9.78,2.76,9.72,10-0.33,37.84-.25,75.68-0.32,113.52Z"/><path class="ebc86944-8382-4932-a803-bfe62e3dcc39" d="M403.28,406.63q0,30.33,0,60.65c-3.6,4.44-8.71,4-13.58,4.05q-47.9.16-95.8,0c-4.9,0-9.92.22-13.91-3.49,0-17.72.15-35.43-.11-53.15-0.09-6.28,2-8.81,8.52-8.75C326.68,406.35,365,406.44,403.28,406.63Z"/><path class="ebc86944-8382-4932-a803-bfe62e3dcc39" d="M403.31,532.68c0,17.61-.16,35.22.15,52.83,0.11,6.32-2,8.66-8.47,8.62-35.63-.22-71.25-0.12-106.88-0.13-3.74,0-7.64.25-8.29-4.94q0.1-28.36.2-56.73c4.31-4.16,9.8-3.61,15.08-3.62q46.67-.11,93.34,0C393.69,528.74,399.25,528,403.31,532.68Z"/><path class="ebc86944-8382-4932-a803-bfe62e3dcc39" d="M403.23,471q0,29.07,0,58.15c-1.81,2.36-4.43,1.74-6.8,1.74q-55.31,0-110.63,0c-2.05,0-4.1,0-5.87-1.26q0-29.63,0-59.25c10.48-2.66,21.14-1,31.7-1.14,26.63-.27,53.27-0.17,79.9,0C395.45,469.27,399.79,467.53,403.23,471Z"/><path class="ebc86944-8382-4932-a803-bfe62e3dcc39" d="M406.49,216.18c17.64-.16,35.28-0.14,52.92-0.56,6.44-.16,8.73,2.32,8.59,8.64-0.38,17.64-.37,35.28-0.52,52.92-17.21.11-34.42-.06-51.61,0.45-7.46.22-10.11-2.25-9.86-9.83C406.56,250.6,406.37,233.38,406.49,216.18Z"/><path class="ebc86944-8382-4932-a803-bfe62e3dcc39" d="M277.46,467.85c-17.3.05-34.6-.16-51.89,0.28-7.42.19-10.26-2.16-10-9.85,0.61-17.27.49-34.57,0.67-51.85,17.25-.09,34.5.15,51.73-0.44,7.89-.27,9.77,2.93,9.62,10.12C277.23,433.35,277.47,450.6,277.46,467.85Z"/><path class="ebc86944-8382-4932-a803-bfe62e3dcc39" d="M215.9,593.85c-0.09-17.56,0-35.12-.36-52.68-0.16-6.91,2.35-9.36,9.24-9.21,17.55,0.38,35.12.22,52.68,0.27q0.12,28.42.23,56.83-0.18,2.29-.36,4.58Z"/><path class="ebc86944-8382-4932-a803-bfe62e3dcc39" d="M277.46,529.66c-17.24.05-34.49-.13-51.73,0.27-7.12.16-10.53-1.68-10.23-9.59,0.51-13.53.5-27.11,0-40.64-0.29-7.9,3.12-9.75,10.24-9.59,17.24,0.39,34.49.21,51.73,0.26Q277.46,500,277.46,529.66Z"/><path class="ebc86944-8382-4932-a803-bfe62e3dcc39" d="M406.89,154.34c17.29-.16,34.59-0.1,51.87-0.57,7.07-.19,9.38,2.62,9.21,9.43-0.34,13.59-.38,27.19,0,40.78,0.19,7-2.4,9.48-9.33,9.27-17.27-.52-34.56-0.55-51.84-0.77Q406.84,183.41,406.89,154.34Z"/><path class="ebc86944-8382-4932-a803-bfe62e3dcc39" d="M471,276.84c-0.23-17.61-.38-35.22-0.74-52.82-0.11-5.38,1.34-8.53,7.51-8.45q22.13,0.31,44.27,0c6-.08,7.78,2.72,7.68,8.26-0.31,17.62-.37,35.24-0.52,52.85Z"/><path class="3f567c26-bd5a-4070-8476-15cb70730ef6" d="M280,529.64l123.3-.5q0,1.76,0,3.54L280,532.33Q280,531,280,529.64Z"/><path class="3f567c26-bd5a-4070-8476-15cb70730ef6" d="M403.23,471L280,470.39q0-1.27,0-2.53l123.29-.58Q403.24,469.13,403.23,471Z"/><path class="ebc86944-8382-4932-a803-bfe62e3dcc39" d="M351.65,720.21l-9.79-.41c-6.84-9.68-3.58-20.72-3.81-31.15-0.64-29.18,2.56-26-26.72-26.64-10.43-.23-21.47,3-31.15-3.83l-0.42.18c0.05-17.28.36-34.57,0-51.85-0.13-7.16,1.73-10.3,9.61-10.22,35,0.34,70,.27,104.93,0,6.82,0,9.43,2.06,9.38,9.15q-0.42,52.47,0,104.93c0.07,7.71-2.75,10-10.09,9.77C379.64,719.79,365.64,720.15,351.65,720.21Z"/><path class="ebc86944-8382-4932-a803-bfe62e3dcc39" d="M467.5,722.87c0.14,17.65.13,35.31,0.52,53,0.14,6.37-2.24,8.78-8.63,8.64-17.65-.39-35.31-0.37-53-0.52-0.12-17.64-.07-35.27-0.46-52.9-0.14-6.41,2.26-8.71,8.62-8.58C432.22,722.82,449.86,722.76,467.5,722.87Z"/><path class="ebc86944-8382-4932-a803-bfe62e3dcc39" d="M529.24,723.37c0.15,17.21.12,34.43,0.54,51.63,0.16,6.63-1.78,9.76-9,9.56-13.93-.4-27.88-0.36-41.81-0.08-6.24.12-8.93-1.95-8.76-8.46,0.47-17.6.53-35.21,0.76-52.82Z"/><path class="f63401a9-6acc-45b4-bb74-7f6a08f41b6d" d="M406.77,787.38c17.71-.17,35.42-0.24,53.12-0.56,5.77-.11,8.12,2.15,8,8-0.21,14.42-.26,28.85.06,43.27,0.15,6.88-3.31,8.26-9.18,8.15-17.3-.3-34.6-0.33-51.9-0.46Q406.84,816.58,406.77,787.38Z"/><path class="ebc86944-8382-4932-a803-bfe62e3dcc39" d="M498.81,213.22c-28.46.13-28.46,0.13-28.51-28.13-0.05-31.3-.05-31.3,31.59-31.25,27.95,0,27.95,0,27.85,27.54q0,0.62,0,1.23C529.59,213.09,529.59,213.09,498.81,213.22Z"/><path class="ebc86944-8382-4932-a803-bfe62e3dcc39" d="M529.76,816.38c0,29.83,0,29.83-29.28,29.84-30.21,0-30.21,0-30.19-30.16,0-29.23,0-29.23,28.65-29.25h1.23C529.77,786.8,529.77,786.8,529.76,816.38Z"/><path class="f63401a9-6acc-45b4-bb74-7f6a08f41b6d" d="M156.28,531.88C172.2,532,188.12,532.3,204,532c6.83-.11,9.44,2.25,9.29,9.19-0.38,17.55-.23,35.11-0.29,52.66-16.46,0-32.94-.24-49.39.21-7.5.21-10.62-2.29-9.88-9.88C155.48,566.82,150.78,549.11,156.28,531.88Z"/><path class="5d9062ca-5b08-4eba-ac60-1f256460ee23" d="M161.23,470.1c13.53,0.1,27.1.79,40.59,0.08,9.56-.5,12.08,3.11,11.57,12a313.32,313.32,0,0,0,0,35.66c0.52,9-2,12.46-11.57,12-15.14-.69-30.33,0-45.51.07-5.32-18.21-1.42-36.8-2.17-55.19C153.92,470.17,158.13,470.59,161.23,470.1Z"/><path class="f63401a9-6acc-45b4-bb74-7f6a08f41b6d" d="M280.19,658.17c17.24,0,34.49.36,51.73,0,7.46-.16,10.16,2.36,10,9.91-0.39,17.23-.07,34.49,0,51.73-17.59.09-35.19,0-52.77,0.38-6.93.17-9.37-2.32-9.22-9.22C280.27,693.37,280.12,675.77,280.19,658.17Z"/></svg>