<svg id="58b6b9a3-ce83-46a3-9883-9d40486d389a" data-name="Layer 1" xmlns="http://www.w3.org/2000/svg" viewBox="0 0 1000 1000"><defs><style>.\36 45d4bc7-12ab-45a8-b3fc-e194f65a1769{fill:#f71516;}.de8ad09c-4d23-4cdc-bb85-a758644a86c8{fill:#fdfdfd;}</style></defs><title>unigotchi_desgin</title><path class="645d4bc7-12ab-45a8-b3fc-e194f65a1769" d="M830.31,174.11l0.49,1.54c-0.48,18-.69,36-1.53,54-0.5,10.66,4,14.55,14.47,14.31,18.87-.42,37.76,0,56.64.09a7.77,7.77,0,0,1,1.31,3.54Q901.31,355.82,901,464l0.33-.33c-17.38-.16-34.82.45-52.14-0.7-14.67-1-21.21,3.11-20.12,19.11,1.23,18.12.08,36.41,0,54.62l-0.11.31c-23.26.41-53.87-8.05-67.83,3.53-16.16,13.41-4.18,45.12-5.38,68.84l0.29-.33c-16.69,0-33.55,1.39-50-.51-21.09-2.44-25.83,6.74-24.32,25.5,1.26,15.73-.13,31.67-0.34,47.51l-0.61-1.48,1.54-.43c-23,1.35-53.57-5.76-67.15,6.27-15.64,13.86-4.24,45.1-4.81,68.79l0.33-.32c-4.12,0-8.26-.08-12.37.16-19.61,1.16-44.52-8.21-57.46,3.63-13.35,12.2-2.76,37.51-4.58,57-0.46,4.92-.77,9.85-1.15,14.78l0.33-.33a408.55,408.55,0,0,0-70.77,0l0.33,0.33c-0.39-17.3-2-34.69-.81-51.88,1.23-17.72-3.21-25.89-22.81-23.91-17.14,1.73-34.61.29-51.93,0.25l0.33,0.32c-1.53-87.92,19.59-71.64-70.52-70.38l0.35,0.28c-0.5-18.91-2-37.86-1.18-56.71,0.7-15.54-5.17-20.14-20-19.23-18.05,1.1-36.22.31-54.34,0.34l0.32,0.34c0.1-15-1-30.05.6-44.85,2.28-20.89-3.14-31-26.55-27.84-15.51,2.1-31.54.37-47.33,0.36l-0.11-.31c-0.53-23.16,7.69-53.44-3.86-67.58-13.39-16.4-44.86-4.28-68.44-5.45L98.93,464c-0.05-63.8.06-127.6-.35-191.4-0.06-8.58,3.87-18.36-4.51-25.67l4-4.17,72.63,1.06q0,48.8,0,97.61c0,58.81,2.51,60.36,60.32,49.38,11-2.09,13.79-5.39,13.26-15.44-0.65-12.48.95-25.14-.42-37.51-1.84-16.64,4.45-20.67,20.62-20.58,55.19,0.3,54.44-.35,53.94-54.82-0.15-16.36-6-19.21-20.45-18.9-42.53.91-85.09,0.5-127.63,0.6l-1.2-71.54-0.34.34,221.42-.22L390,172.1c0,18.37.62,36.78-.37,55.1-0.73,13.49,4.66,17.43,17.39,16.89,19.17-.81,38.4-0.26,57.61-0.29l-0.34-.37c5.51,5.23.9,10.52,0.29,15.9C458.15,315.9,463,321,519.28,317.87a15.15,15.15,0,0,1,2.49,0c11,1.22,14.49-4.28,14.25-14.63-0.47-19.95-.21-39.91-0.26-59.87l-0.5.45c19.21,0,38.44-.52,57.61.29,12.74,0.54,18.12-3.41,17.39-16.89-1-18.32-.33-36.73-0.38-55.1l-0.19.65C683.24,172.18,756.8,169.67,830.31,174.11Z"/><path d="M390.19,172.75L168.77,173c5.78-19.61,2.21-39.68,2.46-59.51,0.15-11.94,3.89-15.54,15.89-15.43,62.41,0.55,124.83.69,187.24-.07,14-.17,16.66,5.18,16.14,17.4C389.67,134.46,390.22,153.62,390.19,172.75Z"/><path d="M830.31,174.11c-73.51-4.44-147.07-1.93-220.61-1.36,0-19.18.56-38.39-.32-57.53C608.8,102.71,612,97.8,625.75,98c61.73,0.74,123.47.84,185.19,0,15.18-.22,18,5.52,17.68,18.8C828.2,135.83,829.66,155,830.31,174.11Z"/><path d="M901,464q0.36-108.19.73-216.37c18.32,0.11,36.84,2,54.88-.18,16.86-2,18.38,4.52,18.21,18.6-0.71,58.27-1.21,116.58.21,174.83,0.48,19.71-6.13,24.29-24.13,22.75C934.35,462.22,917.59,463.76,901,464Z"/><path d="M94.07,246.94c8.38,7.31,4.45,17.09,4.51,25.67,0.41,63.8.3,127.6,0.35,191.4-17.44-.24-34.94-1.5-52.29-0.43-15.48,1-21.94-2.61-21.63-20,1.07-59,1-118,0-177-0.24-15.43,3.84-20.22,19.3-19C60.8,248.9,77.49,247.29,94.07,246.94Z"/><path d="M244,609c18.12,0,36.29.76,54.34-.34,14.81-.91,20.69,3.7,20,19.23-0.85,18.85.68,37.8,1.18,56.71-18.57-6.15-37.7-2.5-56.5-2.42-14.23.06-19.2-5-18.82-18.65C244.67,645.38,244.08,627.19,244,609Z"/><path d="M389.33,754.39c17.32,0,34.79,1.49,51.93-.25,19.61-2,24,6.19,22.81,23.91-1.19,17.19.43,34.58,0.81,51.88-18.71-4.32-37.76-2.4-56.5-1.59-15.88.69-19.68-4.94-18.76-19.7C390.75,790.64,389.53,772.48,389.33,754.39Z"/><path d="M535,829.93c0.38-4.93.69-9.86,1.15-14.78,1.82-19.47-8.77-44.77,4.58-57,12.94-11.83,37.85-2.47,57.46-3.63,4.11-.24,8.25-0.12,12.37-0.16-0.2,18.09-1.42,36.25-.3,54.26,0.92,14.76-2.88,20.39-18.76,19.7C572.76,827.53,553.71,825.61,535,829.93Z"/><path d="M464.62,243.81c-19.21,0-38.44-.52-57.61.29-12.73.54-18.12-3.4-17.39-16.89,1-18.32.33-36.73,0.37-55.1,18.3-.11,36.68.82,54.87-0.64,16.24-1.31,19.77,5.32,18.95,20C462.85,208.87,464.25,226.37,464.62,243.81Z"/><path d="M609.89,172.1c0,18.37-.62,36.78.38,55.1,0.73,13.48-4.65,17.43-17.39,16.89-19.17-.81-38.4-0.26-57.61-0.29,0.37-17.44,1.78-34.93.81-52.3-0.82-14.73,2.7-21.36,18.95-20C573.21,172.93,591.59,172,609.89,172.1Z"/><path d="M98.61,463.68c23.58,1.17,55.05-10.94,68.44,5.45,11.55,14.14,3.33,44.42,3.86,67.58-1.61-.34-3.21-0.8-4.84-1-22.21-3.38-52.39,11.12-64.86-6.54C90.64,514.16,98.76,486,98.61,463.68Z"/><path d="M829,536.71c0.11-18.21,1.26-36.5,0-54.62-1.08-16,5.45-20.09,20.12-19.11,17.32,1.15,34.75.54,52.14,0.7-1.93,23.49,10.54,54.92-5,68.32C882.57,543.75,852.06,535.9,829,536.71Z"/><path d="M171,537c15.8,0,31.82,1.73,47.33-.36,23.41-3.16,28.82,6.95,26.55,27.84-1.61,14.8-.5,29.89-0.6,44.85-23.61-2.35-55.18,10.19-68.72-5.13C163.79,590.88,171.77,560.1,171,537Z"/><path d="M755.66,609.39c1.2-23.72-10.77-55.43,5.38-68.84,14-11.59,44.58-3.12,67.83-3.53-3,23.57,10.18,55.31-5.71,68.69C809.39,617.3,778.81,608.94,755.66,609.39Z"/><path d="M681.26,681.56c0.21-15.85,1.6-31.78.34-47.51-1.5-18.77,3.24-27.94,24.32-25.5,16.47,1.9,33.34.47,50,.51-1.72,23.83,10.25,55.64-4.79,69.23-12.92,11.68-44.23,3-67.41,3.34C682.92,681.65,682.09,681.59,681.26,681.56Z"/><path d="M610.23,754.71C610.8,731,599.4,699.78,615,685.92c13.58-12,44.11-4.92,67.15-6.27a37.7,37.7,0,0,1,.15,5c-2.23,22.8,9.83,54.17-4.88,66.18C663.38,762.29,633.29,754.19,610.23,754.71Z"/><path d="M535.76,243.36c0,20-.21,39.92.26,59.87,0.24,10.35-3.22,15.85-14.25,14.63a15.15,15.15,0,0,0-2.49,0c-56.29,3.15-61.13-2-54.71-58.53,0.61-5.38,5.23-10.67-.29-15.9Z"/><path d="M319.13,684.33c90.11-1.27,69-17.55,70.52,70.38-2.49,0-5,.08-7.48.09C313.17,755.17,313.17,755.17,319.13,684.33Z"/><path d="M464.56,829.6a408.55,408.55,0,0,1,70.77,0c0.2,5.78.56,11.57,0.58,17.35,0.24,57.66.24,57.3-58.33,53.9-10.76-.62-14.38-3.32-13.83-14.17C464.71,867.69,464.36,848.63,464.56,829.6Z"/><path d="M169.11,172.64l1.2,71.54,0.37-.35L98,242.78c0.2-14.13,2-28.47.21-42.35-2.69-20.86,6.45-25.29,24.88-23.67C138.47,178.1,154.18,178.31,169.11,172.64Z"/><path d="M900.37,244.1c-18.88-.08-37.77-0.51-56.64-0.09-10.47.23-15-3.65-14.47-14.31,0.84-18,1.06-36,1.53-54,3.28,0.46,6.54,1.07,9.83,1.36,19.61,1.72,46.82-8.94,57,4.24C909.22,196.2,901.38,222.64,900.37,244.1Z"/><path class="de8ad09c-4d23-4cdc-bb85-a758644a86c8" d="M170.31,244.18c42.55-.1,85.1.31,127.63-0.6,14.46-.31,20.3,2.53,20.45,18.9,0.5,54.47,1.25,55.12-53.94,54.82-16.17-.09-22.46,3.94-20.62,20.58,1.37,12.36-.23,25,0.42,37.51,0.53,10.06-2.26,13.35-13.26,15.44-57.8,11-60.32,9.43-60.32-49.38q0-48.8,0-97.61Z"/></svg>