<svg id="bbc7723f-4a41-495f-80a8-4e689db63592" data-name="Layer 1" xmlns="http://www.w3.org/2000/svg" viewBox="0 0 1000 1000"><defs><style>.c9aa9901-fdc7-4a56-9c6a-ea5593b4f115{fill:#f3dcea;}.\35 b1e590a-08e5-41aa-bd87-9e701dc2c90b{fill:#e6afd9;}.\32 8ffd7d7-ff05-4c7c-a9ce-b304b691203f{fill:#7f2b8a;}.\31 41ac6eb-717c-45cc-8784-88aa55e01655{fill:#e4bbdd;}.\30 07ca7e6-fff0-43e7-b783-dc5517fc5fd0{fill:#8fffff;}.\32 c539ac3-61e3-4fc6-9343-f163f32054cd{fill:#cb2376;}.f4a85afe-14ae-43a1-aa7f-b3f1bd370740{fill:#f0d2e6;}.dbbe0841-c5f3-4ea1-a682-cfc9e6810e91{fill:#8fff3c;}.\30 9ccf913-16b9-42ed-8bd9-509026202905{fill:#83e8e2;}.\39 d7385b8-7109-4460-b370-0fb011bd7be3{fill:#0000f9;}.\37 7883f92-907a-4899-a3e5-199d9eb7a752{fill:#fff;}.\37 4abbe3f-1e2b-4587-882b-512f3208ebda{fill:#ffff3c;}</style></defs><title>unigotchi_desgin</title><rect x="605.13" y="214.48" width="20" height="20" transform="translate(-1.36 3.77) rotate(-0.35)"/><rect class="c9aa9901-fdc7-4a56-9c6a-ea5593b4f115" x="351.37" y="255.04" width="19" height="20" transform="translate(-1.62 2.21) rotate(-0.35)"/><rect class="5b1e590a-08e5-41aa-bd87-9e701dc2c90b" x="646.45" y="430.23" width="19" height="20" transform="translate(-2.68 4.02) rotate(-0.35)"/><rect x="429.49" y="274.56" width="20" height="20" transform="translate(-1.73 2.7) rotate(-0.35)"/><rect class="c9aa9901-fdc7-4a56-9c6a-ea5593b4f115" x="508.81" y="490.07" width="20" height="19" transform="translate(-3.05 3.18) rotate(-0.35)"/><rect x="275.74" y="805.51" width="20" height="19" transform="translate(-4.98 1.76) rotate(-0.35)"/><rect x="530.61" y="783.95" width="20" height="20" transform="translate(-4.85 3.32) rotate(-0.35)"/><rect class="28ffd7d7-ff05-4c7c-a9ce-b304b691203f" x="371.1" y="372.92" width="20" height="20" transform="translate(-2.34 2.34) rotate(-0.35)"/><rect x="370.73" y="313.92" width="20" height="20" transform="translate(-1.98 2.34) rotate(-0.35)"/><rect x="590.09" y="861.59" width="19" height="20" transform="translate(-5.32 3.69) rotate(-0.35)"/><rect class="141ac6eb-717c-45cc-8784-88aa55e01655" x="627.41" y="587.35" width="20" height="19" transform="translate(-3.64 3.91) rotate(-0.35)"/><rect class="c9aa9901-fdc7-4a56-9c6a-ea5593b4f115" x="528.93" y="508.95" width="20" height="20" transform="translate(-3.17 3.31) rotate(-0.35)"/><rect x="295.5" y="765.39" width="19" height="20" transform="translate(-4.74 1.88) rotate(-0.35)"/><rect class="c9aa9901-fdc7-4a56-9c6a-ea5593b4f115" x="548.09" y="371.84" width="19" height="20" transform="translate(-2.33 3.42) rotate(-0.35)"/><rect class="5b1e590a-08e5-41aa-bd87-9e701dc2c90b" x="647.77" y="646.23" width="19" height="19" transform="translate(-4 4.03) rotate(-0.35)"/><rect class="c9aa9901-fdc7-4a56-9c6a-ea5593b4f115" x="605.61" y="293.48" width="20" height="19" transform="translate(-1.84 3.77) rotate(-0.35)"/><rect class="007ca7e6-fff0-43e7-b783-dc5517fc5fd0" x="507.37" y="254.08" width="20" height="20" transform="translate(-1.61 3.17) rotate(-0.35)"/><rect x="530.13" y="704.95" width="20" height="20" transform="translate(-4.37 3.32) rotate(-0.35)"/><rect class="c9aa9901-fdc7-4a56-9c6a-ea5593b4f115" x="548.21" y="391.83" width="19" height="19" transform="translate(-2.45 3.42) rotate(-0.35)"/><rect class="c9aa9901-fdc7-4a56-9c6a-ea5593b4f115" x="606.45" y="430.48" width="20" height="20" transform="translate(-2.68 3.78) rotate(-0.35)"/><rect class="007ca7e6-fff0-43e7-b783-dc5517fc5fd0" x="448.77" y="156.44" width="19" height="20" transform="translate(-1.01 2.81) rotate(-0.35)"/><rect x="527.97" y="352.95" width="20" height="19" transform="translate(-2.21 3.3) rotate(-0.35)"/><rect class="c9aa9901-fdc7-4a56-9c6a-ea5593b4f115" x="550.37" y="744.83" width="19" height="19" transform="translate(-4.61 3.44) rotate(-0.35)"/><rect class="2c539ac3-61e3-4fc6-9343-f163f32054cd" x="726.85" y="821.75" width="20" height="20" transform="translate(-5.08 4.53) rotate(-0.35)"/><rect class="c9aa9901-fdc7-4a56-9c6a-ea5593b4f115" x="489.57" y="451.19" width="19" height="19" transform="translate(-2.81 3.06) rotate(-0.35)"/><rect class="f4a85afe-14ae-43a1-aa7f-b3f1bd370740" x="627.65" y="626.35" width="20" height="20" transform="translate(-3.88 3.91) rotate(-0.35)"/><rect class="5b1e590a-08e5-41aa-bd87-9e701dc2c90b" x="746.73" y="802.63" width="19" height="19" transform="translate(-4.96 4.64) rotate(-0.35)"/><rect class="c9aa9901-fdc7-4a56-9c6a-ea5593b4f115" x="489.33" y="411.2" width="19" height="20" transform="translate(-2.57 3.06) rotate(-0.35)"/><rect class="5b1e590a-08e5-41aa-bd87-9e701dc2c90b" x="646.21" y="391.23" width="19" height="19" transform="translate(-2.44 4.02) rotate(-0.35)"/><rect class="c9aa9901-fdc7-4a56-9c6a-ea5593b4f115" x="371.46" y="431.91" width="20" height="20" transform="translate(-2.7 2.34) rotate(-0.35)"/><rect class="2c539ac3-61e3-4fc6-9343-f163f32054cd" x="726.73" y="802.75" width="20" height="19" transform="translate(-4.96 4.52) rotate(-0.35)"/><rect class="c9aa9901-fdc7-4a56-9c6a-ea5593b4f115" x="606.69" y="469.48" width="20" height="20" transform="translate(-2.92 3.78) rotate(-0.35)"/><rect class="c9aa9901-fdc7-4a56-9c6a-ea5593b4f115" x="568.05" y="528.71" width="20" height="20" transform="translate(-3.29 3.55) rotate(-0.35)"/><rect class="2c539ac3-61e3-4fc6-9343-f163f32054cd" x="468.97" y="353.32" width="20" height="19" transform="translate(-2.21 2.94) rotate(-0.35)"/><rect class="28ffd7d7-ff05-4c7c-a9ce-b304b691203f" x="370.86" y="333.92" width="20" height="20" transform="translate(-2.1 2.34) rotate(-0.35)"/><rect class="dbbe0841-c5f3-4ea1-a682-cfc9e6810e91" x="547.73" y="312.84" width="19" height="20" transform="translate(-1.97 3.42) rotate(-0.35)"/><rect x="411.29" y="568.67" width="20" height="20" transform="translate(-3.53 2.59) rotate(-0.35)"/><rect class="c9aa9901-fdc7-4a56-9c6a-ea5593b4f115" x="410.93" y="509.67" width="20" height="20" transform="translate(-3.17 2.59) rotate(-0.35)"/><rect class="c9aa9901-fdc7-4a56-9c6a-ea5593b4f115" x="373.01" y="686.91" width="20" height="19" transform="translate(-4.25 2.36) rotate(-0.35)"/><rect x="746.97" y="841.63" width="19" height="19" transform="translate(-5.19 4.65) rotate(-0.35)"/><rect class="c9aa9901-fdc7-4a56-9c6a-ea5593b4f115" x="548.93" y="508.83" width="19" height="20" transform="translate(-3.16 3.43) rotate(-0.35)"/><rect x="510.37" y="745.07" width="20" height="19" transform="translate(-4.61 3.2) rotate(-0.35)"/><rect class="007ca7e6-fff0-43e7-b783-dc5517fc5fd0" x="448.89" y="176.44" width="19" height="20" transform="translate(-1.13 2.81) rotate(-0.35)"/><rect class="c9aa9901-fdc7-4a56-9c6a-ea5593b4f115" x="373.86" y="823.91" width="20" height="20" transform="translate(-5.1 2.36) rotate(-0.35)"/><rect class="c9aa9901-fdc7-4a56-9c6a-ea5593b4f115" x="509.77" y="647.07" width="20" height="19" transform="translate(-4.01 3.19) rotate(-0.35)"/><rect class="5b1e590a-08e5-41aa-bd87-9e701dc2c90b" x="665.57" y="450.11" width="20" height="19" transform="translate(-2.8 4.14) rotate(-0.35)"/><rect x="587.21" y="391.6" width="19" height="19" transform="translate(-2.44 3.66) rotate(-0.35)"/><rect class="007ca7e6-fff0-43e7-b783-dc5517fc5fd0" x="550.97" y="842.83" width="19" height="19" transform="translate(-5.21 3.45) rotate(-0.35)"/><rect class="c9aa9901-fdc7-4a56-9c6a-ea5593b4f115" x="509.65" y="627.07" width="20" height="20" transform="translate(-3.89 3.19) rotate(-0.35)"/><rect x="373.49" y="764.91" width="20" height="20" transform="translate(-4.74 2.36) rotate(-0.35)"/><rect x="430.57" y="451.55" width="20" height="19" transform="translate(-2.81 2.71) rotate(-0.35)"/><rect class="5b1e590a-08e5-41aa-bd87-9e701dc2c90b" x="645.37" y="253.24" width="19" height="20" transform="translate(-1.6 4.01) rotate(-0.35)"/><rect x="648.25" y="724.23" width="19" height="20" transform="translate(-4.48 4.04) rotate(-0.35)"/><rect class="c9aa9901-fdc7-4a56-9c6a-ea5593b4f115" x="509.41" y="588.07" width="20" height="19" transform="translate(-3.65 3.19) rotate(-0.35)"/><rect x="706.25" y="723.87" width="20" height="20" transform="translate(-4.48 4.4) rotate(-0.35)"/><rect class="c9aa9901-fdc7-4a56-9c6a-ea5593b4f115" x="392.53" y="607.79" width="19" height="20" transform="translate(-3.77 2.47) rotate(-0.35)"/><rect x="567.09" y="371.72" width="20" height="20" transform="translate(-2.33 3.54) rotate(-0.35)"/><rect class="c9aa9901-fdc7-4a56-9c6a-ea5593b4f115" x="509.29" y="568.07" width="20" height="20" transform="translate(-3.53 3.19) rotate(-0.35)"/><rect class="c9aa9901-fdc7-4a56-9c6a-ea5593b4f115" x="549.17" y="548.83" width="19" height="19" transform="translate(-3.41 3.43) rotate(-0.35)"/><rect class="dbbe0841-c5f3-4ea1-a682-cfc9e6810e91" x="489.09" y="372.2" width="19" height="20" transform="translate(-2.33 3.06) rotate(-0.35)"/><rect class="c9aa9901-fdc7-4a56-9c6a-ea5593b4f115" x="646.57" y="450.23" width="19" height="19" transform="translate(-2.8 4.02) rotate(-0.35)"/><rect class="c9aa9901-fdc7-4a56-9c6a-ea5593b4f115" x="606.57" y="450.48" width="20" height="19" transform="translate(-2.8 3.78) rotate(-0.35)"/><rect class="c9aa9901-fdc7-4a56-9c6a-ea5593b4f115" x="549.29" y="567.83" width="19" height="20" transform="translate(-3.53 3.43) rotate(-0.35)"/><rect x="373.97" y="843.91" width="20" height="19" transform="translate(-5.22 2.37) rotate(-0.35)"/><rect x="409.01" y="196.68" width="20" height="19" transform="translate(-1.25 2.57) rotate(-0.35)"/><rect class="09ccf913-16b9-42ed-8bd9-509026202905" x="507.01" y="196.08" width="20" height="19" transform="translate(-1.25 3.17) rotate(-0.35)"/><rect class="c9aa9901-fdc7-4a56-9c6a-ea5593b4f115" x="529.65" y="626.95" width="20" height="20" transform="translate(-3.89 3.31) rotate(-0.35)"/><rect x="489.21" y="392.2" width="19" height="19" transform="translate(-2.45 3.06) rotate(-0.35)"/><rect class="c9aa9901-fdc7-4a56-9c6a-ea5593b4f115" x="586.85" y="332.6" width="19" height="20" transform="translate(-2.09 3.66) rotate(-0.35)"/><rect x="353.66" y="628.03" width="19" height="20" transform="translate(-3.9 2.23) rotate(-0.35)"/><rect class="c9aa9901-fdc7-4a56-9c6a-ea5593b4f115" x="605.37" y="253.48" width="20" height="20" transform="translate(-1.6 3.77) rotate(-0.35)"/><rect x="432.85" y="823.55" width="20" height="20" transform="translate(-5.09 2.73) rotate(-0.35)"/><rect x="353.78" y="648.03" width="19" height="19" transform="translate(-4.02 2.24) rotate(-0.35)"/><rect class="c9aa9901-fdc7-4a56-9c6a-ea5593b4f115" x="586.97" y="352.6" width="19" height="19" transform="translate(-2.2 3.66) rotate(-0.35)"/><rect class="c9aa9901-fdc7-4a56-9c6a-ea5593b4f115" x="647.89" y="665.23" width="19" height="20" transform="translate(-4.12 4.04) rotate(-0.35)"/><rect x="627.29" y="567.35" width="20" height="20" transform="translate(-3.52 3.91) rotate(-0.35)"/><rect class="c9aa9901-fdc7-4a56-9c6a-ea5593b4f115" x="431.77" y="647.55" width="20" height="19" transform="translate(-4.01 2.72) rotate(-0.35)"/><rect x="527.49" y="273.96" width="20" height="20" transform="translate(-1.73 3.29) rotate(-0.35)"/><rect class="2c539ac3-61e3-4fc6-9343-f163f32054cd" x="706.61" y="782.87" width="20" height="20" transform="translate(-4.84 4.4) rotate(-0.35)"/><rect class="007ca7e6-fff0-43e7-b783-dc5517fc5fd0" x="488.25" y="235.2" width="19" height="19" transform="translate(-1.49 3.05) rotate(-0.35)"/><rect x="295.98" y="844.39" width="19" height="19" transform="translate(-5.22 1.89) rotate(-0.35)"/><rect x="624.77" y="155.36" width="20" height="20" transform="translate(-1 3.89) rotate(-0.35)"/><rect class="c9aa9901-fdc7-4a56-9c6a-ea5593b4f115" x="410.33" y="411.68" width="20" height="20" transform="translate(-2.57 2.58) rotate(-0.35)"/><rect class="c9aa9901-fdc7-4a56-9c6a-ea5593b4f115" x="589.13" y="704.59" width="19" height="20" transform="translate(-4.36 3.68) rotate(-0.35)"/><rect class="c9aa9901-fdc7-4a56-9c6a-ea5593b4f115" x="370.61" y="294.92" width="20" height="19" transform="translate(-1.86 2.34) rotate(-0.35)"/><rect class="5b1e590a-08e5-41aa-bd87-9e701dc2c90b" x="687.01" y="684.99" width="19" height="19" transform="translate(-4.24 4.28) rotate(-0.35)"/><rect class="c9aa9901-fdc7-4a56-9c6a-ea5593b4f115" x="588.29" y="567.59" width="19" height="20" transform="translate(-3.52 3.67) rotate(-0.35)"/><rect x="432.73" y="804.55" width="20" height="19" transform="translate(-4.97 2.72) rotate(-0.35)"/><rect class="c9aa9901-fdc7-4a56-9c6a-ea5593b4f115" x="470.29" y="568.31" width="20" height="20" transform="translate(-3.53 2.95) rotate(-0.35)"/><rect class="c9aa9901-fdc7-4a56-9c6a-ea5593b4f115" x="627.89" y="665.35" width="20" height="20" transform="translate(-4.12 3.92) rotate(-0.35)"/><rect class="c9aa9901-fdc7-4a56-9c6a-ea5593b4f115" x="548.33" y="410.83" width="19" height="20" transform="translate(-2.57 3.42) rotate(-0.35)"/><rect x="393.74" y="804.79" width="19" height="19" transform="translate(-4.98 2.48) rotate(-0.35)"/><rect class="f4a85afe-14ae-43a1-aa7f-b3f1bd370740" x="626.21" y="391.35" width="20" height="19" transform="translate(-2.44 3.9) rotate(-0.35)"/><rect class="09ccf913-16b9-42ed-8bd9-509026202905" x="507.13" y="215.08" width="20" height="20" transform="translate(-1.37 3.17) rotate(-0.35)"/><rect x="625.97" y="352.35" width="20" height="19" transform="translate(-2.2 3.9) rotate(-0.35)"/><rect class="c9aa9901-fdc7-4a56-9c6a-ea5593b4f115" x="432.13" y="705.55" width="20" height="20" transform="translate(-4.37 2.72) rotate(-0.35)"/><rect x="311.37" y="255.28" width="20" height="20" transform="translate(-1.62 1.97) rotate(-0.35)"/><rect x="450.57" y="451.43" width="19" height="19" transform="translate(-2.81 2.82) rotate(-0.35)"/><rect class="007ca7e6-fff0-43e7-b783-dc5517fc5fd0" x="468.37" y="254.32" width="20" height="20" transform="translate(-1.61 2.93) rotate(-0.35)"/><rect x="331.98" y="354.15" width="20" height="19" transform="translate(-2.22 2.1) rotate(-0.35)"/><rect x="275.62" y="785.51" width="20" height="20" transform="translate(-4.86 1.76) rotate(-0.35)"/><rect class="c9aa9901-fdc7-4a56-9c6a-ea5593b4f115" x="567.57" y="450.71" width="20" height="19" transform="translate(-2.81 3.54) rotate(-0.35)"/><rect x="568.17" y="548.71" width="20" height="19" transform="translate(-3.41 3.55) rotate(-0.35)"/><rect class="2c539ac3-61e3-4fc6-9343-f163f32054cd" x="488.85" y="333.2" width="19" height="20" transform="translate(-2.09 3.06) rotate(-0.35)"/><rect class="c9aa9901-fdc7-4a56-9c6a-ea5593b4f115" x="411.77" y="647.67" width="20" height="19" transform="translate(-4.01 2.59) rotate(-0.35)"/><rect class="c9aa9901-fdc7-4a56-9c6a-ea5593b4f115" x="626.57" y="450.35" width="20" height="19" transform="translate(-2.8 3.9) rotate(-0.35)"/><rect class="c9aa9901-fdc7-4a56-9c6a-ea5593b4f115" x="567.81" y="489.71" width="20" height="19" transform="translate(-3.04 3.55) rotate(-0.35)"/><rect x="527.13" y="214.96" width="20" height="20" transform="translate(-1.37 3.29) rotate(-0.35)"/><rect class="c9aa9901-fdc7-4a56-9c6a-ea5593b4f115" x="491.37" y="745.19" width="19" height="19" transform="translate(-4.61 3.08) rotate(-0.35)"/><rect class="c9aa9901-fdc7-4a56-9c6a-ea5593b4f115" x="469.57" y="451.31" width="20" height="19" transform="translate(-2.81 2.94) rotate(-0.35)"/><rect class="c9aa9901-fdc7-4a56-9c6a-ea5593b4f115" x="508.45" y="431.08" width="20" height="20" transform="translate(-2.69 3.18) rotate(-0.35)"/><rect class="2c539ac3-61e3-4fc6-9343-f163f32054cd" x="334.62" y="785.15" width="20" height="20" transform="translate(-4.86 2.12) rotate(-0.35)"/><rect x="706.13" y="703.87" width="20" height="20" transform="translate(-4.36 4.4) rotate(-0.35)"/><rect x="351.25" y="236.04" width="19" height="19" transform="translate(-1.5 2.21) rotate(-0.35)"/><rect class="c9aa9901-fdc7-4a56-9c6a-ea5593b4f115" x="489.69" y="470.19" width="19" height="20" transform="translate(-2.93 3.06) rotate(-0.35)"/><rect class="09ccf913-16b9-42ed-8bd9-509026202905" x="527.25" y="234.96" width="20" height="19" transform="translate(-1.49 3.29) rotate(-0.35)"/><rect class="dbbe0841-c5f3-4ea1-a682-cfc9e6810e91" x="527.85" y="332.96" width="20" height="20" transform="translate(-2.09 3.3) rotate(-0.35)"/><rect class="9d7385b8-7109-4460-b370-0fb011bd7be3" x="469.09" y="372.32" width="20" height="20" transform="translate(-2.33 2.94) rotate(-0.35)"/><rect class="77883f92-907a-4899-a3e5-199d9eb7a752" x="567.21" y="391.72" width="20" height="19" transform="translate(-2.44 3.54) rotate(-0.35)"/><rect class="c9aa9901-fdc7-4a56-9c6a-ea5593b4f115" x="550.61" y="783.83" width="19" height="20" transform="translate(-4.85 3.44) rotate(-0.35)"/><rect class="c9aa9901-fdc7-4a56-9c6a-ea5593b4f115" x="588.77" y="646.59" width="19" height="19" transform="translate(-4 3.67) rotate(-0.35)"/><rect x="644.89" y="175.24" width="19" height="20" transform="translate(-1.12 4.01) rotate(-0.35)"/><rect x="331.14" y="216.16" width="20" height="20" transform="translate(-1.38 2.09) rotate(-0.35)"/><rect class="c9aa9901-fdc7-4a56-9c6a-ea5593b4f115" x="549.41" y="587.83" width="19" height="19" transform="translate(-3.65 3.43) rotate(-0.35)"/><rect x="351.98" y="354.03" width="19" height="19" transform="translate(-2.22 2.22) rotate(-0.35)"/><rect class="c9aa9901-fdc7-4a56-9c6a-ea5593b4f115" x="529.17" y="548.95" width="20" height="19" transform="translate(-3.41 3.31) rotate(-0.35)"/><rect x="547.37" y="253.84" width="19" height="20" transform="translate(-1.6 3.41) rotate(-0.35)"/><rect class="74abbe3f-1e2b-4587-882b-512f3208ebda" x="449.73" y="313.44" width="19" height="20" transform="translate(-1.97 2.82) rotate(-0.35)"/><rect x="334.13" y="706.15" width="20" height="20" transform="translate(-4.38 2.12) rotate(-0.35)"/><rect class="c9aa9901-fdc7-4a56-9c6a-ea5593b4f115" x="588.65" y="626.59" width="19" height="20" transform="translate(-3.88 3.67) rotate(-0.35)"/><rect class="c9aa9901-fdc7-4a56-9c6a-ea5593b4f115" x="431.29" y="568.55" width="20" height="20" transform="translate(-3.53 2.71) rotate(-0.35)"/><rect class="c9aa9901-fdc7-4a56-9c6a-ea5593b4f115" x="606.33" y="410.48" width="20" height="20" transform="translate(-2.56 3.78) rotate(-0.35)"/><rect class="5b1e590a-08e5-41aa-bd87-9e701dc2c90b" x="645.01" y="195.24" width="19" height="19" transform="translate(-1.24 4.01) rotate(-0.35)"/><rect x="628.37" y="744.35" width="20" height="19" transform="translate(-4.6 3.92) rotate(-0.35)"/><rect x="393.26" y="725.79" width="19" height="20" transform="translate(-4.5 2.48) rotate(-0.35)"/><rect class="c9aa9901-fdc7-4a56-9c6a-ea5593b4f115" x="607.89" y="665.47" width="20" height="20" transform="translate(-4.12 3.79) rotate(-0.35)"/><rect x="608.97" y="842.47" width="20" height="19" transform="translate(-5.2 3.8) rotate(-0.35)"/><rect class="c9aa9901-fdc7-4a56-9c6a-ea5593b4f115" x="568.41" y="587.71" width="20" height="19" transform="translate(-3.64 3.55) rotate(-0.35)"/><rect x="587.45" y="430.6" width="19" height="20" transform="translate(-2.69 3.66) rotate(-0.35)"/><rect class="c9aa9901-fdc7-4a56-9c6a-ea5593b4f115" x="373.62" y="784.91" width="20" height="20" transform="translate(-4.86 2.36) rotate(-0.35)"/><rect class="c9aa9901-fdc7-4a56-9c6a-ea5593b4f115" x="550.25" y="724.83" width="19" height="20" transform="translate(-4.49 3.44) rotate(-0.35)"/><rect x="412.62" y="784.67" width="20" height="20" transform="translate(-4.86 2.6) rotate(-0.35)"/><rect class="5b1e590a-08e5-41aa-bd87-9e701dc2c90b" x="624.89" y="175.36" width="20" height="20" transform="translate(-1.12 3.89) rotate(-0.35)"/><rect x="452.85" y="823.43" width="19" height="20" transform="translate(-5.09 2.85) rotate(-0.35)"/><rect class="c9aa9901-fdc7-4a56-9c6a-ea5593b4f115" x="626.69" y="469.35" width="20" height="20" transform="translate(-2.92 3.91) rotate(-0.35)"/><rect x="355.09" y="863.03" width="19" height="20" transform="translate(-5.34 2.25) rotate(-0.35)"/><rect class="c9aa9901-fdc7-4a56-9c6a-ea5593b4f115" x="331.37" y="255.16" width="20" height="20" transform="translate(-1.62 2.09) rotate(-0.35)"/><rect class="c9aa9901-fdc7-4a56-9c6a-ea5593b4f115" x="452.62" y="784.43" width="19" height="20" transform="translate(-4.85 2.84) rotate(-0.35)"/><rect x="509.53" y="607.07" width="20" height="20" transform="translate(-3.77 3.19) rotate(-0.35)"/><rect class="c9aa9901-fdc7-4a56-9c6a-ea5593b4f115" x="450.93" y="509.43" width="19" height="20" transform="translate(-3.17 2.83) rotate(-0.35)"/><rect class="5b1e590a-08e5-41aa-bd87-9e701dc2c90b" x="625.01" y="195.36" width="20" height="19" transform="translate(-1.24 3.89) rotate(-0.35)"/><rect class="2c539ac3-61e3-4fc6-9343-f163f32054cd" x="449.97" y="353.44" width="19" height="19" transform="translate(-2.21 2.82) rotate(-0.35)"/><rect class="c9aa9901-fdc7-4a56-9c6a-ea5593b4f115" x="667.85" y="822.11" width="20" height="20" transform="translate(-5.08 4.16) rotate(-0.35)"/><rect x="586.25" y="234.6" width="19" height="19" transform="translate(-1.48 3.65) rotate(-0.35)"/><rect class="c9aa9901-fdc7-4a56-9c6a-ea5593b4f115" x="354.01" y="687.03" width="19" height="19" transform="translate(-4.26 2.24) rotate(-0.35)"/><rect class="c9aa9901-fdc7-4a56-9c6a-ea5593b4f115" x="430.93" y="509.55" width="20" height="20" transform="translate(-3.17 2.71) rotate(-0.35)"/><rect class="c9aa9901-fdc7-4a56-9c6a-ea5593b4f115" x="491.01" y="686.19" width="19" height="19" transform="translate(-4.25 3.08) rotate(-0.35)"/><rect class="5b1e590a-08e5-41aa-bd87-9e701dc2c90b" x="665.69" y="469.11" width="20" height="20" transform="translate(-2.92 4.14) rotate(-0.35)"/><rect x="625.85" y="332.36" width="20" height="20" transform="translate(-2.08 3.9) rotate(-0.35)"/><rect class="f4a85afe-14ae-43a1-aa7f-b3f1bd370740" x="626.45" y="430.35" width="20" height="20" transform="translate(-2.68 3.9) rotate(-0.35)"/><rect x="311.62" y="295.28" width="20" height="19" transform="translate(-1.86 1.97) rotate(-0.35)"/><rect class="9d7385b8-7109-4460-b370-0fb011bd7be3" x="527.73" y="312.96" width="20" height="20" transform="translate(-1.97 3.3) rotate(-0.35)"/><rect class="5b1e590a-08e5-41aa-bd87-9e701dc2c90b" x="647.65" y="626.23" width="19" height="20" transform="translate(-3.88 4.03) rotate(-0.35)"/><rect x="665.21" y="391.12" width="20" height="19" transform="translate(-2.44 4.14) rotate(-0.35)"/><rect class="007ca7e6-fff0-43e7-b783-dc5517fc5fd0" x="429.13" y="215.56" width="20" height="20" transform="translate(-1.37 2.69) rotate(-0.35)"/><rect x="685.81" y="488.99" width="19" height="19" transform="translate(-3.04 4.26) rotate(-0.35)"/><rect x="628.49" y="763.35" width="20" height="20" transform="translate(-4.72 3.92) rotate(-0.35)"/><rect class="09ccf913-16b9-42ed-8bd9-509026202905" x="467.53" y="117.32" width="20" height="20" transform="translate(-0.77 2.92) rotate(-0.35)"/><rect x="527.01" y="195.96" width="20" height="19" transform="translate(-1.25 3.29) rotate(-0.35)"/><rect class="c9aa9901-fdc7-4a56-9c6a-ea5593b4f115" x="549.77" y="646.83" width="19" height="19" transform="translate(-4.01 3.44) rotate(-0.35)"/><rect class="28ffd7d7-ff05-4c7c-a9ce-b304b691203f" x="390.73" y="313.8" width="19" height="20" transform="translate(-1.97 2.46) rotate(-0.35)"/><rect class="c9aa9901-fdc7-4a56-9c6a-ea5593b4f115" x="589.25" y="724.59" width="19" height="20" transform="translate(-4.48 3.68) rotate(-0.35)"/><rect class="28ffd7d7-ff05-4c7c-a9ce-b304b691203f" x="409.61" y="294.68" width="20" height="19" transform="translate(-1.85 2.57) rotate(-0.35)"/><rect class="28ffd7d7-ff05-4c7c-a9ce-b304b691203f" x="429.61" y="294.56" width="20" height="19" transform="translate(-1.85 2.7) rotate(-0.35)"/><rect x="428.77" y="156.56" width="20" height="20" transform="translate(-1.01 2.69) rotate(-0.35)"/><rect x="451.41" y="588.43" width="19" height="19" transform="translate(-3.65 2.83) rotate(-0.35)"/><rect class="c9aa9901-fdc7-4a56-9c6a-ea5593b4f115" x="412.13" y="705.67" width="20" height="20" transform="translate(-4.37 2.6) rotate(-0.35)"/><rect class="c9aa9901-fdc7-4a56-9c6a-ea5593b4f115" x="411.53" y="607.67" width="20" height="20" transform="translate(-3.77 2.59) rotate(-0.35)"/><rect class="c9aa9901-fdc7-4a56-9c6a-ea5593b4f115" x="587.81" y="489.59" width="19" height="19" transform="translate(-3.04 3.66) rotate(-0.35)"/><rect class="c9aa9901-fdc7-4a56-9c6a-ea5593b4f115" x="491.73" y="804.19" width="19" height="19" transform="translate(-4.97 3.08) rotate(-0.35)"/><rect class="c9aa9901-fdc7-4a56-9c6a-ea5593b4f115" x="331.86" y="334.15" width="20" height="20" transform="translate(-2.1 2.1) rotate(-0.35)"/><rect x="409.13" y="215.68" width="20" height="20" transform="translate(-1.37 2.57) rotate(-0.35)"/><rect class="c9aa9901-fdc7-4a56-9c6a-ea5593b4f115" x="569.01" y="685.71" width="20" height="19" transform="translate(-4.24 3.56) rotate(-0.35)"/><rect class="5b1e590a-08e5-41aa-bd87-9e701dc2c90b" x="645.49" y="273.24" width="19" height="20" transform="translate(-1.72 4.01) rotate(-0.35)"/><rect x="648.01" y="685.23" width="19" height="19" transform="translate(-4.24 4.04) rotate(-0.35)"/><rect class="c9aa9901-fdc7-4a56-9c6a-ea5593b4f115" x="372.78" y="647.91" width="20" height="19" transform="translate(-4.02 2.35) rotate(-0.35)"/><rect x="507.49" y="274.08" width="20" height="20" transform="translate(-1.73 3.17) rotate(-0.35)"/><rect class="5b1e590a-08e5-41aa-bd87-9e701dc2c90b" x="687.13" y="703.99" width="19" height="20" transform="translate(-4.36 4.28) rotate(-0.35)"/><rect class="74abbe3f-1e2b-4587-882b-512f3208ebda" x="409.98" y="353.68" width="20" height="19" transform="translate(-2.21 2.58) rotate(-0.35)"/><rect class="007ca7e6-fff0-43e7-b783-dc5517fc5fd0" x="448.65" y="137.44" width="19" height="19" transform="translate(-0.89 2.81) rotate(-0.35)"/><rect x="472.09" y="862.31" width="20" height="20" transform="translate(-5.33 2.97) rotate(-0.35)"/><rect x="352.33" y="412.03" width="19" height="20" transform="translate(-2.58 2.22) rotate(-0.35)"/><rect x="334.38" y="746.15" width="20" height="19" transform="translate(-4.62 2.12) rotate(-0.35)"/><rect class="c9aa9901-fdc7-4a56-9c6a-ea5593b4f115" x="569.73" y="803.71" width="20" height="19" transform="translate(-4.97 3.56) rotate(-0.35)"/><rect x="314.38" y="746.27" width="20" height="19" transform="translate(-4.62 2) rotate(-0.35)"/><rect class="c9aa9901-fdc7-4a56-9c6a-ea5593b4f115" x="452.01" y="686.43" width="19" height="19" transform="translate(-4.25 2.84) rotate(-0.35)"/><rect x="393.62" y="784.79" width="19" height="20" transform="translate(-4.86 2.48) rotate(-0.35)"/><rect class="c9aa9901-fdc7-4a56-9c6a-ea5593b4f115" x="588.53" y="606.59" width="19" height="20" transform="translate(-3.76 3.67) rotate(-0.35)"/><rect class="c9aa9901-fdc7-4a56-9c6a-ea5593b4f115" x="587.93" y="508.59" width="19" height="20" transform="translate(-3.16 3.67) rotate(-0.35)"/><rect class="c9aa9901-fdc7-4a56-9c6a-ea5593b4f115" x="626.81" y="489.35" width="20" height="19" transform="translate(-3.04 3.91) rotate(-0.35)"/><rect class="c9aa9901-fdc7-4a56-9c6a-ea5593b4f115" x="569.25" y="724.71" width="20" height="20" transform="translate(-4.49 3.56) rotate(-0.35)"/><rect x="412.37" y="745.67" width="20" height="19" transform="translate(-4.61 2.6) rotate(-0.35)"/><rect class="c9aa9901-fdc7-4a56-9c6a-ea5593b4f115" x="411.89" y="666.67" width="20" height="20" transform="translate(-4.13 2.59) rotate(-0.35)"/><rect class="c9aa9901-fdc7-4a56-9c6a-ea5593b4f115" x="354.13" y="706.03" width="19" height="20" transform="translate(-4.38 2.24) rotate(-0.35)"/><rect class="28ffd7d7-ff05-4c7c-a9ce-b304b691203f" x="390.86" y="333.8" width="19" height="20" transform="translate(-2.1 2.46) rotate(-0.35)"/><rect x="488.49" y="274.2" width="19" height="20" transform="translate(-1.73 3.05) rotate(-0.35)"/><rect x="608.85" y="822.47" width="20" height="20" transform="translate(-5.08 3.8) rotate(-0.35)"/><rect class="c9aa9901-fdc7-4a56-9c6a-ea5593b4f115" x="452.13" y="705.43" width="19" height="20" transform="translate(-4.37 2.84) rotate(-0.35)"/><rect class="007ca7e6-fff0-43e7-b783-dc5517fc5fd0" x="429.37" y="254.56" width="20" height="20" transform="translate(-1.61 2.69) rotate(-0.35)"/><rect class="c9aa9901-fdc7-4a56-9c6a-ea5593b4f115" x="646.69" y="469.23" width="19" height="20" transform="translate(-2.92 4.02) rotate(-0.35)"/><rect x="430.09" y="372.55" width="20" height="20" transform="translate(-2.33 2.7) rotate(-0.35)"/><rect class="74abbe3f-1e2b-4587-882b-512f3208ebda" x="409.86" y="333.68" width="20" height="20" transform="translate(-2.1 2.58) rotate(-0.35)"/><rect x="468.49" y="274.32" width="20" height="20" transform="translate(-1.73 2.93) rotate(-0.35)"/><rect x="449.49" y="274.44" width="19" height="20" transform="translate(-1.73 2.81) rotate(-0.35)"/><rect x="589.85" y="822.59" width="19" height="20" transform="translate(-5.08 3.68) rotate(-0.35)"/><rect class="c9aa9901-fdc7-4a56-9c6a-ea5593b4f115" x="587.69" y="469.59" width="19" height="20" transform="translate(-2.92 3.66) rotate(-0.35)"/><rect x="687.37" y="743.99" width="19" height="19" transform="translate(-4.6 4.28) rotate(-0.35)"/><rect x="430.46" y="431.55" width="20" height="20" transform="translate(-2.69 2.7) rotate(-0.35)"/><rect x="432.62" y="784.55" width="20" height="20" transform="translate(-4.85 2.72) rotate(-0.35)"/><rect class="5b1e590a-08e5-41aa-bd87-9e701dc2c90b" x="687.97" y="841.99" width="19" height="19" transform="translate(-5.2 4.28) rotate(-0.35)"/><rect class="c9aa9901-fdc7-4a56-9c6a-ea5593b4f115" x="471.01" y="686.31" width="20" height="19" transform="translate(-4.25 2.96) rotate(-0.35)"/><rect class="74abbe3f-1e2b-4587-882b-512f3208ebda" x="449.61" y="294.44" width="19" height="19" transform="translate(-1.85 2.82) rotate(-0.35)"/><rect x="315.1" y="863.27" width="20" height="20" transform="translate(-5.34 2.01) rotate(-0.35)"/><rect class="c9aa9901-fdc7-4a56-9c6a-ea5593b4f115" x="410.46" y="431.68" width="20" height="20" transform="translate(-2.7 2.58) rotate(-0.35)"/><rect x="430.21" y="392.55" width="20" height="19" transform="translate(-2.45 2.7) rotate(-0.35)"/><rect x="605.73" y="312.48" width="20" height="20" transform="translate(-1.96 3.77) rotate(-0.35)"/><rect x="510.49" y="764.07" width="20" height="20" transform="translate(-4.73 3.2) rotate(-0.35)"/><rect class="c9aa9901-fdc7-4a56-9c6a-ea5593b4f115" x="469.33" y="411.31" width="20" height="20" transform="translate(-2.57 2.94) rotate(-0.35)"/><rect class="c9aa9901-fdc7-4a56-9c6a-ea5593b4f115" x="586.49" y="273.6" width="19" height="20" transform="translate(-1.72 3.65) rotate(-0.35)"/><rect x="351.5" y="275.04" width="19" height="20" transform="translate(-1.74 2.21) rotate(-0.35)"/><rect x="566.37" y="253.72" width="20" height="20" transform="translate(-1.6 3.53) rotate(-0.35)"/><rect class="c9aa9901-fdc7-4a56-9c6a-ea5593b4f115" x="295.86" y="824.39" width="19" height="20" transform="translate(-5.1 1.88) rotate(-0.35)"/><rect class="c9aa9901-fdc7-4a56-9c6a-ea5593b4f115" x="471.25" y="725.31" width="20" height="20" transform="translate(-4.49 2.96) rotate(-0.35)"/><rect class="c9aa9901-fdc7-4a56-9c6a-ea5593b4f115" x="450.81" y="490.43" width="19" height="19" transform="translate(-3.05 2.83) rotate(-0.35)"/><rect x="706.37" y="743.87" width="20" height="19" transform="translate(-4.6 4.4) rotate(-0.35)"/><rect x="372.41" y="588.91" width="20" height="19" transform="translate(-3.66 2.35) rotate(-0.35)"/><rect class="c9aa9901-fdc7-4a56-9c6a-ea5593b4f115" x="646.81" y="489.23" width="19" height="19" transform="translate(-3.04 4.03) rotate(-0.35)"/><rect class="c9aa9901-fdc7-4a56-9c6a-ea5593b4f115" x="410.81" y="490.67" width="20" height="19" transform="translate(-3.05 2.58) rotate(-0.35)"/><rect x="664.01" y="195.12" width="20" height="19" transform="translate(-1.24 4.13) rotate(-0.35)"/><rect x="667.97" y="842.11" width="20" height="19" transform="translate(-5.2 4.17) rotate(-0.35)"/><rect class="dbbe0841-c5f3-4ea1-a682-cfc9e6810e91" x="507.97" y="353.08" width="20" height="19" transform="translate(-2.21 3.18) rotate(-0.35)"/><rect x="529.05" y="528.95" width="20" height="20" transform="translate(-3.29 3.31) rotate(-0.35)"/><rect x="393.86" y="823.79" width="19" height="20" transform="translate(-5.1 2.48) rotate(-0.35)"/><rect class="c9aa9901-fdc7-4a56-9c6a-ea5593b4f115" x="452.37" y="745.43" width="19" height="19" transform="translate(-4.61 2.84) rotate(-0.35)"/><rect class="c9aa9901-fdc7-4a56-9c6a-ea5593b4f115" x="411.06" y="529.67" width="20" height="20" transform="translate(-3.3 2.59) rotate(-0.35)"/><rect x="530.85" y="822.95" width="20" height="20" transform="translate(-5.09 3.33) rotate(-0.35)"/><rect class="74abbe3f-1e2b-4587-882b-512f3208ebda" x="429.97" y="353.55" width="20" height="19" transform="translate(-2.21 2.7) rotate(-0.35)"/><rect x="530.73" y="803.95" width="20" height="19" transform="translate(-4.97 3.32) rotate(-0.35)"/><rect class="c9aa9901-fdc7-4a56-9c6a-ea5593b4f115" x="431.89" y="666.55" width="20" height="20" transform="translate(-4.13 2.72) rotate(-0.35)"/><rect x="666.17" y="548.11" width="20" height="19" transform="translate(-3.4 4.15) rotate(-0.35)"/><rect class="c9aa9901-fdc7-4a56-9c6a-ea5593b4f115" x="392.41" y="588.79" width="19" height="19" transform="translate(-3.65 2.47) rotate(-0.35)"/><rect x="335.09" y="863.14" width="20" height="20" transform="translate(-5.34 2.13) rotate(-0.35)"/><rect x="648.13" y="704.23" width="19" height="20" transform="translate(-4.36 4.04) rotate(-0.35)"/><rect class="2c539ac3-61e3-4fc6-9343-f163f32054cd" x="314.62" y="785.27" width="20" height="20" transform="translate(-4.86 2) rotate(-0.35)"/><rect class="5b1e590a-08e5-41aa-bd87-9e701dc2c90b" x="706.97" y="841.87" width="20" height="19" transform="translate(-5.2 4.4) rotate(-0.35)"/><rect class="c9aa9901-fdc7-4a56-9c6a-ea5593b4f115" x="550.49" y="763.83" width="19" height="20" transform="translate(-4.73 3.44) rotate(-0.35)"/><rect x="453.09" y="862.43" width="19" height="20" transform="translate(-5.33 2.85) rotate(-0.35)"/><rect x="469.21" y="392.32" width="20" height="19" transform="translate(-2.45 2.94) rotate(-0.35)"/><rect x="567.33" y="410.71" width="20" height="20" transform="translate(-2.56 3.54) rotate(-0.35)"/><rect class="c9aa9901-fdc7-4a56-9c6a-ea5593b4f115" x="588.17" y="548.59" width="19" height="19" transform="translate(-3.4 3.67) rotate(-0.35)"/><rect class="c9aa9901-fdc7-4a56-9c6a-ea5593b4f115" x="490.29" y="568.19" width="19" height="20" transform="translate(-3.53 3.07) rotate(-0.35)"/><rect class="c9aa9901-fdc7-4a56-9c6a-ea5593b4f115" x="391.33" y="411.8" width="19" height="20" transform="translate(-2.57 2.46) rotate(-0.35)"/><rect class="2c539ac3-61e3-4fc6-9343-f163f32054cd" x="706.85" y="821.87" width="20" height="20" transform="translate(-5.08 4.4) rotate(-0.35)"/><rect class="c9aa9901-fdc7-4a56-9c6a-ea5593b4f115" x="548.45" y="430.83" width="19" height="20" transform="translate(-2.69 3.42) rotate(-0.35)"/><rect x="491.85" y="823.19" width="19" height="20" transform="translate(-5.09 3.08) rotate(-0.35)"/><rect class="c9aa9901-fdc7-4a56-9c6a-ea5593b4f115" x="607.53" y="606.47" width="20" height="20" transform="translate(-3.76 3.79) rotate(-0.35)"/><rect x="509.05" y="529.07" width="20" height="20" transform="translate(-3.29 3.19) rotate(-0.35)"/><rect x="531.09" y="861.95" width="20" height="20" transform="translate(-5.33 3.33) rotate(-0.35)"/><rect class="c9aa9901-fdc7-4a56-9c6a-ea5593b4f115" x="410.57" y="451.68" width="20" height="19" transform="translate(-2.81 2.58) rotate(-0.35)"/><rect class="9d7385b8-7109-4460-b370-0fb011bd7be3" x="547.49" y="273.84" width="19" height="20" transform="translate(-1.73 3.41) rotate(-0.35)"/><rect x="372.53" y="607.91" width="20" height="20" transform="translate(-3.77 2.35) rotate(-0.35)"/><rect class="c9aa9901-fdc7-4a56-9c6a-ea5593b4f115" x="550.01" y="685.83" width="19" height="19" transform="translate(-4.25 3.44) rotate(-0.35)"/><rect class="c9aa9901-fdc7-4a56-9c6a-ea5593b4f115" x="373.37" y="745.91" width="20" height="19" transform="translate(-4.62 2.36) rotate(-0.35)"/><rect class="c9aa9901-fdc7-4a56-9c6a-ea5593b4f115" x="412.74" y="804.67" width="20" height="19" transform="translate(-4.97 2.6) rotate(-0.35)"/><rect x="567.45" y="430.71" width="20" height="20" transform="translate(-2.69 3.54) rotate(-0.35)"/><rect class="c9aa9901-fdc7-4a56-9c6a-ea5593b4f115" x="371.33" y="411.91" width="20" height="20" transform="translate(-2.58 2.34) rotate(-0.35)"/><rect class="c9aa9901-fdc7-4a56-9c6a-ea5593b4f115" x="490.89" y="666.19" width="19" height="20" transform="translate(-4.13 3.08) rotate(-0.35)"/><rect class="c9aa9901-fdc7-4a56-9c6a-ea5593b4f115" x="471.49" y="764.31" width="20" height="20" transform="translate(-4.73 2.96) rotate(-0.35)"/><rect class="c9aa9901-fdc7-4a56-9c6a-ea5593b4f115" x="567.93" y="508.71" width="20" height="20" transform="translate(-3.16 3.55) rotate(-0.35)"/><rect x="685.69" y="468.99" width="19" height="20" transform="translate(-2.92 4.26) rotate(-0.35)"/><rect class="c9aa9901-fdc7-4a56-9c6a-ea5593b4f115" x="412.01" y="686.67" width="20" height="19" transform="translate(-4.25 2.6) rotate(-0.35)"/><rect class="141ac6eb-717c-45cc-8784-88aa55e01655" x="625.25" y="234.36" width="20" height="19" transform="translate(-1.48 3.89) rotate(-0.35)"/><rect class="007ca7e6-fff0-43e7-b783-dc5517fc5fd0" x="488.37" y="254.2" width="19" height="20" transform="translate(-1.61 3.05) rotate(-0.35)"/><rect x="334.26" y="726.15" width="20" height="20" transform="translate(-4.5 2.12) rotate(-0.35)"/><rect class="9d7385b8-7109-4460-b370-0fb011bd7be3" x="488.97" y="353.2" width="19" height="19" transform="translate(-2.21 3.06) rotate(-0.35)"/><rect class="c9aa9901-fdc7-4a56-9c6a-ea5593b4f115" x="605.25" y="234.48" width="20" height="19" transform="translate(-1.48 3.77) rotate(-0.35)"/><rect x="490.05" y="529.19" width="19" height="20" transform="translate(-3.29 3.07) rotate(-0.35)"/><rect class="c9aa9901-fdc7-4a56-9c6a-ea5593b4f115" x="334.98" y="844.15" width="20" height="19" transform="translate(-5.22 2.13) rotate(-0.35)"/><rect class="5b1e590a-08e5-41aa-bd87-9e701dc2c90b" x="726.49" y="762.75" width="20" height="20" transform="translate(-4.72 4.52) rotate(-0.35)"/><rect class="007ca7e6-fff0-43e7-b783-dc5517fc5fd0" x="569.97" y="842.71" width="20" height="19" transform="translate(-5.2 3.57) rotate(-0.35)"/><rect class="c9aa9901-fdc7-4a56-9c6a-ea5593b4f115" x="331.25" y="236.16" width="20" height="19" transform="translate(-1.5 2.09) rotate(-0.35)"/><rect x="587.33" y="410.6" width="19" height="20" transform="translate(-2.56 3.66) rotate(-0.35)"/><rect class="c9aa9901-fdc7-4a56-9c6a-ea5593b4f115" x="314.5" y="765.27" width="20" height="20" transform="translate(-4.74 2) rotate(-0.35)"/><rect x="390.5" y="274.8" width="19" height="20" transform="translate(-1.74 2.45) rotate(-0.35)"/><rect class="c9aa9901-fdc7-4a56-9c6a-ea5593b4f115" x="371.69" y="470.91" width="20" height="20" transform="translate(-2.94 2.35) rotate(-0.35)"/><rect class="141ac6eb-717c-45cc-8784-88aa55e01655" x="625.61" y="293.36" width="20" height="19" transform="translate(-1.84 3.9) rotate(-0.35)"/><rect class="c9aa9901-fdc7-4a56-9c6a-ea5593b4f115" x="567.69" y="469.71" width="20" height="20" transform="translate(-2.93 3.54) rotate(-0.35)"/><rect class="74abbe3f-1e2b-4587-882b-512f3208ebda" x="449.86" y="333.44" width="19" height="20" transform="translate(-2.09 2.82) rotate(-0.35)"/><rect class="c9aa9901-fdc7-4a56-9c6a-ea5593b4f115" x="530.01" y="685.95" width="20" height="19" transform="translate(-4.25 3.32) rotate(-0.35)"/><rect class="c9aa9901-fdc7-4a56-9c6a-ea5593b4f115" x="628.73" y="803.35" width="20" height="19" transform="translate(-4.96 3.92) rotate(-0.35)"/><rect class="c9aa9901-fdc7-4a56-9c6a-ea5593b4f115" x="430.69" y="470.55" width="20" height="20" transform="translate(-2.93 2.71) rotate(-0.35)"/><rect x="467.41" y="98.32" width="20" height="19" transform="translate(-0.65 2.92) rotate(-0.35)"/><rect class="c9aa9901-fdc7-4a56-9c6a-ea5593b4f115" x="528.57" y="450.95" width="20" height="19" transform="translate(-2.81 3.3) rotate(-0.35)"/><rect class="c9aa9901-fdc7-4a56-9c6a-ea5593b4f115" x="451.77" y="647.43" width="19" height="19" transform="translate(-4.01 2.84) rotate(-0.35)"/><rect x="370.37" y="254.92" width="20" height="20" transform="translate(-1.61 2.33) rotate(-0.35)"/><rect class="c9aa9901-fdc7-4a56-9c6a-ea5593b4f115" x="411.17" y="549.67" width="20" height="19" transform="translate(-3.41 2.59) rotate(-0.35)"/><rect class="c9aa9901-fdc7-4a56-9c6a-ea5593b4f115" x="430.81" y="490.55" width="20" height="19" transform="translate(-3.05 2.71) rotate(-0.35)"/><rect class="c9aa9901-fdc7-4a56-9c6a-ea5593b4f115" x="528.81" y="489.95" width="20" height="19" transform="translate(-3.05 3.31) rotate(-0.35)"/><rect x="547.13" y="214.84" width="19" height="20" transform="translate(-1.37 3.41) rotate(-0.35)"/><rect x="625.37" y="253.36" width="20" height="20" transform="translate(-1.6 3.89) rotate(-0.35)"/><rect class="c9aa9901-fdc7-4a56-9c6a-ea5593b4f115" x="667.13" y="704.11" width="20" height="20" transform="translate(-4.36 4.16) rotate(-0.35)"/><rect x="506.77" y="156.08" width="20" height="20" transform="translate(-1.01 3.17) rotate(-0.35)"/><rect x="608.73" y="803.47" width="20" height="19" transform="translate(-4.96 3.8) rotate(-0.35)"/><rect class="c9aa9901-fdc7-4a56-9c6a-ea5593b4f115" x="529.29" y="567.95" width="20" height="20" transform="translate(-3.53 3.31) rotate(-0.35)"/><rect x="431.41" y="588.55" width="20" height="19" transform="translate(-3.65 2.71) rotate(-0.35)"/><rect class="c9aa9901-fdc7-4a56-9c6a-ea5593b4f115" x="606.93" y="508.47" width="20" height="20" transform="translate(-3.16 3.79) rotate(-0.35)"/><rect x="470.17" y="549.31" width="20" height="19" transform="translate(-3.41 2.95) rotate(-0.35)"/><rect class="c9aa9901-fdc7-4a56-9c6a-ea5593b4f115" x="510.01" y="686.07" width="20" height="19" transform="translate(-4.25 3.2) rotate(-0.35)"/><rect class="c9aa9901-fdc7-4a56-9c6a-ea5593b4f115" x="586.37" y="253.6" width="19" height="20" transform="translate(-1.6 3.65) rotate(-0.35)"/><rect x="746.49" y="762.63" width="19" height="20" transform="translate(-4.71 4.64) rotate(-0.35)"/><rect x="665.45" y="430.11" width="20" height="20" transform="translate(-2.68 4.14) rotate(-0.35)"/><rect x="506.89" y="176.08" width="20" height="20" transform="translate(-1.13 3.17) rotate(-0.35)"/><rect class="c9aa9901-fdc7-4a56-9c6a-ea5593b4f115" x="451.53" y="607.43" width="19" height="20" transform="translate(-3.77 2.83) rotate(-0.35)"/><rect class="c9aa9901-fdc7-4a56-9c6a-ea5593b4f115" x="568.77" y="646.71" width="20" height="19" transform="translate(-4.01 3.55) rotate(-0.35)"/><rect class="c9aa9901-fdc7-4a56-9c6a-ea5593b4f115" x="586.73" y="312.6" width="19" height="20" transform="translate(-1.96 3.66) rotate(-0.35)"/><rect class="007ca7e6-fff0-43e7-b783-dc5517fc5fd0" x="467.77" y="156.32" width="20" height="20" transform="translate(-1.01 2.93) rotate(-0.35)"/><rect x="371.21" y="392.91" width="20" height="19" transform="translate(-2.46 2.34) rotate(-0.35)"/><rect class="c9aa9901-fdc7-4a56-9c6a-ea5593b4f115" x="568.29" y="567.71" width="20" height="20" transform="translate(-3.52 3.55) rotate(-0.35)"/><rect x="667.49" y="763.11" width="20" height="20" transform="translate(-4.72 4.16) rotate(-0.35)"/><rect class="5b1e590a-08e5-41aa-bd87-9e701dc2c90b" x="647.53" y="606.23" width="19" height="20" transform="translate(-3.76 4.03) rotate(-0.35)"/><rect class="5b1e590a-08e5-41aa-bd87-9e701dc2c90b" x="645.61" y="293.24" width="19" height="19" transform="translate(-1.84 4.02) rotate(-0.35)"/><rect x="489.81" y="490.19" width="19" height="19" transform="translate(-3.05 3.07) rotate(-0.35)"/><rect class="c9aa9901-fdc7-4a56-9c6a-ea5593b4f115" x="606.81" y="489.47" width="20" height="19" transform="translate(-3.04 3.78) rotate(-0.35)"/><rect x="353.89" y="667.03" width="19" height="20" transform="translate(-4.14 2.24) rotate(-0.35)"/><rect class="c9aa9901-fdc7-4a56-9c6a-ea5593b4f115" x="548.57" y="450.83" width="19" height="19" transform="translate(-2.81 3.42) rotate(-0.35)"/><rect class="c9aa9901-fdc7-4a56-9c6a-ea5593b4f115" x="372.66" y="627.91" width="20" height="20" transform="translate(-3.9 2.35) rotate(-0.35)"/><rect class="c9aa9901-fdc7-4a56-9c6a-ea5593b4f115" x="371.81" y="490.91" width="20" height="19" transform="translate(-3.06 2.35) rotate(-0.35)"/><rect class="c9aa9901-fdc7-4a56-9c6a-ea5593b4f115" x="391.46" y="431.79" width="19" height="20" transform="translate(-2.7 2.46) rotate(-0.35)"/><rect class="2c539ac3-61e3-4fc6-9343-f163f32054cd" x="314.86" y="824.27" width="20" height="20" transform="translate(-5.1 2) rotate(-0.35)"/><rect x="664.61" y="293.12" width="20" height="19" transform="translate(-1.84 4.13) rotate(-0.35)"/><rect class="c9aa9901-fdc7-4a56-9c6a-ea5593b4f115" x="471.61" y="784.31" width="20" height="20" transform="translate(-4.85 2.96) rotate(-0.35)"/><rect x="707.09" y="860.87" width="20" height="20" transform="translate(-5.32 4.41) rotate(-0.35)"/><rect x="727.09" y="860.75" width="20" height="20" transform="translate(-5.32 4.53) rotate(-0.35)"/><rect x="311.5" y="275.28" width="20" height="20" transform="translate(-1.74 1.97) rotate(-0.35)"/><rect class="c9aa9901-fdc7-4a56-9c6a-ea5593b4f115" x="528.33" y="410.95" width="20" height="20" transform="translate(-2.57 3.3) rotate(-0.35)"/><rect class="c9aa9901-fdc7-4a56-9c6a-ea5593b4f115" x="431.05" y="529.55" width="20" height="20" transform="translate(-3.29 2.71) rotate(-0.35)"/><rect x="549.05" y="528.83" width="19" height="20" transform="translate(-3.29 3.43) rotate(-0.35)"/><rect class="f4a85afe-14ae-43a1-aa7f-b3f1bd370740" x="606.09" y="371.48" width="20" height="20" transform="translate(-2.32 3.78) rotate(-0.35)"/><rect class="c9aa9901-fdc7-4a56-9c6a-ea5593b4f115" x="471.37" y="745.31" width="20" height="19" transform="translate(-4.61 2.96) rotate(-0.35)"/><rect x="352.93" y="510.03" width="19" height="20" transform="translate(-3.18 2.23) rotate(-0.35)"/><rect x="490.53" y="607.19" width="19" height="20" transform="translate(-3.77 3.07) rotate(-0.35)"/><rect class="c9aa9901-fdc7-4a56-9c6a-ea5593b4f115" x="528.09" y="371.95" width="20" height="20" transform="translate(-2.33 3.3) rotate(-0.35)"/><rect class="5b1e590a-08e5-41aa-bd87-9e701dc2c90b" x="726.97" y="841.75" width="20" height="19" transform="translate(-5.2 4.53) rotate(-0.35)"/><rect class="007ca7e6-fff0-43e7-b783-dc5517fc5fd0" x="429.01" y="196.56" width="20" height="19" transform="translate(-1.25 2.69) rotate(-0.35)"/><rect class="c9aa9901-fdc7-4a56-9c6a-ea5593b4f115" x="589.73" y="803.59" width="19" height="19" transform="translate(-4.97 3.68) rotate(-0.35)"/><rect class="5b1e590a-08e5-41aa-bd87-9e701dc2c90b" x="665.81" y="489.11" width="20" height="19" transform="translate(-3.04 4.15) rotate(-0.35)"/><rect x="450.09" y="372.43" width="19" height="20" transform="translate(-2.33 2.82) rotate(-0.35)"/><rect x="608.61" y="783.47" width="20" height="20" transform="translate(-4.84 3.8) rotate(-0.35)"/><rect class="c9aa9901-fdc7-4a56-9c6a-ea5593b4f115" x="411.66" y="627.67" width="20" height="20" transform="translate(-3.89 2.59) rotate(-0.35)"/><rect class="c9aa9901-fdc7-4a56-9c6a-ea5593b4f115" x="628.25" y="724.35" width="20" height="20" transform="translate(-4.48 3.92) rotate(-0.35)"/><rect class="c9aa9901-fdc7-4a56-9c6a-ea5593b4f115" x="470.65" y="627.31" width="20" height="20" transform="translate(-3.89 2.95) rotate(-0.35)"/><rect x="311.74" y="314.28" width="20" height="20" transform="translate(-1.98 1.98) rotate(-0.35)"/><rect class="007ca7e6-fff0-43e7-b783-dc5517fc5fd0" x="488.13" y="215.2" width="19" height="20" transform="translate(-1.37 3.05) rotate(-0.35)"/><rect x="648.73" y="803.23" width="19" height="19" transform="translate(-4.96 4.04) rotate(-0.35)"/><rect x="666.53" y="606.11" width="20" height="20" transform="translate(-3.76 4.15) rotate(-0.35)"/><rect class="c9aa9901-fdc7-4a56-9c6a-ea5593b4f115" x="508.69" y="470.07" width="20" height="20" transform="translate(-2.93 3.18) rotate(-0.35)"/><rect class="2c539ac3-61e3-4fc6-9343-f163f32054cd" x="354.74" y="805.03" width="19" height="19" transform="translate(-4.98 2.24) rotate(-0.35)"/><rect class="c9aa9901-fdc7-4a56-9c6a-ea5593b4f115" x="605.49" y="273.48" width="20" height="20" transform="translate(-1.72 3.77) rotate(-0.35)"/><rect x="372.06" y="529.91" width="20" height="20" transform="translate(-3.3 2.35) rotate(-0.35)"/><rect class="c9aa9901-fdc7-4a56-9c6a-ea5593b4f115" x="371.93" y="509.91" width="20" height="20" transform="translate(-3.17 2.35) rotate(-0.35)"/><rect class="5b1e590a-08e5-41aa-bd87-9e701dc2c90b" x="665.93" y="508.11" width="20" height="20" transform="translate(-3.16 4.15) rotate(-0.35)"/><rect x="352.46" y="432.03" width="19" height="20" transform="translate(-2.7 2.22) rotate(-0.35)"/><rect x="450.33" y="411.43" width="19" height="20" transform="translate(-2.57 2.82) rotate(-0.35)"/><rect x="566.49" y="273.72" width="20" height="20" transform="translate(-1.73 3.53) rotate(-0.35)"/><rect class="141ac6eb-717c-45cc-8784-88aa55e01655" x="627.17" y="548.35" width="20" height="19" transform="translate(-3.4 3.91) rotate(-0.35)"/><rect class="c9aa9901-fdc7-4a56-9c6a-ea5593b4f115" x="508.33" y="411.08" width="20" height="20" transform="translate(-2.57 3.18) rotate(-0.35)"/><rect x="547.85" y="332.84" width="19" height="20" transform="translate(-2.09 3.42) rotate(-0.35)"/><rect class="c9aa9901-fdc7-4a56-9c6a-ea5593b4f115" x="628.01" y="685.35" width="20" height="19" transform="translate(-4.24 3.92) rotate(-0.35)"/><rect class="c9aa9901-fdc7-4a56-9c6a-ea5593b4f115" x="529.89" y="665.95" width="20" height="20" transform="translate(-4.13 3.32) rotate(-0.35)"/><rect class="74abbe3f-1e2b-4587-882b-512f3208ebda" x="468.61" y="294.32" width="20" height="19" transform="translate(-1.85 2.93) rotate(-0.35)"/><rect class="09ccf913-16b9-42ed-8bd9-509026202905" x="527.37" y="253.96" width="20" height="20" transform="translate(-1.61 3.29) rotate(-0.35)"/><rect class="c9aa9901-fdc7-4a56-9c6a-ea5593b4f115" x="451.89" y="666.43" width="19" height="20" transform="translate(-4.13 2.84) rotate(-0.35)"/><rect class="c9aa9901-fdc7-4a56-9c6a-ea5593b4f115" x="393.37" y="745.79" width="19" height="19" transform="translate(-4.61 2.48) rotate(-0.35)"/><rect class="c9aa9901-fdc7-4a56-9c6a-ea5593b4f115" x="489.93" y="509.19" width="19" height="20" transform="translate(-3.17 3.07) rotate(-0.35)"/><rect class="c9aa9901-fdc7-4a56-9c6a-ea5593b4f115" x="646.93" y="508.23" width="19" height="20" transform="translate(-3.16 4.03) rotate(-0.35)"/><rect class="007ca7e6-fff0-43e7-b783-dc5517fc5fd0" x="429.25" y="235.56" width="20" height="19" transform="translate(-1.49 2.69) rotate(-0.35)"/><rect class="c9aa9901-fdc7-4a56-9c6a-ea5593b4f115" x="354.26" y="726.03" width="19" height="20" transform="translate(-4.5 2.24) rotate(-0.35)"/><rect class="c9aa9901-fdc7-4a56-9c6a-ea5593b4f115" x="667.73" y="803.11" width="20" height="19" transform="translate(-4.96 4.16) rotate(-0.35)"/><rect x="549.53" y="606.83" width="19" height="20" transform="translate(-3.76 3.43) rotate(-0.35)"/><rect class="c9aa9901-fdc7-4a56-9c6a-ea5593b4f115" x="490.77" y="647.19" width="19" height="19" transform="translate(-4.01 3.07) rotate(-0.35)"/><rect x="726.37" y="743.75" width="20" height="19" transform="translate(-4.6 4.52) rotate(-0.35)"/><rect x="685.93" y="507.99" width="19" height="20" transform="translate(-3.16 4.27) rotate(-0.35)"/><rect class="c9aa9901-fdc7-4a56-9c6a-ea5593b4f115" x="410.69" y="470.67" width="20" height="20" transform="translate(-2.93 2.58) rotate(-0.35)"/><rect x="686.89" y="664.99" width="19" height="20" transform="translate(-4.12 4.27) rotate(-0.35)"/><rect class="c9aa9901-fdc7-4a56-9c6a-ea5593b4f115" x="667.25" y="724.11" width="20" height="20" transform="translate(-4.48 4.16) rotate(-0.35)"/><rect x="664.49" y="273.12" width="20" height="20" transform="translate(-1.72 4.13) rotate(-0.35)"/><rect x="686.77" y="645.99" width="19" height="19" transform="translate(-4 4.27) rotate(-0.35)"/><rect class="c9aa9901-fdc7-4a56-9c6a-ea5593b4f115" x="295.62" y="785.39" width="19" height="20" transform="translate(-4.86 1.88) rotate(-0.35)"/><rect x="352.81" y="491.03" width="19" height="19" transform="translate(-3.06 2.23) rotate(-0.35)"/><rect class="c9aa9901-fdc7-4a56-9c6a-ea5593b4f115" x="490.17" y="549.19" width="19" height="19" transform="translate(-3.41 3.07) rotate(-0.35)"/><rect class="c9aa9901-fdc7-4a56-9c6a-ea5593b4f115" x="452.25" y="725.43" width="19" height="20" transform="translate(-4.49 2.84) rotate(-0.35)"/><rect class="5b1e590a-08e5-41aa-bd87-9e701dc2c90b" x="647.41" y="587.23" width="19" height="19" transform="translate(-3.64 4.03) rotate(-0.35)"/><rect x="688.09" y="860.99" width="19" height="20" transform="translate(-5.32 4.29) rotate(-0.35)"/><rect class="c9aa9901-fdc7-4a56-9c6a-ea5593b4f115" x="392.77" y="647.79" width="19" height="19" transform="translate(-4.02 2.47) rotate(-0.35)"/><rect x="607.41" y="587.47" width="20" height="19" transform="translate(-3.64 3.79) rotate(-0.35)"/><rect class="c9aa9901-fdc7-4a56-9c6a-ea5593b4f115" x="566.85" y="332.72" width="20" height="20" transform="translate(-2.09 3.54) rotate(-0.35)"/><rect class="09ccf913-16b9-42ed-8bd9-509026202905" x="487.77" y="156.2" width="19" height="20" transform="translate(-1.01 3.05) rotate(-0.35)"/><rect x="570.09" y="861.71" width="20" height="20" transform="translate(-5.32 3.57) rotate(-0.35)"/><rect x="625.49" y="273.36" width="20" height="20" transform="translate(-1.72 3.89) rotate(-0.35)"/><rect class="5b1e590a-08e5-41aa-bd87-9e701dc2c90b" x="666.89" y="665.11" width="20" height="20" transform="translate(-4.12 4.16) rotate(-0.35)"/><rect class="2c539ac3-61e3-4fc6-9343-f163f32054cd" x="527.61" y="293.96" width="20" height="19" transform="translate(-1.85 3.3) rotate(-0.35)"/><rect x="392.29" y="568.79" width="19" height="20" transform="translate(-3.53 2.47) rotate(-0.35)"/><rect class="c9aa9901-fdc7-4a56-9c6a-ea5593b4f115" x="432.01" y="686.55" width="20" height="19" transform="translate(-4.25 2.72) rotate(-0.35)"/><rect class="c9aa9901-fdc7-4a56-9c6a-ea5593b4f115" x="587.57" y="450.59" width="19" height="19" transform="translate(-2.8 3.66) rotate(-0.35)"/><rect x="765.85" y="821.51" width="20" height="20" transform="translate(-5.07 4.76) rotate(-0.35)"/><rect x="471.85" y="823.31" width="20" height="20" transform="translate(-5.09 2.96) rotate(-0.35)"/><rect class="007ca7e6-fff0-43e7-b783-dc5517fc5fd0" x="449.01" y="196.44" width="19" height="19" transform="translate(-1.25 2.81) rotate(-0.35)"/><rect x="510.85" y="823.07" width="20" height="20" transform="translate(-5.09 3.2) rotate(-0.35)"/><rect class="c9aa9901-fdc7-4a56-9c6a-ea5593b4f115" x="491.49" y="764.19" width="19" height="20" transform="translate(-4.73 3.08) rotate(-0.35)"/><rect class="c9aa9901-fdc7-4a56-9c6a-ea5593b4f115" x="608.13" y="704.47" width="20" height="20" transform="translate(-4.36 3.8) rotate(-0.35)"/><rect class="c9aa9901-fdc7-4a56-9c6a-ea5593b4f115" x="549.65" y="626.83" width="19" height="20" transform="translate(-3.89 3.43) rotate(-0.35)"/><rect class="c9aa9901-fdc7-4a56-9c6a-ea5593b4f115" x="607.05" y="528.47" width="20" height="20" transform="translate(-3.28 3.79) rotate(-0.35)"/><rect class="c9aa9901-fdc7-4a56-9c6a-ea5593b4f115" x="589.49" y="763.59" width="19" height="20" transform="translate(-4.72 3.68) rotate(-0.35)"/><rect x="566.73" y="312.72" width="20" height="20" transform="translate(-1.96 3.54) rotate(-0.35)"/><rect x="604.89" y="175.48" width="20" height="20" transform="translate(-1.12 3.77) rotate(-0.35)"/><rect class="c9aa9901-fdc7-4a56-9c6a-ea5593b4f115" x="548.69" y="469.83" width="19" height="20" transform="translate(-2.93 3.43) rotate(-0.35)"/><rect class="c9aa9901-fdc7-4a56-9c6a-ea5593b4f115" x="491.13" y="705.19" width="19" height="20" transform="translate(-4.37 3.08) rotate(-0.35)"/><rect x="372.18" y="549.91" width="20" height="19" transform="translate(-3.42 2.35) rotate(-0.35)"/><rect class="c9aa9901-fdc7-4a56-9c6a-ea5593b4f115" x="628.13" y="704.35" width="20" height="20" transform="translate(-4.36 3.92) rotate(-0.35)"/><rect class="5b1e590a-08e5-41aa-bd87-9e701dc2c90b" x="687.49" y="762.99" width="19" height="20" transform="translate(-4.72 4.28) rotate(-0.35)"/><rect x="450.45" y="431.43" width="19" height="20" transform="translate(-2.69 2.82) rotate(-0.35)"/><rect class="c9aa9901-fdc7-4a56-9c6a-ea5593b4f115" x="588.89" y="665.59" width="19" height="20" transform="translate(-4.12 3.67) rotate(-0.35)"/><rect class="c9aa9901-fdc7-4a56-9c6a-ea5593b4f115" x="607.77" y="646.47" width="20" height="19" transform="translate(-4 3.79) rotate(-0.35)"/><rect x="530.25" y="724.95" width="20" height="20" transform="translate(-4.49 3.32) rotate(-0.35)"/><rect class="141ac6eb-717c-45cc-8784-88aa55e01655" x="605.85" y="332.48" width="20" height="20" transform="translate(-2.08 3.78) rotate(-0.35)"/><rect class="2c539ac3-61e3-4fc6-9343-f163f32054cd" x="468.85" y="333.32" width="20" height="20" transform="translate(-2.09 2.94) rotate(-0.35)"/><rect x="510.97" y="843.07" width="20" height="19" transform="translate(-5.21 3.2) rotate(-0.35)"/><rect x="666.41" y="587.11" width="20" height="19" transform="translate(-3.64 4.15) rotate(-0.35)"/><rect class="c9aa9901-fdc7-4a56-9c6a-ea5593b4f115" x="372.89" y="666.91" width="20" height="20" transform="translate(-4.14 2.36) rotate(-0.35)"/><rect class="c9aa9901-fdc7-4a56-9c6a-ea5593b4f115" x="470.41" y="588.31" width="20" height="19" transform="translate(-3.65 2.95) rotate(-0.35)"/><rect class="007ca7e6-fff0-43e7-b783-dc5517fc5fd0" x="488.01" y="196.2" width="19" height="19" transform="translate(-1.25 3.05) rotate(-0.35)"/><rect class="c9aa9901-fdc7-4a56-9c6a-ea5593b4f115" x="608.49" y="763.47" width="20" height="20" transform="translate(-4.72 3.8) rotate(-0.35)"/><rect x="511.09" y="862.07" width="20" height="20" transform="translate(-5.33 3.21) rotate(-0.35)"/><rect class="c9aa9901-fdc7-4a56-9c6a-ea5593b4f115" x="392.66" y="627.79" width="19" height="20" transform="translate(-3.9 2.47) rotate(-0.35)"/><rect class="5b1e590a-08e5-41aa-bd87-9e701dc2c90b" x="647.05" y="528.23" width="19" height="20" transform="translate(-3.28 4.03) rotate(-0.35)"/><rect class="c9aa9901-fdc7-4a56-9c6a-ea5593b4f115" x="370.5" y="274.92" width="20" height="20" transform="translate(-1.74 2.33) rotate(-0.35)"/><rect class="c9aa9901-fdc7-4a56-9c6a-ea5593b4f115" x="470.05" y="529.31" width="20" height="20" transform="translate(-3.29 2.95) rotate(-0.35)"/><rect x="510.73" y="804.07" width="20" height="19" transform="translate(-4.97 3.2) rotate(-0.35)"/><rect class="c9aa9901-fdc7-4a56-9c6a-ea5593b4f115" x="588.05" y="528.59" width="19" height="20" transform="translate(-3.29 3.67) rotate(-0.35)"/><rect x="409.25" y="235.68" width="20" height="19" transform="translate(-1.49 2.57) rotate(-0.35)"/><rect class="c9aa9901-fdc7-4a56-9c6a-ea5593b4f115" x="392.18" y="549.79" width="19" height="19" transform="translate(-3.42 2.47) rotate(-0.35)"/><rect class="c9aa9901-fdc7-4a56-9c6a-ea5593b4f115" x="470.89" y="666.31" width="20" height="20" transform="translate(-4.13 2.96) rotate(-0.35)"/><rect x="551.09" y="861.83" width="19" height="20" transform="translate(-5.33 3.45) rotate(-0.35)"/><rect class="77883f92-907a-4899-a3e5-199d9eb7a752" x="430.33" y="411.55" width="20" height="20" transform="translate(-2.57 2.7) rotate(-0.35)"/><rect class="007ca7e6-fff0-43e7-b783-dc5517fc5fd0" x="468.01" y="196.32" width="20" height="19" transform="translate(-1.25 2.93) rotate(-0.35)"/><rect x="510.61" y="784.07" width="20" height="20" transform="translate(-4.85 3.2) rotate(-0.35)"/><rect class="c9aa9901-fdc7-4a56-9c6a-ea5593b4f115" x="469.93" y="509.31" width="20" height="20" transform="translate(-3.17 2.95) rotate(-0.35)"/><rect class="c9aa9901-fdc7-4a56-9c6a-ea5593b4f115" x="528.69" y="469.95" width="20" height="20" transform="translate(-2.93 3.31) rotate(-0.35)"/><rect class="c9aa9901-fdc7-4a56-9c6a-ea5593b4f115" x="295.74" y="805.39" width="19" height="19" transform="translate(-4.98 1.88) rotate(-0.35)"/><rect class="007ca7e6-fff0-43e7-b783-dc5517fc5fd0" x="491.97" y="843.19" width="19" height="19" transform="translate(-5.21 3.09) rotate(-0.35)"/><rect class="c9aa9901-fdc7-4a56-9c6a-ea5593b4f115" x="568.89" y="665.71" width="20" height="20" transform="translate(-4.12 3.56) rotate(-0.35)"/><rect class="c9aa9901-fdc7-4a56-9c6a-ea5593b4f115" x="431.53" y="607.55" width="20" height="20" transform="translate(-3.77 2.71) rotate(-0.35)"/><rect x="492.09" y="862.19" width="19" height="20" transform="translate(-5.33 3.09) rotate(-0.35)"/><rect x="470.53" y="607.31" width="20" height="20" transform="translate(-3.77 2.95) rotate(-0.35)"/><rect class="c9aa9901-fdc7-4a56-9c6a-ea5593b4f115" x="568.65" y="626.71" width="20" height="20" transform="translate(-3.89 3.55) rotate(-0.35)"/><rect class="007ca7e6-fff0-43e7-b783-dc5517fc5fd0" x="589.97" y="842.59" width="19" height="19" transform="translate(-5.2 3.68) rotate(-0.35)"/><rect class="5b1e590a-08e5-41aa-bd87-9e701dc2c90b" x="687.25" y="723.99" width="19" height="20" transform="translate(-4.48 4.28) rotate(-0.35)"/><rect class="c9aa9901-fdc7-4a56-9c6a-ea5593b4f115" x="667.61" y="783.11" width="20" height="20" transform="translate(-4.84 4.16) rotate(-0.35)"/><rect x="628.85" y="822.35" width="20" height="20" transform="translate(-5.08 3.93) rotate(-0.35)"/><rect x="529.53" y="606.95" width="20" height="20" transform="translate(-3.77 3.31) rotate(-0.35)"/><rect x="647.29" y="567.23" width="19" height="20" transform="translate(-3.52 4.03) rotate(-0.35)"/><rect x="666.05" y="528.11" width="20" height="20" transform="translate(-3.28 4.15) rotate(-0.35)"/><rect class="2c539ac3-61e3-4fc6-9343-f163f32054cd" x="706.73" y="802.87" width="20" height="19" transform="translate(-4.96 4.4) rotate(-0.35)"/><rect x="587.09" y="371.6" width="19" height="20" transform="translate(-2.32 3.66) rotate(-0.35)"/><rect class="c9aa9901-fdc7-4a56-9c6a-ea5593b4f115" x="410.21" y="392.68" width="20" height="19" transform="translate(-2.45 2.58) rotate(-0.35)"/><rect x="432.97" y="843.55" width="20" height="19" transform="translate(-5.21 2.73) rotate(-0.35)"/><rect class="007ca7e6-fff0-43e7-b783-dc5517fc5fd0" x="471.97" y="843.31" width="20" height="19" transform="translate(-5.21 2.97) rotate(-0.35)"/><rect class="f4a85afe-14ae-43a1-aa7f-b3f1bd370740" x="627.77" y="646.35" width="20" height="19" transform="translate(-4 3.92) rotate(-0.35)"/><rect class="c9aa9901-fdc7-4a56-9c6a-ea5593b4f115" x="589.37" y="744.59" width="19" height="19" transform="translate(-4.6 3.68) rotate(-0.35)"/><rect class="2c539ac3-61e3-4fc6-9343-f163f32054cd" x="488.73" y="313.2" width="19" height="20" transform="translate(-1.97 3.06) rotate(-0.35)"/><rect class="007ca7e6-fff0-43e7-b783-dc5517fc5fd0" x="449.37" y="254.44" width="19" height="20" transform="translate(-1.61 2.81) rotate(-0.35)"/><rect x="412.85" y="823.67" width="20" height="20" transform="translate(-5.09 2.6) rotate(-0.35)"/><rect x="665.33" y="410.12" width="20" height="20" transform="translate(-2.56 4.14) rotate(-0.35)"/><rect class="09ccf913-16b9-42ed-8bd9-509026202905" x="487.89" y="176.2" width="19" height="20" transform="translate(-1.13 3.05) rotate(-0.35)"/><rect class="c9aa9901-fdc7-4a56-9c6a-ea5593b4f115" x="392.06" y="529.79" width="19" height="20" transform="translate(-3.3 2.47) rotate(-0.35)"/><rect class="c9aa9901-fdc7-4a56-9c6a-ea5593b4f115" x="391.93" y="509.79" width="19" height="20" transform="translate(-3.17 2.47) rotate(-0.35)"/><rect class="74abbe3f-1e2b-4587-882b-512f3208ebda" x="390.98" y="353.8" width="19" height="19" transform="translate(-2.22 2.46) rotate(-0.35)"/><rect class="2c539ac3-61e3-4fc6-9343-f163f32054cd" x="334.86" y="824.15" width="20" height="20" transform="translate(-5.1 2.13) rotate(-0.35)"/><rect class="c9aa9901-fdc7-4a56-9c6a-ea5593b4f115" x="648.49" y="763.23" width="19" height="20" transform="translate(-4.72 4.04) rotate(-0.35)"/><rect class="c9aa9901-fdc7-4a56-9c6a-ea5593b4f115" x="392.89" y="666.79" width="19" height="20" transform="translate(-4.13 2.48) rotate(-0.35)"/><rect x="530.49" y="763.95" width="20" height="20" transform="translate(-4.73 3.32) rotate(-0.35)"/><rect class="c9aa9901-fdc7-4a56-9c6a-ea5593b4f115" x="626.93" y="508.35" width="20" height="20" transform="translate(-3.16 3.91) rotate(-0.35)"/><rect class="c9aa9901-fdc7-4a56-9c6a-ea5593b4f115" x="450.69" y="470.43" width="19" height="20" transform="translate(-2.93 2.83) rotate(-0.35)"/><rect class="c9aa9901-fdc7-4a56-9c6a-ea5593b4f115" x="412.25" y="725.67" width="20" height="20" transform="translate(-4.49 2.6) rotate(-0.35)"/><rect class="c9aa9901-fdc7-4a56-9c6a-ea5593b4f115" x="371.58" y="451.91" width="20" height="19" transform="translate(-2.82 2.34) rotate(-0.35)"/><rect x="648.85" y="822.23" width="19" height="20" transform="translate(-5.08 4.04) rotate(-0.35)"/><rect class="c9aa9901-fdc7-4a56-9c6a-ea5593b4f115" x="569.13" y="704.71" width="20" height="20" transform="translate(-4.36 3.56) rotate(-0.35)"/><rect class="09ccf913-16b9-42ed-8bd9-509026202905" x="487.65" y="137.2" width="19" height="19" transform="translate(-0.89 3.05) rotate(-0.35)"/><rect x="409.37" y="254.68" width="20" height="20" transform="translate(-1.61 2.57) rotate(-0.35)"/><rect class="007ca7e6-fff0-43e7-b783-dc5517fc5fd0" x="468.25" y="235.32" width="20" height="19" transform="translate(-1.49 2.93) rotate(-0.35)"/><rect class="141ac6eb-717c-45cc-8784-88aa55e01655" x="626.09" y="371.35" width="20" height="20" transform="translate(-2.32 3.9) rotate(-0.35)"/><rect class="c9aa9901-fdc7-4a56-9c6a-ea5593b4f115" x="569.49" y="763.71" width="20" height="20" transform="translate(-4.72 3.56) rotate(-0.35)"/><rect x="393.13" y="705.79" width="19" height="20" transform="translate(-4.37 2.48) rotate(-0.35)"/><rect x="530.97" y="842.95" width="20" height="19" transform="translate(-5.21 3.33) rotate(-0.35)"/><rect x="706.01" y="684.87" width="20" height="19" transform="translate(-4.24 4.4) rotate(-0.35)"/><rect class="f4a85afe-14ae-43a1-aa7f-b3f1bd370740" x="607.17" y="548.47" width="20" height="19" transform="translate(-3.4 3.79) rotate(-0.35)"/><rect class="c9aa9901-fdc7-4a56-9c6a-ea5593b4f115" x="391.69" y="470.79" width="19" height="20" transform="translate(-2.94 2.46) rotate(-0.35)"/><rect x="588.41" y="587.59" width="19" height="19" transform="translate(-3.64 3.67) rotate(-0.35)"/><rect class="74abbe3f-1e2b-4587-882b-512f3208ebda" x="468.73" y="313.32" width="20" height="20" transform="translate(-1.97 2.94) rotate(-0.35)"/><rect class="c9aa9901-fdc7-4a56-9c6a-ea5593b4f115" x="411.41" y="588.67" width="20" height="19" transform="translate(-3.65 2.59) rotate(-0.35)"/><rect x="625.73" y="312.36" width="20" height="20" transform="translate(-1.96 3.9) rotate(-0.35)"/><rect class="007ca7e6-fff0-43e7-b783-dc5517fc5fd0" x="468.13" y="215.32" width="20" height="20" transform="translate(-1.37 2.93) rotate(-0.35)"/><rect class="141ac6eb-717c-45cc-8784-88aa55e01655" x="605.97" y="352.48" width="20" height="19" transform="translate(-2.2 3.78) rotate(-0.35)"/><rect class="c9aa9901-fdc7-4a56-9c6a-ea5593b4f115" x="607.65" y="626.47" width="20" height="20" transform="translate(-3.88 3.79) rotate(-0.35)"/><rect class="74abbe3f-1e2b-4587-882b-512f3208ebda" x="391.09" y="372.8" width="19" height="20" transform="translate(-2.34 2.46) rotate(-0.35)"/><rect x="765.73" y="802.51" width="20" height="19" transform="translate(-4.96 4.76) rotate(-0.35)"/><rect class="5b1e590a-08e5-41aa-bd87-9e701dc2c90b" x="706.49" y="762.87" width="20" height="20" transform="translate(-4.72 4.4) rotate(-0.35)"/><rect class="c9aa9901-fdc7-4a56-9c6a-ea5593b4f115" x="331.62" y="295.16" width="20" height="19" transform="translate(-1.86 2.1) rotate(-0.35)"/><rect x="410.09" y="372.68" width="20" height="20" transform="translate(-2.33 2.58) rotate(-0.35)"/><rect x="605.01" y="195.48" width="20" height="19" transform="translate(-1.24 3.77) rotate(-0.35)"/><rect x="352.21" y="393.03" width="19" height="19" transform="translate(-2.46 2.22) rotate(-0.35)"/><rect x="548.81" y="489.83" width="19" height="19" transform="translate(-3.05 3.43) rotate(-0.35)"/><rect x="391.21" y="392.8" width="19" height="19" transform="translate(-2.45 2.46) rotate(-0.35)"/><rect class="2c539ac3-61e3-4fc6-9343-f163f32054cd" x="314.74" y="805.27" width="20" height="19" transform="translate(-4.98 2) rotate(-0.35)"/><rect x="506.65" y="137.08" width="20" height="19" transform="translate(-0.89 3.16) rotate(-0.35)"/><rect x="354.38" y="746.03" width="19" height="19" transform="translate(-4.62 2.24) rotate(-0.35)"/><rect x="311.86" y="334.28" width="20" height="20" transform="translate(-2.1 1.98) rotate(-0.35)"/><rect class="c9aa9901-fdc7-4a56-9c6a-ea5593b4f115" x="452.49" y="764.43" width="19" height="20" transform="translate(-4.73 2.84) rotate(-0.35)"/><rect class="c9aa9901-fdc7-4a56-9c6a-ea5593b4f115" x="491.61" y="784.19" width="19" height="20" transform="translate(-4.85 3.08) rotate(-0.35)"/><rect class="c9aa9901-fdc7-4a56-9c6a-ea5593b4f115" x="314.98" y="844.27" width="20" height="19" transform="translate(-5.22 2) rotate(-0.35)"/><rect class="c9aa9901-fdc7-4a56-9c6a-ea5593b4f115" x="529.77" y="646.95" width="20" height="19" transform="translate(-4.01 3.32) rotate(-0.35)"/><rect class="c9aa9901-fdc7-4a56-9c6a-ea5593b4f115" x="431.65" y="627.55" width="20" height="20" transform="translate(-3.89 2.71) rotate(-0.35)"/><rect class="c9aa9901-fdc7-4a56-9c6a-ea5593b4f115" x="550.73" y="803.83" width="19" height="19" transform="translate(-4.97 3.44) rotate(-0.35)"/><rect x="352.58" y="452.03" width="19" height="19" transform="translate(-2.82 2.22) rotate(-0.35)"/><rect x="530.37" y="744.95" width="20" height="19" transform="translate(-4.61 3.32) rotate(-0.35)"/><rect class="5b1e590a-08e5-41aa-bd87-9e701dc2c90b" x="666.77" y="646.11" width="20" height="19" transform="translate(-4 4.15) rotate(-0.35)"/><rect x="664.37" y="253.12" width="20" height="20" transform="translate(-1.6 4.13) rotate(-0.35)"/><rect x="332.22" y="393.15" width="20" height="19" transform="translate(-2.46 2.1) rotate(-0.35)"/><rect x="664.25" y="234.12" width="20" height="19" transform="translate(-1.48 4.13) rotate(-0.35)"/><rect class="74abbe3f-1e2b-4587-882b-512f3208ebda" x="429.86" y="333.55" width="20" height="20" transform="translate(-2.09 2.7) rotate(-0.35)"/><rect class="f4a85afe-14ae-43a1-aa7f-b3f1bd370740" x="607.29" y="567.47" width="20" height="20" transform="translate(-3.52 3.79) rotate(-0.35)"/><rect x="547.25" y="234.84" width="19" height="19" transform="translate(-1.48 3.41) rotate(-0.35)"/><rect class="c9aa9901-fdc7-4a56-9c6a-ea5593b4f115" x="528.21" y="391.95" width="20" height="19" transform="translate(-2.45 3.3) rotate(-0.35)"/><rect x="450.21" y="392.43" width="19" height="19" transform="translate(-2.45 2.82) rotate(-0.35)"/><rect class="c9aa9901-fdc7-4a56-9c6a-ea5593b4f115" x="373.74" y="804.91" width="20" height="19" transform="translate(-4.98 2.36) rotate(-0.35)"/><rect class="c9aa9901-fdc7-4a56-9c6a-ea5593b4f115" x="509.17" y="549.07" width="20" height="19" transform="translate(-3.41 3.19) rotate(-0.35)"/><rect class="c9aa9901-fdc7-4a56-9c6a-ea5593b4f115" x="470.77" y="647.31" width="20" height="19" transform="translate(-4.01 2.95) rotate(-0.35)"/><rect x="390.61" y="294.8" width="19" height="19" transform="translate(-1.85 2.45) rotate(-0.35)"/><rect class="c9aa9901-fdc7-4a56-9c6a-ea5593b4f115" x="331.73" y="314.16" width="20" height="20" transform="translate(-1.98 2.1) rotate(-0.35)"/><rect class="c9aa9901-fdc7-4a56-9c6a-ea5593b4f115" x="451.65" y="627.43" width="19" height="20" transform="translate(-3.89 2.83) rotate(-0.35)"/><rect class="f4a85afe-14ae-43a1-aa7f-b3f1bd370740" x="626.33" y="410.35" width="20" height="20" transform="translate(-2.56 3.9) rotate(-0.35)"/><rect x="666.65" y="626.11" width="20" height="20" transform="translate(-3.88 4.15) rotate(-0.35)"/><rect class="2c539ac3-61e3-4fc6-9343-f163f32054cd" x="507.73" y="313.08" width="20" height="20" transform="translate(-1.97 3.17) rotate(-0.35)"/><rect class="c9aa9901-fdc7-4a56-9c6a-ea5593b4f115" x="469.69" y="470.31" width="20" height="20" transform="translate(-2.93 2.94) rotate(-0.35)"/><rect x="685.57" y="450" width="19" height="19" transform="translate(-2.8 4.26) rotate(-0.35)"/><rect class="c9aa9901-fdc7-4a56-9c6a-ea5593b4f115" x="589.01" y="685.59" width="19" height="19" transform="translate(-4.24 3.68) rotate(-0.35)"/><rect class="c9aa9901-fdc7-4a56-9c6a-ea5593b4f115" x="528.45" y="430.95" width="20" height="20" transform="translate(-2.69 3.3) rotate(-0.35)"/><rect class="c9aa9901-fdc7-4a56-9c6a-ea5593b4f115" x="451.17" y="549.43" width="19" height="19" transform="translate(-3.41 2.83) rotate(-0.35)"/><rect x="428.65" y="137.56" width="20" height="19" transform="translate(-0.89 2.69) rotate(-0.35)"/><rect class="c9aa9901-fdc7-4a56-9c6a-ea5593b4f115" x="471.73" y="804.31" width="20" height="19" transform="translate(-4.97 2.96) rotate(-0.35)"/><rect x="412.49" y="764.67" width="20" height="20" transform="translate(-4.73 2.6) rotate(-0.35)"/><rect class="c9aa9901-fdc7-4a56-9c6a-ea5593b4f115" x="351.73" y="314.04" width="19" height="20" transform="translate(-1.98 2.22) rotate(-0.35)"/><rect class="2c539ac3-61e3-4fc6-9343-f163f32054cd" x="507.61" y="294.08" width="20" height="19" transform="translate(-1.85 3.17) rotate(-0.35)"/><rect x="351.86" y="334.04" width="19" height="20" transform="translate(-2.1 2.22) rotate(-0.35)"/><rect class="c9aa9901-fdc7-4a56-9c6a-ea5593b4f115" x="490.41" y="588.19" width="19" height="19" transform="translate(-3.65 3.07) rotate(-0.35)"/><rect class="c9aa9901-fdc7-4a56-9c6a-ea5593b4f115" x="432.49" y="764.55" width="20" height="20" transform="translate(-4.73 2.72) rotate(-0.35)"/><rect class="007ca7e6-fff0-43e7-b783-dc5517fc5fd0" x="449.25" y="235.44" width="19" height="19" transform="translate(-1.49 2.81) rotate(-0.35)"/><rect class="c9aa9901-fdc7-4a56-9c6a-ea5593b4f115" x="608.25" y="724.47" width="20" height="20" transform="translate(-4.48 3.8) rotate(-0.35)"/><rect class="c9aa9901-fdc7-4a56-9c6a-ea5593b4f115" x="648.37" y="744.23" width="19" height="19" transform="translate(-4.6 4.04) rotate(-0.35)"/><rect class="c9aa9901-fdc7-4a56-9c6a-ea5593b4f115" x="566.97" y="352.72" width="20" height="19" transform="translate(-2.21 3.54) rotate(-0.35)"/><rect class="5b1e590a-08e5-41aa-bd87-9e701dc2c90b" x="746.61" y="782.63" width="19" height="20" transform="translate(-4.84 4.64) rotate(-0.35)"/><rect class="c9aa9901-fdc7-4a56-9c6a-ea5593b4f115" x="334.5" y="765.15" width="20" height="20" transform="translate(-4.74 2.12) rotate(-0.35)"/><rect x="648.61" y="783.23" width="19" height="20" transform="translate(-4.84 4.04) rotate(-0.35)"/><rect class="c9aa9901-fdc7-4a56-9c6a-ea5593b4f115" x="469.81" y="490.31" width="20" height="19" transform="translate(-3.05 2.95) rotate(-0.35)"/><rect x="275.86" y="824.51" width="20" height="20" transform="translate(-5.1 1.77) rotate(-0.35)"/><rect class="f4a85afe-14ae-43a1-aa7f-b3f1bd370740" x="627.53" y="606.35" width="20" height="20" transform="translate(-3.76 3.91) rotate(-0.35)"/><rect class="c9aa9901-fdc7-4a56-9c6a-ea5593b4f115" x="508.21" y="392.08" width="20" height="19" transform="translate(-2.45 3.18) rotate(-0.35)"/><rect class="c9aa9901-fdc7-4a56-9c6a-ea5593b4f115" x="452.73" y="804.43" width="19" height="19" transform="translate(-4.97 2.84) rotate(-0.35)"/><rect class="5b1e590a-08e5-41aa-bd87-9e701dc2c90b" x="647.17" y="548.23" width="19" height="19" transform="translate(-3.4 4.03) rotate(-0.35)"/><rect class="141ac6eb-717c-45cc-8784-88aa55e01655" x="625.13" y="214.36" width="20" height="20" transform="translate(-1.36 3.89) rotate(-0.35)"/><rect class="c9aa9901-fdc7-4a56-9c6a-ea5593b4f115" x="354.98" y="844.03" width="19" height="19" transform="translate(-5.22 2.25) rotate(-0.35)"/><rect class="5b1e590a-08e5-41aa-bd87-9e701dc2c90b" x="746.85" y="821.63" width="19" height="20" transform="translate(-5.08 4.64) rotate(-0.35)"/><rect x="550.85" y="822.83" width="19" height="20" transform="translate(-5.09 3.45) rotate(-0.35)"/><rect x="628.61" y="783.35" width="20" height="20" transform="translate(-4.84 3.92) rotate(-0.35)"/><rect class="c9aa9901-fdc7-4a56-9c6a-ea5593b4f115" x="354.49" y="765.03" width="19" height="20" transform="translate(-4.74 2.24) rotate(-0.35)"/><rect class="c9aa9901-fdc7-4a56-9c6a-ea5593b4f115" x="667.01" y="685.11" width="20" height="19" transform="translate(-4.24 4.16) rotate(-0.35)"/><rect class="c9aa9901-fdc7-4a56-9c6a-ea5593b4f115" x="391.58" y="451.79" width="19" height="19" transform="translate(-2.82 2.46) rotate(-0.35)"/><rect x="510.25" y="725.07" width="20" height="20" transform="translate(-4.49 3.2) rotate(-0.35)"/><rect class="c9aa9901-fdc7-4a56-9c6a-ea5593b4f115" x="432.37" y="745.55" width="20" height="19" transform="translate(-4.61 2.72) rotate(-0.35)"/><rect class="c9aa9901-fdc7-4a56-9c6a-ea5593b4f115" x="469.45" y="431.31" width="20" height="20" transform="translate(-2.69 2.94) rotate(-0.35)"/><rect x="311.25" y="236.28" width="20" height="19" transform="translate(-1.5 1.97) rotate(-0.35)"/><rect class="2c539ac3-61e3-4fc6-9343-f163f32054cd" x="687.73" y="802.99" width="19" height="19" transform="translate(-4.96 4.28) rotate(-0.35)"/><rect x="566.61" y="293.72" width="20" height="19" transform="translate(-1.84 3.53) rotate(-0.35)"/><rect class="c9aa9901-fdc7-4a56-9c6a-ea5593b4f115" x="373.13" y="705.91" width="20" height="20" transform="translate(-4.37 2.36) rotate(-0.35)"/><rect class="c9aa9901-fdc7-4a56-9c6a-ea5593b4f115" x="432.25" y="725.55" width="20" height="20" transform="translate(-4.49 2.72) rotate(-0.35)"/><rect class="c9aa9901-fdc7-4a56-9c6a-ea5593b4f115" x="608.37" y="744.47" width="20" height="19" transform="translate(-4.6 3.8) rotate(-0.35)"/><rect class="2c539ac3-61e3-4fc6-9343-f163f32054cd" x="687.85" y="821.99" width="19" height="20" transform="translate(-5.08 4.28) rotate(-0.35)"/><rect class="9d7385b8-7109-4460-b370-0fb011bd7be3" x="547.61" y="293.84" width="19" height="19" transform="translate(-1.85 3.42) rotate(-0.35)"/><rect x="664.13" y="214.12" width="20" height="20" transform="translate(-1.36 4.13) rotate(-0.35)"/><rect x="510.13" y="705.07" width="20" height="20" transform="translate(-4.37 3.2) rotate(-0.35)"/><rect class="5b1e590a-08e5-41aa-bd87-9e701dc2c90b" x="646.33" y="410.23" width="19" height="20" transform="translate(-2.56 4.02) rotate(-0.35)"/><rect class="c9aa9901-fdc7-4a56-9c6a-ea5593b4f115" x="569.37" y="744.71" width="20" height="19" transform="translate(-4.61 3.56) rotate(-0.35)"/><rect x="765.61" y="782.51" width="20" height="20" transform="translate(-4.84 4.76) rotate(-0.35)"/><rect x="508.09" y="372.08" width="20" height="20" transform="translate(-2.33 3.18) rotate(-0.35)"/><rect x="646.09" y="371.24" width="19" height="20" transform="translate(-2.32 4.02) rotate(-0.35)"/><rect class="28ffd7d7-ff05-4c7c-a9ce-b304b691203f" x="370.98" y="353.92" width="20" height="19" transform="translate(-2.22 2.34) rotate(-0.35)"/><rect class="2c539ac3-61e3-4fc6-9343-f163f32054cd" x="687.61" y="782.99" width="19" height="20" transform="translate(-4.84 4.28) rotate(-0.35)"/><rect class="9d7385b8-7109-4460-b370-0fb011bd7be3" x="507.85" y="333.08" width="20" height="20" transform="translate(-2.09 3.18) rotate(-0.35)"/><rect x="332.1" y="373.15" width="20" height="20" transform="translate(-2.34 2.1) rotate(-0.35)"/><rect x="569.85" y="822.71" width="20" height="20" transform="translate(-5.09 3.56) rotate(-0.35)"/><rect x="645.73" y="312.24" width="19" height="20" transform="translate(-1.96 4.02) rotate(-0.35)"/><rect x="645.25" y="234.24" width="19" height="19" transform="translate(-1.48 4.01) rotate(-0.35)"/><rect class="c9aa9901-fdc7-4a56-9c6a-ea5593b4f115" x="550.13" y="704.83" width="19" height="20" transform="translate(-4.36 3.44) rotate(-0.35)"/><rect class="c9aa9901-fdc7-4a56-9c6a-ea5593b4f115" x="451.05" y="529.43" width="19" height="20" transform="translate(-3.29 2.83) rotate(-0.35)"/><rect class="c9aa9901-fdc7-4a56-9c6a-ea5593b4f115" x="509.89" y="666.07" width="20" height="20" transform="translate(-4.13 3.19) rotate(-0.35)"/><rect class="2c539ac3-61e3-4fc6-9343-f163f32054cd" x="354.62" y="785.03" width="19" height="20" transform="translate(-4.86 2.24) rotate(-0.35)"/><rect class="c9aa9901-fdc7-4a56-9c6a-ea5593b4f115" x="471.13" y="705.31" width="20" height="20" transform="translate(-4.37 2.96) rotate(-0.35)"/><rect class="5b1e590a-08e5-41aa-bd87-9e701dc2c90b" x="645.13" y="214.24" width="19" height="20" transform="translate(-1.36 4.01) rotate(-0.35)"/><rect class="c9aa9901-fdc7-4a56-9c6a-ea5593b4f115" x="491.25" y="725.19" width="19" height="20" transform="translate(-4.49 3.08) rotate(-0.35)"/><rect class="c9aa9901-fdc7-4a56-9c6a-ea5593b4f115" x="431.17" y="549.55" width="20" height="19" transform="translate(-3.41 2.71) rotate(-0.35)"/><rect class="c9aa9901-fdc7-4a56-9c6a-ea5593b4f115" x="569.61" y="783.71" width="20" height="20" transform="translate(-4.85 3.56) rotate(-0.35)"/><rect class="c9aa9901-fdc7-4a56-9c6a-ea5593b4f115" x="489.45" y="431.2" width="19" height="20" transform="translate(-2.69 3.06) rotate(-0.35)"/><rect x="351.62" y="295.04" width="19" height="19" transform="translate(-1.86 2.22) rotate(-0.35)"/><rect class="c9aa9901-fdc7-4a56-9c6a-ea5593b4f115" x="391.81" y="490.79" width="19" height="19" transform="translate(-3.05 2.47) rotate(-0.35)"/><rect x="334.01" y="687.15" width="20" height="19" transform="translate(-4.26 2.12) rotate(-0.35)"/><rect class="c9aa9901-fdc7-4a56-9c6a-ea5593b4f115" x="586.61" y="293.6" width="19" height="19" transform="translate(-1.84 3.65) rotate(-0.35)"/><rect x="352.7" y="471.03" width="19" height="20" transform="translate(-2.94 2.23) rotate(-0.35)"/><rect class="74abbe3f-1e2b-4587-882b-512f3208ebda" x="429.73" y="313.56" width="20" height="20" transform="translate(-1.97 2.7) rotate(-0.35)"/><rect class="f4a85afe-14ae-43a1-aa7f-b3f1bd370740" x="667.37" y="744.11" width="20" height="19" transform="translate(-4.6 4.16) rotate(-0.35)"/><rect class="c9aa9901-fdc7-4a56-9c6a-ea5593b4f115" x="331.5" y="275.16" width="20" height="20" transform="translate(-1.74 2.1) rotate(-0.35)"/><rect class="007ca7e6-fff0-43e7-b783-dc5517fc5fd0" x="467.89" y="176.32" width="20" height="20" transform="translate(-1.13 2.93) rotate(-0.35)"/><rect class="c9aa9901-fdc7-4a56-9c6a-ea5593b4f115" x="451.29" y="568.43" width="19" height="20" transform="translate(-3.53 2.83) rotate(-0.35)"/><rect class="007ca7e6-fff0-43e7-b783-dc5517fc5fd0" x="449.13" y="215.44" width="19" height="20" transform="translate(-1.37 2.81) rotate(-0.35)"/><rect class="f4a85afe-14ae-43a1-aa7f-b3f1bd370740" x="627.05" y="528.35" width="20" height="20" transform="translate(-3.28 3.91) rotate(-0.35)"/><rect class="c9aa9901-fdc7-4a56-9c6a-ea5593b4f115" x="529.41" y="587.95" width="20" height="19" transform="translate(-3.65 3.31) rotate(-0.35)"/><rect x="409.49" y="274.68" width="20" height="20" transform="translate(-1.73 2.57) rotate(-0.35)"/><rect class="28ffd7d7-ff05-4c7c-a9ce-b304b691203f" x="352.1" y="373.03" width="19" height="20" transform="translate(-2.34 2.22) rotate(-0.35)"/><rect class="2c539ac3-61e3-4fc6-9343-f163f32054cd" x="334.74" y="805.15" width="20" height="19" transform="translate(-4.98 2.13) rotate(-0.35)"/><rect class="c9aa9901-fdc7-4a56-9c6a-ea5593b4f115" x="606.21" y="391.48" width="20" height="19" transform="translate(-2.44 3.78) rotate(-0.35)"/><rect class="2c539ac3-61e3-4fc6-9343-f163f32054cd" x="726.61" y="782.75" width="20" height="20" transform="translate(-4.84 4.52) rotate(-0.35)"/><rect x="487.53" y="117.2" width="19" height="20" transform="translate(-0.77 3.04) rotate(-0.35)"/><rect class="007ca7e6-fff0-43e7-b783-dc5517fc5fd0" x="467.65" y="137.32" width="20" height="19" transform="translate(-0.89 2.93) rotate(-0.35)"/><rect class="007ca7e6-fff0-43e7-b783-dc5517fc5fd0" x="507.25" y="235.08" width="20" height="19" transform="translate(-1.49 3.17) rotate(-0.35)"/><rect x="393.01" y="686.79" width="19" height="19" transform="translate(-4.25 2.48) rotate(-0.35)"/><rect class="c9aa9901-fdc7-4a56-9c6a-ea5593b4f115" x="547.97" y="352.84" width="19" height="19" transform="translate(-2.21 3.42) rotate(-0.35)"/><rect x="448.53" y="117.44" width="19" height="20" transform="translate(-0.77 2.81) rotate(-0.35)"/><rect class="c9aa9901-fdc7-4a56-9c6a-ea5593b4f115" x="373.26" y="725.91" width="20" height="20" transform="translate(-4.5 2.36) rotate(-0.35)"/><rect x="428.89" y="176.56" width="20" height="20" transform="translate(-1.13 2.69) rotate(-0.35)"/><rect class="74abbe3f-1e2b-4587-882b-512f3208ebda" x="488.61" y="294.2" width="19" height="19" transform="translate(-1.85 3.05) rotate(-0.35)"/><rect class="c9aa9901-fdc7-4a56-9c6a-ea5593b4f115" x="589.61" y="783.59" width="19" height="20" transform="translate(-4.85 3.68) rotate(-0.35)"/><rect class="c9aa9901-fdc7-4a56-9c6a-ea5593b4f115" x="508.57" y="451.08" width="20" height="19" transform="translate(-2.81 3.18) rotate(-0.35)"/><rect class="c9aa9901-fdc7-4a56-9c6a-ea5593b4f115" x="490.65" y="627.19" width="19" height="20" transform="translate(-3.89 3.07) rotate(-0.35)"/><rect class="28ffd7d7-ff05-4c7c-a9ce-b304b691203f" x="409.73" y="313.68" width="20" height="20" transform="translate(-1.97 2.57) rotate(-0.35)"/><rect class="c9aa9901-fdc7-4a56-9c6a-ea5593b4f115" x="549.89" y="665.83" width="19" height="20" transform="translate(-4.13 3.44) rotate(-0.35)"/><rect class="c9aa9901-fdc7-4a56-9c6a-ea5593b4f115" x="393.49" y="764.79" width="19" height="20" transform="translate(-4.73 2.48) rotate(-0.35)"/><rect x="568.53" y="606.71" width="20" height="20" transform="translate(-3.76 3.55) rotate(-0.35)"/><rect class="c9aa9901-fdc7-4a56-9c6a-ea5593b4f115" x="508.93" y="509.07" width="20" height="20" transform="translate(-3.17 3.19) rotate(-0.35)"/><rect class="2c539ac3-61e3-4fc6-9343-f163f32054cd" x="354.86" y="824.03" width="19" height="20" transform="translate(-5.1 2.25) rotate(-0.35)"/><rect class="007ca7e6-fff0-43e7-b783-dc5517fc5fd0" x="452.97" y="843.43" width="19" height="19" transform="translate(-5.21 2.85) rotate(-0.35)"/><rect class="c9aa9901-fdc7-4a56-9c6a-ea5593b4f115" x="608.01" y="685.47" width="20" height="19" transform="translate(-4.24 3.8) rotate(-0.35)"/></svg>