<svg id="87e67b9f-df72-4f6f-b8cd-880cb1fa250b" data-name="Layer 1" xmlns="http://www.w3.org/2000/svg" viewBox="0 0 1000 1000"><defs><style>.\35 0621f22-be78-4fb3-9b1b-9309b41c4e2d{fill:#cbcbcb;}.d4f8c3d2-a649-4819-892f-2ca8eda1c346{fill:#989898;}.\34 eb18298-9429-48ea-960e-64b2ee4d5355{fill:#666;}.e8430e43-8e5b-45a4-965a-0e3fc9252946{fill:#fefefe;}.f5db9a68-e5b7-496f-94e2-d673c9734ffa{fill:#036;}.\30 6bacaf3-c6cf-401f-b202-52e63b3fde8b{fill:#871909;}.e2b72363-079f-455e-a9ac-2de63b84de80{fill:#b41d00;}.\38 394a51b-62f7-4d29-8b08-7906b0b9b700{fill:#33fefe;}.\37 c5688d9-c95c-423c-befc-a308a8dc4a1b{fill:#fd4517;}.\31 d48ba64-a3d3-40b4-8a75-e20ecb290de4{fill:#fecbfe;}</style></defs><title>unigotchi_desgin</title><path d="M25,589.19l29.8,0.12,1.27,1.47c2.15,4.3,1.74,8.95,1.75,13.51q0.09,44.23,0,88.45c0,5.18.66,10.56-2.65,15.21-10.05,4.68-20.11,4.81-30.16,0V589.19Z"/><path d="M796.88,767.32q0-14.87.06-29.74l1.37-1.23c9.61-3.12,19.5-1.17,29.26-1.59,25.91-.59,51.82-0.23,77.72-0.19,3.61,0,7.25.23,10.32,2.57,4.73,10.06,4.83,20.12,0,30.18H796.88Z"/><path d="M945.2,589.31l29.8-.12V707.94c-10,4.83-20,4.53-30,.17-2.47-3-2.72-6.64-2.74-10.25q-0.28-49.24,0-98.47a18.06,18.06,0,0,1,1.68-8.62Z"/><path d="M203.07,737.57l0.06,29.74H84.38c-4.83-10-4.55-20-.16-30,3.31-2.68,7.31-2.76,11.24-2.76,25.61,0,51.23-.43,76.84.2,9.8,0.43,19.74-1.54,29.4,1.58Z"/><path d="M410.8,292.47c17.72-.05,35.44-0.31,53.16,0,5.28,0.09,6.57-1.56,6.47-6.61-0.31-14.76.24-29.54-.27-44.3-0.23-6.59,1.06-9.45,8.34-8.76s14.42,0.07,21.64,0c0,17.4.22,34.8-.3,52.18-0.19,6.26,1.69,7.54,7.64,7.48,27.24-.29,54.48,0,81.72,0l1.21,1.41c1.94,9.71,3.64,19.42-1.53,28.77-9.7,4.46-19.94,1.8-29.95,2.28q-58.82.63-117.63,0c-10-.45-20.24,2.07-30-2.12-5.54-9.33-3.63-19.13-1.74-28.92Z"/><path d="M885.83,351.81c7.22,0,14.47.27,21.66-.22,6-.41,8.37.9,8.31,7.77-0.38,47-.26,93.92-0.3,140.88l-1.42,1.23c-9.83,1.88-19.68,3.94-29-1.85-2.42-3.84-2.24-8.18-2.25-12.44q-0.1-61.16,0-122.32c0-3.93-.15-7.92,1.74-11.59Z"/><path d="M648.59,262.77c-0.05-7.56.4-15.16-.3-22.66-0.62-6.62,2.21-7.31,7.82-7.28q66.55,0.32,133.11,0c5.61,0,8.43.67,7.82,7.28-0.7,7.5-.25,15.1-0.3,22.66L795.26,264c-4,2-8.31,1.72-12.55,1.72q-60.05.08-120.1,0c-4.24,0-8.57.29-12.56-1.71Z"/><path d="M915.51,500.24c7.54,0,15.12.42,22.6-.26,6.49-.58,7.4,2,7.34,7.73-0.32,27.2-.2,54.4-0.24,81.6l0.23-.24c-8.15,5.39-17.06,3.44-25.76,2.39-4.61-.55-6.64-4.29-6.78-8.5q-1.25-38.39,0-76.8a10.34,10.34,0,0,1,2.84-6.16Z"/><path d="M856.11,292.47c7.85,0,15.72.24,23.54-.27,5.39-.35,6.47,1.7,6.39,6.63-0.3,17.66-.18,35.32-0.21,53l0.23-.24c-8.47,5.37-17.62,3.5-26.56,2.14-4.6-.7-5.77-4.93-6.08-9a149.59,149.59,0,0,1-.07-21.5c0.43-9.78-1.49-19.69,1.53-29.34Z"/><path d="M589.2,292.47c0-7.85.26-15.73-.26-23.55-0.35-5.4,1.71-6.47,6.64-6.39,17.67,0.31,35.34.19,53,.24l-0.29-.27c5.2,9.37,3.35,19.13,1.58,28.89a6.1,6.1,0,0,1-2.72,2.58c-17.3,2.9-34.69,1.22-52.06,1-2.37,0-4.37-1.3-6.17-2.8Z"/><path d="M796.72,262.77c17.67,0,35.34.07,53-.24,4.93-.09,7,1,6.64,6.39-0.51,7.82-.21,15.7-0.26,23.55l0.27-.29c-1.78,1.5-3.76,2.75-6.12,2.78-17.22.26-34.46,1.69-51.63-.83a6.79,6.79,0,0,1-2.92-2.38c-2.34-9.87-3.88-19.72,1.3-29.27Z"/><path d="M84.49,500.24c0-47,.09-93.92-0.3-140.88-0.06-6.88,2.28-8.18,8.31-7.77,7.19,0.49,14.44.19,21.66,0.22l1.27,1.47c2.16,4.3,1.75,9,1.76,13.53q0.08,59.09,0,118.19c0,4.89.48,9.9-2.1,14.44-9.34,6.14-19.27,3.89-29.18,2.06Z"/><path d="M203.28,262.77c0-7.56.4-15.16-.3-22.66-0.62-6.62,2.21-7.31,7.82-7.28q66.55,0.32,133.1,0c5.61,0,8.43.67,7.82,7.28-0.7,7.5-.25,15.1-0.3,22.66L349.94,264c-4,2-8.31,1.72-12.55,1.72q-60.05.08-120.1,0c-4.24,0-8.57.29-12.56-1.71Z"/><path d="M54.8,589.31c0-27.2.09-54.4-.24-81.6-0.07-5.71.85-8.32,7.34-7.73,7.48,0.67,15.06.22,22.6,0.26L84.25,500c3.38,3.76,3.31,8.43,3.32,13,0.07,21,.17,42,0,63-0.13,14.1-2.48,16.26-17,16.29-5.52,0-11.28.78-16-3.3Z"/><path d="M351.41,262.77c17.67,0,35.34.07,53-.24,4.93-.09,7,1,6.64,6.39-0.51,7.82-.21,15.7-0.26,23.55l0.27-.29c-1.78,1.5-3.76,2.75-6.12,2.78-17.22.26-34.46,1.69-51.63-.83a6.79,6.79,0,0,1-2.92-2.38c-2.34-9.87-3.88-19.72,1.3-29.27Z"/><path d="M143.9,292.45c0-7.85.25-15.73-.27-23.55-0.36-5.41,1.73-6.46,6.64-6.38,17.66,0.3,35.33.19,53,.24l-0.29-.27c5.3,9.25,3.24,18.94,1.73,28.61a6,6,0,0,1-2.53,2.66,208.36,208.36,0,0,1-56.88-.08Z"/><path d="M114.17,351.81c0-17.66.09-35.33-.21-53-0.08-4.95,1-7,6.4-6.62,7.82,0.51,15.69.21,23.54,0.25l-0.29-.27c5.92,9.56,2.36,20.07,3.07,30.16a203.23,203.23,0,0,1,0,21.49c-0.27,7.11-4,10.86-11.06,10.81-7.35-.05-15.06,2-21.72-3.07Z"/><path d="M648.55,589.07H351.45l-1.22-1.38A11.5,11.5,0,0,1,349,584c-3.45-24.14-.53-27.55,23.69-27.56,6.87,0,13.74,0,20.6,0,14.25-.07,14.26-0.11,14.63-14,0.12-4.54-.37-9.23,2.68-13.2a40.26,40.26,0,0,1,29.9,0c4.33,5,3.16,11.22,3.15,17,0,6.87,2.37,10.27,9.75,10.25q46.4-.15,92.8,0c7.86,0,10.34-3.59,10.2-10.84-0.1-5.49-1-11.29,2.84-16.17,9.91-4.29,19.89-3.87,29.92-.45,4.3,5.45,2.92,11.94,2.93,18,0,6.73,2.87,9.43,9.47,9.39,12.14-.06,24.3-0.29,36.44.11,10.89,0.36,13.14,2.67,13.42,13.66,0.15,5.85.95,11.84-1.6,17.48Z"/><path d="M351.45,589.07c0,8.13-.14,16.27.19,24.39,0.17,4.24-1.1,5.69-5.44,5.51-8.12-.34-16.26-0.13-24.39-0.15l-1.25-1.4c-2.05-9.81-3.69-19.61,1.37-29.09,10-3.11,20-4.24,29.74,1Z"/><path d="M321.82,618.82c0,8.12-.18,16.25.15,24.36,0.17,4.29-1.18,5.65-5.47,5.47-8.11-.33-16.24-0.13-24.36-0.15L290.84,647c-1.29-2.35-1.49-4.95-1.67-7.55-1.58-23.15,11.07-31.1,32.75-20.57Z"/><path d="M707.87,648.51c-8.12,0-16.25-.18-24.36.15-4.29.17-5.65-1.18-5.47-5.47,0.33-8.11.13-16.24,0.15-24.36l1.41-1.26c30.92-5,34.55-1.39,29.55,29.54Z"/><path d="M292.13,648.51c0,8.12-.18,16.25.15,24.36,0.17,4.29-1.18,5.65-5.47,5.47-8.11-.33-16.24-0.13-24.36-0.15l-1.18-1.29a55.3,55.3,0,0,1-.08-27.59,5.91,5.91,0,0,1,2.64-2.39c9.59-1.44,19.21-3.45,28.41,1.69Z"/><path d="M737.56,678.2c-8.12,0-16.25-.18-24.36.15-4.29.17-5.65-1.18-5.47-5.47,0.33-8.11.13-16.24,0.15-24.36l-0.1.1c9-5.11,18.56-3,28-1.82a6.52,6.52,0,0,1,2.79,2.21,51.72,51.72,0,0,1,.19,27.9Z"/><path d="M678.18,618.82c-8.13,0-16.27-.19-24.39.15-4.34.18-5.62-1.27-5.44-5.51,0.33-8.12.16-16.26,0.19-24.39l-0.23.24c10-5.17,20-4.37,30.19-.67,4,10.15,4.58,20.25-.42,30.28Z"/><path d="M767.24,707.88c-8.12,0-16.25-.18-24.36.15-4.29.17-5.65-1.18-5.47-5.47,0.33-8.11.13-16.24,0.15-24.36l-0.1.1c9-5.11,18.56-3,28-1.82a6.52,6.52,0,0,1,2.79,2.21,51.72,51.72,0,0,1,.19,27.9Z"/><path d="M232.76,707.89c0,8.12-.18,16.25.15,24.36,0.17,4.29-1.19,5.65-5.47,5.47-8.11-.33-16.24-0.13-24.36-0.15l0.1,0.1c-5.11-9-3-18.56-1.82-28a6.52,6.52,0,0,1,2.21-2.79,51.72,51.72,0,0,1,27.9-.19Z"/><path d="M796.93,737.57c-8.12,0-16.25-.18-24.36.15-4.29.17-5.65-1.18-5.47-5.47,0.33-8.11.13-16.24,0.15-24.36l-0.1.1c9.23-5.1,18.86-3.14,28.47-1.64a6,6,0,0,1,2.67,2.51c1.87,9.72,3.59,19.45-1.45,28.82Z"/><path d="M262.44,678.2c0,8.12-.18,16.25.15,24.36,0.17,4.29-1.18,5.65-5.47,5.47-8.11-.33-16.24-0.13-24.36-0.15l0.1,0.1c-5.1-9.23-3.14-18.86-1.64-28.47a6,6,0,0,1,2.51-2.67c9.72-1.87,19.45-3.59,28.82,1.45Z"/><path class="50621f22-be78-4fb3-9b1b-9309b41c4e2d" d="M54.57,589.07c7.53,0,15.1-.39,22.58.26,6.5,0.57,7.42-2.12,7.35-7.79-0.31-27.17-.2-54.35-0.24-81.53l29.92,0.24,1.24,1.42c3.49,12.18,1.12,24.64,1.65,37a202.11,202.11,0,0,1-.11,20.54q0.42,24.21,0,48.44c-0.18,11.66-2.45,13.72-14,14.24-15.55.71-15.57,0.71-15.58,16.43,0,9.23.12,18.46,0,27.69-0.1,8.59,5.31,9.27,11.81,9.27s12.25-.33,11.74-9.11c-0.06-1,0-2,0-3,0.49-16.53,1.11-17.15,17.49-17.64,11.52-.35,11.88-0.71,12.2-12.64,0.43-15.66,1.36-16.59,17.09-17,11.87-.34,12.25-0.74,12.61-12.27,0.15-4.89-.59-10,2.28-14.44,9.4-5,19.2-3.06,29-1.65a6.17,6.17,0,0,1,2.77,2.45c3.11,9.67,1.22,19.6,1.57,29.42a168.69,168.69,0,0,1,.08,19.71c-0.48,9.68-2.78,11.79-12.66,12.48-0.66,0-1.31,0-2,.07-14.41.58-14.41,0.58-14.94,14.8-0.48,12.69-2.35,14.51-15.3,14.91-13.83.42-13.83,0.42-14.39,14.42-0.52,12.79-2.55,15.05-15.1,15.19-15.77.18-31.55,0.34-47.33-.1-10-.64-20.39,2.8-29.86-3L54.77,708Q54.67,648.54,54.57,589.07Z"/><path class="d4f8c3d2-a649-4819-892f-2ca8eda1c346" d="M915.79,737.63l-89.09-.29c-4.27-4.64-3.24-10.47-3-15.83,0.39-8.14-3.06-11.09-10.95-10.71-5.41.26-11.17,1.09-16-2.81h0c-4.27-5.45-2.8-11.91-2.87-18s-2.65-8.77-8.85-8.85-12.53,1.4-18-2.87h0c-4.27-5.45-2.8-11.91-2.87-18s-2.65-8.77-8.85-8.85-12.53,1.4-18-2.87h0c-5.15-8.2-3.18-17.06-2.22-25.75a6.83,6.83,0,0,1,6.59-6.31c18.22-.82,36.5-2.84,54.62,1.19,5,5.19,3.41,11.79,3.4,17.86,0,7.17,2.9,10.42,10.05,9.88a38.07,38.07,0,0,1,4,0c13.76,0.39,15.38,2,15.75,15.4q0.1,3.46.14,6.92c0.07,4.93,2.66,7.14,7.41,7.21,1,0,2,.07,3,0.12,18.5,0.86,18.86.85,19,19,0.08,8.31,3.46,11,11.29,10.76,10.86-.33,21.75-0.17,32.62,0,4.57,0.06,9.31-.41,13.25,2.8,3.48,10.11,4.31,20.16-.7,30.07Z"/><path class="4eb18298-9429-48ea-960e-64b2ee4d5355" d="M796.82,708c6.92,0,13.87.33,20.76-.15,6.7-.47,9.67,1.56,9.11,8.75-0.53,6.88,0,13.83,0,20.75l-29.87.33Q796.82,722.83,796.82,708Z"/><path class="50621f22-be78-4fb3-9b1b-9309b41c4e2d" d="M915.87,708.1c-17.1-.05-34.2-0.36-51.29,0-6.43.12-8.43-1.91-8.49-8.39-0.18-20.66-.44-20.87-21.66-21.29-5.9-.12-8-1.77-8.06-7.87-0.07-7,3.56-16.39-2-20.55-4.51-3.39-13.25-1.47-20.1-1.3-5.44.14-7.74-1.61-7.52-7.3,0.3-7.54-.07-15.12-0.15-22.68-4.63-9.27-2.91-18.83-1.29-28.39a5.9,5.9,0,0,1,2.58-2.61c9.78-1.9,19.54-3.19,29.1,1,3.8,5.65,2.4,12.1,2.54,18.23s2.84,9.11,9,8.81c0.65,0,1.32,0,2,0,18.13,0.71,18.13.71,18.73,18.34,0.36,10.41.95,11,11.41,11.35,2.63,0.08,5.26.13,7.89,0.22,6.91,0.25,10,4,10.22,10.67,0.05,2,.11,3.95.16,5.92,0.3,12.38,1.57,13.33,13.81,12.92,6.42-.21,9.8-2.52,9.78-9.31q-0.05-17.27,0-34.55c0-6.64-3-9.71-9.58-9.43-21.26.9-20.08-4.45-20.07-22.13,0-13.49-.22-27,0.12-40.48-0.4-16-.14-32.08-0.13-48.12,0-3.27.07-6.56,1.66-9.58l1.26-1.41,29.92-.24c0,27.18.07,54.36-.24,81.53-0.06,5.68.85,8.37,7.35,7.79,7.48-.66,15-0.22,22.58-0.26q-0.1,59.47-.2,118.94l0.25-.14C935.64,712.73,925.77,712.56,915.87,708.1Z"/><path class="d4f8c3d2-a649-4819-892f-2ca8eda1c346" d="M84.13,708.1c17.1-.05,34.2-0.36,51.29,0,6.43,0.12,8.43-1.91,8.48-8.39,0.18-20.66.44-20.87,21.66-21.29,5.9-.12,8-1.76,8.06-7.87,0.07-7-3.56-16.39,2-20.55,4.51-3.39,13.25-1.47,20.1-1.3,5.44,0.14,7.74-1.61,7.52-7.3-0.3-7.54.07-15.12,0.15-22.68,2.88-2.74,6.56-2.88,10.18-2.93,12.85-.17,25.71-0.34,38.55,0,10.82,0.33,13.26,2.81,13.47,13.75,0.12,6.46,1.5,13.28-3,19.07h0c-5.45,4.27-11.91,2.8-18,2.87s-8.77,2.65-8.85,8.85,1.4,12.53-2.87,18h0c-5.45,4.27-11.91,2.8-18,2.87s-8.77,2.65-8.85,8.85,1.4,12.53-2.87,18h0c-4.78,3.89-10.55,3.07-16,2.81-7.89-.39-11.34,2.56-11,10.71,0.26,5.37,1.29,11.19-3,15.83l-89.09.29,0.17,0.17C79.61,727.94,79.81,718,84.13,708.1Z"/><path class="4eb18298-9429-48ea-960e-64b2ee4d5355" d="M173.3,737.34c0-6.92.55-13.87,0-20.75-0.55-7.19,2.41-9.22,9.11-8.75,6.89,0.48,13.83.14,20.75,0.15q0,14.84,0,29.68Z"/><path d="M84.13,708.1l0.25,29.7c-8.12-.06-16.24-0.35-24.34-0.07-4.33.15-5.58-1.28-5.44-5.51,0.26-8.11,0-16.23-.07-24.34Z"/><path d="M915.87,708.1l29.61-.23c-0.06,8.12-.34,16.24-0.07,24.34,0.14,4.23-1.1,5.66-5.44,5.51-8.1-.28-16.23,0-24.34.07Z"/><path class="50621f22-be78-4fb3-9b1b-9309b41c4e2d" d="M440.83,322.25H559.17c5.44,9.1,3.19,18.69,1.78,28.23a5.91,5.91,0,0,1-2.51,2.64c-9.66,2.88-19.54,1.13-29.33,1.45-19.29.36-38.59,0.42-57.87,0-9.74-.31-19.57,1.24-29.23-1.22a6.06,6.06,0,0,1-2.72-2.46C437.38,341.22,435.39,331.53,440.83,322.25Z"/><path class="e8430e43-8e5b-45a4-965a-0e3fc9252946" d="M351.77,292.1l59.3,0.08,0.11,29.88-1.49,1.31c-17.6,3.5-35.33,1.67-53,1.14-3.47-.1-6.7-2.08-7.16-5.76C348.4,309.77,346,300.55,351.77,292.1Z"/><path class="e8430e43-8e5b-45a4-965a-0e3fc9252946" d="M588.92,292.18l59.3-.08c5.75,8.45,3.37,17.67,2.25,26.66-0.46,3.68-3.69,5.66-7.16,5.76-17.69.52-35.42,2.38-53-1.14L588.82,322Z"/><path class="4eb18298-9429-48ea-960e-64b2ee4d5355" d="M440.83,322.25l-0.14,29.51c-8.49,5.27-17.58,3.2-26.53,2-3.22-.44-5.2-3-5.54-6.12-0.95-8.69-2.6-17.5,1.82-25.84l0.49-.16,0.26,0.44Z"/><path class="4eb18298-9429-48ea-960e-64b2ee4d5355" d="M559.31,351.76l-0.14-29.51,29.65-.21,0.27-.43,0.48,0.17c4.42,8.34,2.77,17.14,1.82,25.84-0.34,3.1-2.32,5.69-5.54,6.13C576.89,355,567.8,357,559.31,351.76Z"/><path class="50621f22-be78-4fb3-9b1b-9309b41c4e2d" d="M559.31,351.76c9.68-.94,22.6,4.24,28.18-2.34,4.83-5.7,1.69-18.17,2.08-27.64,17.13,0.07,34.27,0,51.39.31,5.41,0.1,7.86-1.51,7.56-7.26-0.4-7.56-.22-15.15-0.29-22.73l-0.09.09c3.91-3.13,8.58-3.07,13.2-3.07q61.32-.08,122.63,0c4.62,0,9.29-.06,13.2,3.07L797,292c3.92,5.16,3,11.25,2.85,17-0.2,7.08,2.61,10.07,9.77,10,11.75-.19,23.5-0.16,35.26,0,3.89,0.06,7.91-.11,11.05,2.91,0.11,8.12.44,16.24,0.23,24.35-0.11,4.29,1.28,5.67,5.53,5.5,8.11-.32,16.24-0.16,24.37-0.2q-0.12,74.34-.23,148.68l0.17-.17c-4.76,4.06-10.58,3.22-16,3-8.21-.41-11.06,3.16-10.81,11.08,0.36,11.14.14,22.3,0.06,33.45,0,3.6.07,7.23-1.34,10.67a6,6,0,0,1-2.37,2.61c-13.5,3.49-27.26,1.18-40.9,1.61-14.3.45-14.31,0.15-14.74,14.79-0.12,4.24.08,8.56-3.07,12l0.13-.13c-3.48,3.13-7.8,3.23-12.09,3.24q-47.36.14-94.72,0c-4.29,0-8.6-.05-12.22-2.93l-29.61-.12c-0.32-9.74,4.1-22.34-1.86-28.32-4.67-4.67-17.41-1.33-26.56-1.48-9.84-.16-22.51,3.42-28.75-1.38-6.6-5.09-1-18.45-2.33-28.11-3.84-5.25-2.81-11.37-2.66-17.16,0.19-7.28-3-9.88-10-9.85-6,0-12.62,1.54-17.76-3.53-2.62-4.53-2.19-9.55-2.2-14.45q-0.08-59.18,0-118.37c0-5.21-.6-10.63,3.25-15Z"/><path class="e8430e43-8e5b-45a4-965a-0e3fc9252946" d="M797.18,292.19h-149q0.08-14.85.16-29.7H797Z"/><path class="e8430e43-8e5b-45a4-965a-0e3fc9252946" d="M855.93,321.92c-16.66,0-33.34-.32-50,0.25-7.59.26-9.77-2.44-9.18-9.58,0.56-6.82.2-13.71,0.24-20.58l59.38,0.16Z"/><path class="50621f22-be78-4fb3-9b1b-9309b41c4e2d" d="M410.44,321.78c0.17,7.55.66,15.1,0.39,22.63-0.19,5.47,1.46,7.69,7.19,7.38,7.54-.4,15.11-0.06,22.67,0l-0.14-.13c3.38,3.78,3.24,8.46,3.24,13q0.09,61.54,0,123.09c0,3.93,0,7.91-2,11.5-3.3,4.07-8,3.65-12.51,3.82-14.83.57-14.85,0.53-15.35,15.85-0.13,3.9-.15,7.81-2.74,11.1-0.08,7.56-.57,15.15-0.11,22.68,0.36,5.87-1.94,7-7.28,6.92-14.8-.33-29.62.27-44.4-0.28-6.74-.25-8.4,2.05-7.94,8.28,0.53,7.2.19,14.46,0.24,21.7l-29.6.12c-3.61,2.88-7.93,2.93-12.22,2.93q-47.36.11-94.72,0c-4.29,0-8.61-.1-12.09-3.24l0.13,0.13c-4.07-4.76-3.23-10.58-3-16,0.41-8.2-3.14-11.08-11.07-10.82-11.14.36-22.3,0.14-33.45,0.06-3.6,0-7.23.07-10.67-1.34a6,6,0,0,1-2.61-2.37c-3.5-13.5-1.19-27.26-1.61-40.89-0.45-14.31-.15-14.33-14.78-14.75-4.24-.12-8.56.08-12-3.06l0.17,0.17q-0.12-74.34-.23-148.68c8.12,0,16.25-.12,24.37.2,4.26,0.17,5.65-1.22,5.53-5.5-0.22-8.11.12-16.23,0.23-24.35,3.45-3.26,7.83-2.87,12-2.93,11.42-.15,22.86-0.21,34.28,0,7.16,0.13,10-2.88,9.77-10-0.16-5.77-1.07-11.85,2.85-17l-0.17.17c3.91-3.13,8.58-3.07,13.2-3.07q61.32-.08,122.63,0c4.62,0,9.29-.06,13.2,3.07l-0.09-.09c0.11,9.48-4.05,21.55,1.55,27.73,5.77,6.37,18.05,1.72,27.47,2.07C390.66,322.27,400.55,321.85,410.44,321.78Z"/><path class="e8430e43-8e5b-45a4-965a-0e3fc9252946" d="M351.86,292.19h-149q0.08-14.85.16-29.7H351.7Z"/><path class="e8430e43-8e5b-45a4-965a-0e3fc9252946" d="M203,292c-0.49,9.66,4.25,22-2.06,28.23-5.85,5.75-18.06,1.43-27.46,1.69-9.79.27-19.6,0-29.41,0l-0.46-29.74Z"/><path class="4eb18298-9429-48ea-960e-64b2ee4d5355" d="M559.63,530.08c-0.09,7.56-.44,15.12-0.17,22.67,0.18,5.07-1.47,6.87-6.71,6.85q-52.75-.28-105.51,0c-5.24,0-6.88-1.78-6.71-6.85,0.26-7.54-.08-15.11-0.17-22.67l1.31-1.39c2.64-1.61,5.59-1.87,8.56-1.88,33.52-.14,67-0.22,100.57,0a18.35,18.35,0,0,1,5.82.94A6.56,6.56,0,0,1,559.63,530.08Z"/><path class="4eb18298-9429-48ea-960e-64b2ee4d5355" d="M411.18,530c0.22-9.71-4.36-22.27,1.9-28.31,5.73-5.52,18.14-1.22,27.61-1.52l1.21,1.33c2.13,9.38,3.35,18.73-.89,27.91l-0.64.65Z"/><path class="4eb18298-9429-48ea-960e-64b2ee4d5355" d="M559.31,500.2c0.33,0,.66,0,1,0,9.13,0.36,21.32-3.91,26.62,1.5,6.19,6.32,1.69,18.64,1.91,28.35l-29.18.06-0.64-.65c-4.24-9.18-3-18.53-.91-27.92Z"/><path class="4eb18298-9429-48ea-960e-64b2ee4d5355" d="M203.06,589.12l119,0.31-0.16,29.48c-9.66.7-22.56-4.3-28.07,2.17-4.75,5.58-1.39,18.08-1.62,27.51l-29.68,0c-0.63-9.39,3.9-21.53-1.71-27.47-6.12-6.49-18.5-1.74-28.14-2.19s-19.56-.21-29.35-0.28Q203.21,603.91,203.06,589.12Z"/><path class="4eb18298-9429-48ea-960e-64b2ee4d5355" d="M677.92,589.44l119-.31q-0.15,14.78-.3,29.56c-17,.06-33.92.37-50.88,0.07-6.39-.12-8.78,1.89-8.37,8.35,0.45,7.15.07,14.35,0.06,21.52l-29.68,0c-0.7-9.66,4.3-22.56-2.17-28.07-5.58-4.75-18.08-1.39-27.51-1.62Z"/><path class="4eb18298-9429-48ea-960e-64b2ee4d5355" d="M232.86,678.31c0.74-9.61-4.26-22,2.24-28.1,5.93-5.55,18.07-1.22,27.45-1.6q0,14.84,0,29.68Z"/><path class="4eb18298-9429-48ea-960e-64b2ee4d5355" d="M737.44,648.62c9.61,0.74,22-4.26,28.1,2.24,5.55,5.93,1.22,18.07,1.6,27.45l-29.68,0Z"/><path class="4eb18298-9429-48ea-960e-64b2ee4d5355" d="M767.13,678.3c9.61,0.74,22-4.26,28.1,2.24,5.55,5.93,1.22,18.07,1.6,27.45l-29.68,0Z"/><path class="4eb18298-9429-48ea-960e-64b2ee4d5355" d="M203.17,708c0.74-9.61-4.26-22,2.24-28.1,5.93-5.55,18.07-1.22,27.45-1.6q0,14.84,0,29.68Z"/><path class="e8430e43-8e5b-45a4-965a-0e3fc9252946" d="M173.3,589.49c0,7.24-.23,14.5.23,21.71,0.4,6.22-2.21,7.7-8,7.81-21.11.4-21.38,0.6-21.59,21.39-0.06,6.62-2.32,8.26-8.6,8.3-20.8.16-21.11,0.39-21.07,20.89,0,7.1-2.42,8.81-9.11,8.8-20.74,0-20.74.24-20.74-20.7,0-10.53.23-21.07-.09-31.59-0.17-5.66,2-7.29,7.49-7.39,7.09-.13,16.33,3.4,20.76-1.78,4.55-5.32,1.31-14.52,1.47-22,0.25-11.84.07-23.69,0.08-35.54,9.93-4.52,19.83-4.77,29.69.23l-0.14-.14c4.56,5.36,2.94,11.87,3,17.94,0.1,6.22,2.69,8.71,8.88,8.87C161.55,586.46,168.11,584.51,173.3,589.49Z"/><path class="4eb18298-9429-48ea-960e-64b2ee4d5355" d="M143.77,559.63l-29.69-.23L114,500.07c9.46,0.6,21.84-3.92,27.62,1.65,6.3,6.07,1.67,18.63,2,28.35S143.76,549.77,143.77,559.63Z"/><path class="4eb18298-9429-48ea-960e-64b2ee4d5355" d="M173.3,589.49c-7.86-.1-15.72-0.46-23.57-0.2-4.8.16-6.23-1.59-6.07-6.21,0.27-7.85,0-15.72,0-23.58,17.41,0,34.82.19,52.23-.09,5.47-.09,7.67,1.48,7.37,7.2-0.4,7.53-.06,15.11,0,22.66Z"/><path class="e8430e43-8e5b-45a4-965a-0e3fc9252946" d="M885.92,559.4c0,16.78.24,33.57-.1,50.35-0.13,6.46,1.25,9.31,8.58,9.31,21.22,0,21.22.35,21.22,21.86,0,9.87-.31,19.76.11,29.61,0.26,6.17-2.14,7.73-8,7.85-21.45.43-21.79,0.63-21.59-20.63,0.07-7.53-2.34-9.44-9.58-9.36-20.07.22-20.49-.11-20.09-19.84,0.16-8-2.49-10-10.1-9.85-19.81.32-19.82,0-19.78-20.34,0-3,.08-5.92.13-8.88,5.2-5,11.75-3,17.76-3.19,6.19-.16,8.78-2.65,8.88-8.87,0.1-6.07-1.53-12.57,3-17.94l-0.14.14C866.09,554.63,876,554.88,885.92,559.4Z"/><path class="4eb18298-9429-48ea-960e-64b2ee4d5355" d="M885.93,559.4l-29.69.23c0-17.41.19-34.82-.09-52.23-0.09-5.46,1.47-7.68,7.19-7.37,7.53,0.4,15.1.06,22.66,0Q886,529.74,885.93,559.4Z"/><path class="4eb18298-9429-48ea-960e-64b2ee4d5355" d="M856.37,559.49c-1,9.67,4.16,22.59-2.17,28.14-5.49,4.81-18.06,1.55-27.51,1.86l-29.89-.23c0.61-9.46-3.91-21.84,1.65-27.63,6.07-6.31,18.63-1.67,28.35-2S846.52,559.49,856.37,559.49Z"/><path class="4eb18298-9429-48ea-960e-64b2ee4d5355" d="M440.69,500.2q-0.07-74.29-.13-148.57l29.65,0.08c2.92,3.13,3.19,7.06,3.19,11,0,16,.36,32-0.17,48q0.46,15.28,0,30.56c0.58,16.15.44,32.31,0.12,48.45-0.22,10.89-2.75,13.3-13.71,13.51-6.46.12-13.29,1.53-19-3.09Z"/><path class="4eb18298-9429-48ea-960e-64b2ee4d5355" d="M559.44,351.62q-0.07,74.29-.13,148.57l0.09-.1c-8.21,5.26-17.16,3.5-25.84,2.19-6.25-.94-6.82-6.54-6.9-11.56-0.25-16.45-.48-32.9.09-49.34-0.27-10.19-.32-20.38,0-30.57-0.52-16-.19-32.06-0.18-48.1,0-4,.27-7.89,3.2-11Z"/><path class="e8430e43-8e5b-45a4-965a-0e3fc9252946" d="M529.79,351.7l-0.4,59.22a7.8,7.8,0,0,1-5.08,2.67,381.45,381.45,0,0,1-48.64,0,7.8,7.8,0,0,1-5.08-2.67l-0.4-59.22h59.58Z"/><path class="f5db9a68-e5b7-496f-94e2-d673c9734ffa" d="M722.16,529.82c-12.2,0-24.42-.38-36.59.15-6.35.28-7.74-1.93-7.57-7.83,0.4-14.5-.16-29,0.27-43.52,0.19-6.28-1.37-8.58-8.07-8.34-14.49.52-29-.2-43.51,0.32-6.72.24-8.15-2.08-8.06-8.34q0.5-36.59,0-73.2c-0.07-5.89,1.22-8.05,7.57-7.84,14.82,0.49,29.68-.18,44.5.31,6.35,0.21,7.72-1.94,7.57-7.84-0.39-14.83.09-29.68-.25-44.51-0.12-5.46,1.26-7.39,7.06-7.31q37.58,0.46,75.17,0c5.8-.07,7.18,1.86,7.06,7.32-0.34,14.83.15,29.68-.25,44.51-0.16,5.9,1.23,8,7.57,7.84,14.82-.49,29.68.18,44.5-0.31,6.35-.21,7.64,2,7.56,7.84q-0.46,36.59,0,73.2c0.09,6.26-1.36,8.58-8.07,8.34-14.49-.52-29,0.2-43.51-0.32-6.71-.24-8.25,2.06-8.07,8.34,0.43,14.5-.13,29,0.27,43.52,0.16,5.91-1.23,8.1-7.58,7.83C747.24,529.45,734.69,529.82,722.16,529.82Z"/><path class="06bacaf3-c6cf-401f-b202-52e63b3fde8b" d="M322,470.63c0,17.13-.3,34.27,0,51.4,0.1,5.71-1,8.06-7.44,8-25-.41-50.09-0.3-75.13-0.06-5.13,0-6.84-1.36-6.72-6.63,0.33-14.82-.3-29.67.29-44.48,0.29-7.23-2.22-8.75-8.9-8.52-14.48.49-29-.08-43.49,0.27-5.49.13-7.36-1.32-7.29-7.08q0.46-37.56,0-75.13c-0.07-5.76,1.8-7.21,7.29-7.08,14.49,0.35,29-.23,43.49.27,6.69,0.23,9.19-1.29,8.9-8.52-0.59-14.81,0-29.66-.29-44.48-0.12-5.27,1.59-6.68,6.72-6.63q38.06,0.35,76.12,0c5.52-.06,6.48,2.06,6.43,6.92-0.19,17.46,0,34.93,0,52.39,4.69,10.07,4.29,20.19.32,30.36-8.3,4.39-17.1,2.8-25.75,1.85-5.08-.56-6.81-4.56-7.19-9.1a146,146,0,0,1-.11-21.42c-0.13-6.88,0-13.78-.08-20.68-0.15-8.71-6.5-7.5-12-7.57-5.62-.07-11.71-0.78-11.75,7.82,0,6.57.1,13.14-.09,19.73-0.34,9.72,2.07,19.63-2.13,29.05-4.54,3.67-10,2.75-15.17,2.83-10.21.16-20.43-.08-30.64,0.1s-11.21,1.34-11.24,11.54c0,10.43,1,11.74,10.85,11.94,11.2,0.22,22.4,0,33.6.11,4.25,0.05,8.63-.26,12.34,2.54,4.43,7.68,2.16,16.1,2.54,24.2,0.37,7.89.24,15.81,0.07,23.71s4.68,9.06,11,8.85c6-.21,12.35.47,12.46-8.51,0.15-11.86-.12-23.72.15-35.57,0.3-12.76,2.49-15.05,15.09-15.18,6.15-.06,12.59-1.29,18.22,2.66C326.18,450.56,326.75,460.64,322,470.63Z"/><path class="e2b72363-079f-455e-a9ac-2de63b84de80" d="M321.77,410.84q0.11-14.82.23-29.64c17.41,0.06,34.83.35,52.23,0.06,5.65-.09,7.2,1.65,7.13,7.2q-0.41,37.45,0,74.91c0.06,5.56-1.48,7.3-7.14,7.2-17.41-.29-34.82,0-52.23.06q-0.11-14.82-.23-29.64c5.24-4.85,11.78-3.14,17.75-3.05,9.56,0.14,9.06-6,9.16-12.51s-0.53-11.62-9.16-11.53C333.55,414,327,415.68,321.77,410.84Z"/><path class="d4f8c3d2-a649-4819-892f-2ca8eda1c346" d="M529.45,440.56c0.08,17,.38,34.08.12,51.11-0.1,6.21,1.52,9,8.22,8.57,7.18-.5,14.41-0.13,21.62-0.14q-0.2,14.67-.41,29.34H441q-0.2-14.67-.41-29.34c7.21,0,14.44-.36,21.62.14,6.7,0.46,8.31-2.35,8.22-8.57-0.27-17,0-34.07.12-51.11a10.3,10.3,0,0,1,7.23-2.72q22.22-.63,44.44,0A10.3,10.3,0,0,1,529.45,440.56Z"/><path class="50621f22-be78-4fb3-9b1b-9309b41c4e2d" d="M529.45,440.56H470.55q0-14.82.06-29.64h58.79Q529.42,425.74,529.45,440.56Z"/><path class="8394a51b-62f7-4d29-8b08-7906b0b9b700" d="M737.17,381.37c0.11,7.58.61,15.18,0.2,22.73-0.32,5.82,1.87,7.2,7.33,7.08,15.16-.33,30.34.07,45.51-0.22,5.09-.1,6.65,1.34,6.81,6.61,0.71,23.19.9,23.18-21.81,23.18-10.22,0-20.46.31-30.67-.12-5.7-.24-7.3,1.67-7.17,7.24,0.35,14.83-.13,29.69.24,44.52,0.15,5.85-1.2,7.88-7.55,7.91-22.27.11-22.27,0.39-22.27-21.76,0-10.22-.29-20.46.12-30.67,0.22-5.58-1.47-7.39-7.16-7.25-15.16.37-30.34,0-45.51,0.21-4.87.08-6.78-1-7-6.44-0.82-23.35-1-23.34,22.65-23.34,9.89,0,19.8-.28,29.68.11,5.47,0.22,7.65-1.25,7.33-7.08-0.41-7.55.09-15.15,0.2-22.73A32.42,32.42,0,0,1,737.17,381.37Z"/><path class="e8430e43-8e5b-45a4-965a-0e3fc9252946" d="M737.17,381.37h-29c-0.11-3.94-.3-7.88-0.31-11.82,0-17.86,0-17.18,17.78-18.12,10-.53,13.47,2.3,12,12.21C736.79,369.45,737.28,375.45,737.17,381.37Z"/><path class="7c5688d9-c95c-423c-befc-a308a8dc4a1b" d="M321.77,410.84l19.69,0.23c2,0,4.46-.7,5.82.22,9,6.11,2.34,15.37,4.16,23,1,4.34-1.27,6.58-6,6.49-7.87-.15-15.75.1-23.62,0.18-6.91-.07-13.85.22-20.72-0.33s-9.27,1.67-9,8.75c0.51,14.14-.14,28.32.28,42.46,0.19,6.49-1.91,8.38-8.38,8.42-21.44.14-21.41,0.4-21.45-20.91,0-12.84-.14-25.67-0.22-38.51a35.53,35.53,0,0,1,0-29.9l0.5-29.65a33.23,33.23,0,0,1,29.15,0c0.06,0.65.12,1.3,0.19,1.95,1,9-4.08,20.94,2.17,26.15S312.39,410.84,321.77,410.84Z"/><path class="e2b72363-079f-455e-a9ac-2de63b84de80" d="M262.27,411q0,15,0,29.9c-16.79,0-33.59-.37-50.37,0-7,.17-8.92-2.27-8.93-9.06,0-20.77-.28-20.76,20.78-20.78C236.59,411.05,249.43,411,262.27,411Z"/><path class="1d48ba64-a3d3-40b4-8a75-e20ecb290de4" d="M291.92,381.31H262.77c-0.09-3.93-.25-7.86-0.25-11.8,0-17.82,0-17.16,17.77-18.07,10-.52,13.48,2.26,12,12.19C291.49,369.41,292,375.4,291.92,381.31Z"/></svg>